<svg width="151" height="44" viewBox="0 0 151 44" fill="none" xmlns="http://www.w3.org/2000/svg">
<rect width="151" height="44" rx="8" fill="#0079C8"/>
<path d="M34.7727 19.5H33.3636C33.2803 19.0947 33.1345 18.7386 32.9261 18.4318C32.7216 18.125 32.4716 17.8674 32.1761 17.6591C31.8845 17.447 31.5606 17.2879 31.2045 17.1818C30.8485 17.0758 30.4773 17.0227 30.0909 17.0227C29.3864 17.0227 28.7481 17.2008 28.1761 17.5568C27.608 17.9129 27.1553 18.4375 26.8182 19.1307C26.4848 19.8239 26.3182 20.6742 26.3182 21.6818C26.3182 22.6894 26.4848 23.5398 26.8182 24.233C27.1553 24.9261 27.608 25.4508 28.1761 25.8068C28.7481 26.1629 29.3864 26.3409 30.0909 26.3409C30.4773 26.3409 30.8485 26.2879 31.2045 26.1818C31.5606 26.0758 31.8845 25.9186 32.1761 25.7102C32.4716 25.4981 32.7216 25.2386 32.9261 24.9318C33.1345 24.6212 33.2803 24.2652 33.3636 23.8636H34.7727C34.6667 24.4583 34.4735 24.9905 34.1932 25.4602C33.9129 25.9299 33.5644 26.3295 33.1477 26.6591C32.7311 26.9848 32.2633 27.233 31.7443 27.4034C31.2292 27.5739 30.678 27.6591 30.0909 27.6591C29.0985 27.6591 28.2159 27.4167 27.4432 26.9318C26.6705 26.447 26.0625 25.7576 25.6193 24.8636C25.1761 23.9697 24.9545 22.9091 24.9545 21.6818C24.9545 20.4545 25.1761 19.3939 25.6193 18.5C26.0625 17.6061 26.6705 16.9167 27.4432 16.4318C28.2159 15.947 29.0985 15.7045 30.0909 15.7045C30.678 15.7045 31.2292 15.7898 31.7443 15.9602C32.2633 16.1307 32.7311 16.3807 33.1477 16.7102C33.5644 17.036 33.9129 17.4337 34.1932 17.9034C34.4735 18.3693 34.6667 18.9015 34.7727 19.5ZM40.4134 27.6818C39.6255 27.6818 38.9342 27.4943 38.3395 27.1193C37.7486 26.7443 37.2865 26.2197 36.9531 25.5455C36.6236 24.8712 36.4588 24.0833 36.4588 23.1818C36.4588 22.2727 36.6236 21.4792 36.9531 20.8011C37.2865 20.1231 37.7486 19.5966 38.3395 19.2216C38.9342 18.8466 39.6255 18.6591 40.4134 18.6591C41.2012 18.6591 41.8906 18.8466 42.4815 19.2216C43.0762 19.5966 43.5384 20.1231 43.8679 20.8011C44.2012 21.4792 44.3679 22.2727 44.3679 23.1818C44.3679 24.0833 44.2012 24.8712 43.8679 25.5455C43.5384 26.2197 43.0762 26.7443 42.4815 27.1193C41.8906 27.4943 41.2012 27.6818 40.4134 27.6818ZM40.4134 26.4773C41.0118 26.4773 41.5043 26.3239 41.8906 26.017C42.277 25.7102 42.563 25.3068 42.7486 24.8068C42.9342 24.3068 43.027 23.7652 43.027 23.1818C43.027 22.5985 42.9342 22.0549 42.7486 21.5511C42.563 21.0473 42.277 20.6402 41.8906 20.3295C41.5043 20.0189 41.0118 19.8636 40.4134 19.8636C39.8149 19.8636 39.3224 20.0189 38.9361 20.3295C38.5497 20.6402 38.2637 21.0473 38.0781 21.5511C37.8925 22.0549 37.7997 22.5985 37.7997 23.1818C37.7997 23.7652 37.8925 24.3068 38.0781 24.8068C38.2637 25.3068 38.5497 25.7102 38.9361 26.017C39.3224 26.3239 39.8149 26.4773 40.4134 26.4773ZM47.7557 22.25V27.5H46.4148V18.7727H47.7102V20.1364H47.8239C48.0284 19.6932 48.339 19.3371 48.7557 19.0682C49.1723 18.7955 49.7102 18.6591 50.3693 18.6591C50.9602 18.6591 51.4773 18.7803 51.9205 19.0227C52.3636 19.2614 52.7083 19.625 52.9545 20.1136C53.2008 20.5985 53.3239 21.2121 53.3239 21.9545V27.5H51.983V22.0455C51.983 21.3598 51.8049 20.8258 51.4489 20.4432C51.0928 20.0568 50.6042 19.8636 49.983 19.8636C49.5549 19.8636 49.1723 19.9564 48.8352 20.142C48.5019 20.3277 48.2386 20.5985 48.0455 20.9545C47.8523 21.3106 47.7557 21.7424 47.7557 22.25ZM59.5696 18.7727V19.9091H55.0469V18.7727H59.5696ZM56.3651 16.6818H57.706V25C57.706 25.3788 57.7609 25.6629 57.8707 25.8523C57.9844 26.0379 58.1283 26.1629 58.3026 26.2273C58.4806 26.2879 58.6681 26.3182 58.8651 26.3182C59.0128 26.3182 59.134 26.3106 59.2287 26.2955C59.3234 26.2765 59.3991 26.2614 59.456 26.25L59.7287 27.4545C59.6378 27.4886 59.5109 27.5227 59.348 27.5568C59.1851 27.5947 58.9787 27.6136 58.7287 27.6136C58.3499 27.6136 57.9787 27.5322 57.6151 27.3693C57.2552 27.2064 56.956 26.9583 56.7173 26.625C56.4825 26.2917 56.3651 25.8712 56.3651 25.3636V16.6818ZM61.5866 27.5V18.7727H62.9276V27.5H61.5866ZM62.2685 17.3182C62.0071 17.3182 61.7817 17.2292 61.5923 17.0511C61.4067 16.8731 61.3139 16.6591 61.3139 16.4091C61.3139 16.1591 61.4067 15.9451 61.5923 15.767C61.7817 15.589 62.0071 15.5 62.2685 15.5C62.5298 15.5 62.7533 15.589 62.9389 15.767C63.1283 15.9451 63.223 16.1591 63.223 16.4091C63.223 16.6591 63.1283 16.8731 62.9389 17.0511C62.7533 17.2292 62.5298 17.3182 62.2685 17.3182ZM66.7244 22.25V27.5H65.3835V18.7727H66.679V20.1364H66.7926C66.9972 19.6932 67.3078 19.3371 67.7244 19.0682C68.1411 18.7955 68.679 18.6591 69.3381 18.6591C69.929 18.6591 70.446 18.7803 70.8892 19.0227C71.3324 19.2614 71.6771 19.625 71.9233 20.1136C72.1695 20.5985 72.2926 21.2121 72.2926 21.9545V27.5H70.9517V22.0455C70.9517 21.3598 70.7737 20.8258 70.4176 20.4432C70.0616 20.0568 69.5729 19.8636 68.9517 19.8636C68.5237 19.8636 68.1411 19.9564 67.804 20.142C67.4706 20.3277 67.2074 20.5985 67.0142 20.9545C66.821 21.3106 66.7244 21.7424 66.7244 22.25ZM80.2429 23.9318V18.7727H81.5838V27.5H80.2429V26.0227H80.152C79.9474 26.4659 79.6293 26.8428 79.1974 27.1534C78.7656 27.4602 78.2202 27.6136 77.5611 27.6136C77.0156 27.6136 76.5308 27.4943 76.1065 27.2557C75.6823 27.0133 75.349 26.6496 75.1065 26.1648C74.8641 25.6761 74.7429 25.0606 74.7429 24.3182V18.7727H76.0838V24.2273C76.0838 24.8636 76.2618 25.3712 76.6179 25.75C76.9777 26.1288 77.4361 26.3182 77.9929 26.3182C78.3262 26.3182 78.6652 26.233 79.0099 26.0625C79.3584 25.892 79.6501 25.6307 79.8849 25.2784C80.1236 24.9261 80.2429 24.4773 80.2429 23.9318ZM87.6989 27.6818C86.858 27.6818 86.1326 27.4962 85.5227 27.125C84.9167 26.75 84.4489 26.2273 84.1193 25.5568C83.7936 24.8826 83.6307 24.0985 83.6307 23.2045C83.6307 22.3106 83.7936 21.5227 84.1193 20.8409C84.4489 20.1553 84.9072 19.6212 85.4943 19.2386C86.0852 18.8523 86.7746 18.6591 87.5625 18.6591C88.017 18.6591 88.4659 18.7348 88.9091 18.8864C89.3523 19.0379 89.7557 19.2841 90.1193 19.625C90.483 19.9621 90.7727 20.4091 90.9886 20.9659C91.2045 21.5227 91.3125 22.2083 91.3125 23.0227V23.5909H84.5852V22.4318H89.9489C89.9489 21.9394 89.8504 21.5 89.6534 21.1136C89.4602 20.7273 89.1837 20.4223 88.8239 20.1989C88.4678 19.9754 88.0473 19.8636 87.5625 19.8636C87.0284 19.8636 86.5663 19.9962 86.1761 20.2614C85.7898 20.5227 85.4924 20.8636 85.2841 21.2841C85.0758 21.7045 84.9716 22.1553 84.9716 22.6364V23.4091C84.9716 24.0682 85.0852 24.6269 85.3125 25.0852C85.5436 25.5398 85.8636 25.8864 86.2727 26.125C86.6818 26.3598 87.1572 26.4773 87.6989 26.4773C88.0511 26.4773 88.3693 26.428 88.6534 26.3295C88.9413 26.2273 89.1894 26.0758 89.3977 25.875C89.6061 25.6705 89.767 25.4167 89.8807 25.1136L91.1761 25.4773C91.0398 25.9167 90.8106 26.303 90.4886 26.6364C90.1667 26.9659 89.7689 27.2235 89.2955 27.4091C88.822 27.5909 88.2898 27.6818 87.6989 27.6818Z" fill="white"/>
<path d="M107.5 21C106.948 21 106.5 21.4477 106.5 22C106.5 22.5523 106.948 23 107.5 23V21ZM123.207 22.7071C123.598 22.3166 123.598 21.6834 123.207 21.2929L116.843 14.9289C116.453 14.5384 115.819 14.5384 115.429 14.9289C115.038 15.3195 115.038 15.9526 115.429 16.3431L121.086 22L115.429 27.6569C115.038 28.0474 115.038 28.6805 115.429 29.0711C115.819 29.4616 116.453 29.4616 116.843 29.0711L123.207 22.7071ZM107.5 23H122.5V21L107.5 21V23Z" fill="white"/>
</svg>
