<svg width="547" height="391" viewBox="0 0 547 391" fill="none" xmlns="http://www.w3.org/2000/svg">
<rect width="547" height="391" rx="8" fill="white"/>
<mask id="path-2-inside-1_11_7817" fill="white">
<path d="M0 16C0 8.45753 0 4.68629 2.34315 2.34315C4.68629 0 8.45753 0 16 0H531C538.542 0 542.314 0 544.657 2.34315C547 4.68629 547 8.45753 547 16V64H0V16Z"/>
</mask>
<path d="M0 16C0 8.45753 0 4.68629 2.34315 2.34315C4.68629 0 8.45753 0 16 0H531C538.542 0 542.314 0 544.657 2.34315C547 4.68629 547 8.45753 547 16V64H0V16Z" fill="white"/>
<path d="M0 0H547H0ZM547 65H0V63H547V65ZM0 64V0V64ZM547 0V64V0Z" fill="#E3E3E3" mask="url(#path-2-inside-1_11_7817)"/>
<path d="M34.6037 24.4545H37.2386V33.9574C37.2386 34.9991 36.9924 35.9152 36.5 36.706C36.0123 37.4967 35.3258 38.1146 34.4403 38.5597C33.5549 39 32.5204 39.2202 31.3366 39.2202C30.1482 39.2202 29.1113 39 28.2259 38.5597C27.3404 38.1146 26.6539 37.4967 26.1662 36.706C25.6785 35.9152 25.4347 34.9991 25.4347 33.9574V24.4545H28.0696V33.7372C28.0696 34.3433 28.2022 34.883 28.4673 35.3565C28.7372 35.83 29.116 36.2017 29.6037 36.4716C30.0914 36.7367 30.669 36.8693 31.3366 36.8693C32.0043 36.8693 32.5819 36.7367 33.0696 36.4716C33.562 36.2017 33.9408 35.83 34.206 35.3565C34.4711 34.883 34.6037 34.3433 34.6037 33.7372V24.4545ZM39.989 43.0909V28.0909H42.5174V29.8949H42.6665C42.7991 29.6297 42.9862 29.348 43.2276 29.0497C43.4691 28.7467 43.7958 28.4886 44.2077 28.2756C44.6197 28.0578 45.1452 27.9489 45.7844 27.9489C46.6272 27.9489 47.3872 28.1643 48.0643 28.5952C48.7461 29.0213 49.2859 29.6534 49.6836 30.4915C50.0861 31.3248 50.2873 32.3475 50.2873 33.5597C50.2873 34.7576 50.0908 35.7756 49.6978 36.6136C49.3048 37.4517 48.7698 38.0909 48.0927 38.5312C47.4156 38.9716 46.6486 39.1918 45.7915 39.1918C45.1665 39.1918 44.6481 39.0876 44.2362 38.8793C43.8242 38.6709 43.4928 38.42 43.2418 38.1264C42.9956 37.8281 42.8039 37.5464 42.6665 37.2812H42.56V43.0909H39.989ZM42.5103 33.5455C42.5103 34.2509 42.6097 34.8688 42.8086 35.3991C43.0122 35.9295 43.3034 36.3437 43.6822 36.642C44.0657 36.9356 44.5297 37.0824 45.0742 37.0824C45.6424 37.0824 46.1183 36.9309 46.5018 36.6278C46.8853 36.3201 47.1741 35.901 47.3683 35.3707C47.5671 34.8357 47.6665 34.2273 47.6665 33.5455C47.6665 32.8684 47.5695 32.267 47.3754 31.7415C47.1812 31.2159 46.8924 30.804 46.5089 30.5057C46.1254 30.2074 45.6471 30.0582 45.0742 30.0582C44.525 30.0582 44.0586 30.2027 43.6751 30.4915C43.2915 30.7803 43.0004 31.1851 42.8015 31.706C42.6074 32.2268 42.5103 32.84 42.5103 33.5455ZM55.06 24.4545V39H52.489V24.4545H55.06ZM62.4624 39.2131C61.397 39.2131 60.4737 38.9787 59.6925 38.5099C58.9112 38.0412 58.3052 37.3854 57.8743 36.5426C57.4482 35.6998 57.2351 34.715 57.2351 33.5881C57.2351 32.4612 57.4482 31.474 57.8743 30.6264C58.3052 29.7789 58.9112 29.1207 59.6925 28.652C60.4737 28.1832 61.397 27.9489 62.4624 27.9489C63.5277 27.9489 64.451 28.1832 65.2322 28.652C66.0135 29.1207 66.6172 29.7789 67.0433 30.6264C67.4742 31.474 67.6896 32.4612 67.6896 33.5881C67.6896 34.715 67.4742 35.6998 67.0433 36.5426C66.6172 37.3854 66.0135 38.0412 65.2322 38.5099C64.451 38.9787 63.5277 39.2131 62.4624 39.2131ZM62.4766 37.1534C63.0542 37.1534 63.5372 36.9948 63.9254 36.6776C64.3137 36.3556 64.6025 35.9247 64.7919 35.3849C64.986 34.8452 65.0831 34.2438 65.0831 33.581C65.0831 32.9134 64.986 32.3097 64.7919 31.7699C64.6025 31.2254 64.3137 30.7921 63.9254 30.4702C63.5372 30.1482 63.0542 29.9872 62.4766 29.9872C61.8847 29.9872 61.3923 30.1482 60.9993 30.4702C60.611 30.7921 60.3198 31.2254 60.1257 31.7699C59.9363 32.3097 59.8416 32.9134 59.8416 33.581C59.8416 34.2438 59.9363 34.8452 60.1257 35.3849C60.3198 35.9247 60.611 36.3556 60.9993 36.6776C61.3923 36.9948 61.8847 37.1534 62.4766 37.1534ZM73.011 39.2202C72.3197 39.2202 71.6971 39.0971 71.1431 38.8509C70.5939 38.5999 70.1583 38.2306 69.8363 37.7429C69.5191 37.2552 69.3604 36.6539 69.3604 35.9389C69.3604 35.3234 69.4741 34.8144 69.7013 34.4119C69.9286 34.0095 70.2388 33.6875 70.6317 33.446C71.0247 33.2045 71.4674 33.0223 71.9599 32.8991C72.457 32.7713 72.9708 32.679 73.5011 32.6222C74.1403 32.5559 74.6587 32.4967 75.0565 32.4446C75.4542 32.3878 75.743 32.3026 75.9229 32.1889C76.1076 32.0705 76.1999 31.8883 76.1999 31.642V31.5994C76.1999 31.0644 76.0413 30.6501 75.7241 30.3565C75.4068 30.063 74.9499 29.9162 74.3533 29.9162C73.7236 29.9162 73.2241 30.0535 72.8548 30.3281C72.4902 30.6027 72.244 30.9271 72.1161 31.3011L69.7156 30.9602C69.9049 30.2973 70.2174 29.7434 70.6531 29.2983C71.0887 28.8485 71.6213 28.5123 72.2511 28.2898C72.8808 28.0625 73.5768 27.9489 74.3391 27.9489C74.8647 27.9489 75.3879 28.0104 75.9087 28.1335C76.4296 28.2566 76.9054 28.4602 77.3363 28.7443C77.7672 29.0237 78.1128 29.4048 78.3732 29.8878C78.6384 30.3707 78.771 30.9744 78.771 31.6989V39H76.2994V37.5014H76.2141C76.0579 37.8045 75.8377 38.0885 75.5536 38.3537C75.2743 38.6141 74.9215 38.8248 74.4954 38.9858C74.074 39.142 73.5792 39.2202 73.011 39.2202ZM73.6786 37.331C74.1947 37.331 74.6422 37.2292 75.021 37.0256C75.3997 36.8172 75.6909 36.5426 75.8945 36.2017C76.1029 35.8608 76.207 35.4891 76.207 35.0866V33.8011C76.1265 33.8674 75.9892 33.929 75.7951 33.9858C75.6057 34.0426 75.3926 34.0923 75.1559 34.1349C74.9192 34.1776 74.6848 34.2154 74.4528 34.2486C74.2208 34.2817 74.0195 34.3101 73.8491 34.3338C73.4656 34.3859 73.1223 34.4711 72.8192 34.5895C72.5162 34.7079 72.2771 34.8736 72.1019 35.0866C71.9267 35.295 71.8391 35.5649 71.8391 35.8963C71.8391 36.3698 72.012 36.7273 72.3576 36.9688C72.7032 37.2102 73.1436 37.331 73.6786 37.331ZM85.4045 39.1918C84.5475 39.1918 83.7804 38.9716 83.1033 38.5312C82.4263 38.0909 81.8912 37.4517 81.4982 36.6136C81.1052 35.7756 80.9087 34.7576 80.9087 33.5597C80.9087 32.3475 81.1076 31.3248 81.5053 30.4915C81.9078 29.6534 82.4499 29.0213 83.1317 28.5952C83.8136 28.1643 84.5735 27.9489 85.4116 27.9489C86.0508 27.9489 86.5763 28.0578 86.9883 28.2756C87.4002 28.4886 87.7269 28.7467 87.9684 29.0497C88.2099 29.348 88.3969 29.6297 88.5295 29.8949H88.636V24.4545H91.2141V39H88.6857V37.2812H88.5295C88.3969 37.5464 88.2051 37.8281 87.9542 38.1264C87.7032 38.42 87.3718 38.6709 86.9599 38.8793C86.5479 39.0876 86.0295 39.1918 85.4045 39.1918ZM86.1218 37.0824C86.6663 37.0824 87.1303 36.9356 87.5138 36.642C87.8974 36.3437 88.1886 35.9295 88.3874 35.3991C88.5863 34.8688 88.6857 34.2509 88.6857 33.5455C88.6857 32.84 88.5863 32.2268 88.3874 31.706C88.1933 31.1851 87.9045 30.7803 87.521 30.4915C87.1422 30.2027 86.6758 30.0582 86.1218 30.0582C85.5489 30.0582 85.0707 30.2074 84.6871 30.5057C84.3036 30.804 84.0148 31.2159 83.8207 31.7415C83.6265 32.267 83.5295 32.8684 83.5295 33.5455C83.5295 34.2273 83.6265 34.8357 83.8207 35.3707C84.0195 35.901 84.3107 36.3201 84.6942 36.6278C85.0825 36.9309 85.5584 37.0824 86.1218 37.0824ZM99.0284 39V24.4545H108.489V26.6634H101.663V30.6122H107.999V32.821H101.663V36.7912H108.545V39H99.0284ZM113.634 32.608V39H111.063V28.0909H113.521V29.9446H113.648C113.899 29.3338 114.299 28.8485 114.849 28.4886C115.403 28.1288 116.087 27.9489 116.901 27.9489C117.654 27.9489 118.31 28.1098 118.869 28.4318C119.432 28.7538 119.868 29.2202 120.175 29.831C120.488 30.4418 120.642 31.1828 120.637 32.054V39H118.066V32.4517C118.066 31.7225 117.877 31.152 117.498 30.7401C117.124 30.3281 116.605 30.1222 115.942 30.1222C115.493 30.1222 115.093 30.2216 114.742 30.4205C114.397 30.6146 114.124 30.8963 113.925 31.2656C113.731 31.6349 113.634 32.0824 113.634 32.608ZM127.995 43.3182C127.072 43.3182 126.279 43.1927 125.616 42.9418C124.953 42.6955 124.42 42.3641 124.018 41.9474C123.615 41.5308 123.336 41.0691 123.18 40.5625L125.495 40.0014C125.599 40.2145 125.751 40.4252 125.95 40.6335C126.148 40.8466 126.416 41.0218 126.752 41.1591C127.093 41.3011 127.522 41.3722 128.038 41.3722C128.767 41.3722 129.371 41.1946 129.849 40.8395C130.327 40.4891 130.566 39.9115 130.566 39.1065V37.0398H130.438C130.306 37.3049 130.112 37.5772 129.856 37.8565C129.605 38.1359 129.271 38.3703 128.854 38.5597C128.442 38.7491 127.924 38.8438 127.299 38.8438C126.461 38.8438 125.701 38.6473 125.019 38.2543C124.342 37.8565 123.802 37.2647 123.4 36.4787C123.002 35.688 122.803 34.6984 122.803 33.5099C122.803 32.312 123.002 31.3011 123.4 30.4773C123.802 29.6487 124.344 29.0213 125.026 28.5952C125.708 28.1643 126.468 27.9489 127.306 27.9489C127.945 27.9489 128.471 28.0578 128.883 28.2756C129.299 28.4886 129.631 28.7467 129.877 29.0497C130.123 29.348 130.31 29.6297 130.438 29.8949H130.58V28.0909H133.116V39.1776C133.116 40.1103 132.893 40.8821 132.448 41.4929C132.003 42.1037 131.395 42.5606 130.623 42.8636C129.851 43.1667 128.975 43.3182 127.995 43.3182ZM128.016 36.8267C128.561 36.8267 129.025 36.6941 129.408 36.429C129.792 36.1638 130.083 35.7827 130.282 35.2855C130.481 34.7884 130.58 34.1918 130.58 33.4957C130.58 32.8092 130.481 32.2079 130.282 31.6918C130.088 31.1757 129.799 30.7756 129.415 30.4915C129.037 30.2027 128.57 30.0582 128.016 30.0582C127.443 30.0582 126.965 30.2074 126.582 30.5057C126.198 30.804 125.909 31.2135 125.715 31.7344C125.521 32.2505 125.424 32.8376 125.424 33.4957C125.424 34.1634 125.521 34.7481 125.715 35.25C125.914 35.7472 126.205 36.1354 126.589 36.4148C126.977 36.6894 127.453 36.8267 128.016 36.8267ZM138.322 24.4545V39H135.751V24.4545H138.322ZM140.966 39V28.0909H143.537V39H140.966ZM142.258 26.5426C141.851 26.5426 141.501 26.4077 141.207 26.1378C140.913 25.8632 140.767 25.5341 140.767 25.1506C140.767 24.7623 140.913 24.4332 141.207 24.1634C141.501 23.8887 141.851 23.7514 142.258 23.7514C142.67 23.7514 143.02 23.8887 143.309 24.1634C143.603 24.4332 143.75 24.7623 143.75 25.1506C143.75 25.5341 143.603 25.8632 143.309 26.1378C143.02 26.4077 142.67 26.5426 142.258 26.5426ZM154.803 30.9744L152.459 31.2301C152.393 30.9934 152.277 30.7708 152.111 30.5625C151.95 30.3542 151.732 30.1861 151.457 30.0582C151.183 29.9304 150.847 29.8665 150.449 29.8665C149.914 29.8665 149.464 29.9825 149.099 30.2145C148.74 30.4465 148.562 30.7472 148.567 31.1165C148.562 31.4337 148.678 31.6918 148.915 31.8906C149.156 32.0895 149.554 32.2528 150.108 32.3807L151.969 32.7784C153.001 33.0009 153.768 33.3537 154.27 33.8366C154.777 34.3196 155.032 34.9517 155.037 35.733C155.032 36.4195 154.831 37.0256 154.433 37.5511C154.04 38.072 153.493 38.4792 152.793 38.7727C152.092 39.0663 151.287 39.2131 150.378 39.2131C149.043 39.2131 147.968 38.9337 147.153 38.375C146.339 37.8116 145.854 37.0279 145.697 36.0241L148.205 35.7827C148.318 36.2751 148.56 36.6468 148.929 36.8977C149.298 37.1487 149.779 37.2741 150.371 37.2741C150.982 37.2741 151.472 37.1487 151.841 36.8977C152.215 36.6468 152.402 36.3366 152.402 35.9673C152.402 35.6548 152.281 35.3968 152.04 35.1932C151.803 34.9896 151.434 34.8333 150.932 34.7244L149.071 34.3338C148.025 34.116 147.25 33.7491 146.749 33.233C146.247 32.7121 145.998 32.054 146.003 31.2585C145.998 30.5862 146.18 30.0038 146.55 29.5114C146.924 29.0142 147.442 28.6307 148.105 28.3608C148.773 28.0862 149.542 27.9489 150.413 27.9489C151.692 27.9489 152.698 28.2211 153.432 28.7656C154.17 29.3101 154.627 30.0464 154.803 30.9744ZM159.728 32.608V39H157.157V24.4545H159.671V29.9446H159.799C160.055 29.3291 160.45 28.8437 160.985 28.4886C161.525 28.1288 162.211 27.9489 163.045 27.9489C163.802 27.9489 164.463 28.1075 165.026 28.4247C165.59 28.742 166.025 29.206 166.333 29.8168C166.646 30.4276 166.802 31.1733 166.802 32.054V39H164.231V32.4517C164.231 31.7178 164.041 31.1473 163.663 30.7401C163.289 30.3281 162.763 30.1222 162.086 30.1222C161.631 30.1222 161.224 30.2216 160.864 30.4205C160.509 30.6146 160.23 30.8963 160.026 31.2656C159.827 31.6349 159.728 32.0824 159.728 32.608ZM179.142 39.2131C178.053 39.2131 177.118 38.974 176.337 38.4957C175.56 38.0175 174.961 37.357 174.54 36.5142C174.123 35.6667 173.915 34.6913 173.915 33.5881C173.915 32.4801 174.128 31.5024 174.554 30.6548C174.98 29.8026 175.581 29.1397 176.358 28.6662C177.139 28.188 178.063 27.9489 179.128 27.9489C180.013 27.9489 180.797 28.1122 181.479 28.4389C182.165 28.7609 182.712 29.2178 183.119 29.8097C183.527 30.3968 183.759 31.0833 183.815 31.8693H181.358C181.259 31.3437 181.022 30.9058 180.648 30.5554C180.278 30.2003 179.784 30.0227 179.163 30.0227C178.638 30.0227 178.176 30.1648 177.778 30.4489C177.381 30.7282 177.071 31.1307 176.848 31.6562C176.63 32.1818 176.521 32.8116 176.521 33.5455C176.521 34.2888 176.63 34.928 176.848 35.4631C177.066 35.9934 177.371 36.4029 177.764 36.6918C178.162 36.9759 178.628 37.1179 179.163 37.1179C179.542 37.1179 179.881 37.0469 180.179 36.9048C180.482 36.758 180.735 36.5473 180.939 36.2727C181.143 35.9981 181.282 35.6643 181.358 35.2713H183.815C183.754 36.0431 183.527 36.7273 183.134 37.3239C182.741 37.9157 182.205 38.3797 181.528 38.7159C180.851 39.0473 180.056 39.2131 179.142 39.2131ZM190.756 39.2131C189.662 39.2131 188.718 38.9858 187.922 38.5312C187.132 38.072 186.523 37.4233 186.097 36.5852C185.671 35.7424 185.458 34.7505 185.458 33.6094C185.458 32.4872 185.671 31.5024 186.097 30.6548C186.528 29.8026 187.129 29.1397 187.901 28.6662C188.673 28.188 189.579 27.9489 190.621 27.9489C191.293 27.9489 191.928 28.0578 192.525 28.2756C193.126 28.4886 193.656 28.8201 194.115 29.2699C194.579 29.7197 194.944 30.2926 195.209 30.9886C195.474 31.6799 195.607 32.5038 195.607 33.4602V34.2486H186.665V32.5156H193.142C193.138 32.0232 193.031 31.5852 192.823 31.2017C192.614 30.8134 192.323 30.508 191.949 30.2855C191.58 30.063 191.149 29.9517 190.657 29.9517C190.131 29.9517 189.669 30.0795 189.272 30.3352C188.874 30.5862 188.564 30.9176 188.341 31.3295C188.123 31.7367 188.012 32.1842 188.007 32.6719V34.1847C188.007 34.8191 188.123 35.3636 188.355 35.8182C188.587 36.268 188.912 36.6136 189.328 36.8551C189.745 37.0919 190.233 37.2102 190.792 37.2102C191.166 37.2102 191.504 37.1581 191.807 37.054C192.11 36.9451 192.373 36.7865 192.596 36.5781C192.818 36.3698 192.986 36.1117 193.1 35.804L195.5 36.0739C195.349 36.7083 195.06 37.2623 194.634 37.7358C194.212 38.2045 193.673 38.5691 193.015 38.8295C192.356 39.0852 191.604 39.2131 190.756 39.2131ZM197.782 39V28.0909H200.275V29.9091H200.388C200.587 29.2794 200.928 28.794 201.411 28.4531C201.899 28.1075 202.455 27.9347 203.08 27.9347C203.222 27.9347 203.381 27.9418 203.556 27.956C203.736 27.9654 203.885 27.982 204.004 28.0057V30.3707C203.895 30.3329 203.722 30.2997 203.485 30.2713C203.253 30.2382 203.028 30.2216 202.81 30.2216C202.342 30.2216 201.92 30.3234 201.546 30.527C201.177 30.7259 200.886 31.0028 200.673 31.358C200.46 31.7131 200.353 32.1226 200.353 32.5866V39H197.782ZM211.745 28.0909V30.0795H205.474V28.0909H211.745ZM207.022 25.4773H209.593V35.7188C209.593 36.0644 209.645 36.3295 209.749 36.5142C209.858 36.6941 210 36.8172 210.175 36.8835C210.351 36.9498 210.545 36.983 210.758 36.983C210.919 36.983 211.066 36.9711 211.198 36.9474C211.335 36.9238 211.44 36.9025 211.511 36.8835L211.944 38.8935C211.807 38.9408 211.61 38.9929 211.354 39.0497C211.103 39.1065 210.796 39.1397 210.431 39.1491C209.787 39.1681 209.207 39.071 208.691 38.858C208.175 38.6402 207.765 38.304 207.462 37.8494C207.164 37.3949 207.017 36.8267 207.022 36.1449V25.4773ZM213.895 39V28.0909H216.466V39H213.895ZM215.188 26.5426C214.781 26.5426 214.43 26.4077 214.137 26.1378C213.843 25.8632 213.696 25.5341 213.696 25.1506C213.696 24.7623 213.843 24.4332 214.137 24.1634C214.43 23.8887 214.781 23.7514 215.188 23.7514C215.6 23.7514 215.95 23.8887 216.239 24.1634C216.533 24.4332 216.679 24.7623 216.679 25.1506C216.679 25.5341 216.533 25.8632 216.239 26.1378C215.95 26.4077 215.6 26.5426 215.188 26.5426ZM224.636 28.0909V30.0795H218.187V28.0909H224.636ZM219.799 39V27.0611C219.799 26.3272 219.951 25.7164 220.254 25.2287C220.561 24.741 220.973 24.3764 221.489 24.1349C222.005 23.8935 222.578 23.7727 223.208 23.7727C223.653 23.7727 224.049 23.8082 224.394 23.8793C224.74 23.9503 224.996 24.0142 225.161 24.071L224.65 26.0597C224.541 26.0265 224.404 25.9934 224.238 25.9602C224.072 25.9223 223.888 25.9034 223.684 25.9034C223.206 25.9034 222.867 26.0194 222.668 26.2514C222.474 26.4787 222.377 26.8054 222.377 27.2315V39H219.799ZM226.649 39V28.0909H229.22V39H226.649ZM227.942 26.5426C227.535 26.5426 227.184 26.4077 226.891 26.1378C226.597 25.8632 226.45 25.5341 226.45 25.1506C226.45 24.7623 226.597 24.4332 226.891 24.1634C227.184 23.8887 227.535 23.7514 227.942 23.7514C228.354 23.7514 228.704 23.8887 228.993 24.1634C229.286 24.4332 229.433 24.7623 229.433 25.1506C229.433 25.5341 229.286 25.8632 228.993 26.1378C228.704 26.4077 228.354 26.5426 227.942 26.5426ZM236.623 39.2131C235.533 39.2131 234.598 38.974 233.817 38.4957C233.041 38.0175 232.442 37.357 232.02 36.5142C231.604 35.6667 231.395 34.6913 231.395 33.5881C231.395 32.4801 231.608 31.5024 232.034 30.6548C232.461 29.8026 233.062 29.1397 233.838 28.6662C234.62 28.188 235.543 27.9489 236.608 27.9489C237.494 27.9489 238.277 28.1122 238.959 28.4389C239.646 28.7609 240.193 29.2178 240.6 29.8097C241.007 30.3968 241.239 31.0833 241.296 31.8693H238.838C238.739 31.3437 238.502 30.9058 238.128 30.5554C237.759 30.2003 237.264 30.0227 236.644 30.0227C236.118 30.0227 235.657 30.1648 235.259 30.4489C234.861 30.7282 234.551 31.1307 234.328 31.6562C234.111 32.1818 234.002 32.8116 234.002 33.5455C234.002 34.2888 234.111 34.928 234.328 35.4631C234.546 35.9934 234.852 36.4029 235.245 36.6918C235.642 36.9759 236.109 37.1179 236.644 37.1179C237.023 37.1179 237.361 37.0469 237.659 36.9048C237.962 36.758 238.216 36.5473 238.419 36.2727C238.623 35.9981 238.763 35.6643 238.838 35.2713H241.296C241.234 36.0431 241.007 36.7273 240.614 37.3239C240.221 37.9157 239.686 38.3797 239.009 38.7159C238.332 39.0473 237.536 39.2131 236.623 39.2131ZM246.546 39.2202C245.855 39.2202 245.232 39.0971 244.678 38.8509C244.129 38.5999 243.693 38.2306 243.371 37.7429C243.054 37.2552 242.896 36.6539 242.896 35.9389C242.896 35.3234 243.009 34.8144 243.237 34.4119C243.464 34.0095 243.774 33.6875 244.167 33.446C244.56 33.2045 245.003 33.0223 245.495 32.8991C245.992 32.7713 246.506 32.679 247.036 32.6222C247.675 32.5559 248.194 32.4967 248.592 32.4446C248.989 32.3878 249.278 32.3026 249.458 32.1889C249.643 32.0705 249.735 31.8883 249.735 31.642V31.5994C249.735 31.0644 249.576 30.6501 249.259 30.3565C248.942 30.063 248.485 29.9162 247.888 29.9162C247.259 29.9162 246.759 30.0535 246.39 30.3281C246.025 30.6027 245.779 30.9271 245.651 31.3011L243.251 30.9602C243.44 30.2973 243.753 29.7434 244.188 29.2983C244.624 28.8485 245.156 28.5123 245.786 28.2898C246.416 28.0625 247.112 27.9489 247.874 27.9489C248.4 27.9489 248.923 28.0104 249.444 28.1335C249.965 28.2566 250.441 28.4602 250.871 28.7443C251.302 29.0237 251.648 29.4048 251.908 29.8878C252.174 30.3707 252.306 30.9744 252.306 31.6989V39H249.835V37.5014H249.749C249.593 37.8045 249.373 38.0885 249.089 38.3537C248.809 38.6141 248.457 38.8248 248.031 38.9858C247.609 39.142 247.114 39.2202 246.546 39.2202ZM247.214 37.331C247.73 37.331 248.177 37.2292 248.556 37.0256C248.935 36.8172 249.226 36.5426 249.43 36.2017C249.638 35.8608 249.742 35.4891 249.742 35.0866V33.8011C249.662 33.8674 249.524 33.929 249.33 33.9858C249.141 34.0426 248.928 34.0923 248.691 34.1349C248.454 34.1776 248.22 34.2154 247.988 34.2486C247.756 34.2817 247.555 34.3101 247.384 34.3338C247.001 34.3859 246.657 34.4711 246.354 34.5895C246.051 34.7079 245.812 34.8736 245.637 35.0866C245.462 35.295 245.374 35.5649 245.374 35.8963C245.374 36.3698 245.547 36.7273 245.893 36.9688C246.238 37.2102 246.679 37.331 247.214 37.331ZM260.339 28.0909V30.0795H254.067V28.0909H260.339ZM255.616 25.4773H258.187V35.7188C258.187 36.0644 258.239 36.3295 258.343 36.5142C258.452 36.6941 258.594 36.8172 258.769 36.8835C258.944 36.9498 259.138 36.983 259.352 36.983C259.513 36.983 259.659 36.9711 259.792 36.9474C259.929 36.9238 260.033 36.9025 260.104 36.8835L260.538 38.8935C260.4 38.9408 260.204 38.9929 259.948 39.0497C259.697 39.1065 259.389 39.1397 259.025 39.1491C258.381 39.1681 257.801 39.071 257.285 38.858C256.769 38.6402 256.359 38.304 256.056 37.8494C255.758 37.3949 255.611 36.8267 255.616 36.1449V25.4773ZM267.201 39.2131C266.108 39.2131 265.163 38.9858 264.368 38.5312C263.577 38.072 262.968 37.4233 262.542 36.5852C262.116 35.7424 261.903 34.7505 261.903 33.6094C261.903 32.4872 262.116 31.5024 262.542 30.6548C262.973 29.8026 263.574 29.1397 264.346 28.6662C265.118 28.188 266.025 27.9489 267.066 27.9489C267.739 27.9489 268.373 28.0578 268.97 28.2756C269.571 28.4886 270.101 28.8201 270.561 29.2699C271.025 29.7197 271.389 30.2926 271.654 30.9886C271.92 31.6799 272.052 32.5038 272.052 33.4602V34.2486H263.11V32.5156H269.588C269.583 32.0232 269.476 31.5852 269.268 31.2017C269.06 30.8134 268.769 30.508 268.395 30.2855C268.025 30.063 267.594 29.9517 267.102 29.9517C266.576 29.9517 266.115 30.0795 265.717 30.3352C265.319 30.5862 265.009 30.9176 264.787 31.3295C264.569 31.7367 264.458 32.1842 264.453 32.6719V34.1847C264.453 34.8191 264.569 35.3636 264.801 35.8182C265.033 36.268 265.357 36.6136 265.774 36.8551C266.19 37.0919 266.678 37.2102 267.237 37.2102C267.611 37.2102 267.949 37.1581 268.252 37.054C268.556 36.9451 268.818 36.7865 269.041 36.5781C269.263 36.3698 269.431 36.1117 269.545 35.804L271.946 36.0739C271.794 36.7083 271.505 37.2623 271.079 37.7358C270.658 38.2045 270.118 38.5691 269.46 38.8295C268.802 39.0852 268.049 39.2131 267.201 39.2131Z" fill="black"/>
<path d="M25.4091 112V100.364H32.3864V101.614H26.8182V105.545H31.8636V106.795H26.8182V112H25.4091ZM37.5227 112.182C36.7348 112.182 36.0436 111.994 35.4489 111.619C34.858 111.244 34.3958 110.72 34.0625 110.045C33.733 109.371 33.5682 108.583 33.5682 107.682C33.5682 106.773 33.733 105.979 34.0625 105.301C34.3958 104.623 34.858 104.097 35.4489 103.722C36.0436 103.347 36.7348 103.159 37.5227 103.159C38.3106 103.159 39 103.347 39.5909 103.722C40.1856 104.097 40.6477 104.623 40.9773 105.301C41.3106 105.979 41.4773 106.773 41.4773 107.682C41.4773 108.583 41.3106 109.371 40.9773 110.045C40.6477 110.72 40.1856 111.244 39.5909 111.619C39 111.994 38.3106 112.182 37.5227 112.182ZM37.5227 110.977C38.1212 110.977 38.6136 110.824 39 110.517C39.3864 110.21 39.6723 109.807 39.858 109.307C40.0436 108.807 40.1364 108.265 40.1364 107.682C40.1364 107.098 40.0436 106.555 39.858 106.051C39.6723 105.547 39.3864 105.14 39 104.83C38.6136 104.519 38.1212 104.364 37.5227 104.364C36.9242 104.364 36.4318 104.519 36.0455 104.83C35.6591 105.14 35.3731 105.547 35.1875 106.051C35.0019 106.555 34.9091 107.098 34.9091 107.682C34.9091 108.265 35.0019 108.807 35.1875 109.307C35.3731 109.807 35.6591 110.21 36.0455 110.517C36.4318 110.824 36.9242 110.977 37.5227 110.977ZM43.5241 112V103.273H44.8196V104.591H44.9105C45.0696 104.159 45.3575 103.809 45.7741 103.54C46.1908 103.271 46.6605 103.136 47.1832 103.136C47.2817 103.136 47.4048 103.138 47.5526 103.142C47.7003 103.146 47.812 103.152 47.8878 103.159V104.523C47.8423 104.511 47.7382 104.494 47.5753 104.472C47.4162 104.445 47.2476 104.432 47.0696 104.432C46.6454 104.432 46.2666 104.521 45.9332 104.699C45.6037 104.873 45.3423 105.116 45.1491 105.426C44.9598 105.733 44.8651 106.083 44.8651 106.477V112H43.5241ZM49.4773 112V103.273H50.7727V104.636H50.8864C51.0682 104.17 51.3617 103.809 51.767 103.551C52.1723 103.29 52.6591 103.159 53.2273 103.159C53.803 103.159 54.2822 103.29 54.6648 103.551C55.0511 103.809 55.3523 104.17 55.5682 104.636H55.6591C55.8826 104.186 56.2178 103.828 56.6648 103.562C57.1117 103.294 57.6477 103.159 58.2727 103.159C59.053 103.159 59.6913 103.403 60.1875 103.892C60.6837 104.377 60.9318 105.133 60.9318 106.159V112H59.5909V106.159C59.5909 105.515 59.4148 105.055 59.0625 104.778C58.7102 104.502 58.2955 104.364 57.8182 104.364C57.2045 104.364 56.7292 104.549 56.392 104.92C56.0549 105.288 55.8864 105.754 55.8864 106.318V112H54.5227V106.023C54.5227 105.527 54.3617 105.127 54.0398 104.824C53.7178 104.517 53.303 104.364 52.7955 104.364C52.447 104.364 52.1212 104.456 51.8182 104.642C51.5189 104.828 51.2765 105.085 51.0909 105.415C50.9091 105.741 50.8182 106.117 50.8182 106.545V112H49.4773ZM65.9517 112.205C65.3987 112.205 64.8968 112.1 64.446 111.892C63.9953 111.68 63.6373 111.375 63.3722 110.977C63.107 110.576 62.9744 110.091 62.9744 109.523C62.9744 109.023 63.0729 108.617 63.2699 108.307C63.4669 107.992 63.7301 107.746 64.0597 107.568C64.3892 107.39 64.7528 107.258 65.1506 107.17C65.5521 107.08 65.9555 107.008 66.3608 106.955C66.8911 106.886 67.321 106.835 67.6506 106.801C67.9839 106.763 68.2263 106.701 68.3778 106.614C68.5331 106.527 68.6108 106.375 68.6108 106.159V106.114C68.6108 105.553 68.4574 105.117 68.1506 104.807C67.8475 104.496 67.3873 104.341 66.7699 104.341C66.1297 104.341 65.6278 104.481 65.2642 104.761C64.9006 105.042 64.6449 105.341 64.4972 105.659L63.2244 105.205C63.4517 104.674 63.7547 104.261 64.1335 103.966C64.5161 103.667 64.9328 103.458 65.3835 103.341C65.8381 103.22 66.285 103.159 66.7244 103.159C67.0047 103.159 67.3267 103.193 67.6903 103.261C68.0578 103.326 68.4119 103.46 68.7528 103.665C69.0975 103.869 69.3835 104.178 69.6108 104.591C69.8381 105.004 69.9517 105.557 69.9517 106.25V112H68.6108V110.818H68.5426C68.4517 111.008 68.3002 111.21 68.0881 111.426C67.8759 111.642 67.5938 111.826 67.2415 111.977C66.8892 112.129 66.4593 112.205 65.9517 112.205ZM66.1562 111C66.6866 111 67.1335 110.896 67.4972 110.688C67.8646 110.479 68.1411 110.21 68.3267 109.881C68.5161 109.551 68.6108 109.205 68.6108 108.841V107.614C68.554 107.682 68.429 107.744 68.2358 107.801C68.0464 107.854 67.8267 107.902 67.5767 107.943C67.3305 107.981 67.09 108.015 66.8551 108.045C66.6241 108.072 66.4366 108.095 66.2926 108.114C65.9441 108.159 65.6184 108.233 65.3153 108.335C65.0161 108.434 64.7737 108.583 64.5881 108.784C64.4063 108.981 64.3153 109.25 64.3153 109.591C64.3153 110.057 64.4877 110.409 64.8324 110.648C65.1809 110.883 65.6222 111 66.1562 111ZM76.1946 103.273V104.409H71.6719V103.273H76.1946ZM72.9901 101.182H74.331V109.5C74.331 109.879 74.3859 110.163 74.4957 110.352C74.6094 110.538 74.7533 110.663 74.9276 110.727C75.1056 110.788 75.2931 110.818 75.4901 110.818C75.6378 110.818 75.759 110.811 75.8537 110.795C75.9484 110.777 76.0241 110.761 76.081 110.75L76.3537 111.955C76.2628 111.989 76.1359 112.023 75.973 112.057C75.8101 112.095 75.6037 112.114 75.3537 112.114C74.9749 112.114 74.6037 112.032 74.2401 111.869C73.8802 111.706 73.581 111.458 73.3423 111.125C73.1075 110.792 72.9901 110.371 72.9901 109.864V101.182ZM85.2798 112.205C84.7268 112.205 84.2249 112.1 83.7741 111.892C83.3234 111.68 82.9654 111.375 82.7003 110.977C82.4351 110.576 82.3026 110.091 82.3026 109.523C82.3026 109.023 82.401 108.617 82.598 108.307C82.795 107.992 83.0582 107.746 83.3878 107.568C83.7173 107.39 84.081 107.258 84.4787 107.17C84.8802 107.08 85.2836 107.008 85.6889 106.955C86.2192 106.886 86.6491 106.835 86.9787 106.801C87.312 106.763 87.5545 106.701 87.706 106.614C87.8613 106.527 87.9389 106.375 87.9389 106.159V106.114C87.9389 105.553 87.7855 105.117 87.4787 104.807C87.1757 104.496 86.7154 104.341 86.098 104.341C85.4579 104.341 84.956 104.481 84.5923 104.761C84.2287 105.042 83.973 105.341 83.8253 105.659L82.5526 105.205C82.7798 104.674 83.0829 104.261 83.4616 103.966C83.8442 103.667 84.2609 103.458 84.7116 103.341C85.1662 103.22 85.6132 103.159 86.0526 103.159C86.3329 103.159 86.6548 103.193 87.0185 103.261C87.3859 103.326 87.7401 103.46 88.081 103.665C88.4257 103.869 88.7116 104.178 88.9389 104.591C89.1662 105.004 89.2798 105.557 89.2798 106.25V112H87.9389V110.818H87.8707C87.7798 111.008 87.6283 111.21 87.4162 111.426C87.2041 111.642 86.9219 111.826 86.5696 111.977C86.2173 112.129 85.7874 112.205 85.2798 112.205ZM85.4844 111C86.0147 111 86.4616 110.896 86.8253 110.688C87.1927 110.479 87.4692 110.21 87.6548 109.881C87.8442 109.551 87.9389 109.205 87.9389 108.841V107.614C87.8821 107.682 87.7571 107.744 87.5639 107.801C87.3745 107.854 87.1548 107.902 86.9048 107.943C86.6586 107.981 86.4181 108.015 86.1832 108.045C85.9522 108.072 85.7647 108.095 85.6207 108.114C85.2723 108.159 84.9465 108.233 84.6435 108.335C84.3442 108.434 84.1018 108.583 83.9162 108.784C83.7344 108.981 83.6435 109.25 83.6435 109.591C83.6435 110.057 83.8158 110.409 84.1605 110.648C84.509 110.883 84.9503 111 85.4844 111ZM95.2727 112.182C94.4545 112.182 93.75 111.989 93.1591 111.602C92.5682 111.216 92.1136 110.684 91.7955 110.006C91.4773 109.328 91.3182 108.553 91.3182 107.682C91.3182 106.795 91.4811 106.013 91.8068 105.335C92.1364 104.653 92.5947 104.121 93.1818 103.739C93.7727 103.352 94.4621 103.159 95.25 103.159C95.8636 103.159 96.4167 103.273 96.9091 103.5C97.4015 103.727 97.8049 104.045 98.1193 104.455C98.4337 104.864 98.6288 105.341 98.7045 105.886H97.3636C97.2614 105.489 97.0341 105.136 96.6818 104.83C96.3333 104.519 95.8636 104.364 95.2727 104.364C94.75 104.364 94.2917 104.5 93.8977 104.773C93.5076 105.042 93.2027 105.422 92.983 105.915C92.767 106.403 92.6591 106.977 92.6591 107.636C92.6591 108.311 92.7652 108.898 92.9773 109.398C93.1932 109.898 93.4962 110.286 93.8864 110.562C94.2803 110.839 94.7424 110.977 95.2727 110.977C95.6212 110.977 95.9375 110.917 96.2216 110.795C96.5057 110.674 96.7462 110.5 96.9432 110.273C97.1402 110.045 97.2803 109.773 97.3636 109.455H98.7045C98.6288 109.97 98.4413 110.434 98.142 110.847C97.8466 111.256 97.4545 111.581 96.9659 111.824C96.4811 112.062 95.9167 112.182 95.2727 112.182ZM104.21 112.182C103.392 112.182 102.688 111.989 102.097 111.602C101.506 111.216 101.051 110.684 100.733 110.006C100.415 109.328 100.256 108.553 100.256 107.682C100.256 106.795 100.419 106.013 100.744 105.335C101.074 104.653 101.532 104.121 102.119 103.739C102.71 103.352 103.4 103.159 104.188 103.159C104.801 103.159 105.354 103.273 105.847 103.5C106.339 103.727 106.742 104.045 107.057 104.455C107.371 104.864 107.566 105.341 107.642 105.886H106.301C106.199 105.489 105.972 105.136 105.619 104.83C105.271 104.519 104.801 104.364 104.21 104.364C103.688 104.364 103.229 104.5 102.835 104.773C102.445 105.042 102.14 105.422 101.92 105.915C101.705 106.403 101.597 106.977 101.597 107.636C101.597 108.311 101.703 108.898 101.915 109.398C102.131 109.898 102.434 110.286 102.824 110.562C103.218 110.839 103.68 110.977 104.21 110.977C104.559 110.977 104.875 110.917 105.159 110.795C105.443 110.674 105.684 110.5 105.881 110.273C106.078 110.045 106.218 109.773 106.301 109.455H107.642C107.566 109.97 107.379 110.434 107.08 110.847C106.784 111.256 106.392 111.581 105.903 111.824C105.419 112.062 104.854 112.182 104.21 112.182ZM113.261 112.182C112.42 112.182 111.695 111.996 111.085 111.625C110.479 111.25 110.011 110.727 109.682 110.057C109.356 109.383 109.193 108.598 109.193 107.705C109.193 106.811 109.356 106.023 109.682 105.341C110.011 104.655 110.47 104.121 111.057 103.739C111.648 103.352 112.337 103.159 113.125 103.159C113.58 103.159 114.028 103.235 114.472 103.386C114.915 103.538 115.318 103.784 115.682 104.125C116.045 104.462 116.335 104.909 116.551 105.466C116.767 106.023 116.875 106.708 116.875 107.523V108.091H110.148V106.932H115.511C115.511 106.439 115.413 106 115.216 105.614C115.023 105.227 114.746 104.922 114.386 104.699C114.03 104.475 113.61 104.364 113.125 104.364C112.591 104.364 112.129 104.496 111.739 104.761C111.352 105.023 111.055 105.364 110.847 105.784C110.638 106.205 110.534 106.655 110.534 107.136V107.909C110.534 108.568 110.648 109.127 110.875 109.585C111.106 110.04 111.426 110.386 111.835 110.625C112.244 110.86 112.72 110.977 113.261 110.977C113.614 110.977 113.932 110.928 114.216 110.83C114.504 110.727 114.752 110.576 114.96 110.375C115.169 110.17 115.33 109.917 115.443 109.614L116.739 109.977C116.602 110.417 116.373 110.803 116.051 111.136C115.729 111.466 115.331 111.723 114.858 111.909C114.384 112.091 113.852 112.182 113.261 112.182ZM118.915 115.273V103.273H120.21V104.659H120.369C120.468 104.508 120.604 104.314 120.778 104.08C120.956 103.841 121.21 103.629 121.54 103.443C121.873 103.254 122.324 103.159 122.892 103.159C123.627 103.159 124.275 103.343 124.835 103.71C125.396 104.078 125.833 104.598 126.148 105.273C126.462 105.947 126.619 106.742 126.619 107.659C126.619 108.583 126.462 109.384 126.148 110.062C125.833 110.737 125.398 111.259 124.841 111.631C124.284 111.998 123.642 112.182 122.915 112.182C122.354 112.182 121.905 112.089 121.568 111.903C121.231 111.714 120.972 111.5 120.79 111.261C120.608 111.019 120.468 110.818 120.369 110.659H120.256V115.273H118.915ZM120.233 107.636C120.233 108.295 120.33 108.877 120.523 109.381C120.716 109.881 120.998 110.273 121.369 110.557C121.741 110.837 122.195 110.977 122.733 110.977C123.294 110.977 123.761 110.83 124.136 110.534C124.515 110.235 124.799 109.833 124.989 109.33C125.182 108.822 125.278 108.258 125.278 107.636C125.278 107.023 125.184 106.47 124.994 105.977C124.809 105.481 124.527 105.089 124.148 104.801C123.773 104.509 123.301 104.364 122.733 104.364C122.188 104.364 121.729 104.502 121.358 104.778C120.987 105.051 120.706 105.434 120.517 105.926C120.328 106.415 120.233 106.985 120.233 107.636ZM132.46 103.273V104.409H127.938V103.273H132.46ZM129.256 101.182H130.597V109.5C130.597 109.879 130.652 110.163 130.761 110.352C130.875 110.538 131.019 110.663 131.193 110.727C131.371 110.788 131.559 110.818 131.756 110.818C131.903 110.818 132.025 110.811 132.119 110.795C132.214 110.777 132.29 110.761 132.347 110.75L132.619 111.955C132.528 111.989 132.402 112.023 132.239 112.057C132.076 112.095 131.869 112.114 131.619 112.114C131.241 112.114 130.869 112.032 130.506 111.869C130.146 111.706 129.847 111.458 129.608 111.125C129.373 110.792 129.256 110.371 129.256 109.864V101.182ZM138.043 112.182C137.202 112.182 136.476 111.996 135.866 111.625C135.26 111.25 134.793 110.727 134.463 110.057C134.137 109.383 133.974 108.598 133.974 107.705C133.974 106.811 134.137 106.023 134.463 105.341C134.793 104.655 135.251 104.121 135.838 103.739C136.429 103.352 137.118 103.159 137.906 103.159C138.361 103.159 138.81 103.235 139.253 103.386C139.696 103.538 140.099 103.784 140.463 104.125C140.827 104.462 141.116 104.909 141.332 105.466C141.548 106.023 141.656 106.708 141.656 107.523V108.091H134.929V106.932H140.293C140.293 106.439 140.194 106 139.997 105.614C139.804 105.227 139.527 104.922 139.168 104.699C138.812 104.475 138.391 104.364 137.906 104.364C137.372 104.364 136.91 104.496 136.52 104.761C136.134 105.023 135.836 105.364 135.628 105.784C135.42 106.205 135.315 106.655 135.315 107.136V107.909C135.315 108.568 135.429 109.127 135.656 109.585C135.887 110.04 136.207 110.386 136.616 110.625C137.026 110.86 137.501 110.977 138.043 110.977C138.395 110.977 138.713 110.928 138.997 110.83C139.285 110.727 139.533 110.576 139.741 110.375C139.95 110.17 140.111 109.917 140.224 109.614L141.52 109.977C141.384 110.417 141.154 110.803 140.832 111.136C140.51 111.466 140.113 111.723 139.639 111.909C139.166 112.091 138.634 112.182 138.043 112.182ZM146.991 112.182C146.264 112.182 145.622 111.998 145.065 111.631C144.509 111.259 144.073 110.737 143.759 110.062C143.444 109.384 143.287 108.583 143.287 107.659C143.287 106.742 143.444 105.947 143.759 105.273C144.073 104.598 144.51 104.078 145.071 103.71C145.632 103.343 146.279 103.159 147.014 103.159C147.582 103.159 148.031 103.254 148.361 103.443C148.694 103.629 148.948 103.841 149.122 104.08C149.3 104.314 149.438 104.508 149.537 104.659H149.651V100.364H150.991V112H149.696V110.659H149.537C149.438 110.818 149.298 111.019 149.116 111.261C148.935 111.5 148.675 111.714 148.338 111.903C148.001 112.089 147.552 112.182 146.991 112.182ZM147.173 110.977C147.711 110.977 148.166 110.837 148.537 110.557C148.908 110.273 149.19 109.881 149.384 109.381C149.577 108.877 149.673 108.295 149.673 107.636C149.673 106.985 149.579 106.415 149.389 105.926C149.2 105.434 148.92 105.051 148.548 104.778C148.177 104.502 147.719 104.364 147.173 104.364C146.605 104.364 146.132 104.509 145.753 104.801C145.378 105.089 145.096 105.481 144.906 105.977C144.721 106.47 144.628 107.023 144.628 107.636C144.628 108.258 144.723 108.822 144.912 109.33C145.105 109.833 145.389 110.235 145.764 110.534C146.143 110.83 146.613 110.977 147.173 110.977ZM158.134 112V103.273H159.474V112H158.134ZM158.815 101.818C158.554 101.818 158.329 101.729 158.139 101.551C157.954 101.373 157.861 101.159 157.861 100.909C157.861 100.659 157.954 100.445 158.139 100.267C158.329 100.089 158.554 100 158.815 100C159.077 100 159.3 100.089 159.486 100.267C159.675 100.445 159.77 100.659 159.77 100.909C159.77 101.159 159.675 101.373 159.486 101.551C159.3 101.729 159.077 101.818 158.815 101.818ZM168.112 105.227L166.908 105.568C166.832 105.367 166.72 105.172 166.572 104.983C166.429 104.79 166.232 104.631 165.982 104.506C165.732 104.381 165.411 104.318 165.021 104.318C164.487 104.318 164.042 104.441 163.686 104.688C163.334 104.93 163.158 105.239 163.158 105.614C163.158 105.947 163.279 106.21 163.521 106.403C163.764 106.597 164.143 106.758 164.658 106.886L165.953 107.205C166.733 107.394 167.315 107.684 167.697 108.074C168.08 108.46 168.271 108.958 168.271 109.568C168.271 110.068 168.127 110.515 167.839 110.909C167.555 111.303 167.158 111.614 166.646 111.841C166.135 112.068 165.54 112.182 164.862 112.182C163.972 112.182 163.235 111.989 162.652 111.602C162.069 111.216 161.699 110.652 161.544 109.909L162.817 109.591C162.938 110.061 163.167 110.413 163.504 110.648C163.845 110.883 164.29 111 164.839 111C165.464 111 165.961 110.867 166.328 110.602C166.699 110.333 166.885 110.011 166.885 109.636C166.885 109.333 166.779 109.08 166.567 108.875C166.355 108.667 166.029 108.511 165.589 108.409L164.135 108.068C163.336 107.879 162.749 107.585 162.374 107.188C162.002 106.786 161.817 106.284 161.817 105.682C161.817 105.189 161.955 104.754 162.232 104.375C162.512 103.996 162.893 103.699 163.374 103.483C163.858 103.267 164.408 103.159 165.021 103.159C165.885 103.159 166.563 103.348 167.055 103.727C167.552 104.106 167.904 104.606 168.112 105.227ZM174.79 115.273V103.273H176.085V104.659H176.244C176.343 104.508 176.479 104.314 176.653 104.08C176.831 103.841 177.085 103.629 177.415 103.443C177.748 103.254 178.199 103.159 178.767 103.159C179.502 103.159 180.15 103.343 180.71 103.71C181.271 104.078 181.708 104.598 182.023 105.273C182.337 105.947 182.494 106.742 182.494 107.659C182.494 108.583 182.337 109.384 182.023 110.062C181.708 110.737 181.273 111.259 180.716 111.631C180.159 111.998 179.517 112.182 178.79 112.182C178.229 112.182 177.78 112.089 177.443 111.903C177.106 111.714 176.847 111.5 176.665 111.261C176.483 111.019 176.343 110.818 176.244 110.659H176.131V115.273H174.79ZM176.108 107.636C176.108 108.295 176.205 108.877 176.398 109.381C176.591 109.881 176.873 110.273 177.244 110.557C177.616 110.837 178.07 110.977 178.608 110.977C179.169 110.977 179.636 110.83 180.011 110.534C180.39 110.235 180.674 109.833 180.864 109.33C181.057 108.822 181.153 108.258 181.153 107.636C181.153 107.023 181.059 106.47 180.869 105.977C180.684 105.481 180.402 105.089 180.023 104.801C179.648 104.509 179.176 104.364 178.608 104.364C178.063 104.364 177.604 104.502 177.233 104.778C176.862 105.051 176.581 105.434 176.392 105.926C176.203 106.415 176.108 106.985 176.108 107.636ZM187.835 112.182C187.108 112.182 186.466 111.998 185.909 111.631C185.352 111.259 184.917 110.737 184.602 110.062C184.288 109.384 184.131 108.583 184.131 107.659C184.131 106.742 184.288 105.947 184.602 105.273C184.917 104.598 185.354 104.078 185.915 103.71C186.475 103.343 187.123 103.159 187.858 103.159C188.426 103.159 188.875 103.254 189.205 103.443C189.538 103.629 189.792 103.841 189.966 104.08C190.144 104.314 190.282 104.508 190.381 104.659H190.494V100.364H191.835V112H190.54V110.659H190.381C190.282 110.818 190.142 111.019 189.96 111.261C189.778 111.5 189.519 111.714 189.182 111.903C188.845 112.089 188.396 112.182 187.835 112.182ZM188.017 110.977C188.555 110.977 189.009 110.837 189.381 110.557C189.752 110.273 190.034 109.881 190.227 109.381C190.42 108.877 190.517 108.295 190.517 107.636C190.517 106.985 190.422 106.415 190.233 105.926C190.044 105.434 189.763 105.051 189.392 104.778C189.021 104.502 188.563 104.364 188.017 104.364C187.449 104.364 186.975 104.509 186.597 104.801C186.222 105.089 185.939 105.481 185.75 105.977C185.564 106.47 185.472 107.023 185.472 107.636C185.472 108.258 185.566 108.822 185.756 109.33C185.949 109.833 186.233 110.235 186.608 110.534C186.987 110.83 187.456 110.977 188.017 110.977ZM198.364 103.273V104.409H193.659V103.273H198.364ZM195.068 112V102.068C195.068 101.568 195.186 101.152 195.42 100.818C195.655 100.485 195.96 100.235 196.335 100.068C196.71 99.9015 197.106 99.8182 197.523 99.8182C197.852 99.8182 198.121 99.8447 198.33 99.8977C198.538 99.9508 198.693 100 198.795 100.045L198.409 101.205C198.341 101.182 198.246 101.153 198.125 101.119C198.008 101.085 197.852 101.068 197.659 101.068C197.216 101.068 196.896 101.18 196.699 101.403C196.506 101.627 196.409 101.955 196.409 102.386V112H195.068Z" fill="#9D9D9D"/>
<mask id="path-6-inside-2_11_7817" fill="white">
<path d="M0 319H547V375C547 382.542 547 386.314 544.657 388.657C542.314 391 538.542 391 531 391H16C8.45753 391 4.68629 391 2.34315 388.657C0 386.314 0 382.542 0 375V319Z"/>
</mask>
<path d="M0 319H547V375C547 382.542 547 386.314 544.657 388.657C542.314 391 538.542 391 531 391H16C8.45753 391 4.68629 391 2.34315 388.657C0 386.314 0 382.542 0 375V319Z" fill="white"/>
<path d="M0 318H547V320H0V318ZM547 391H0H547ZM0 391V319V391ZM547 319V391V319Z" fill="#E3E3E3" mask="url(#path-6-inside-2_11_7817)"/>
</svg>
