<svg width="499" height="150" viewBox="0 0 499 150" fill="none" xmlns="http://www.w3.org/2000/svg">
<rect x="0.5" y="0.5" width="498" height="149" rx="7.5" fill="#DFEAFD" fill-opacity="0.5"/>
<rect x="0.5" y="0.5" width="498" height="149" rx="7.5" stroke="#D5D5D5" stroke-dasharray="6 6"/>
<g clip-path="url(#clip0_11_7821)">
<path d="M244.5 63C243.253 63 242.056 62.5259 241.174 61.682C240.292 60.8381 239.796 59.6935 239.796 58.5C239.796 57.3065 240.292 56.1619 241.174 55.318C242.056 54.4741 243.253 54 244.5 54C244.795 52.6872 245.657 51.5335 246.897 50.7927C247.511 50.4259 248.199 50.1716 248.922 50.0441C249.645 49.9167 250.389 49.9187 251.112 50.05C251.834 50.1813 252.52 50.4394 253.132 50.8095C253.743 51.1796 254.268 51.6544 254.675 52.2069C255.083 52.7594 255.365 53.3788 255.507 54.0296C255.649 54.6804 255.646 55.35 255.5 56H256.5C257.429 56 258.319 56.3688 258.975 57.0251C259.632 57.6815 260 58.5718 260 59.5C260 60.4283 259.632 61.3185 258.975 61.9749C258.319 62.6313 257.429 63 256.5 63H255.5" stroke="#484848" stroke-width="2" stroke-linecap="round" stroke-linejoin="round"/>
<path d="M246.5 60L249.5 57L252.5 60" stroke="#484848" stroke-width="2" stroke-linecap="round" stroke-linejoin="round"/>
<path d="M249.5 57V66" stroke="#484848" stroke-width="2" stroke-linecap="round" stroke-linejoin="round"/>
</g>
<path d="M115.773 93H114.364C114.28 92.5947 114.134 92.2386 113.926 91.9318C113.722 91.625 113.472 91.3674 113.176 91.1591C112.884 90.947 112.561 90.7879 112.205 90.6818C111.848 90.5758 111.477 90.5227 111.091 90.5227C110.386 90.5227 109.748 90.7008 109.176 91.0568C108.608 91.4129 108.155 91.9375 107.818 92.6307C107.485 93.3239 107.318 94.1742 107.318 95.1818C107.318 96.1894 107.485 97.0398 107.818 97.733C108.155 98.4261 108.608 98.9508 109.176 99.3068C109.748 99.6629 110.386 99.8409 111.091 99.8409C111.477 99.8409 111.848 99.7879 112.205 99.6818C112.561 99.5758 112.884 99.4186 113.176 99.2102C113.472 98.9981 113.722 98.7386 113.926 98.4318C114.134 98.1212 114.28 97.7652 114.364 97.3636H115.773C115.667 97.9583 115.473 98.4905 115.193 98.9602C114.913 99.4299 114.564 99.8295 114.148 100.159C113.731 100.485 113.263 100.733 112.744 100.903C112.229 101.074 111.678 101.159 111.091 101.159C110.098 101.159 109.216 100.917 108.443 100.432C107.67 99.947 107.063 99.2576 106.619 98.3636C106.176 97.4697 105.955 96.4091 105.955 95.1818C105.955 93.9545 106.176 92.8939 106.619 92C107.063 91.1061 107.67 90.4167 108.443 89.9318C109.216 89.447 110.098 89.2045 111.091 89.2045C111.678 89.2045 112.229 89.2898 112.744 89.4602C113.263 89.6307 113.731 89.8807 114.148 90.2102C114.564 90.536 114.913 90.9337 115.193 91.4034C115.473 91.8693 115.667 92.4015 115.773 93ZM119.209 89.3636V101H117.868V89.3636H119.209ZM121.665 101V92.2727H123.006V101H121.665ZM122.347 90.8182C122.085 90.8182 121.86 90.7292 121.67 90.5511C121.485 90.3731 121.392 90.1591 121.392 89.9091C121.392 89.6591 121.485 89.4451 121.67 89.267C121.86 89.089 122.085 89 122.347 89C122.608 89 122.831 89.089 123.017 89.267C123.206 89.4451 123.301 89.6591 123.301 89.9091C123.301 90.1591 123.206 90.3731 123.017 90.5511C122.831 90.7292 122.608 90.8182 122.347 90.8182ZM129.007 101.182C128.189 101.182 127.484 100.989 126.893 100.602C126.303 100.216 125.848 99.6837 125.53 99.0057C125.212 98.3277 125.053 97.553 125.053 96.6818C125.053 95.7955 125.215 95.0133 125.541 94.3352C125.871 93.6534 126.329 93.1212 126.916 92.7386C127.507 92.3523 128.196 92.1591 128.984 92.1591C129.598 92.1591 130.151 92.2727 130.643 92.5C131.136 92.7273 131.539 93.0455 131.854 93.4545C132.168 93.8636 132.363 94.3409 132.439 94.8864H131.098C130.996 94.4886 130.768 94.1364 130.416 93.8295C130.068 93.5189 129.598 93.3636 129.007 93.3636C128.484 93.3636 128.026 93.5 127.632 93.7727C127.242 94.0417 126.937 94.4223 126.717 94.9148C126.501 95.4034 126.393 95.9773 126.393 96.6364C126.393 97.3106 126.5 97.8977 126.712 98.3977C126.928 98.8977 127.231 99.286 127.621 99.5625C128.015 99.839 128.477 99.9773 129.007 99.9773C129.356 99.9773 129.672 99.9167 129.956 99.7955C130.24 99.6742 130.481 99.5 130.678 99.2727C130.875 99.0455 131.015 98.7727 131.098 98.4545H132.439C132.363 98.9697 132.176 99.4337 131.876 99.8466C131.581 100.256 131.189 100.581 130.7 100.824C130.215 101.062 129.651 101.182 129.007 101.182ZM135.649 97.8182L135.626 96.1591H135.899L139.717 92.2727H141.376L137.308 96.3864H137.195L135.649 97.8182ZM134.399 101V89.3636H135.74V101H134.399ZM139.945 101L136.536 96.6818L137.49 95.75L141.649 101H139.945ZM151.148 101.182C150.36 101.182 149.669 100.994 149.074 100.619C148.483 100.244 148.021 99.7197 147.688 99.0455C147.358 98.3712 147.193 97.5833 147.193 96.6818C147.193 95.7727 147.358 94.9792 147.688 94.3011C148.021 93.6231 148.483 93.0966 149.074 92.7216C149.669 92.3466 150.36 92.1591 151.148 92.1591C151.936 92.1591 152.625 92.3466 153.216 92.7216C153.811 93.0966 154.273 93.6231 154.602 94.3011C154.936 94.9792 155.102 95.7727 155.102 96.6818C155.102 97.5833 154.936 98.3712 154.602 99.0455C154.273 99.7197 153.811 100.244 153.216 100.619C152.625 100.994 151.936 101.182 151.148 101.182ZM151.148 99.9773C151.746 99.9773 152.239 99.8239 152.625 99.517C153.011 99.2102 153.297 98.8068 153.483 98.3068C153.669 97.8068 153.761 97.2652 153.761 96.6818C153.761 96.0985 153.669 95.5549 153.483 95.0511C153.297 94.5473 153.011 94.1402 152.625 93.8295C152.239 93.5189 151.746 93.3636 151.148 93.3636C150.549 93.3636 150.057 93.5189 149.67 93.8295C149.284 94.1402 148.998 94.5473 148.812 95.0511C148.627 95.5549 148.534 96.0985 148.534 96.6818C148.534 97.2652 148.627 97.8068 148.812 98.3068C148.998 98.8068 149.284 99.2102 149.67 99.517C150.057 99.8239 150.549 99.9773 151.148 99.9773ZM157.149 101V92.2727H158.445V93.5909H158.536C158.695 93.1591 158.982 92.8087 159.399 92.5398C159.816 92.2708 160.286 92.1364 160.808 92.1364C160.907 92.1364 161.03 92.1383 161.178 92.142C161.325 92.1458 161.437 92.1515 161.513 92.1591V93.5227C161.467 93.5114 161.363 93.4943 161.2 93.4716C161.041 93.4451 160.873 93.4318 160.695 93.4318C160.27 93.4318 159.892 93.5208 159.558 93.6989C159.229 93.8731 158.967 94.1155 158.774 94.4261C158.585 94.733 158.49 95.0833 158.49 95.4773V101H157.149ZM170.898 101.182C170.17 101.182 169.528 100.998 168.972 100.631C168.415 100.259 167.979 99.7367 167.665 99.0625C167.35 98.3845 167.193 97.5833 167.193 96.6591C167.193 95.7424 167.35 94.947 167.665 94.2727C167.979 93.5985 168.417 93.0777 168.977 92.7102C169.538 92.3428 170.186 92.1591 170.92 92.1591C171.489 92.1591 171.938 92.2538 172.267 92.4432C172.6 92.6288 172.854 92.8409 173.028 93.0795C173.206 93.3144 173.345 93.5076 173.443 93.6591H173.557V89.3636H174.898V101H173.602V99.6591H173.443C173.345 99.8182 173.205 100.019 173.023 100.261C172.841 100.5 172.581 100.714 172.244 100.903C171.907 101.089 171.458 101.182 170.898 101.182ZM171.08 99.9773C171.617 99.9773 172.072 99.8371 172.443 99.5568C172.814 99.2727 173.097 98.8807 173.29 98.3807C173.483 97.8769 173.58 97.2955 173.58 96.6364C173.58 95.9848 173.485 95.4148 173.295 94.9261C173.106 94.4337 172.826 94.0511 172.455 93.7784C172.083 93.5019 171.625 93.3636 171.08 93.3636C170.511 93.3636 170.038 93.5095 169.659 93.8011C169.284 94.089 169.002 94.4811 168.812 94.9773C168.627 95.4697 168.534 96.0227 168.534 96.6364C168.534 97.2576 168.629 97.822 168.818 98.3295C169.011 98.8333 169.295 99.2348 169.67 99.5341C170.049 99.8295 170.519 99.9773 171.08 99.9773ZM177.54 101V92.2727H178.835V93.5909H178.926C179.085 93.1591 179.373 92.8087 179.79 92.5398C180.206 92.2708 180.676 92.1364 181.199 92.1364C181.297 92.1364 181.42 92.1383 181.568 92.142C181.716 92.1458 181.828 92.1515 181.903 92.1591V93.5227C181.858 93.5114 181.754 93.4943 181.591 93.4716C181.432 93.4451 181.263 93.4318 181.085 93.4318C180.661 93.4318 180.282 93.5208 179.949 93.6989C179.619 93.8731 179.358 94.1155 179.165 94.4261C178.975 94.733 178.881 95.0833 178.881 95.4773V101H177.54ZM186.061 101.205C185.508 101.205 185.006 101.1 184.555 100.892C184.105 100.68 183.747 100.375 183.482 99.9773C183.216 99.5758 183.084 99.0909 183.084 98.5227C183.084 98.0227 183.182 97.6174 183.379 97.3068C183.576 96.9924 183.839 96.7462 184.169 96.5682C184.499 96.3902 184.862 96.2576 185.26 96.1705C185.661 96.0795 186.065 96.0076 186.47 95.9545C187 95.8864 187.43 95.8352 187.76 95.8011C188.093 95.7633 188.336 95.7008 188.487 95.6136C188.643 95.5265 188.72 95.375 188.72 95.1591V95.1136C188.72 94.553 188.567 94.1174 188.26 93.8068C187.957 93.4962 187.497 93.3409 186.879 93.3409C186.239 93.3409 185.737 93.4811 185.374 93.7614C185.01 94.0417 184.754 94.3409 184.607 94.6591L183.334 94.2045C183.561 93.6742 183.864 93.2614 184.243 92.9659C184.625 92.6667 185.042 92.4583 185.493 92.3409C185.947 92.2197 186.394 92.1591 186.834 92.1591C187.114 92.1591 187.436 92.1932 187.8 92.2614C188.167 92.3258 188.521 92.4602 188.862 92.6648C189.207 92.8693 189.493 93.178 189.72 93.5909C189.947 94.0038 190.061 94.5568 190.061 95.25V101H188.72V99.8182H188.652C188.561 100.008 188.41 100.21 188.197 100.426C187.985 100.642 187.703 100.826 187.351 100.977C186.999 101.129 186.569 101.205 186.061 101.205ZM186.266 100C186.796 100 187.243 99.8958 187.607 99.6875C187.974 99.4792 188.25 99.2102 188.436 98.8807C188.625 98.5511 188.72 98.2045 188.72 97.8409V96.6136C188.663 96.6818 188.538 96.7443 188.345 96.8011C188.156 96.8542 187.936 96.9015 187.686 96.9432C187.44 96.9811 187.199 97.0152 186.964 97.0455C186.733 97.072 186.546 97.0947 186.402 97.1136C186.054 97.1591 185.728 97.233 185.425 97.3352C185.125 97.4337 184.883 97.5833 184.697 97.7841C184.516 97.9811 184.425 98.25 184.425 98.5909C184.425 99.0568 184.597 99.4091 184.942 99.6477C185.29 99.8826 185.732 100 186.266 100ZM196.031 104.455C195.384 104.455 194.827 104.371 194.361 104.205C193.895 104.042 193.507 103.826 193.196 103.557C192.889 103.292 192.645 103.008 192.463 102.705L193.531 101.955C193.652 102.114 193.806 102.295 193.991 102.5C194.177 102.708 194.431 102.888 194.753 103.04C195.079 103.195 195.505 103.273 196.031 103.273C196.736 103.273 197.317 103.102 197.776 102.761C198.234 102.42 198.463 101.886 198.463 101.159V99.3864H198.349C198.251 99.5455 198.111 99.7424 197.929 99.9773C197.751 100.208 197.493 100.415 197.156 100.597C196.823 100.775 196.372 100.864 195.804 100.864C195.099 100.864 194.467 100.697 193.906 100.364C193.349 100.03 192.908 99.5455 192.582 98.9091C192.26 98.2727 192.099 97.5 192.099 96.5909C192.099 95.697 192.257 94.9186 192.571 94.2557C192.885 93.589 193.323 93.0739 193.884 92.7102C194.444 92.3428 195.092 92.1591 195.827 92.1591C196.395 92.1591 196.846 92.2538 197.179 92.4432C197.516 92.6288 197.774 92.8409 197.952 93.0795C198.134 93.3144 198.274 93.5076 198.372 93.6591H198.509V92.2727H199.804V101.25C199.804 102 199.634 102.61 199.293 103.08C198.955 103.553 198.501 103.9 197.929 104.119C197.361 104.343 196.728 104.455 196.031 104.455ZM195.986 99.6591C196.524 99.6591 196.978 99.536 197.349 99.2898C197.721 99.0436 198.003 98.6894 198.196 98.2273C198.389 97.7652 198.486 97.2121 198.486 96.5682C198.486 95.9394 198.391 95.3845 198.202 94.9034C198.012 94.4223 197.732 94.0455 197.361 93.7727C196.99 93.5 196.531 93.3636 195.986 93.3636C195.418 93.3636 194.944 93.5076 194.565 93.7955C194.19 94.0833 193.908 94.4697 193.719 94.9545C193.533 95.4394 193.44 95.9773 193.44 96.5682C193.44 97.1742 193.535 97.7102 193.724 98.1761C193.918 98.6383 194.202 99.0019 194.577 99.267C194.955 99.5284 195.425 99.6591 195.986 99.6591ZM210.645 92.2727V93.4091H205.94V92.2727H210.645ZM207.349 101V91.0682C207.349 90.5682 207.467 90.1515 207.702 89.8182C207.937 89.4848 208.241 89.2348 208.616 89.0682C208.991 88.9015 209.387 88.8182 209.804 88.8182C210.134 88.8182 210.402 88.8447 210.611 88.8977C210.819 88.9508 210.974 89 211.077 89.0455L210.69 90.2045C210.622 90.1818 210.527 90.1534 210.406 90.1193C210.289 90.0852 210.134 90.0682 209.94 90.0682C209.497 90.0682 209.177 90.1799 208.98 90.4034C208.787 90.6269 208.69 90.9545 208.69 91.3864V101H207.349ZM212.524 101V92.2727H213.865V101H212.524ZM213.206 90.8182C212.945 90.8182 212.719 90.7292 212.53 90.5511C212.344 90.3731 212.251 90.1591 212.251 89.9091C212.251 89.6591 212.344 89.4451 212.53 89.267C212.719 89.089 212.945 89 213.206 89C213.467 89 213.691 89.089 213.876 89.267C214.066 89.4451 214.161 89.6591 214.161 89.9091C214.161 90.1591 214.066 90.3731 213.876 90.5511C213.691 90.7292 213.467 90.8182 213.206 90.8182ZM217.662 89.3636V101H216.321V89.3636H217.662ZM223.777 101.182C222.936 101.182 222.211 100.996 221.601 100.625C220.995 100.25 220.527 99.7273 220.197 99.0568C219.872 98.3826 219.709 97.5985 219.709 96.7045C219.709 95.8106 219.872 95.0227 220.197 94.3409C220.527 93.6553 220.985 93.1212 221.572 92.7386C222.163 92.3523 222.853 92.1591 223.641 92.1591C224.095 92.1591 224.544 92.2348 224.987 92.3864C225.43 92.5379 225.834 92.7841 226.197 93.125C226.561 93.4621 226.851 93.9091 227.067 94.4659C227.283 95.0227 227.391 95.7083 227.391 96.5227V97.0909H220.663V95.9318H226.027C226.027 95.4394 225.929 95 225.732 94.6136C225.538 94.2273 225.262 93.9223 224.902 93.6989C224.546 93.4754 224.125 93.3636 223.641 93.3636C223.107 93.3636 222.644 93.4962 222.254 93.7614C221.868 94.0227 221.571 94.3636 221.362 94.7841C221.154 95.2045 221.05 95.6553 221.05 96.1364V96.9091C221.05 97.5682 221.163 98.1269 221.391 98.5852C221.622 99.0398 221.942 99.3864 222.351 99.625C222.76 99.8598 223.235 99.9773 223.777 99.9773C224.129 99.9773 224.447 99.928 224.732 99.8295C225.019 99.7273 225.268 99.5758 225.476 99.375C225.684 99.1705 225.845 98.9167 225.959 98.6136L227.254 98.9773C227.118 99.4167 226.889 99.803 226.567 100.136C226.245 100.466 225.847 100.723 225.374 100.909C224.9 101.091 224.368 101.182 223.777 101.182ZM237.726 92.2727V93.4091H233.203V92.2727H237.726ZM234.521 90.1818H235.862V98.5C235.862 98.8788 235.917 99.1629 236.027 99.3523C236.141 99.5379 236.285 99.6629 236.459 99.7273C236.637 99.7879 236.824 99.8182 237.021 99.8182C237.169 99.8182 237.29 99.8106 237.385 99.7955C237.48 99.7765 237.555 99.7614 237.612 99.75L237.885 100.955C237.794 100.989 237.667 101.023 237.504 101.057C237.341 101.095 237.135 101.114 236.885 101.114C236.506 101.114 236.135 101.032 235.771 100.869C235.411 100.706 235.112 100.458 234.874 100.125C234.639 99.7917 234.521 99.3712 234.521 98.8636V90.1818ZM243.195 101.182C242.407 101.182 241.715 100.994 241.121 100.619C240.53 100.244 240.068 99.7197 239.734 99.0455C239.405 98.3712 239.24 97.5833 239.24 96.6818C239.24 95.7727 239.405 94.9792 239.734 94.3011C240.068 93.6231 240.53 93.0966 241.121 92.7216C241.715 92.3466 242.407 92.1591 243.195 92.1591C243.982 92.1591 244.672 92.3466 245.263 92.7216C245.857 93.0966 246.32 93.6231 246.649 94.3011C246.982 94.9792 247.149 95.7727 247.149 96.6818C247.149 97.5833 246.982 98.3712 246.649 99.0455C246.32 99.7197 245.857 100.244 245.263 100.619C244.672 100.994 243.982 101.182 243.195 101.182ZM243.195 99.9773C243.793 99.9773 244.286 99.8239 244.672 99.517C245.058 99.2102 245.344 98.8068 245.53 98.3068C245.715 97.8068 245.808 97.2652 245.808 96.6818C245.808 96.0985 245.715 95.5549 245.53 95.0511C245.344 94.5473 245.058 94.1402 244.672 93.8295C244.286 93.5189 243.793 93.3636 243.195 93.3636C242.596 93.3636 242.104 93.5189 241.717 93.8295C241.331 94.1402 241.045 94.5473 240.859 95.0511C240.674 95.5549 240.581 96.0985 240.581 96.6818C240.581 97.2652 240.674 97.8068 240.859 98.3068C241.045 98.8068 241.331 99.2102 241.717 99.517C242.104 99.8239 242.596 99.9773 243.195 99.9773ZM257.491 92.2727V93.4091H252.969V92.2727H257.491ZM254.287 90.1818H255.628V98.5C255.628 98.8788 255.683 99.1629 255.793 99.3523C255.906 99.5379 256.05 99.6629 256.224 99.7273C256.402 99.7879 256.59 99.8182 256.787 99.8182C256.935 99.8182 257.056 99.8106 257.151 99.7955C257.245 99.7765 257.321 99.7614 257.378 99.75L257.651 100.955C257.56 100.989 257.433 101.023 257.27 101.057C257.107 101.095 256.901 101.114 256.651 101.114C256.272 101.114 255.901 101.032 255.537 100.869C255.177 100.706 254.878 100.458 254.639 100.125C254.404 99.7917 254.287 99.3712 254.287 98.8636V90.1818ZM261.037 95.75V101H259.696V89.3636H261.037V93.6364H261.151C261.355 93.1856 261.662 92.8277 262.071 92.5625C262.484 92.2936 263.033 92.1591 263.719 92.1591C264.313 92.1591 264.834 92.2784 265.281 92.517C265.728 92.7519 266.075 93.1136 266.321 93.6023C266.571 94.0871 266.696 94.7045 266.696 95.4545V101H265.355V95.5455C265.355 94.8523 265.175 94.3163 264.815 93.9375C264.459 93.5549 263.965 93.3636 263.332 93.3636C262.893 93.3636 262.499 93.4564 262.151 93.642C261.806 93.8277 261.533 94.0985 261.332 94.4545C261.135 94.8106 261.037 95.2424 261.037 95.75ZM269.149 101V92.2727H270.49V101H269.149ZM269.831 90.8182C269.57 90.8182 269.344 90.7292 269.155 90.5511C268.969 90.3731 268.876 90.1591 268.876 89.9091C268.876 89.6591 268.969 89.4451 269.155 89.267C269.344 89.089 269.57 89 269.831 89C270.092 89 270.316 89.089 270.501 89.267C270.691 89.4451 270.786 89.6591 270.786 89.9091C270.786 90.1591 270.691 90.3731 270.501 90.5511C270.316 90.7292 270.092 90.8182 269.831 90.8182ZM279.128 94.2273L277.923 94.5682C277.848 94.3674 277.736 94.1723 277.588 93.983C277.444 93.7898 277.247 93.6307 276.997 93.5057C276.747 93.3807 276.427 93.3182 276.037 93.3182C275.503 93.3182 275.058 93.4413 274.702 93.6875C274.349 93.9299 274.173 94.2386 274.173 94.6136C274.173 94.947 274.295 95.2102 274.537 95.4034C274.779 95.5966 275.158 95.7576 275.673 95.8864L276.969 96.2045C277.749 96.3939 278.33 96.6837 278.713 97.0739C279.096 97.4602 279.287 97.9583 279.287 98.5682C279.287 99.0682 279.143 99.5152 278.855 99.9091C278.571 100.303 278.173 100.614 277.662 100.841C277.151 101.068 276.556 101.182 275.878 101.182C274.988 101.182 274.251 100.989 273.668 100.602C273.084 100.216 272.715 99.6515 272.56 98.9091L273.832 98.5909C273.954 99.0606 274.183 99.4129 274.52 99.6477C274.861 99.8826 275.306 100 275.855 100C276.48 100 276.976 99.8674 277.344 99.6023C277.715 99.3333 277.901 99.0114 277.901 98.6364C277.901 98.3333 277.795 98.0795 277.582 97.875C277.37 97.6667 277.045 97.5114 276.605 97.4091L275.151 97.0682C274.351 96.8788 273.764 96.5852 273.389 96.1875C273.018 95.786 272.832 95.2841 272.832 94.6818C272.832 94.1894 272.971 93.7538 273.247 93.375C273.527 92.9962 273.908 92.6989 274.389 92.483C274.874 92.267 275.423 92.1591 276.037 92.1591C276.901 92.1591 277.579 92.3485 278.071 92.7273C278.567 93.1061 278.92 93.6061 279.128 94.2273ZM288.374 101.205C287.821 101.205 287.319 101.1 286.868 100.892C286.417 100.68 286.059 100.375 285.794 99.9773C285.529 99.5758 285.396 99.0909 285.396 98.5227C285.396 98.0227 285.495 97.6174 285.692 97.3068C285.889 96.9924 286.152 96.7462 286.482 96.5682C286.811 96.3902 287.175 96.2576 287.572 96.1705C287.974 96.0795 288.377 96.0076 288.783 95.9545C289.313 95.8864 289.743 95.8352 290.072 95.8011C290.406 95.7633 290.648 95.7008 290.8 95.6136C290.955 95.5265 291.033 95.375 291.033 95.1591V95.1136C291.033 94.553 290.879 94.1174 290.572 93.8068C290.269 93.4962 289.809 93.3409 289.192 93.3409C288.552 93.3409 288.05 93.4811 287.686 93.7614C287.322 94.0417 287.067 94.3409 286.919 94.6591L285.646 94.2045C285.874 93.6742 286.177 93.2614 286.555 92.9659C286.938 92.6667 287.355 92.4583 287.805 92.3409C288.26 92.2197 288.707 92.1591 289.146 92.1591C289.427 92.1591 289.749 92.1932 290.112 92.2614C290.48 92.3258 290.834 92.4602 291.175 92.6648C291.519 92.8693 291.805 93.178 292.033 93.5909C292.26 94.0038 292.374 94.5568 292.374 95.25V101H291.033V99.8182H290.964C290.874 100.008 290.722 100.21 290.51 100.426C290.298 100.642 290.016 100.826 289.663 100.977C289.311 101.129 288.881 101.205 288.374 101.205ZM288.578 100C289.108 100 289.555 99.8958 289.919 99.6875C290.286 99.4792 290.563 99.2102 290.749 98.8807C290.938 98.5511 291.033 98.2045 291.033 97.8409V96.6136C290.976 96.6818 290.851 96.7443 290.658 96.8011C290.468 96.8542 290.249 96.9015 289.999 96.9432C289.752 96.9811 289.512 97.0152 289.277 97.0455C289.046 97.072 288.858 97.0947 288.714 97.1136C288.366 97.1591 288.04 97.233 287.737 97.3352C287.438 97.4337 287.196 97.5833 287.01 97.7841C286.828 97.9811 286.737 98.25 286.737 98.5909C286.737 99.0568 286.91 99.4091 287.254 99.6477C287.603 99.8826 288.044 100 288.578 100ZM294.821 101V92.2727H296.116V93.5909H296.207C296.366 93.1591 296.654 92.8087 297.071 92.5398C297.488 92.2708 297.957 92.1364 298.48 92.1364C298.579 92.1364 298.702 92.1383 298.849 92.142C298.997 92.1458 299.109 92.1515 299.185 92.1591V93.5227C299.139 93.5114 299.035 93.4943 298.872 93.4716C298.713 93.4451 298.545 93.4318 298.366 93.4318C297.942 93.4318 297.563 93.5208 297.23 93.6989C296.901 93.8731 296.639 94.1155 296.446 94.4261C296.257 94.733 296.162 95.0833 296.162 95.4773V101H294.821ZM304.168 101.182C303.327 101.182 302.601 100.996 301.991 100.625C301.385 100.25 300.918 99.7273 300.588 99.0568C300.262 98.3826 300.099 97.5985 300.099 96.7045C300.099 95.8106 300.262 95.0227 300.588 94.3409C300.918 93.6553 301.376 93.1212 301.963 92.7386C302.554 92.3523 303.243 92.1591 304.031 92.1591C304.486 92.1591 304.935 92.2348 305.378 92.3864C305.821 92.5379 306.224 92.7841 306.588 93.125C306.952 93.4621 307.241 93.9091 307.457 94.4659C307.673 95.0227 307.781 95.7083 307.781 96.5227V97.0909H301.054V95.9318H306.418C306.418 95.4394 306.319 95 306.122 94.6136C305.929 94.2273 305.652 93.9223 305.293 93.6989C304.937 93.4754 304.516 93.3636 304.031 93.3636C303.497 93.3636 303.035 93.4962 302.645 93.7614C302.259 94.0227 301.961 94.3636 301.753 94.7841C301.545 95.2045 301.44 95.6553 301.44 96.1364V96.9091C301.44 97.5682 301.554 98.1269 301.781 98.5852C302.012 99.0398 302.332 99.3864 302.741 99.625C303.151 99.8598 303.626 99.9773 304.168 99.9773C304.52 99.9773 304.838 99.928 305.122 99.8295C305.41 99.7273 305.658 99.5758 305.866 99.375C306.075 99.1705 306.236 98.9167 306.349 98.6136L307.645 98.9773C307.509 99.4167 307.279 99.803 306.957 100.136C306.635 100.466 306.238 100.723 305.764 100.909C305.291 101.091 304.759 101.182 304.168 101.182ZM312.389 101.205C311.836 101.205 311.334 101.1 310.884 100.892C310.433 100.68 310.075 100.375 309.81 99.9773C309.545 99.5758 309.412 99.0909 309.412 98.5227C309.412 98.0227 309.51 97.6174 309.707 97.3068C309.904 96.9924 310.168 96.7462 310.497 96.5682C310.827 96.3902 311.19 96.2576 311.588 96.1705C311.99 96.0795 312.393 96.0076 312.798 95.9545C313.329 95.8864 313.759 95.8352 314.088 95.8011C314.421 95.7633 314.664 95.7008 314.815 95.6136C314.971 95.5265 315.048 95.375 315.048 95.1591V95.1136C315.048 94.553 314.895 94.1174 314.588 93.8068C314.285 93.4962 313.825 93.3409 313.207 93.3409C312.567 93.3409 312.065 93.4811 311.702 93.7614C311.338 94.0417 311.082 94.3409 310.935 94.6591L309.662 94.2045C309.889 93.6742 310.192 93.2614 310.571 92.9659C310.954 92.6667 311.37 92.4583 311.821 92.3409C312.276 92.2197 312.723 92.1591 313.162 92.1591C313.442 92.1591 313.764 92.1932 314.128 92.2614C314.495 92.3258 314.849 92.4602 315.19 92.6648C315.535 92.8693 315.821 93.178 316.048 93.5909C316.276 94.0038 316.389 94.5568 316.389 95.25V101H315.048V99.8182H314.98C314.889 100.008 314.738 100.21 314.526 100.426C314.313 100.642 314.031 100.826 313.679 100.977C313.327 101.129 312.897 101.205 312.389 101.205ZM312.594 100C313.124 100 313.571 99.8958 313.935 99.6875C314.302 99.4792 314.579 99.2102 314.764 98.8807C314.954 98.5511 315.048 98.2045 315.048 97.8409V96.6136C314.991 96.6818 314.866 96.7443 314.673 96.8011C314.484 96.8542 314.264 96.9015 314.014 96.9432C313.768 96.9811 313.527 97.0152 313.293 97.0455C313.062 97.072 312.874 97.0947 312.73 97.1136C312.382 97.1591 312.056 97.233 311.753 97.3352C311.454 97.4337 311.211 97.5833 311.026 97.7841C310.844 97.9811 310.753 98.25 310.753 98.5909C310.753 99.0568 310.925 99.4091 311.27 99.6477C311.618 99.8826 312.06 100 312.594 100ZM327.132 92.2727V93.4091H322.609V92.2727H327.132ZM323.928 90.1818H325.268V98.5C325.268 98.8788 325.323 99.1629 325.433 99.3523C325.547 99.5379 325.691 99.6629 325.865 99.7273C326.043 99.7879 326.231 99.8182 326.428 99.8182C326.575 99.8182 326.696 99.8106 326.791 99.7955C326.886 99.7765 326.962 99.7614 327.018 99.75L327.291 100.955C327.2 100.989 327.073 101.023 326.911 101.057C326.748 101.095 326.541 101.114 326.291 101.114C325.912 101.114 325.541 101.032 325.178 100.869C324.818 100.706 324.518 100.458 324.28 100.125C324.045 99.7917 323.928 99.3712 323.928 98.8636V90.1818ZM332.601 101.182C331.813 101.182 331.122 100.994 330.527 100.619C329.936 100.244 329.474 99.7197 329.141 99.0455C328.811 98.3712 328.646 97.5833 328.646 96.6818C328.646 95.7727 328.811 94.9792 329.141 94.3011C329.474 93.6231 329.936 93.0966 330.527 92.7216C331.122 92.3466 331.813 92.1591 332.601 92.1591C333.389 92.1591 334.078 92.3466 334.669 92.7216C335.264 93.0966 335.726 93.6231 336.055 94.3011C336.389 94.9792 336.555 95.7727 336.555 96.6818C336.555 97.5833 336.389 98.3712 336.055 99.0455C335.726 99.7197 335.264 100.244 334.669 100.619C334.078 100.994 333.389 101.182 332.601 101.182ZM332.601 99.9773C333.199 99.9773 333.692 99.8239 334.078 99.517C334.464 99.2102 334.75 98.8068 334.936 98.3068C335.122 97.8068 335.214 97.2652 335.214 96.6818C335.214 96.0985 335.122 95.5549 334.936 95.0511C334.75 94.5473 334.464 94.1402 334.078 93.8295C333.692 93.5189 333.199 93.3636 332.601 93.3636C332.002 93.3636 331.51 93.5189 331.124 93.8295C330.737 94.1402 330.451 94.5473 330.266 95.0511C330.08 95.5549 329.987 96.0985 329.987 96.6818C329.987 97.2652 330.08 97.8068 330.266 98.3068C330.451 98.8068 330.737 99.2102 331.124 99.517C331.51 99.8239 332.002 99.9773 332.601 99.9773ZM348.602 97.4318V92.2727H349.943V101H348.602V99.5227H348.511C348.307 99.9659 347.989 100.343 347.557 100.653C347.125 100.96 346.58 101.114 345.92 101.114C345.375 101.114 344.89 100.994 344.466 100.756C344.042 100.513 343.708 100.15 343.466 99.6648C343.223 99.1761 343.102 98.5606 343.102 97.8182V92.2727H344.443V97.7273C344.443 98.3636 344.621 98.8712 344.977 99.25C345.337 99.6288 345.795 99.8182 346.352 99.8182C346.686 99.8182 347.025 99.733 347.369 99.5625C347.718 99.392 348.009 99.1307 348.244 98.7784C348.483 98.4261 348.602 97.9773 348.602 97.4318ZM352.399 104.273V92.2727H353.695V93.6591H353.854C353.952 93.5076 354.089 93.3144 354.263 93.0795C354.441 92.8409 354.695 92.6288 355.024 92.4432C355.357 92.2538 355.808 92.1591 356.376 92.1591C357.111 92.1591 357.759 92.3428 358.32 92.7102C358.88 93.0777 359.318 93.5985 359.632 94.2727C359.946 94.947 360.104 95.7424 360.104 96.6591C360.104 97.5833 359.946 98.3845 359.632 99.0625C359.318 99.7367 358.882 100.259 358.325 100.631C357.768 100.998 357.126 101.182 356.399 101.182C355.839 101.182 355.39 101.089 355.053 100.903C354.715 100.714 354.456 100.5 354.274 100.261C354.092 100.019 353.952 99.8182 353.854 99.6591H353.74V104.273H352.399ZM353.717 96.6364C353.717 97.2955 353.814 97.8769 354.007 98.3807C354.2 98.8807 354.482 99.2727 354.854 99.5568C355.225 99.8371 355.679 99.9773 356.217 99.9773C356.778 99.9773 357.246 99.8295 357.621 99.5341C358 99.2348 358.284 98.8333 358.473 98.3295C358.666 97.822 358.763 97.2576 358.763 96.6364C358.763 96.0227 358.668 95.4697 358.479 94.9773C358.293 94.4811 358.011 94.089 357.632 93.8011C357.257 93.5095 356.786 93.3636 356.217 93.3636C355.672 93.3636 355.214 93.5019 354.842 93.7784C354.471 94.0511 354.191 94.4337 354.001 94.9261C353.812 95.4148 353.717 95.9848 353.717 96.6364ZM363.49 89.3636V101H362.149V89.3636H363.49ZM369.491 101.182C368.704 101.182 368.012 100.994 367.418 100.619C366.827 100.244 366.365 99.7197 366.031 99.0455C365.702 98.3712 365.537 97.5833 365.537 96.6818C365.537 95.7727 365.702 94.9792 366.031 94.3011C366.365 93.6231 366.827 93.0966 367.418 92.7216C368.012 92.3466 368.704 92.1591 369.491 92.1591C370.279 92.1591 370.969 92.3466 371.56 92.7216C372.154 93.0966 372.616 93.6231 372.946 94.3011C373.279 94.9792 373.446 95.7727 373.446 96.6818C373.446 97.5833 373.279 98.3712 372.946 99.0455C372.616 99.7197 372.154 100.244 371.56 100.619C370.969 100.994 370.279 101.182 369.491 101.182ZM369.491 99.9773C370.09 99.9773 370.582 99.8239 370.969 99.517C371.355 99.2102 371.641 98.8068 371.827 98.3068C372.012 97.8068 372.105 97.2652 372.105 96.6818C372.105 96.0985 372.012 95.5549 371.827 95.0511C371.641 94.5473 371.355 94.1402 370.969 93.8295C370.582 93.5189 370.09 93.3636 369.491 93.3636C368.893 93.3636 368.401 93.5189 368.014 93.8295C367.628 94.1402 367.342 94.5473 367.156 95.0511C366.971 95.5549 366.878 96.0985 366.878 96.6818C366.878 97.2652 366.971 97.8068 367.156 98.3068C367.342 98.8068 367.628 99.2102 368.014 99.517C368.401 99.8239 368.893 99.9773 369.491 99.9773ZM378.061 101.205C377.508 101.205 377.006 101.1 376.555 100.892C376.105 100.68 375.747 100.375 375.482 99.9773C375.216 99.5758 375.084 99.0909 375.084 98.5227C375.084 98.0227 375.182 97.6174 375.379 97.3068C375.576 96.9924 375.839 96.7462 376.169 96.5682C376.499 96.3902 376.862 96.2576 377.26 96.1705C377.661 96.0795 378.065 96.0076 378.47 95.9545C379 95.8864 379.43 95.8352 379.76 95.8011C380.093 95.7633 380.336 95.7008 380.487 95.6136C380.643 95.5265 380.72 95.375 380.72 95.1591V95.1136C380.72 94.553 380.567 94.1174 380.26 93.8068C379.957 93.4962 379.497 93.3409 378.879 93.3409C378.239 93.3409 377.737 93.4811 377.374 93.7614C377.01 94.0417 376.754 94.3409 376.607 94.6591L375.334 94.2045C375.561 93.6742 375.864 93.2614 376.243 92.9659C376.625 92.6667 377.042 92.4583 377.493 92.3409C377.947 92.2197 378.394 92.1591 378.834 92.1591C379.114 92.1591 379.436 92.1932 379.8 92.2614C380.167 92.3258 380.521 92.4602 380.862 92.6648C381.207 92.8693 381.493 93.178 381.72 93.5909C381.947 94.0038 382.061 94.5568 382.061 95.25V101H380.72V99.8182H380.652C380.561 100.008 380.41 100.21 380.197 100.426C379.985 100.642 379.703 100.826 379.351 100.977C378.999 101.129 378.569 101.205 378.061 101.205ZM378.266 100C378.796 100 379.243 99.8958 379.607 99.6875C379.974 99.4792 380.25 99.2102 380.436 98.8807C380.625 98.5511 380.72 98.2045 380.72 97.8409V96.6136C380.663 96.6818 380.538 96.7443 380.345 96.8011C380.156 96.8542 379.936 96.9015 379.686 96.9432C379.44 96.9811 379.199 97.0152 378.964 97.0455C378.733 97.072 378.546 97.0947 378.402 97.1136C378.054 97.1591 377.728 97.233 377.425 97.3352C377.125 97.4337 376.883 97.5833 376.697 97.7841C376.516 97.9811 376.425 98.25 376.425 98.5909C376.425 99.0568 376.597 99.4091 376.942 99.6477C377.29 99.8826 377.732 100 378.266 100ZM387.804 101.182C387.077 101.182 386.435 100.998 385.878 100.631C385.321 100.259 384.885 99.7367 384.571 99.0625C384.257 98.3845 384.099 97.5833 384.099 96.6591C384.099 95.7424 384.257 94.947 384.571 94.2727C384.885 93.5985 385.323 93.0777 385.884 92.7102C386.444 92.3428 387.092 92.1591 387.827 92.1591C388.395 92.1591 388.844 92.2538 389.173 92.4432C389.507 92.6288 389.76 92.8409 389.935 93.0795C390.113 93.3144 390.251 93.5076 390.349 93.6591H390.463V89.3636H391.804V101H390.509V99.6591H390.349C390.251 99.8182 390.111 100.019 389.929 100.261C389.747 100.5 389.488 100.714 389.151 100.903C388.813 101.089 388.365 101.182 387.804 101.182ZM387.986 99.9773C388.524 99.9773 388.978 99.8371 389.349 99.5568C389.721 99.2727 390.003 98.8807 390.196 98.3807C390.389 97.8769 390.486 97.2955 390.486 96.6364C390.486 95.9848 390.391 95.4148 390.202 94.9261C390.012 94.4337 389.732 94.0511 389.361 93.7784C388.99 93.5019 388.531 93.3636 387.986 93.3636C387.418 93.3636 386.944 93.5095 386.565 93.8011C386.19 94.089 385.908 94.4811 385.719 94.9773C385.533 95.4697 385.44 96.0227 385.44 96.6364C385.44 97.2576 385.535 97.822 385.724 98.3295C385.918 98.8333 386.202 99.2348 386.577 99.5341C386.955 99.8295 387.425 99.9773 387.986 99.9773Z" fill="#484848"/>
<defs>
<clipPath id="clip0_11_7821">
<rect width="24" height="24" fill="white" transform="translate(237.5 45)"/>
</clipPath>
</defs>
</svg>
