<svg width="97" height="26" viewBox="0 0 97 26" fill="none" xmlns="http://www.w3.org/2000/svg">
<path d="M24.5 11.7536H21.3357C21.2505 11.7536 21.1689 11.6429 21.1087 11.446L19.5918 6.48311C19.4369 5.97628 19.1757 6.11493 19.0777 6.75603L17.5502 16.7511C17.4522 17.3922 17.1911 17.5309 17.0362 17.024L15.6931 12.6301C15.5529 12.1713 15.3203 12.2343 15.205 12.7623L12.6293 24.5597C12.4686 25.2958 12.1176 25.0669 12.0554 24.1854L10.4774 1.81436C10.4113 0.87714 10.0269 0.699698 9.88409 1.54051L7.3203 16.6387C7.20737 17.3038 6.92247 17.3674 6.78294 16.7588L5.37614 10.622C5.25894 10.1107 5.03052 10.0576 4.8924 10.5095L3.96421 13.5462C3.90401 13.7432 3.82237 13.8538 3.73725 13.8538H0.5" stroke="#6C6F79" stroke-linecap="round" stroke-linejoin="round"/>
<path d="M52.646 5.9C53.27 5.9 53.834 5.978 54.338 6.134C54.842 6.278 55.274 6.488 55.634 6.764C55.994 7.028 56.27 7.358 56.462 7.754C56.654 8.138 56.75 8.57 56.75 9.05C56.75 9.47 56.69 9.836 56.57 10.148C56.462 10.46 56.312 10.736 56.12 10.976C55.928 11.216 55.712 11.42 55.472 11.588C55.244 11.744 55.004 11.876 54.752 11.984C55.124 12.092 55.472 12.236 55.796 12.416C56.132 12.584 56.42 12.788 56.66 13.028C56.9 13.268 57.092 13.556 57.236 13.892C57.38 14.228 57.452 14.612 57.452 15.044C57.452 15.584 57.344 16.07 57.128 16.502C56.912 16.934 56.6 17.3 56.192 17.6C55.796 17.888 55.316 18.11 54.752 18.266C54.188 18.422 53.564 18.5 52.88 18.5H47.282V5.9H52.646ZM52.412 11.516C53.264 11.516 53.96 11.324 54.5 10.94C55.04 10.556 55.31 9.992 55.31 9.248C55.31 8.612 55.07 8.108 54.59 7.736C54.11 7.364 53.42 7.178 52.52 7.178H48.686V11.516H52.412ZM52.916 17.222C53.876 17.222 54.632 17.024 55.184 16.628C55.736 16.232 56.012 15.674 56.012 14.954C56.012 14.258 55.73 13.724 55.166 13.352C54.602 12.968 53.768 12.776 52.664 12.776H48.686V17.222H52.916ZM67.7242 14.522V9.194H69.0922V18.5H67.7242V16.88C67.4122 17.384 67.0042 17.816 66.5002 18.176C65.9962 18.524 65.3422 18.698 64.5382 18.698C63.9742 18.698 63.4702 18.608 63.0262 18.428C62.5942 18.248 62.2222 17.996 61.9102 17.672C61.6102 17.336 61.3762 16.94 61.2082 16.484C61.0522 16.028 60.9742 15.524 60.9742 14.972V9.194H62.3602V14.63C62.3602 15.494 62.5822 16.178 63.0262 16.682C63.4702 17.186 64.1062 17.438 64.9342 17.438C65.3302 17.438 65.6962 17.372 66.0322 17.24C66.3802 17.096 66.6742 16.898 66.9142 16.646C67.1662 16.382 67.3642 16.07 67.5082 15.71C67.6522 15.35 67.7242 14.954 67.7242 14.522ZM82.686 13.838C82.686 14.606 82.56 15.29 82.308 15.89C82.056 16.49 81.72 17 81.3 17.42C80.892 17.828 80.418 18.146 79.878 18.374C79.35 18.59 78.804 18.698 78.24 18.698C77.808 18.698 77.412 18.644 77.052 18.536C76.692 18.428 76.368 18.284 76.08 18.104C75.792 17.924 75.528 17.714 75.288 17.474C75.06 17.234 74.856 16.982 74.676 16.718V21.38H73.29V9.194H74.676V11.066C74.868 10.79 75.078 10.526 75.306 10.274C75.546 10.022 75.81 9.806 76.098 9.626C76.386 9.434 76.704 9.284 77.052 9.176C77.412 9.056 77.808 8.996 78.24 8.996C78.792 8.996 79.332 9.104 79.86 9.32C80.4 9.536 80.88 9.854 81.3 10.274C81.72 10.682 82.056 11.186 82.308 11.786C82.56 12.386 82.686 13.07 82.686 13.838ZM81.264 13.856C81.264 13.304 81.174 12.806 80.994 12.362C80.826 11.918 80.592 11.54 80.292 11.228C79.992 10.904 79.644 10.658 79.248 10.49C78.852 10.322 78.432 10.238 77.988 10.238C77.556 10.238 77.136 10.328 76.728 10.508C76.332 10.676 75.972 10.916 75.648 11.228C75.336 11.54 75.084 11.918 74.892 12.362C74.712 12.806 74.622 13.298 74.622 13.838C74.622 14.378 74.712 14.876 74.892 15.332C75.084 15.776 75.336 16.154 75.648 16.466C75.972 16.778 76.332 17.024 76.728 17.204C77.136 17.372 77.556 17.456 77.988 17.456C78.432 17.456 78.852 17.378 79.248 17.222C79.656 17.054 80.004 16.82 80.292 16.52C80.592 16.208 80.826 15.83 80.994 15.386C81.174 14.93 81.264 14.42 81.264 13.856ZM89.6892 10.292C89.1372 10.292 88.6332 10.358 88.1772 10.49C87.7332 10.61 87.2952 10.772 86.8632 10.976L86.4492 9.842C86.9652 9.602 87.4872 9.416 88.0152 9.284C88.5432 9.14 89.1492 9.068 89.8332 9.068C91.1052 9.068 92.0832 9.386 92.7672 10.022C93.4512 10.646 93.7932 11.576 93.7932 12.812V18.5H92.4612V17.096C92.1372 17.516 91.6992 17.888 91.1472 18.212C90.6072 18.536 89.9232 18.698 89.0952 18.698C88.6632 18.698 88.2372 18.638 87.8172 18.518C87.4092 18.398 87.0372 18.218 86.7012 17.978C86.3772 17.726 86.1132 17.42 85.9092 17.06C85.7172 16.7 85.6212 16.274 85.6212 15.782C85.6212 15.29 85.7172 14.858 85.9092 14.486C86.1012 14.102 86.3712 13.784 86.7192 13.532C87.0792 13.28 87.4992 13.088 87.9792 12.956C88.4712 12.824 89.0112 12.758 89.5992 12.758C90.1992 12.758 90.7212 12.794 91.1652 12.866C91.6092 12.938 92.0412 13.034 92.4612 13.154V12.83C92.4612 11.99 92.2152 11.36 91.7232 10.94C91.2432 10.508 90.5652 10.292 89.6892 10.292ZM89.7432 13.784C88.8672 13.784 88.1952 13.958 87.7272 14.306C87.2592 14.654 87.0252 15.128 87.0252 15.728C87.0252 16.028 87.0852 16.292 87.2052 16.52C87.3372 16.748 87.5112 16.946 87.7272 17.114C87.9432 17.27 88.1892 17.39 88.4652 17.474C88.7532 17.558 89.0532 17.6 89.3652 17.6C89.7972 17.6 90.1992 17.54 90.5712 17.42C90.9552 17.288 91.2852 17.114 91.5612 16.898C91.8492 16.67 92.0712 16.406 92.2272 16.106C92.3952 15.794 92.4792 15.452 92.4792 15.08V14.18C92.1312 14.084 91.7292 13.994 91.2732 13.91C90.8292 13.826 90.3192 13.784 89.7432 13.784Z" fill="#6C6F79"/>
</svg>
