<svg width="339" height="345" viewBox="0 0 339 345" fill="none" xmlns="http://www.w3.org/2000/svg">
<path d="M169.5 338C262.836 338 338.5 262.336 338.5 169C338.5 75.6639 262.836 0 169.5 0C76.1639 0 0.5 75.6639 0.5 169C0.5 262.336 76.1639 338 169.5 338Z" fill="url(#paint0_linear_11_6529)"/>
<g filter="url(#filter0_d_11_6529)">
<mask id="mask0_11_6529" style="mask-type:alpha" maskUnits="userSpaceOnUse" x="0" y="0" width="339" height="338">
<path d="M169.5 338C262.836 338 338.5 262.336 338.5 169C338.5 75.6639 262.836 0 169.5 0C76.1639 0 0.5 75.6639 0.5 169C0.5 262.336 76.1639 338 169.5 338Z" fill="url(#paint1_linear_11_6529)"/>
</mask>
<g mask="url(#mask0_11_6529)">
<path d="M266.393 96.8933H72.6067C66.3843 96.8933 61.34 101.938 61.34 108.16V344.76C61.34 350.982 66.3843 356.027 72.6067 356.027H266.393C272.616 356.027 277.66 350.982 277.66 344.76V108.16C277.66 101.938 272.616 96.8933 266.393 96.8933Z" fill="white"/>
</g>
</g>
<path d="M149.22 119.427H90.6333C86.8999 119.427 83.8733 122.453 83.8733 126.187C83.8733 129.92 86.8999 132.947 90.6333 132.947H149.22C152.953 132.947 155.98 129.92 155.98 126.187C155.98 122.453 152.953 119.427 149.22 119.427Z" fill="#E1EBFA"/>
<path d="M149.22 214.067H90.6333C86.8999 214.067 83.8733 217.093 83.8733 220.827C83.8733 224.56 86.8999 227.587 90.6333 227.587H149.22C152.953 227.587 155.98 224.56 155.98 220.827C155.98 217.093 152.953 214.067 149.22 214.067Z" fill="#E1EBFA"/>
<path d="M243.86 153.227H95.14C90.1621 153.227 86.1266 157.262 86.1266 162.24V184.773C86.1266 189.751 90.1621 193.787 95.14 193.787H243.86C248.838 193.787 252.873 189.751 252.873 184.773V162.24C252.873 157.262 248.838 153.227 243.86 153.227Z" stroke="#1485FD" stroke-width="4.50667"/>
<path d="M243.86 245.613H95.14C88.9176 245.613 83.8733 250.658 83.8733 256.88V274.907C83.8733 281.129 88.9176 286.173 95.14 286.173H243.86C250.082 286.173 255.127 281.129 255.127 274.907V256.88C255.127 250.658 250.082 245.613 243.86 245.613Z" fill="#DFEAFB"/>
<path d="M119.927 72.1067C124.905 72.1067 128.94 68.0713 128.94 63.0933C128.94 58.1154 124.905 54.08 119.927 54.08C114.949 54.08 110.913 58.1154 110.913 63.0933C110.913 68.0713 114.949 72.1067 119.927 72.1067Z" fill="white"/>
<path d="M169.5 72.1067C174.478 72.1067 178.513 68.0713 178.513 63.0933C178.513 58.1154 174.478 54.08 169.5 54.08C164.522 54.08 160.487 58.1154 160.487 63.0933C160.487 68.0713 164.522 72.1067 169.5 72.1067Z" fill="#1485FD"/>
<path d="M219.073 72.1067C224.051 72.1067 228.087 68.0713 228.087 63.0933C228.087 58.1154 224.051 54.08 219.073 54.08C214.095 54.08 210.06 58.1154 210.06 63.0933C210.06 68.0713 214.095 72.1067 219.073 72.1067Z" fill="white"/>
<path d="M194.287 198.293C200.509 198.293 205.553 193.249 205.553 187.027C205.553 180.804 200.509 175.76 194.287 175.76C188.064 175.76 183.02 180.804 183.02 187.027C183.02 193.249 188.064 198.293 194.287 198.293Z" fill="#DFEAFB"/>
<path d="M203.09 235.18C201.288 235.18 199.605 235.18 198.072 235.084C196.185 234.956 194.369 234.31 192.825 233.217C191.281 232.124 190.068 230.627 189.32 228.889L179.814 210.101C179.116 209.289 178.768 208.234 178.845 207.167C178.922 206.1 179.417 205.106 180.224 204.402C180.884 203.871 181.708 203.585 182.556 203.593C183.18 203.611 183.792 203.765 184.351 204.042C184.91 204.32 185.403 204.716 185.794 205.202L190.111 211.095L190.177 211.171V188.784C190.177 187.674 190.618 186.608 191.403 185.823C192.189 185.038 193.254 184.596 194.364 184.596C195.475 184.596 196.54 185.038 197.326 185.823C198.111 186.608 198.552 187.674 198.552 188.784V203.431C198.504 202.892 198.568 202.349 198.741 201.836C198.914 201.323 199.191 200.852 199.556 200.453C199.922 200.053 200.366 199.734 200.861 199.516C201.356 199.297 201.891 199.185 202.433 199.185C202.974 199.185 203.509 199.297 204.004 199.516C204.499 199.734 204.944 200.053 205.309 200.453C205.674 200.852 205.951 201.323 206.124 201.836C206.297 202.349 206.361 202.892 206.313 203.431V206.484C206.264 205.945 206.328 205.402 206.501 204.889C206.674 204.376 206.952 203.905 207.317 203.506C207.682 203.106 208.126 202.787 208.621 202.569C209.117 202.351 209.652 202.238 210.193 202.238C210.734 202.238 211.269 202.351 211.765 202.569C212.26 202.787 212.704 203.106 213.069 203.506C213.434 203.905 213.712 204.376 213.885 204.889C214.058 205.402 214.122 205.945 214.073 206.484V208.837C214.025 208.298 214.089 207.755 214.262 207.242C214.435 206.729 214.712 206.258 215.077 205.858C215.442 205.459 215.887 205.14 216.382 204.922C216.877 204.703 217.412 204.59 217.953 204.59C218.495 204.59 219.03 204.703 219.525 204.922C220.02 205.14 220.464 205.459 220.83 205.858C221.195 206.258 221.472 206.729 221.645 207.242C221.818 207.755 221.882 208.298 221.834 208.837V223.116C221.757 227.508 219.772 234.912 212.789 234.912C212.282 234.935 207.987 235.183 203.1 235.183L203.09 235.18Z" fill="#1485FD" stroke="white" stroke-width="2.25333"/>
<defs>
<filter id="filter0_d_11_6529" x="47.82" y="76.6133" width="243.36" height="268.147" filterUnits="userSpaceOnUse" color-interpolation-filters="sRGB">
<feFlood flood-opacity="0" result="BackgroundImageFix"/>
<feColorMatrix in="SourceAlpha" type="matrix" values="0 0 0 0 0 0 0 0 0 0 0 0 0 0 0 0 0 0 127 0" result="hardAlpha"/>
<feOffset dy="-6.76"/>
<feGaussianBlur stdDeviation="6.76"/>
<feColorMatrix type="matrix" values="0 0 0 0 0.788235 0 0 0 0 0.803922 0 0 0 0 0.85098 0 0 0 0.349 0"/>
<feBlend mode="normal" in2="BackgroundImageFix" result="effect1_dropShadow_11_6529"/>
<feBlend mode="normal" in="SourceGraphic" in2="effect1_dropShadow_11_6529" result="shape"/>
</filter>
<linearGradient id="paint0_linear_11_6529" x1="169.5" y1="0" x2="169.5" y2="338" gradientUnits="userSpaceOnUse">
<stop stop-color="#E3ECFA"/>
<stop offset="1" stop-color="#DAE7FF"/>
</linearGradient>
<linearGradient id="paint1_linear_11_6529" x1="169.5" y1="0" x2="169.5" y2="338" gradientUnits="userSpaceOnUse">
<stop stop-color="#E3ECFA"/>
<stop offset="1" stop-color="#DAE7FF"/>
</linearGradient>
</defs>
</svg>
