<svg width="221" height="44" viewBox="0 0 221 44" fill="none" xmlns="http://www.w3.org/2000/svg">
<rect width="221" height="44" rx="8" fill="#0079C8"/>
<path d="M27 14L45 14C45.2652 14 45.5196 13.8946 45.7071 13.7071C45.8946 13.5196 46 13.2652 46 13C46 12.7348 45.8946 12.4804 45.7071 12.2929C45.5196 12.1054 45.2652 12 45 12L27 12C26.7348 12 26.4804 12.1054 26.2929 12.2929C26.1054 12.4804 26 12.7348 26 13C26 13.2652 26.1054 13.5196 26.2929 13.7071C26.4804 13.8946 26.7348 14 27 14ZM36 31C36.2652 31 36.5196 30.8946 36.7071 30.7071C36.8946 30.5196 37 30.2652 37 30L37 19.41L40.29 22.71C40.4783 22.8983 40.7337 23.0041 41 23.0041C41.2663 23.0041 41.5217 22.8983 41.71 22.71C41.8983 22.5217 42.0041 22.2663 42.0041 22C42.0041 21.7337 41.8983 21.4783 41.71 21.29L36.71 16.29C36.617 16.1963 36.5064 16.1219 36.3846 16.0711C36.2627 16.0203 36.132 15.9942 36 15.9942C35.868 15.9942 35.7373 16.0203 35.6154 16.0711C35.4936 16.1219 35.383 16.1963 35.29 16.29L30.29 21.29C30.1968 21.3832 30.1228 21.4939 30.0723 21.6158C30.0219 21.7376 29.9959 21.8681 29.9959 22C29.9959 22.1319 30.0219 22.2624 30.0723 22.3843C30.1228 22.5061 30.1968 22.6168 30.29 22.71C30.3832 22.8032 30.4939 22.8772 30.6158 22.9277C30.7376 22.9781 30.8681 23.0041 31 23.0041C31.1319 23.0041 31.2624 22.9781 31.3842 22.9277C31.5061 22.8772 31.6168 22.8032 31.71 22.71L35 19.41L35 30C35 30.2652 35.1054 30.5196 35.2929 30.7071C35.4804 30.8946 35.7348 31 36 31Z" fill="white"/>
<path d="M67.0455 15.8636H68.4545V23.5682C68.4545 24.3636 68.267 25.0739 67.892 25.6989C67.5208 26.3201 66.9962 26.8106 66.3182 27.1705C65.6402 27.5265 64.8447 27.7045 63.9318 27.7045C63.0189 27.7045 62.2235 27.5265 61.5455 27.1705C60.8674 26.8106 60.3409 26.3201 59.9659 25.6989C59.5947 25.0739 59.4091 24.3636 59.4091 23.5682V15.8636H60.8182V23.4545C60.8182 24.0227 60.9432 24.5284 61.1932 24.9716C61.4432 25.411 61.7992 25.7576 62.2614 26.0114C62.7273 26.2614 63.2841 26.3864 63.9318 26.3864C64.5795 26.3864 65.1364 26.2614 65.6023 26.0114C66.0682 25.7576 66.4242 25.411 66.6705 24.9716C66.9205 24.5284 67.0455 24.0227 67.0455 23.4545V15.8636ZM71.0866 30.7727V18.7727H72.3821V20.1591H72.5412C72.6397 20.0076 72.776 19.8144 72.9503 19.5795C73.1283 19.3409 73.3821 19.1288 73.7116 18.9432C74.045 18.7538 74.4957 18.6591 75.0639 18.6591C75.7988 18.6591 76.4465 18.8428 77.0071 19.2102C77.5677 19.5777 78.0052 20.0985 78.3196 20.7727C78.634 21.447 78.7912 22.2424 78.7912 23.1591C78.7912 24.0833 78.634 24.8845 78.3196 25.5625C78.0052 26.2367 77.5696 26.7595 77.0128 27.1307C76.456 27.4981 75.8139 27.6818 75.0866 27.6818C74.526 27.6818 74.0772 27.589 73.7401 27.4034C73.4029 27.214 73.1435 27 72.9616 26.7614C72.7798 26.5189 72.6397 26.3182 72.5412 26.1591H72.4276V30.7727H71.0866ZM72.4048 23.1364C72.4048 23.7955 72.5014 24.3769 72.6946 24.8807C72.8878 25.3807 73.17 25.7727 73.5412 26.0568C73.9124 26.3371 74.367 26.4773 74.9048 26.4773C75.4654 26.4773 75.9332 26.3295 76.3082 26.0341C76.687 25.7348 76.9711 25.3333 77.1605 24.8295C77.3537 24.322 77.4503 23.7576 77.4503 23.1364C77.4503 22.5227 77.3556 21.9697 77.1662 21.4773C76.9806 20.9811 76.6984 20.589 76.3196 20.3011C75.9446 20.0095 75.473 19.8636 74.9048 19.8636C74.3594 19.8636 73.901 20.0019 73.5298 20.2784C73.1586 20.5511 72.8783 20.9337 72.6889 21.4261C72.4995 21.9148 72.4048 22.4848 72.4048 23.1364ZM82.1776 15.8636V27.5H80.8366V15.8636H82.1776ZM88.179 27.6818C87.3911 27.6818 86.6998 27.4943 86.1051 27.1193C85.5142 26.7443 85.0521 26.2197 84.7188 25.5455C84.3892 24.8712 84.2244 24.0833 84.2244 23.1818C84.2244 22.2727 84.3892 21.4792 84.7188 20.8011C85.0521 20.1231 85.5142 19.5966 86.1051 19.2216C86.6998 18.8466 87.3911 18.6591 88.179 18.6591C88.9669 18.6591 89.6563 18.8466 90.2472 19.2216C90.8419 19.5966 91.304 20.1231 91.6335 20.8011C91.9669 21.4792 92.1335 22.2727 92.1335 23.1818C92.1335 24.0833 91.9669 24.8712 91.6335 25.5455C91.304 26.2197 90.8419 26.7443 90.2472 27.1193C89.6563 27.4943 88.9669 27.6818 88.179 27.6818ZM88.179 26.4773C88.7775 26.4773 89.2699 26.3239 89.6562 26.017C90.0426 25.7102 90.3286 25.3068 90.5142 24.8068C90.6998 24.3068 90.7926 23.7652 90.7926 23.1818C90.7926 22.5985 90.6998 22.0549 90.5142 21.5511C90.3286 21.0473 90.0426 20.6402 89.6562 20.3295C89.2699 20.0189 88.7775 19.8636 88.179 19.8636C87.5805 19.8636 87.0881 20.0189 86.7017 20.3295C86.3153 20.6402 86.0294 21.0473 85.8438 21.5511C85.6581 22.0549 85.5653 22.5985 85.5653 23.1818C85.5653 23.7652 85.6581 24.3068 85.8438 24.8068C86.0294 25.3068 86.3153 25.7102 86.7017 26.017C87.0881 26.3239 87.5805 26.4773 88.179 26.4773ZM96.7486 27.7045C96.1955 27.7045 95.6937 27.6004 95.2429 27.392C94.7921 27.1799 94.4342 26.875 94.169 26.4773C93.9039 26.0758 93.7713 25.5909 93.7713 25.0227C93.7713 24.5227 93.8698 24.1174 94.0668 23.8068C94.2637 23.4924 94.527 23.2462 94.8565 23.0682C95.1861 22.8902 95.5497 22.7576 95.9474 22.6705C96.349 22.5795 96.7524 22.5076 97.1577 22.4545C97.688 22.3864 98.1179 22.3352 98.4474 22.3011C98.7808 22.2633 99.0232 22.2008 99.1747 22.1136C99.33 22.0265 99.4077 21.875 99.4077 21.6591V21.6136C99.4077 21.053 99.2543 20.6174 98.9474 20.3068C98.6444 19.9962 98.1842 19.8409 97.5668 19.8409C96.9266 19.8409 96.4247 19.9811 96.0611 20.2614C95.6974 20.5417 95.4418 20.8409 95.294 21.1591L94.0213 20.7045C94.2486 20.1742 94.5516 19.7614 94.9304 19.4659C95.313 19.1667 95.7296 18.9583 96.1804 18.8409C96.6349 18.7197 97.0819 18.6591 97.5213 18.6591C97.8016 18.6591 98.1236 18.6932 98.4872 18.7614C98.8546 18.8258 99.2088 18.9602 99.5497 19.1648C99.8944 19.3693 100.18 19.678 100.408 20.0909C100.635 20.5038 100.749 21.0568 100.749 21.75V27.5H99.4077V26.3182H99.3395C99.2486 26.5076 99.0971 26.7102 98.8849 26.9261C98.6728 27.142 98.3906 27.3258 98.0384 27.4773C97.6861 27.6288 97.2562 27.7045 96.7486 27.7045ZM96.9531 26.5C97.4834 26.5 97.9304 26.3958 98.294 26.1875C98.6615 25.9792 98.938 25.7102 99.1236 25.3807C99.313 25.0511 99.4077 24.7045 99.4077 24.3409V23.1136C99.3509 23.1818 99.2259 23.2443 99.0327 23.3011C98.8433 23.3542 98.6236 23.4015 98.3736 23.4432C98.1274 23.4811 97.8868 23.5152 97.652 23.5455C97.4209 23.572 97.2334 23.5947 97.0895 23.6136C96.741 23.6591 96.4152 23.733 96.1122 23.8352C95.813 23.9337 95.5705 24.0833 95.3849 24.2841C95.2031 24.4811 95.1122 24.75 95.1122 25.0909C95.1122 25.5568 95.2846 25.9091 95.6293 26.1477C95.9777 26.3826 96.419 26.5 96.9531 26.5ZM106.491 27.6818C105.764 27.6818 105.122 27.4981 104.565 27.1307C104.009 26.7595 103.573 26.2367 103.259 25.5625C102.944 24.8845 102.787 24.0833 102.787 23.1591C102.787 22.2424 102.944 21.447 103.259 20.7727C103.573 20.0985 104.01 19.5777 104.571 19.2102C105.132 18.8428 105.779 18.6591 106.514 18.6591C107.082 18.6591 107.531 18.7538 107.861 18.9432C108.194 19.1288 108.448 19.3409 108.622 19.5795C108.8 19.8144 108.938 20.0076 109.037 20.1591H109.151V15.8636H110.491V27.5H109.196V26.1591H109.037C108.938 26.3182 108.798 26.5189 108.616 26.7614C108.435 27 108.175 27.214 107.838 27.4034C107.501 27.589 107.052 27.6818 106.491 27.6818ZM106.673 26.4773C107.211 26.4773 107.666 26.3371 108.037 26.0568C108.408 25.7727 108.69 25.3807 108.884 24.8807C109.077 24.3769 109.173 23.7955 109.173 23.1364C109.173 22.4848 109.079 21.9148 108.889 21.4261C108.7 20.9337 108.42 20.5511 108.048 20.2784C107.677 20.0019 107.219 19.8636 106.673 19.8636C106.105 19.8636 105.632 20.0095 105.253 20.3011C104.878 20.589 104.596 20.9811 104.406 21.4773C104.221 21.9697 104.128 22.5227 104.128 23.1364C104.128 23.7576 104.223 24.322 104.412 24.8295C104.605 25.3333 104.889 25.7348 105.264 26.0341C105.643 26.3295 106.113 26.4773 106.673 26.4773ZM127.179 19.5H125.77C125.687 19.0947 125.541 18.7386 125.332 18.4318C125.128 18.125 124.878 17.8674 124.582 17.6591C124.291 17.447 123.967 17.2879 123.611 17.1818C123.255 17.0758 122.884 17.0227 122.497 17.0227C121.793 17.0227 121.154 17.2008 120.582 17.5568C120.014 17.9129 119.562 18.4375 119.224 19.1307C118.891 19.8239 118.724 20.6742 118.724 21.6818C118.724 22.6894 118.891 23.5398 119.224 24.233C119.562 24.9261 120.014 25.4508 120.582 25.8068C121.154 26.1629 121.793 26.3409 122.497 26.3409C122.884 26.3409 123.255 26.2879 123.611 26.1818C123.967 26.0758 124.291 25.9186 124.582 25.7102C124.878 25.4981 125.128 25.2386 125.332 24.9318C125.541 24.6212 125.687 24.2652 125.77 23.8636H127.179C127.073 24.4583 126.88 24.9905 126.599 25.4602C126.319 25.9299 125.971 26.3295 125.554 26.6591C125.137 26.9848 124.67 27.233 124.151 27.4034C123.635 27.5739 123.084 27.6591 122.497 27.6591C121.505 27.6591 120.622 27.4167 119.849 26.9318C119.077 26.447 118.469 25.7576 118.026 24.8636C117.582 23.9697 117.361 22.9091 117.361 21.6818C117.361 20.4545 117.582 19.3939 118.026 18.5C118.469 17.6061 119.077 16.9167 119.849 16.4318C120.622 15.947 121.505 15.7045 122.497 15.7045C123.084 15.7045 123.635 15.7898 124.151 15.9602C124.67 16.1307 125.137 16.3807 125.554 16.7102C125.971 17.036 126.319 17.4337 126.599 17.9034C126.88 18.3693 127.073 18.9015 127.179 19.5ZM132.933 27.6818C132.092 27.6818 131.367 27.4962 130.757 27.125C130.151 26.75 129.683 26.2273 129.354 25.5568C129.028 24.8826 128.865 24.0985 128.865 23.2045C128.865 22.3106 129.028 21.5227 129.354 20.8409C129.683 20.1553 130.142 19.6212 130.729 19.2386C131.32 18.8523 132.009 18.6591 132.797 18.6591C133.251 18.6591 133.7 18.7348 134.143 18.8864C134.587 19.0379 134.99 19.2841 135.354 19.625C135.717 19.9621 136.007 20.4091 136.223 20.9659C136.439 21.5227 136.547 22.2083 136.547 23.0227V23.5909H129.82V22.4318H135.183C135.183 21.9394 135.085 21.5 134.888 21.1136C134.695 20.7273 134.418 20.4223 134.058 20.1989C133.702 19.9754 133.282 19.8636 132.797 19.8636C132.263 19.8636 131.801 19.9962 131.411 20.2614C131.024 20.5227 130.727 20.8636 130.518 21.2841C130.31 21.7045 130.206 22.1553 130.206 22.6364V23.4091C130.206 24.0682 130.32 24.6269 130.547 25.0852C130.778 25.5398 131.098 25.8864 131.507 26.125C131.916 26.3598 132.392 26.4773 132.933 26.4773C133.286 26.4773 133.604 26.428 133.888 26.3295C134.176 26.2273 134.424 26.0758 134.632 25.875C134.84 25.6705 135.001 25.4167 135.115 25.1136L136.411 25.4773C136.274 25.9167 136.045 26.303 135.723 26.6364C135.401 26.9659 135.003 27.2235 134.53 27.4091C134.056 27.5909 133.524 27.6818 132.933 27.6818ZM138.587 27.5V18.7727H139.882V20.0909H139.973C140.132 19.6591 140.42 19.3087 140.837 19.0398C141.253 18.7708 141.723 18.6364 142.246 18.6364C142.344 18.6364 142.467 18.6383 142.615 18.642C142.763 18.6458 142.875 18.6515 142.95 18.6591V20.0227C142.905 20.0114 142.801 19.9943 142.638 19.9716C142.479 19.9451 142.31 19.9318 142.132 19.9318C141.708 19.9318 141.329 20.0208 140.996 20.1989C140.666 20.3731 140.405 20.6155 140.212 20.9261C140.022 21.233 139.928 21.5833 139.928 21.9773V27.5H138.587ZM148.882 18.7727V19.9091H144.359V18.7727H148.882ZM145.678 16.6818H147.018V25C147.018 25.3788 147.073 25.6629 147.183 25.8523C147.297 26.0379 147.441 26.1629 147.615 26.2273C147.793 26.2879 147.981 26.3182 148.178 26.3182C148.325 26.3182 148.446 26.3106 148.541 26.2955C148.636 26.2765 148.712 26.2614 148.768 26.25L149.041 27.4545C148.95 27.4886 148.823 27.5227 148.661 27.5568C148.498 27.5947 148.291 27.6136 148.041 27.6136C147.662 27.6136 147.291 27.5322 146.928 27.3693C146.568 27.2064 146.268 26.9583 146.03 26.625C145.795 26.2917 145.678 25.8712 145.678 25.3636V16.6818ZM150.899 27.5V18.7727H152.24V27.5H150.899ZM151.581 17.3182C151.32 17.3182 151.094 17.2292 150.905 17.0511C150.719 16.8731 150.626 16.6591 150.626 16.4091C150.626 16.1591 150.719 15.9451 150.905 15.767C151.094 15.589 151.32 15.5 151.581 15.5C151.842 15.5 152.066 15.589 152.251 15.767C152.441 15.9451 152.536 16.1591 152.536 16.4091C152.536 16.6591 152.441 16.8731 152.251 17.0511C152.066 17.2292 151.842 17.3182 151.581 17.3182ZM158.582 18.7727V19.9091H153.878V18.7727H158.582ZM155.287 27.5V17.5682C155.287 17.0682 155.404 16.6515 155.639 16.3182C155.874 15.9848 156.179 15.7348 156.554 15.5682C156.929 15.4015 157.325 15.3182 157.741 15.3182C158.071 15.3182 158.34 15.3447 158.548 15.3977C158.757 15.4508 158.912 15.5 159.014 15.5455L158.628 16.7045C158.56 16.6818 158.465 16.6534 158.344 16.6193C158.226 16.5852 158.071 16.5682 157.878 16.5682C157.435 16.5682 157.115 16.6799 156.918 16.9034C156.724 17.1269 156.628 17.4545 156.628 17.8864V27.5H155.287ZM160.462 27.5V18.7727H161.803V27.5H160.462ZM161.143 17.3182C160.882 17.3182 160.657 17.2292 160.467 17.0511C160.282 16.8731 160.189 16.6591 160.189 16.4091C160.189 16.1591 160.282 15.9451 160.467 15.767C160.657 15.589 160.882 15.5 161.143 15.5C161.405 15.5 161.628 15.589 161.814 15.767C162.003 15.9451 162.098 16.1591 162.098 16.4091C162.098 16.6591 162.003 16.8731 161.814 17.0511C161.628 17.2292 161.405 17.3182 161.143 17.3182ZM167.804 27.6818C166.986 27.6818 166.281 27.4886 165.69 27.1023C165.099 26.7159 164.645 26.1837 164.327 25.5057C164.009 24.8277 163.849 24.053 163.849 23.1818C163.849 22.2955 164.012 21.5133 164.338 20.8352C164.668 20.1534 165.126 19.6212 165.713 19.2386C166.304 18.8523 166.993 18.6591 167.781 18.6591C168.395 18.6591 168.948 18.7727 169.44 19C169.933 19.2273 170.336 19.5455 170.651 19.9545C170.965 20.3636 171.16 20.8409 171.236 21.3864H169.895C169.793 20.9886 169.565 20.6364 169.213 20.3295C168.865 20.0189 168.395 19.8636 167.804 19.8636C167.281 19.8636 166.823 20 166.429 20.2727C166.039 20.5417 165.734 20.9223 165.514 21.4148C165.298 21.9034 165.19 22.4773 165.19 23.1364C165.19 23.8106 165.296 24.3977 165.509 24.8977C165.724 25.3977 166.027 25.786 166.418 26.0625C166.812 26.339 167.274 26.4773 167.804 26.4773C168.152 26.4773 168.469 26.4167 168.753 26.2955C169.037 26.1742 169.277 26 169.474 25.7727C169.671 25.5455 169.812 25.2727 169.895 24.9545H171.236C171.16 25.4697 170.973 25.9337 170.673 26.3466C170.378 26.7557 169.986 27.0814 169.497 27.3239C169.012 27.5625 168.448 27.6818 167.804 27.6818ZM175.764 27.7045C175.211 27.7045 174.709 27.6004 174.259 27.392C173.808 27.1799 173.45 26.875 173.185 26.4773C172.92 26.0758 172.787 25.5909 172.787 25.0227C172.787 24.5227 172.885 24.1174 173.082 23.8068C173.279 23.4924 173.543 23.2462 173.872 23.0682C174.202 22.8902 174.565 22.7576 174.963 22.6705C175.365 22.5795 175.768 22.5076 176.173 22.4545C176.704 22.3864 177.134 22.3352 177.463 22.3011C177.796 22.2633 178.039 22.2008 178.19 22.1136C178.346 22.0265 178.423 21.875 178.423 21.6591V21.6136C178.423 21.053 178.27 20.6174 177.963 20.3068C177.66 19.9962 177.2 19.8409 176.582 19.8409C175.942 19.8409 175.44 19.9811 175.077 20.2614C174.713 20.5417 174.457 20.8409 174.31 21.1591L173.037 20.7045C173.264 20.1742 173.567 19.7614 173.946 19.4659C174.329 19.1667 174.745 18.9583 175.196 18.8409C175.651 18.7197 176.098 18.6591 176.537 18.6591C176.817 18.6591 177.139 18.6932 177.503 18.7614C177.87 18.8258 178.224 18.9602 178.565 19.1648C178.91 19.3693 179.196 19.678 179.423 20.0909C179.651 20.5038 179.764 21.0568 179.764 21.75V27.5H178.423V26.3182H178.355C178.264 26.5076 178.113 26.7102 177.901 26.9261C177.688 27.142 177.406 27.3258 177.054 27.4773C176.702 27.6288 176.272 27.7045 175.764 27.7045ZM175.969 26.5C176.499 26.5 176.946 26.3958 177.31 26.1875C177.677 25.9792 177.954 25.7102 178.139 25.3807C178.329 25.0511 178.423 24.7045 178.423 24.3409V23.1136C178.366 23.1818 178.241 23.2443 178.048 23.3011C177.859 23.3542 177.639 23.4015 177.389 23.4432C177.143 23.4811 176.902 23.5152 176.668 23.5455C176.437 23.572 176.249 23.5947 176.105 23.6136C175.757 23.6591 175.431 23.733 175.128 23.8352C174.829 23.9337 174.586 24.0833 174.401 24.2841C174.219 24.4811 174.128 24.75 174.128 25.0909C174.128 25.5568 174.3 25.9091 174.645 26.1477C174.993 26.3826 175.435 26.5 175.969 26.5ZM186.007 18.7727V19.9091H181.484V18.7727H186.007ZM182.803 16.6818H184.143V25C184.143 25.3788 184.198 25.6629 184.308 25.8523C184.422 26.0379 184.566 26.1629 184.74 26.2273C184.918 26.2879 185.106 26.3182 185.303 26.3182C185.45 26.3182 185.571 26.3106 185.666 26.2955C185.761 26.2765 185.837 26.2614 185.893 26.25L186.166 27.4545C186.075 27.4886 185.948 27.5227 185.786 27.5568C185.623 27.5947 185.416 27.6136 185.166 27.6136C184.787 27.6136 184.416 27.5322 184.053 27.3693C183.693 27.2064 183.393 26.9583 183.155 26.625C182.92 26.2917 182.803 25.8712 182.803 25.3636V16.6818ZM191.589 27.6818C190.749 27.6818 190.023 27.4962 189.413 27.125C188.807 26.75 188.339 26.2273 188.01 25.5568C187.684 24.8826 187.521 24.0985 187.521 23.2045C187.521 22.3106 187.684 21.5227 188.01 20.8409C188.339 20.1553 188.798 19.6212 189.385 19.2386C189.976 18.8523 190.665 18.6591 191.453 18.6591C191.908 18.6591 192.357 18.7348 192.8 18.8864C193.243 19.0379 193.646 19.2841 194.01 19.625C194.374 19.9621 194.663 20.4091 194.879 20.9659C195.095 21.5227 195.203 22.2083 195.203 23.0227V23.5909H188.476V22.4318H193.839C193.839 21.9394 193.741 21.5 193.544 21.1136C193.351 20.7273 193.074 20.4223 192.714 20.1989C192.358 19.9754 191.938 19.8636 191.453 19.8636C190.919 19.8636 190.457 19.9962 190.067 20.2614C189.68 20.5227 189.383 20.8636 189.175 21.2841C188.966 21.7045 188.862 22.1553 188.862 22.6364V23.4091C188.862 24.0682 188.976 24.6269 189.203 25.0852C189.434 25.5398 189.754 25.8864 190.163 26.125C190.572 26.3598 191.048 26.4773 191.589 26.4773C191.942 26.4773 192.26 26.428 192.544 26.3295C192.832 26.2273 193.08 26.0758 193.288 25.875C193.497 25.6705 193.658 25.4167 193.771 25.1136L195.067 25.4773C194.93 25.9167 194.701 26.303 194.379 26.6364C194.057 26.9659 193.66 27.2235 193.186 27.4091C192.713 27.5909 192.18 27.6818 191.589 27.6818Z" fill="white"/>
</svg>
