<svg width="101" height="44" viewBox="0 0 101 44" fill="none" xmlns="http://www.w3.org/2000/svg">
<rect x="0.5" y="0.5" width="100" height="43" rx="7.5" fill="white"/>
<rect x="0.5" y="0.5" width="100" height="43" rx="7.5" stroke="#CBCBCB"/>
<path d="M34.7727 19.5H33.3636C33.2803 19.0947 33.1345 18.7386 32.9261 18.4318C32.7216 18.125 32.4716 17.8674 32.1761 17.6591C31.8845 17.447 31.5606 17.2879 31.2045 17.1818C30.8485 17.0758 30.4773 17.0227 30.0909 17.0227C29.3864 17.0227 28.7481 17.2008 28.1761 17.5568C27.608 17.9129 27.1553 18.4375 26.8182 19.1307C26.4848 19.8239 26.3182 20.6742 26.3182 21.6818C26.3182 22.6894 26.4848 23.5398 26.8182 24.233C27.1553 24.9261 27.608 25.4508 28.1761 25.8068C28.7481 26.1629 29.3864 26.3409 30.0909 26.3409C30.4773 26.3409 30.8485 26.2879 31.2045 26.1818C31.5606 26.0758 31.8845 25.9186 32.1761 25.7102C32.4716 25.4981 32.7216 25.2386 32.9261 24.9318C33.1345 24.6212 33.2803 24.2652 33.3636 23.8636H34.7727C34.6667 24.4583 34.4735 24.9905 34.1932 25.4602C33.9129 25.9299 33.5644 26.3295 33.1477 26.6591C32.7311 26.9848 32.2633 27.233 31.7443 27.4034C31.2292 27.5739 30.678 27.6591 30.0909 27.6591C29.0985 27.6591 28.2159 27.4167 27.4432 26.9318C26.6705 26.447 26.0625 25.7576 25.6193 24.8636C25.1761 23.9697 24.9545 22.9091 24.9545 21.6818C24.9545 20.4545 25.1761 19.3939 25.6193 18.5C26.0625 17.6061 26.6705 16.9167 27.4432 16.4318C28.2159 15.947 29.0985 15.7045 30.0909 15.7045C30.678 15.7045 31.2292 15.7898 31.7443 15.9602C32.2633 16.1307 32.7311 16.3807 33.1477 16.7102C33.5644 17.036 33.9129 17.4337 34.1932 17.9034C34.4735 18.3693 34.6667 18.9015 34.7727 19.5ZM39.4361 27.7045C38.883 27.7045 38.3812 27.6004 37.9304 27.392C37.4796 27.1799 37.1217 26.875 36.8565 26.4773C36.5914 26.0758 36.4588 25.5909 36.4588 25.0227C36.4588 24.5227 36.5573 24.1174 36.7543 23.8068C36.9512 23.4924 37.2145 23.2462 37.544 23.0682C37.8736 22.8902 38.2372 22.7576 38.6349 22.6705C39.0365 22.5795 39.4399 22.5076 39.8452 22.4545C40.3755 22.3864 40.8054 22.3352 41.1349 22.3011C41.4683 22.2633 41.7107 22.2008 41.8622 22.1136C42.0175 22.0265 42.0952 21.875 42.0952 21.6591V21.6136C42.0952 21.053 41.9418 20.6174 41.6349 20.3068C41.3319 19.9962 40.8717 19.8409 40.2543 19.8409C39.6141 19.8409 39.1122 19.9811 38.7486 20.2614C38.3849 20.5417 38.1293 20.8409 37.9815 21.1591L36.7088 20.7045C36.9361 20.1742 37.2391 19.7614 37.6179 19.4659C38.0005 19.1667 38.4171 18.9583 38.8679 18.8409C39.3224 18.7197 39.7694 18.6591 40.2088 18.6591C40.4891 18.6591 40.8111 18.6932 41.1747 18.7614C41.5421 18.8258 41.8963 18.9602 42.2372 19.1648C42.5819 19.3693 42.8679 19.678 43.0952 20.0909C43.3224 20.5038 43.4361 21.0568 43.4361 21.75V27.5H42.0952V26.3182H42.027C41.9361 26.5076 41.7846 26.7102 41.5724 26.9261C41.3603 27.142 41.0781 27.3258 40.7259 27.4773C40.3736 27.6288 39.9437 27.7045 39.4361 27.7045ZM39.6406 26.5C40.1709 26.5 40.6179 26.3958 40.9815 26.1875C41.349 25.9792 41.6255 25.7102 41.8111 25.3807C42.0005 25.0511 42.0952 24.7045 42.0952 24.3409V23.1136C42.0384 23.1818 41.9134 23.2443 41.7202 23.3011C41.5308 23.3542 41.3111 23.4015 41.0611 23.4432C40.8149 23.4811 40.5743 23.5152 40.3395 23.5455C40.1084 23.572 39.9209 23.5947 39.777 23.6136C39.4285 23.6591 39.1027 23.733 38.7997 23.8352C38.5005 23.9337 38.258 24.0833 38.0724 24.2841C37.8906 24.4811 37.7997 24.75 37.7997 25.0909C37.7997 25.5568 37.9721 25.9091 38.3168 26.1477C38.6652 26.3826 39.1065 26.5 39.6406 26.5ZM47.2244 22.25V27.5H45.8835V18.7727H47.179V20.1364H47.2926C47.4972 19.6932 47.8078 19.3371 48.2244 19.0682C48.6411 18.7955 49.179 18.6591 49.8381 18.6591C50.429 18.6591 50.946 18.7803 51.3892 19.0227C51.8324 19.2614 52.1771 19.625 52.4233 20.1136C52.6695 20.5985 52.7926 21.2121 52.7926 21.9545V27.5H51.4517V22.0455C51.4517 21.3598 51.2737 20.8258 50.9176 20.4432C50.5616 20.0568 50.0729 19.8636 49.4517 19.8636C49.0237 19.8636 48.6411 19.9564 48.304 20.142C47.9706 20.3277 47.7074 20.5985 47.5142 20.9545C47.321 21.3106 47.2244 21.7424 47.2244 22.25ZM58.7884 27.6818C57.9702 27.6818 57.2656 27.4886 56.6747 27.1023C56.0838 26.7159 55.6293 26.1837 55.3111 25.5057C54.9929 24.8277 54.8338 24.053 54.8338 23.1818C54.8338 22.2955 54.9967 21.5133 55.3224 20.8352C55.652 20.1534 56.1103 19.6212 56.6974 19.2386C57.2884 18.8523 57.9777 18.6591 58.7656 18.6591C59.3793 18.6591 59.9323 18.7727 60.4247 19C60.9171 19.2273 61.3205 19.5455 61.6349 19.9545C61.9493 20.3636 62.1444 20.8409 62.2202 21.3864H60.8793C60.777 20.9886 60.5497 20.6364 60.1974 20.3295C59.849 20.0189 59.3793 19.8636 58.7884 19.8636C58.2656 19.8636 57.8073 20 57.4134 20.2727C57.0232 20.5417 56.7183 20.9223 56.4986 21.4148C56.2827 21.9034 56.1747 22.4773 56.1747 23.1364C56.1747 23.8106 56.2808 24.3977 56.4929 24.8977C56.7088 25.3977 57.0118 25.786 57.402 26.0625C57.7959 26.339 58.258 26.4773 58.7884 26.4773C59.1368 26.4773 59.4531 26.4167 59.7372 26.2955C60.0213 26.1742 60.2618 26 60.4588 25.7727C60.6558 25.5455 60.7959 25.2727 60.8793 24.9545H62.2202C62.1444 25.4697 61.9569 25.9337 61.6577 26.3466C61.3622 26.7557 60.9702 27.0814 60.4815 27.3239C59.9967 27.5625 59.4323 27.6818 58.7884 27.6818ZM67.8395 27.6818C66.9986 27.6818 66.2732 27.4962 65.6634 27.125C65.0573 26.75 64.5895 26.2273 64.2599 25.5568C63.9342 24.8826 63.7713 24.0985 63.7713 23.2045C63.7713 22.3106 63.9342 21.5227 64.2599 20.8409C64.5895 20.1553 65.0478 19.6212 65.6349 19.2386C66.2259 18.8523 66.9152 18.6591 67.7031 18.6591C68.1577 18.6591 68.6065 18.7348 69.0497 18.8864C69.4929 19.0379 69.8963 19.2841 70.2599 19.625C70.6236 19.9621 70.9134 20.4091 71.1293 20.9659C71.3452 21.5227 71.4531 22.2083 71.4531 23.0227V23.5909H64.7259V22.4318H70.0895C70.0895 21.9394 69.991 21.5 69.794 21.1136C69.6009 20.7273 69.3243 20.4223 68.9645 20.1989C68.6084 19.9754 68.188 19.8636 67.7031 19.8636C67.169 19.8636 66.7069 19.9962 66.3168 20.2614C65.9304 20.5227 65.633 20.8636 65.4247 21.2841C65.2164 21.7045 65.1122 22.1553 65.1122 22.6364V23.4091C65.1122 24.0682 65.2259 24.6269 65.4531 25.0852C65.6842 25.5398 66.0043 25.8864 66.4134 26.125C66.8224 26.3598 67.2978 26.4773 67.8395 26.4773C68.1918 26.4773 68.5099 26.428 68.794 26.3295C69.0819 26.2273 69.33 26.0758 69.5384 25.875C69.7467 25.6705 69.9077 25.4167 70.0213 25.1136L71.3168 25.4773C71.1804 25.9167 70.9512 26.303 70.6293 26.6364C70.3073 26.9659 69.9096 27.2235 69.4361 27.4091C68.9626 27.5909 68.4304 27.6818 67.8395 27.6818ZM74.8338 15.8636V27.5H73.4929V15.8636H74.8338Z" fill="#232222"/>
</svg>
