<svg width="547" height="391" viewBox="0 0 547 391" fill="none" xmlns="http://www.w3.org/2000/svg">
<g clip-path="url(#clip0_516_20657)">
<path d="M539 0H8C3.58172 0 0 3.58172 0 8V383C0 387.418 3.58172 391 8 391H539C543.418 391 547 387.418 547 383V8C547 3.58172 543.418 0 539 0Z" fill="white"/>
<path d="M0 16C0 8.45753 0 4.68629 2.34315 2.34315C4.68629 0 8.45753 0 16 0H531C538.542 0 542.314 0 544.657 2.34315C547 4.68629 547 8.45753 547 16V64H0V16Z" fill="white"/>
<mask id="mask0_516_20657" style="mask-type:luminance" maskUnits="userSpaceOnUse" x="0" y="0" width="547" height="64">
<path d="M0 16C0 8.45753 0 4.68629 2.34315 2.34315C4.68629 0 8.45753 0 16 0H531C538.542 0 542.314 0 544.657 2.34315C547 4.68629 547 8.45753 547 16V64H0V16Z" fill="white"/>
</mask>
<g mask="url(#mask0_516_20657)">
<path d="M547 65H0V63H547V65Z" fill="#E3E3E3"/>
</g>
<path d="M0 319H547V375C547 382.542 547 386.314 544.657 388.657C542.314 391 538.542 391 531 391H16C8.45753 391 4.68629 391 2.34315 388.657C0 386.314 0 382.542 0 375V319Z" fill="white"/>
<mask id="mask1_516_20657" style="mask-type:luminance" maskUnits="userSpaceOnUse" x="0" y="319" width="547" height="72">
<path d="M0 319H547V375C547 382.542 547 386.314 544.657 388.657C542.314 391 538.542 391 531 391H16C8.45753 391 4.68629 391 2.34315 388.657C0 386.314 0 382.542 0 375V319Z" fill="white"/>
</mask>
<g mask="url(#mask1_516_20657)">
<path d="M0 318H547V320H0V318Z" fill="#E3E3E3"/>
</g>
<path d="M35.6037 24.4545H38.2386V33.9574C38.2386 34.9991 37.9924 35.9152 37.5 36.706C37.0123 37.4967 36.3258 38.1146 35.4403 38.5597C34.5549 39 33.5204 39.2202 32.3366 39.2202C31.1482 39.2202 30.1113 39 29.2259 38.5597C28.3404 38.1146 27.6539 37.4967 27.1662 36.706C26.6785 35.9152 26.4347 34.9991 26.4347 33.9574V24.4545H29.0696V33.7372C29.0696 34.3433 29.2022 34.883 29.4673 35.3565C29.7372 35.83 30.116 36.2017 30.6037 36.4716C31.0914 36.7367 31.669 36.8693 32.3366 36.8693C33.0043 36.8693 33.5819 36.7367 34.0696 36.4716C34.562 36.2017 34.9408 35.83 35.206 35.3565C35.4711 34.883 35.6037 34.3433 35.6037 33.7372V24.4545ZM40.989 43.0909V28.0909H43.5174V29.8949H43.6665C43.7991 29.6297 43.9862 29.348 44.2276 29.0497C44.4691 28.7467 44.7958 28.4886 45.2077 28.2756C45.6197 28.0578 46.1452 27.9489 46.7844 27.9489C47.6272 27.9489 48.3872 28.1643 49.0643 28.5952C49.7461 29.0213 50.2859 29.6534 50.6836 30.4915C51.0861 31.3248 51.2873 32.3475 51.2873 33.5597C51.2873 34.7576 51.0908 35.7756 50.6978 36.6136C50.3048 37.4517 49.7698 38.0909 49.0927 38.5312C48.4156 38.9716 47.6486 39.1918 46.7915 39.1918C46.1665 39.1918 45.6481 39.0876 45.2362 38.8793C44.8242 38.6709 44.4928 38.42 44.2418 38.1264C43.9956 37.8281 43.8039 37.5464 43.6665 37.2812H43.56V43.0909H40.989ZM43.5103 33.5455C43.5103 34.2509 43.6097 34.8688 43.8086 35.3991C44.0122 35.9295 44.3034 36.3437 44.6822 36.642C45.0657 36.9356 45.5297 37.0824 46.0742 37.0824C46.6424 37.0824 47.1183 36.9309 47.5018 36.6278C47.8853 36.3201 48.1741 35.901 48.3683 35.3707C48.5671 34.8357 48.6665 34.2273 48.6665 33.5455C48.6665 32.8684 48.5695 32.267 48.3754 31.7415C48.1812 31.2159 47.8924 30.804 47.5089 30.5057C47.1254 30.2074 46.6471 30.0582 46.0742 30.0582C45.525 30.0582 45.0586 30.2027 44.6751 30.4915C44.2915 30.7803 44.0004 31.1851 43.8015 31.706C43.6074 32.2268 43.5103 32.84 43.5103 33.5455ZM56.06 24.4545V39H53.489V24.4545H56.06ZM63.4624 39.2131C62.397 39.2131 61.4737 38.9787 60.6925 38.5099C59.9112 38.0412 59.3052 37.3854 58.8743 36.5426C58.4482 35.6998 58.2351 34.715 58.2351 33.5881C58.2351 32.4612 58.4482 31.474 58.8743 30.6264C59.3052 29.7789 59.9112 29.1207 60.6925 28.652C61.4737 28.1832 62.397 27.9489 63.4624 27.9489C64.5277 27.9489 65.451 28.1832 66.2322 28.652C67.0135 29.1207 67.6172 29.7789 68.0433 30.6264C68.4742 31.474 68.6896 32.4612 68.6896 33.5881C68.6896 34.715 68.4742 35.6998 68.0433 36.5426C67.6172 37.3854 67.0135 38.0412 66.2322 38.5099C65.451 38.9787 64.5277 39.2131 63.4624 39.2131ZM63.4766 37.1534C64.0542 37.1534 64.5372 36.9948 64.9254 36.6776C65.3137 36.3556 65.6025 35.9247 65.7919 35.3849C65.986 34.8452 66.0831 34.2438 66.0831 33.581C66.0831 32.9134 65.986 32.3097 65.7919 31.7699C65.6025 31.2254 65.3137 30.7921 64.9254 30.4702C64.5372 30.1482 64.0542 29.9872 63.4766 29.9872C62.8847 29.9872 62.3923 30.1482 61.9993 30.4702C61.611 30.7921 61.3198 31.2254 61.1257 31.7699C60.9363 32.3097 60.8416 32.9134 60.8416 33.581C60.8416 34.2438 60.9363 34.8452 61.1257 35.3849C61.3198 35.9247 61.611 36.3556 61.9993 36.6776C62.3923 36.9948 62.8847 37.1534 63.4766 37.1534ZM74.011 39.2202C73.3197 39.2202 72.6971 39.0971 72.1431 38.8509C71.5939 38.5999 71.1583 38.2306 70.8363 37.7429C70.5191 37.2552 70.3604 36.6539 70.3604 35.9389C70.3604 35.3234 70.4741 34.8144 70.7013 34.4119C70.9286 34.0095 71.2388 33.6875 71.6317 33.446C72.0247 33.2045 72.4674 33.0223 72.9599 32.8991C73.457 32.7713 73.9708 32.679 74.5011 32.6222C75.1403 32.5559 75.6587 32.4967 76.0565 32.4446C76.4542 32.3878 76.743 32.3026 76.9229 32.1889C77.1076 32.0705 77.1999 31.8883 77.1999 31.642V31.5994C77.1999 31.0644 77.0413 30.6501 76.7241 30.3565C76.4068 30.063 75.9499 29.9162 75.3533 29.9162C74.7236 29.9162 74.2241 30.0535 73.8548 30.3281C73.4902 30.6027 73.244 30.9271 73.1161 31.3011L70.7156 30.9602C70.9049 30.2973 71.2174 29.7434 71.6531 29.2983C72.0887 28.8485 72.6213 28.5123 73.2511 28.2898C73.8808 28.0625 74.5768 27.9489 75.3391 27.9489C75.8647 27.9489 76.3879 28.0104 76.9087 28.1335C77.4296 28.2566 77.9054 28.4602 78.3363 28.7443C78.7672 29.0237 79.1128 29.4048 79.3732 29.8878C79.6384 30.3707 79.771 30.9744 79.771 31.6989V39H77.2994V37.5014H77.2141C77.0579 37.8045 76.8377 38.0885 76.5536 38.3537C76.2743 38.6141 75.9215 38.8248 75.4954 38.9858C75.074 39.142 74.5792 39.2202 74.011 39.2202ZM74.6786 37.331C75.1947 37.331 75.6422 37.2292 76.021 37.0256C76.3997 36.8172 76.6909 36.5426 76.8945 36.2017C77.1029 35.8608 77.207 35.4891 77.207 35.0866V33.8011C77.1265 33.8674 76.9892 33.929 76.7951 33.9858C76.6057 34.0426 76.3926 34.0923 76.1559 34.1349C75.9192 34.1776 75.6848 34.2154 75.4528 34.2486C75.2208 34.2817 75.0195 34.3101 74.8491 34.3338C74.4656 34.3859 74.1223 34.4711 73.8192 34.5895C73.5162 34.7079 73.2771 34.8736 73.1019 35.0866C72.9267 35.295 72.8391 35.5649 72.8391 35.8963C72.8391 36.3698 73.012 36.7273 73.3576 36.9688C73.7032 37.2102 74.1436 37.331 74.6786 37.331ZM86.4045 39.1918C85.5475 39.1918 84.7804 38.9716 84.1033 38.5312C83.4263 38.0909 82.8912 37.4517 82.4982 36.6136C82.1052 35.7756 81.9087 34.7576 81.9087 33.5597C81.9087 32.3475 82.1076 31.3248 82.5053 30.4915C82.9078 29.6534 83.4499 29.0213 84.1317 28.5952C84.8136 28.1643 85.5735 27.9489 86.4116 27.9489C87.0508 27.9489 87.5763 28.0578 87.9883 28.2756C88.4002 28.4886 88.7269 28.7467 88.9684 29.0497C89.2099 29.348 89.3969 29.6297 89.5295 29.8949H89.636V24.4545H92.2141V39H89.6857V37.2812H89.5295C89.3969 37.5464 89.2051 37.8281 88.9542 38.1264C88.7032 38.42 88.3718 38.6709 87.9599 38.8793C87.5479 39.0876 87.0295 39.1918 86.4045 39.1918ZM87.1218 37.0824C87.6663 37.0824 88.1303 36.9356 88.5138 36.642C88.8974 36.3437 89.1886 35.9295 89.3874 35.3991C89.5863 34.8688 89.6857 34.2509 89.6857 33.5455C89.6857 32.84 89.5863 32.2268 89.3874 31.706C89.1933 31.1851 88.9045 30.7803 88.521 30.4915C88.1422 30.2027 87.6758 30.0582 87.1218 30.0582C86.5489 30.0582 86.0707 30.2074 85.6871 30.5057C85.3036 30.804 85.0148 31.2159 84.8207 31.7415C84.6265 32.267 84.5295 32.8684 84.5295 33.5455C84.5295 34.2273 84.6265 34.8357 84.8207 35.3707C85.0195 35.901 85.3107 36.3201 85.6942 36.6278C86.0825 36.9309 86.5584 37.0824 87.1218 37.0824ZM101.513 43.0909C101.162 43.0909 100.838 43.0625 100.54 43.0057C100.246 42.9536 100.012 42.892 99.8366 42.821L100.433 40.8182C100.807 40.9271 101.141 40.9792 101.435 40.9744C101.728 40.9697 101.986 40.8774 102.209 40.6974C102.436 40.5223 102.628 40.2287 102.784 39.8168L103.004 39.2273L99.0483 28.0909H101.776L104.29 36.3295H104.403L106.925 28.0909H109.659L105.291 40.321C105.088 40.8987 104.818 41.3935 104.482 41.8054C104.145 42.2221 103.733 42.5393 103.246 42.7571C102.763 42.9796 102.185 43.0909 101.513 43.0909ZM115.826 39.2131C114.76 39.2131 113.837 38.9787 113.056 38.5099C112.275 38.0412 111.668 37.3854 111.238 36.5426C110.811 35.6998 110.598 34.715 110.598 33.5881C110.598 32.4612 110.811 31.474 111.238 30.6264C111.668 29.7789 112.275 29.1207 113.056 28.652C113.837 28.1832 114.76 27.9489 115.826 27.9489C116.891 27.9489 117.814 28.1832 118.596 28.652C119.377 29.1207 119.98 29.7789 120.407 30.6264C120.837 31.474 121.053 32.4612 121.053 33.5881C121.053 34.715 120.837 35.6998 120.407 36.5426C119.98 37.3854 119.377 38.0412 118.596 38.5099C117.814 38.9787 116.891 39.2131 115.826 39.2131ZM115.84 37.1534C116.417 37.1534 116.9 36.9948 117.289 36.6776C117.677 36.3556 117.966 35.9247 118.155 35.3849C118.349 34.8452 118.446 34.2438 118.446 33.581C118.446 32.9134 118.349 32.3097 118.155 31.7699C117.966 31.2254 117.677 30.7921 117.289 30.4702C116.9 30.1482 116.417 29.9872 115.84 29.9872C115.248 29.9872 114.756 30.1482 114.363 30.4702C113.974 30.7921 113.683 31.2254 113.489 31.7699C113.3 32.3097 113.205 32.9134 113.205 33.581C113.205 34.2438 113.3 34.8452 113.489 35.3849C113.683 35.9247 113.974 36.3556 114.363 36.6776C114.756 36.9948 115.248 37.1534 115.84 37.1534ZM130.188 34.4119V28.0909H132.759V39H130.266V37.0611H130.153C129.906 37.6719 129.502 38.1714 128.938 38.5597C128.379 38.9479 127.691 39.142 126.871 39.142C126.156 39.142 125.524 38.9834 124.975 38.6662C124.431 38.3442 124.004 37.8778 123.697 37.267C123.389 36.6515 123.235 35.9081 123.235 35.0369V28.0909H125.806V34.6392C125.806 35.3305 125.996 35.8797 126.374 36.2869C126.753 36.6941 127.25 36.8977 127.866 36.8977C128.245 36.8977 128.612 36.8054 128.967 36.6207C129.322 36.4361 129.613 36.1615 129.84 35.7969C130.072 35.4276 130.188 34.9659 130.188 34.4119ZM135.403 39V28.0909H137.896V29.9091H138.01C138.208 29.2794 138.549 28.794 139.032 28.4531C139.52 28.1075 140.076 27.9347 140.701 27.9347C140.843 27.9347 141.002 27.9418 141.177 27.956C141.357 27.9654 141.506 27.982 141.625 28.0057V30.3707C141.516 30.3329 141.343 30.2997 141.106 30.2713C140.874 30.2382 140.649 30.2216 140.431 30.2216C139.963 30.2216 139.541 30.3234 139.167 30.527C138.798 30.7259 138.507 31.0028 138.294 31.358C138.081 31.7131 137.974 32.1226 137.974 32.5866V39H135.403ZM160.36 24.4545V39H158.017L151.163 29.0923H151.042V39H148.407V24.4545H150.765L157.612 34.3693H157.74V24.4545H160.36ZM166.257 39.2202C165.566 39.2202 164.943 39.0971 164.389 38.8509C163.84 38.5999 163.404 38.2306 163.082 37.7429C162.765 37.2552 162.607 36.6539 162.607 35.9389C162.607 35.3234 162.72 34.8144 162.947 34.4119C163.175 34.0095 163.485 33.6875 163.878 33.446C164.271 33.2045 164.714 33.0223 165.206 32.8991C165.703 32.7713 166.217 32.679 166.747 32.6222C167.386 32.5559 167.905 32.4967 168.303 32.4446C168.7 32.3878 168.989 32.3026 169.169 32.1889C169.354 32.0705 169.446 31.8883 169.446 31.642V31.5994C169.446 31.0644 169.287 30.6501 168.97 30.3565C168.653 30.063 168.196 29.9162 167.599 29.9162C166.97 29.9162 166.47 30.0535 166.101 30.3281C165.736 30.6027 165.49 30.9271 165.362 31.3011L162.962 30.9602C163.151 30.2973 163.464 29.7434 163.899 29.2983C164.335 28.8485 164.867 28.5123 165.497 28.2898C166.127 28.0625 166.823 27.9489 167.585 27.9489C168.111 27.9489 168.634 28.0104 169.155 28.1335C169.676 28.2566 170.152 28.4602 170.582 28.7443C171.013 29.0237 171.359 29.4048 171.619 29.8878C171.884 30.3707 172.017 30.9744 172.017 31.6989V39H169.545V37.5014H169.46C169.304 37.8045 169.084 38.0885 168.8 38.3537C168.52 38.6141 168.168 38.8248 167.741 38.9858C167.32 39.142 166.825 39.2202 166.257 39.2202ZM166.925 37.331C167.441 37.331 167.888 37.2292 168.267 37.0256C168.646 36.8172 168.937 36.5426 169.141 36.2017C169.349 35.8608 169.453 35.4891 169.453 35.0866V33.8011C169.373 33.8674 169.235 33.929 169.041 33.9858C168.852 34.0426 168.639 34.0923 168.402 34.1349C168.165 34.1776 167.931 34.2154 167.699 34.2486C167.467 34.2817 167.266 34.3101 167.095 34.3338C166.712 34.3859 166.368 34.4711 166.065 34.5895C165.762 34.7079 165.523 34.8736 165.348 35.0866C165.173 35.295 165.085 35.5649 165.085 35.8963C165.085 36.3698 165.258 36.7273 165.604 36.9688C165.949 37.2102 166.39 37.331 166.925 37.331ZM180.05 28.0909V30.0795H173.778V28.0909H180.05ZM175.327 25.4773H177.898V35.7188C177.898 36.0644 177.95 36.3295 178.054 36.5142C178.163 36.6941 178.305 36.8172 178.48 36.8835C178.655 36.9498 178.849 36.983 179.062 36.983C179.223 36.983 179.37 36.9711 179.503 36.9474C179.64 36.9238 179.744 36.9025 179.815 36.8835L180.249 38.8935C180.111 38.9408 179.915 38.9929 179.659 39.0497C179.408 39.1065 179.1 39.1397 178.736 39.1491C178.092 39.1681 177.512 39.071 176.996 38.858C176.48 38.6402 176.07 38.304 175.767 37.8494C175.469 37.3949 175.322 36.8267 175.327 36.1449V25.4773ZM182.2 39V28.0909H184.771V39H182.2ZM183.493 26.5426C183.085 26.5426 182.735 26.4077 182.441 26.1378C182.148 25.8632 182.001 25.5341 182.001 25.1506C182.001 24.7623 182.148 24.4332 182.441 24.1634C182.735 23.8887 183.085 23.7514 183.493 23.7514C183.904 23.7514 184.255 23.8887 184.544 24.1634C184.837 24.4332 184.984 24.7623 184.984 25.1506C184.984 25.5341 184.837 25.8632 184.544 26.1378C184.255 26.4077 183.904 26.5426 183.493 26.5426ZM192.173 39.2131C191.108 39.2131 190.185 38.9787 189.403 38.5099C188.622 38.0412 188.016 37.3854 187.585 36.5426C187.159 35.6998 186.946 34.715 186.946 33.5881C186.946 32.4612 187.159 31.474 187.585 30.6264C188.016 29.7789 188.622 29.1207 189.403 28.652C190.185 28.1832 191.108 27.9489 192.173 27.9489C193.239 27.9489 194.162 28.1832 194.943 28.652C195.724 29.1207 196.328 29.7789 196.754 30.6264C197.185 31.474 197.401 32.4612 197.401 33.5881C197.401 34.715 197.185 35.6998 196.754 36.5426C196.328 37.3854 195.724 38.0412 194.943 38.5099C194.162 38.9787 193.239 39.2131 192.173 39.2131ZM192.188 37.1534C192.765 37.1534 193.248 36.9948 193.636 36.6776C194.025 36.3556 194.313 35.9247 194.503 35.3849C194.697 34.8452 194.794 34.2438 194.794 33.581C194.794 32.9134 194.697 32.3097 194.503 31.7699C194.313 31.2254 194.025 30.7921 193.636 30.4702C193.248 30.1482 192.765 29.9872 192.188 29.9872C191.596 29.9872 191.103 30.1482 190.71 30.4702C190.322 30.7921 190.031 31.2254 189.837 31.7699C189.647 32.3097 189.553 32.9134 189.553 33.581C189.553 34.2438 189.647 34.8452 189.837 35.3849C190.031 35.9247 190.322 36.3556 190.71 36.6776C191.103 36.9948 191.596 37.1534 192.188 37.1534ZM202.154 32.608V39H199.583V28.0909H202.04V29.9446H202.168C202.419 29.3338 202.819 28.8485 203.368 28.4886C203.922 28.1288 204.606 27.9489 205.421 27.9489C206.174 27.9489 206.829 28.1098 207.388 28.4318C207.952 28.7538 208.387 29.2202 208.695 29.831C209.007 30.4418 209.161 31.1828 209.157 32.054V39H206.586V32.4517C206.586 31.7225 206.396 31.152 206.017 30.7401C205.643 30.3281 205.125 30.1222 204.462 30.1222C204.012 30.1222 203.612 30.2216 203.262 30.4205C202.916 30.6146 202.644 30.8963 202.445 31.2656C202.251 31.6349 202.154 32.0824 202.154 32.608ZM214.909 39.2202C214.218 39.2202 213.596 39.0971 213.042 38.8509C212.492 38.5999 212.057 38.2306 211.735 37.7429C211.417 37.2552 211.259 36.6539 211.259 35.9389C211.259 35.3234 211.373 34.8144 211.6 34.4119C211.827 34.0095 212.137 33.6875 212.53 33.446C212.923 33.2045 213.366 33.0223 213.858 32.8991C214.355 32.7713 214.869 32.679 215.4 32.6222C216.039 32.5559 216.557 32.4967 216.955 32.4446C217.353 32.3878 217.641 32.3026 217.821 32.1889C218.006 32.0705 218.098 31.8883 218.098 31.642V31.5994C218.098 31.0644 217.94 30.6501 217.623 30.3565C217.305 30.063 216.848 29.9162 216.252 29.9162C215.622 29.9162 215.123 30.0535 214.753 30.3281C214.389 30.6027 214.142 30.9271 214.015 31.3011L211.614 30.9602C211.803 30.2973 212.116 29.7434 212.551 29.2983C212.987 28.8485 213.52 28.5123 214.15 28.2898C214.779 28.0625 215.475 27.9489 216.238 27.9489C216.763 27.9489 217.286 28.0104 217.807 28.1335C218.328 28.2566 218.804 28.4602 219.235 28.7443C219.666 29.0237 220.011 29.4048 220.272 29.8878C220.537 30.3707 220.669 30.9744 220.669 31.6989V39H218.198V37.5014H218.113C217.956 37.8045 217.736 38.0885 217.452 38.3537C217.173 38.6141 216.82 38.8248 216.394 38.9858C215.972 39.142 215.478 39.2202 214.909 39.2202ZM215.577 37.331C216.093 37.331 216.541 37.2292 216.919 37.0256C217.298 36.8172 217.589 36.5426 217.793 36.2017C218.001 35.8608 218.105 35.4891 218.105 35.0866V33.8011C218.025 33.8674 217.888 33.929 217.694 33.9858C217.504 34.0426 217.291 34.0923 217.054 34.1349C216.818 34.1776 216.583 34.2154 216.351 34.2486C216.119 34.2817 215.918 34.3101 215.748 34.3338C215.364 34.3859 215.021 34.4711 214.718 34.5895C214.415 34.7079 214.176 34.8736 214 35.0866C213.825 35.295 213.738 35.5649 213.738 35.8963C213.738 36.3698 213.91 36.7273 214.256 36.9688C214.602 37.2102 215.042 37.331 215.577 37.331ZM225.826 24.4545V39H223.255V24.4545H225.826ZM236.179 24.4545V39H233.544V24.4545H236.179ZM243.961 39H239.032V24.4545H244.061C245.505 24.4545 246.745 24.7457 247.782 25.3281C248.824 25.9058 249.624 26.7367 250.183 27.821C250.742 28.9053 251.021 30.2027 251.021 31.7131C251.021 33.2282 250.739 34.5303 250.176 35.6193C249.617 36.7083 248.81 37.544 247.754 38.1264C246.703 38.7088 245.439 39 243.961 39ZM241.667 36.7202H243.833C244.847 36.7202 245.692 36.5355 246.369 36.1662C247.046 35.7921 247.555 35.2358 247.896 34.4972C248.237 33.7538 248.407 32.8258 248.407 31.7131C248.407 30.6004 248.237 29.6771 247.896 28.9432C247.555 28.2045 247.051 27.6529 246.383 27.2884C245.72 26.919 244.896 26.7344 243.912 26.7344H241.667V36.7202ZM262.033 30.9744L259.689 31.2301C259.623 30.9934 259.507 30.7708 259.341 30.5625C259.18 30.3542 258.962 30.1861 258.688 30.0582C258.413 29.9304 258.077 29.8665 257.679 29.8665C257.144 29.8665 256.694 29.9825 256.33 30.2145C255.97 30.4465 255.792 30.7472 255.797 31.1165C255.792 31.4337 255.908 31.6918 256.145 31.8906C256.387 32.0895 256.784 32.2528 257.338 32.3807L259.199 32.7784C260.231 33.0009 260.998 33.3537 261.5 33.8366C262.007 34.3196 262.263 34.9517 262.267 35.733C262.263 36.4195 262.061 37.0256 261.664 37.5511C261.271 38.072 260.724 38.4792 260.023 38.7727C259.322 39.0663 258.517 39.2131 257.608 39.2131C256.273 39.2131 255.198 38.9337 254.384 38.375C253.569 37.8116 253.084 37.0279 252.928 36.0241L255.435 35.7827C255.549 36.2751 255.79 36.6468 256.159 36.8977C256.529 37.1487 257.009 37.2741 257.601 37.2741C258.212 37.2741 258.702 37.1487 259.071 36.8977C259.445 36.6468 259.632 36.3366 259.632 35.9673C259.632 35.6548 259.512 35.3968 259.27 35.1932C259.033 34.9896 258.664 34.8333 258.162 34.7244L256.301 34.3338C255.255 34.116 254.481 33.7491 253.979 33.233C253.477 32.7121 253.229 32.054 253.233 31.2585C253.229 30.5862 253.411 30.0038 253.78 29.5114C254.154 29.0142 254.673 28.6307 255.336 28.3608C256.003 28.0862 256.773 27.9489 257.644 27.9489C258.922 27.9489 259.928 28.2211 260.662 28.7656C261.401 29.3101 261.858 30.0464 262.033 30.9744Z" fill="black"/>
<path d="M26.4091 112V100.364H33.3864V101.614H27.8182V105.545H32.8636V106.795H27.8182V112H26.4091ZM38.5227 112.182C37.7348 112.182 37.0436 111.994 36.4489 111.619C35.858 111.244 35.3958 110.72 35.0625 110.045C34.733 109.371 34.5682 108.583 34.5682 107.682C34.5682 106.773 34.733 105.979 35.0625 105.301C35.3958 104.623 35.858 104.097 36.4489 103.722C37.0436 103.347 37.7348 103.159 38.5227 103.159C39.3106 103.159 40 103.347 40.5909 103.722C41.1856 104.097 41.6477 104.623 41.9773 105.301C42.3106 105.979 42.4773 106.773 42.4773 107.682C42.4773 108.583 42.3106 109.371 41.9773 110.045C41.6477 110.72 41.1856 111.244 40.5909 111.619C40 111.994 39.3106 112.182 38.5227 112.182ZM38.5227 110.977C39.1212 110.977 39.6136 110.824 40 110.517C40.3864 110.21 40.6723 109.807 40.858 109.307C41.0436 108.807 41.1364 108.265 41.1364 107.682C41.1364 107.098 41.0436 106.555 40.858 106.051C40.6723 105.547 40.3864 105.14 40 104.83C39.6136 104.519 39.1212 104.364 38.5227 104.364C37.9242 104.364 37.4318 104.519 37.0455 104.83C36.6591 105.14 36.3731 105.547 36.1875 106.051C36.0019 106.555 35.9091 107.098 35.9091 107.682C35.9091 108.265 36.0019 108.807 36.1875 109.307C36.3731 109.807 36.6591 110.21 37.0455 110.517C37.4318 110.824 37.9242 110.977 38.5227 110.977ZM44.5241 112V103.273H45.8196V104.591H45.9105C46.0696 104.159 46.3575 103.809 46.7741 103.54C47.1908 103.271 47.6605 103.136 48.1832 103.136C48.2817 103.136 48.4048 103.138 48.5526 103.142C48.7003 103.146 48.812 103.152 48.8878 103.159V104.523C48.8423 104.511 48.7382 104.494 48.5753 104.472C48.4162 104.445 48.2476 104.432 48.0696 104.432C47.6454 104.432 47.2666 104.521 46.9332 104.699C46.6037 104.873 46.3423 105.116 46.1491 105.426C45.9598 105.733 45.8651 106.083 45.8651 106.477V112H44.5241ZM50.4773 112V103.273H51.7727V104.636H51.8864C52.0682 104.17 52.3617 103.809 52.767 103.551C53.1723 103.29 53.6591 103.159 54.2273 103.159C54.803 103.159 55.2822 103.29 55.6648 103.551C56.0511 103.809 56.3523 104.17 56.5682 104.636H56.6591C56.8826 104.186 57.2178 103.828 57.6648 103.562C58.1117 103.294 58.6477 103.159 59.2727 103.159C60.053 103.159 60.6913 103.403 61.1875 103.892C61.6837 104.377 61.9318 105.133 61.9318 106.159V112H60.5909V106.159C60.5909 105.515 60.4148 105.055 60.0625 104.778C59.7102 104.502 59.2955 104.364 58.8182 104.364C58.2045 104.364 57.7292 104.549 57.392 104.92C57.0549 105.288 56.8864 105.754 56.8864 106.318V112H55.5227V106.023C55.5227 105.527 55.3617 105.127 55.0398 104.824C54.7178 104.517 54.303 104.364 53.7955 104.364C53.447 104.364 53.1212 104.456 52.8182 104.642C52.5189 104.828 52.2765 105.085 52.0909 105.415C51.9091 105.741 51.8182 106.117 51.8182 106.545V112H50.4773ZM66.9517 112.205C66.3987 112.205 65.8968 112.1 65.446 111.892C64.9953 111.68 64.6373 111.375 64.3722 110.977C64.107 110.576 63.9744 110.091 63.9744 109.523C63.9744 109.023 64.0729 108.617 64.2699 108.307C64.4669 107.992 64.7301 107.746 65.0597 107.568C65.3892 107.39 65.7528 107.258 66.1506 107.17C66.5521 107.08 66.9555 107.008 67.3608 106.955C67.8911 106.886 68.321 106.835 68.6506 106.801C68.9839 106.763 69.2263 106.701 69.3778 106.614C69.5331 106.527 69.6108 106.375 69.6108 106.159V106.114C69.6108 105.553 69.4574 105.117 69.1506 104.807C68.8475 104.496 68.3873 104.341 67.7699 104.341C67.1297 104.341 66.6278 104.481 66.2642 104.761C65.9006 105.042 65.6449 105.341 65.4972 105.659L64.2244 105.205C64.4517 104.674 64.7547 104.261 65.1335 103.966C65.5161 103.667 65.9328 103.458 66.3835 103.341C66.8381 103.22 67.285 103.159 67.7244 103.159C68.0047 103.159 68.3267 103.193 68.6903 103.261C69.0578 103.326 69.4119 103.46 69.7528 103.665C70.0975 103.869 70.3835 104.178 70.6108 104.591C70.8381 105.004 70.9517 105.557 70.9517 106.25V112H69.6108V110.818H69.5426C69.4517 111.008 69.3002 111.21 69.0881 111.426C68.8759 111.642 68.5938 111.826 68.2415 111.977C67.8892 112.129 67.4593 112.205 66.9517 112.205ZM67.1562 111C67.6866 111 68.1335 110.896 68.4972 110.688C68.8646 110.479 69.1411 110.21 69.3267 109.881C69.5161 109.551 69.6108 109.205 69.6108 108.841V107.614C69.554 107.682 69.429 107.744 69.2358 107.801C69.0464 107.854 68.8267 107.902 68.5767 107.943C68.3305 107.981 68.09 108.015 67.8551 108.045C67.6241 108.072 67.4366 108.095 67.2926 108.114C66.9441 108.159 66.6184 108.233 66.3153 108.335C66.0161 108.434 65.7737 108.583 65.5881 108.784C65.4063 108.981 65.3153 109.25 65.3153 109.591C65.3153 110.057 65.4877 110.409 65.8324 110.648C66.1809 110.883 66.6222 111 67.1562 111ZM77.1946 103.273V104.409H72.6719V103.273H77.1946ZM73.9901 101.182H75.331V109.5C75.331 109.879 75.3859 110.163 75.4957 110.352C75.6094 110.538 75.7533 110.663 75.9276 110.727C76.1056 110.788 76.2931 110.818 76.4901 110.818C76.6378 110.818 76.759 110.811 76.8537 110.795C76.9484 110.777 77.0241 110.761 77.081 110.75L77.3537 111.955C77.2628 111.989 77.1359 112.023 76.973 112.057C76.8101 112.095 76.6037 112.114 76.3537 112.114C75.9749 112.114 75.6037 112.032 75.2401 111.869C74.8802 111.706 74.581 111.458 74.3423 111.125C74.1075 110.792 73.9901 110.371 73.9901 109.864V101.182ZM85.2372 105.227L84.0327 105.568C83.9569 105.367 83.8452 105.172 83.6974 104.983C83.5535 104.79 83.3565 104.631 83.1065 104.506C82.8565 104.381 82.5365 104.318 82.1463 104.318C81.6122 104.318 81.1671 104.441 80.8111 104.688C80.4588 104.93 80.2827 105.239 80.2827 105.614C80.2827 105.947 80.4039 106.21 80.6463 106.403C80.8887 106.597 81.2675 106.758 81.7827 106.886L83.0781 107.205C83.8584 107.394 84.4399 107.684 84.8224 108.074C85.205 108.46 85.3963 108.958 85.3963 109.568C85.3963 110.068 85.2524 110.515 84.9645 110.909C84.6804 111.303 84.2827 111.614 83.7713 111.841C83.2599 112.068 82.6652 112.182 81.9872 112.182C81.0971 112.182 80.3603 111.989 79.777 111.602C79.1937 111.216 78.8243 110.652 78.669 109.909L79.9418 109.591C80.063 110.061 80.2921 110.413 80.6293 110.648C80.9702 110.883 81.4152 111 81.9645 111C82.5895 111 83.0857 110.867 83.4531 110.602C83.8243 110.333 84.0099 110.011 84.0099 109.636C84.0099 109.333 83.9039 109.08 83.6918 108.875C83.4796 108.667 83.1539 108.511 82.7145 108.409L81.2599 108.068C80.4607 107.879 79.8736 107.585 79.4986 107.188C79.1274 106.786 78.9418 106.284 78.9418 105.682C78.9418 105.189 79.08 104.754 79.3565 104.375C79.6368 103.996 80.0175 103.699 80.4986 103.483C80.9834 103.267 81.5327 103.159 82.1463 103.159C83.0099 103.159 83.688 103.348 84.1804 103.727C84.6766 104.106 85.0289 104.606 85.2372 105.227ZM94.483 112.205C93.9299 112.205 93.428 112.1 92.9773 111.892C92.5265 111.68 92.1686 111.375 91.9034 110.977C91.6383 110.576 91.5057 110.091 91.5057 109.523C91.5057 109.023 91.6042 108.617 91.8011 108.307C91.9981 107.992 92.2614 107.746 92.5909 107.568C92.9205 107.39 93.2841 107.258 93.6818 107.17C94.0833 107.08 94.4867 107.008 94.892 106.955C95.4223 106.886 95.8523 106.835 96.1818 106.801C96.5152 106.763 96.7576 106.701 96.9091 106.614C97.0644 106.527 97.142 106.375 97.142 106.159V106.114C97.142 105.553 96.9886 105.117 96.6818 104.807C96.3788 104.496 95.9186 104.341 95.3011 104.341C94.661 104.341 94.1591 104.481 93.7955 104.761C93.4318 105.042 93.1761 105.341 93.0284 105.659L91.7557 105.205C91.983 104.674 92.286 104.261 92.6648 103.966C93.0473 103.667 93.464 103.458 93.9148 103.341C94.3693 103.22 94.8163 103.159 95.2557 103.159C95.536 103.159 95.858 103.193 96.2216 103.261C96.589 103.326 96.9432 103.46 97.2841 103.665C97.6288 103.869 97.9148 104.178 98.142 104.591C98.3693 105.004 98.483 105.557 98.483 106.25V112H97.142V110.818H97.0739C96.983 111.008 96.8314 111.21 96.6193 111.426C96.4072 111.642 96.125 111.826 95.7727 111.977C95.4205 112.129 94.9905 112.205 94.483 112.205ZM94.6875 111C95.2178 111 95.6648 110.896 96.0284 110.688C96.3958 110.479 96.6723 110.21 96.858 109.881C97.0473 109.551 97.142 109.205 97.142 108.841V107.614C97.0852 107.682 96.9602 107.744 96.767 107.801C96.5777 107.854 96.358 107.902 96.108 107.943C95.8617 107.981 95.6212 108.015 95.3864 108.045C95.1553 108.072 94.9678 108.095 94.8239 108.114C94.4754 108.159 94.1496 108.233 93.8466 108.335C93.5473 108.434 93.3049 108.583 93.1193 108.784C92.9375 108.981 92.8466 109.25 92.8466 109.591C92.8466 110.057 93.0189 110.409 93.3636 110.648C93.7121 110.883 94.1534 111 94.6875 111ZM104.476 112.182C103.658 112.182 102.953 111.989 102.362 111.602C101.771 111.216 101.317 110.684 100.999 110.006C100.68 109.328 100.521 108.553 100.521 107.682C100.521 106.795 100.684 106.013 101.01 105.335C101.339 104.653 101.798 104.121 102.385 103.739C102.976 103.352 103.665 103.159 104.453 103.159C105.067 103.159 105.62 103.273 106.112 103.5C106.605 103.727 107.008 104.045 107.322 104.455C107.637 104.864 107.832 105.341 107.908 105.886H106.567C106.464 105.489 106.237 105.136 105.885 104.83C105.536 104.519 105.067 104.364 104.476 104.364C103.953 104.364 103.495 104.5 103.101 104.773C102.711 105.042 102.406 105.422 102.186 105.915C101.97 106.403 101.862 106.977 101.862 107.636C101.862 108.311 101.968 108.898 102.18 109.398C102.396 109.898 102.699 110.286 103.089 110.562C103.483 110.839 103.946 110.977 104.476 110.977C104.824 110.977 105.141 110.917 105.425 110.795C105.709 110.674 105.949 110.5 106.146 110.273C106.343 110.045 106.483 109.773 106.567 109.455H107.908C107.832 109.97 107.644 110.434 107.345 110.847C107.05 111.256 106.658 111.581 106.169 111.824C105.684 112.062 105.12 112.182 104.476 112.182ZM113.413 112.182C112.595 112.182 111.891 111.989 111.3 111.602C110.709 111.216 110.254 110.684 109.936 110.006C109.618 109.328 109.459 108.553 109.459 107.682C109.459 106.795 109.622 106.013 109.947 105.335C110.277 104.653 110.735 104.121 111.322 103.739C111.913 103.352 112.603 103.159 113.391 103.159C114.004 103.159 114.557 103.273 115.05 103.5C115.542 103.727 115.946 104.045 116.26 104.455C116.574 104.864 116.769 105.341 116.845 105.886H115.504C115.402 105.489 115.175 105.136 114.822 104.83C114.474 104.519 114.004 104.364 113.413 104.364C112.891 104.364 112.432 104.5 112.038 104.773C111.648 105.042 111.343 105.422 111.124 105.915C110.908 106.403 110.8 106.977 110.8 107.636C110.8 108.311 110.906 108.898 111.118 109.398C111.334 109.898 111.637 110.286 112.027 110.562C112.421 110.839 112.883 110.977 113.413 110.977C113.762 110.977 114.078 110.917 114.362 110.795C114.646 110.674 114.887 110.5 115.084 110.273C115.281 110.045 115.421 109.773 115.504 109.455H116.845C116.769 109.97 116.582 110.434 116.283 110.847C115.987 111.256 115.595 111.581 115.107 111.824C114.622 112.062 114.057 112.182 113.413 112.182ZM122.464 112.182C121.624 112.182 120.898 111.996 120.288 111.625C119.682 111.25 119.214 110.727 118.885 110.057C118.559 109.383 118.396 108.598 118.396 107.705C118.396 106.811 118.559 106.023 118.885 105.341C119.214 104.655 119.673 104.121 120.26 103.739C120.851 103.352 121.54 103.159 122.328 103.159C122.783 103.159 123.232 103.235 123.675 103.386C124.118 103.538 124.521 103.784 124.885 104.125C125.249 104.462 125.538 104.909 125.754 105.466C125.97 106.023 126.078 106.708 126.078 107.523V108.091H119.351V106.932H124.714C124.714 106.439 124.616 106 124.419 105.614C124.226 105.227 123.949 104.922 123.589 104.699C123.233 104.475 122.813 104.364 122.328 104.364C121.794 104.364 121.332 104.496 120.942 104.761C120.555 105.023 120.258 105.364 120.05 105.784C119.841 106.205 119.737 106.655 119.737 107.136V107.909C119.737 108.568 119.851 109.127 120.078 109.585C120.309 110.04 120.629 110.386 121.038 110.625C121.447 110.86 121.923 110.977 122.464 110.977C122.817 110.977 123.135 110.928 123.419 110.83C123.707 110.727 123.955 110.576 124.163 110.375C124.372 110.17 124.533 109.917 124.646 109.614L125.942 109.977C125.805 110.417 125.576 110.803 125.254 111.136C124.932 111.466 124.535 111.723 124.061 111.909C123.588 112.091 123.055 112.182 122.464 112.182ZM128.118 115.273V103.273H129.413V104.659H129.572C129.671 104.508 129.807 104.314 129.982 104.08C130.16 103.841 130.413 103.629 130.743 103.443C131.076 103.254 131.527 103.159 132.095 103.159C132.83 103.159 133.478 103.343 134.038 103.71C134.599 104.078 135.036 104.598 135.351 105.273C135.665 105.947 135.822 106.742 135.822 107.659C135.822 108.583 135.665 109.384 135.351 110.062C135.036 110.737 134.601 111.259 134.044 111.631C133.487 111.998 132.845 112.182 132.118 112.182C131.557 112.182 131.108 112.089 130.771 111.903C130.434 111.714 130.175 111.5 129.993 111.261C129.811 111.019 129.671 110.818 129.572 110.659H129.459V115.273H128.118ZM129.436 107.636C129.436 108.295 129.533 108.877 129.726 109.381C129.919 109.881 130.201 110.273 130.572 110.557C130.944 110.837 131.398 110.977 131.936 110.977C132.497 110.977 132.964 110.83 133.339 110.534C133.718 110.235 134.002 109.833 134.192 109.33C134.385 108.822 134.482 108.258 134.482 107.636C134.482 107.023 134.387 106.47 134.197 105.977C134.012 105.481 133.73 105.089 133.351 104.801C132.976 104.509 132.504 104.364 131.936 104.364C131.391 104.364 130.932 104.502 130.561 104.778C130.19 105.051 129.91 105.434 129.72 105.926C129.531 106.415 129.436 106.985 129.436 107.636ZM141.663 103.273V104.409H137.141V103.273H141.663ZM138.459 101.182H139.8V109.5C139.8 109.879 139.855 110.163 139.964 110.352C140.078 110.538 140.222 110.663 140.396 110.727C140.574 110.788 140.762 110.818 140.959 110.818C141.107 110.818 141.228 110.811 141.322 110.795C141.417 110.777 141.493 110.761 141.55 110.75L141.822 111.955C141.732 111.989 141.605 112.023 141.442 112.057C141.279 112.095 141.072 112.114 140.822 112.114C140.444 112.114 140.072 112.032 139.709 111.869C139.349 111.706 139.05 111.458 138.811 111.125C138.576 110.792 138.459 110.371 138.459 109.864V101.182ZM147.246 112.182C146.405 112.182 145.679 111.996 145.07 111.625C144.464 111.25 143.996 110.727 143.666 110.057C143.34 109.383 143.178 108.598 143.178 107.705C143.178 106.811 143.34 106.023 143.666 105.341C143.996 104.655 144.454 104.121 145.041 103.739C145.632 103.352 146.321 103.159 147.109 103.159C147.564 103.159 148.013 103.235 148.456 103.386C148.899 103.538 149.303 103.784 149.666 104.125C150.03 104.462 150.32 104.909 150.536 105.466C150.751 106.023 150.859 106.708 150.859 107.523V108.091H144.132V106.932H149.496C149.496 106.439 149.397 106 149.2 105.614C149.007 105.227 148.731 104.922 148.371 104.699C148.015 104.475 147.594 104.364 147.109 104.364C146.575 104.364 146.113 104.496 145.723 104.761C145.337 105.023 145.039 105.364 144.831 105.784C144.623 106.205 144.518 106.655 144.518 107.136V107.909C144.518 108.568 144.632 109.127 144.859 109.585C145.09 110.04 145.411 110.386 145.82 110.625C146.229 110.86 146.704 110.977 147.246 110.977C147.598 110.977 147.916 110.928 148.2 110.83C148.488 110.727 148.736 110.576 148.945 110.375C149.153 110.17 149.314 109.917 149.428 109.614L150.723 109.977C150.587 110.417 150.357 110.803 150.036 111.136C149.714 111.466 149.316 111.723 148.842 111.909C148.369 112.091 147.837 112.182 147.246 112.182ZM156.195 112.182C155.467 112.182 154.825 111.998 154.268 111.631C153.712 111.259 153.276 110.737 152.962 110.062C152.647 109.384 152.49 108.583 152.49 107.659C152.49 106.742 152.647 105.947 152.962 105.273C153.276 104.598 153.714 104.078 154.274 103.71C154.835 103.343 155.482 103.159 156.217 103.159C156.786 103.159 157.234 103.254 157.564 103.443C157.897 103.629 158.151 103.841 158.325 104.08C158.503 104.314 158.642 104.508 158.74 104.659H158.854V100.364H160.195V112H158.899V110.659H158.74C158.642 110.818 158.501 111.019 158.32 111.261C158.138 111.5 157.878 111.714 157.541 111.903C157.204 112.089 156.755 112.182 156.195 112.182ZM156.376 110.977C156.914 110.977 157.369 110.837 157.74 110.557C158.111 110.273 158.393 109.881 158.587 109.381C158.78 108.877 158.876 108.295 158.876 107.636C158.876 106.985 158.782 106.415 158.592 105.926C158.403 105.434 158.123 105.051 157.751 104.778C157.38 104.502 156.922 104.364 156.376 104.364C155.808 104.364 155.335 104.509 154.956 104.801C154.581 105.089 154.299 105.481 154.109 105.977C153.924 106.47 153.831 107.023 153.831 107.636C153.831 108.258 153.926 108.822 154.115 109.33C154.308 109.833 154.592 110.235 154.967 110.534C155.346 110.83 155.816 110.977 156.376 110.977ZM169.905 112.205C169.352 112.205 168.85 112.1 168.399 111.892C167.948 111.68 167.59 111.375 167.325 110.977C167.06 110.576 166.928 110.091 166.928 109.523C166.928 109.023 167.026 108.617 167.223 108.307C167.42 107.992 167.683 107.746 168.013 107.568C168.342 107.39 168.706 107.258 169.104 107.17C169.505 107.08 169.909 107.008 170.314 106.955C170.844 106.886 171.274 106.835 171.604 106.801C171.937 106.763 172.179 106.701 172.331 106.614C172.486 106.527 172.564 106.375 172.564 106.159V106.114C172.564 105.553 172.411 105.117 172.104 104.807C171.801 104.496 171.34 104.341 170.723 104.341C170.083 104.341 169.581 104.481 169.217 104.761C168.854 105.042 168.598 105.341 168.45 105.659L167.178 105.205C167.405 104.674 167.708 104.261 168.087 103.966C168.469 103.667 168.886 103.458 169.337 103.341C169.791 103.22 170.238 103.159 170.678 103.159C170.958 103.159 171.28 103.193 171.643 103.261C172.011 103.326 172.365 103.46 172.706 103.665C173.051 103.869 173.337 104.178 173.564 104.591C173.791 105.004 173.905 105.557 173.905 106.25V112H172.564V110.818H172.496C172.405 111.008 172.253 111.21 172.041 111.426C171.829 111.642 171.547 111.826 171.195 111.977C170.842 112.129 170.412 112.205 169.905 112.205ZM170.109 111C170.64 111 171.087 110.896 171.45 110.688C171.818 110.479 172.094 110.21 172.28 109.881C172.469 109.551 172.564 109.205 172.564 108.841V107.614C172.507 107.682 172.382 107.744 172.189 107.801C172 107.854 171.78 107.902 171.53 107.943C171.284 107.981 171.043 108.015 170.808 108.045C170.577 108.072 170.39 108.095 170.246 108.114C169.897 108.159 169.571 108.233 169.268 108.335C168.969 108.434 168.727 108.583 168.541 108.784C168.359 108.981 168.268 109.25 168.268 109.591C168.268 110.057 168.441 110.409 168.786 110.648C169.134 110.883 169.575 111 170.109 111ZM176.352 112V103.273H177.648V104.591H177.739C177.898 104.159 178.186 103.809 178.602 103.54C179.019 103.271 179.489 103.136 180.011 103.136C180.11 103.136 180.233 103.138 180.381 103.142C180.528 103.146 180.64 103.152 180.716 103.159V104.523C180.67 104.511 180.566 104.494 180.403 104.472C180.244 104.445 180.076 104.432 179.898 104.432C179.473 104.432 179.095 104.521 178.761 104.699C178.432 104.873 178.17 105.116 177.977 105.426C177.788 105.733 177.693 106.083 177.693 106.477V112H176.352ZM185.699 112.182C184.858 112.182 184.133 111.996 183.523 111.625C182.917 111.25 182.449 110.727 182.119 110.057C181.794 109.383 181.631 108.598 181.631 107.705C181.631 106.811 181.794 106.023 182.119 105.341C182.449 104.655 182.907 104.121 183.494 103.739C184.085 103.352 184.775 103.159 185.562 103.159C186.017 103.159 186.466 103.235 186.909 103.386C187.352 103.538 187.756 103.784 188.119 104.125C188.483 104.462 188.773 104.909 188.989 105.466C189.205 106.023 189.312 106.708 189.312 107.523V108.091H182.585V106.932H187.949C187.949 106.439 187.85 106 187.653 105.614C187.46 105.227 187.184 104.922 186.824 104.699C186.468 104.475 186.047 104.364 185.562 104.364C185.028 104.364 184.566 104.496 184.176 104.761C183.79 105.023 183.492 105.364 183.284 105.784C183.076 106.205 182.972 106.655 182.972 107.136V107.909C182.972 108.568 183.085 109.127 183.312 109.585C183.544 110.04 183.864 110.386 184.273 110.625C184.682 110.86 185.157 110.977 185.699 110.977C186.051 110.977 186.369 110.928 186.653 110.83C186.941 110.727 187.189 110.576 187.398 110.375C187.606 110.17 187.767 109.917 187.881 109.614L189.176 109.977C189.04 110.417 188.811 110.803 188.489 111.136C188.167 111.466 187.769 111.723 187.295 111.909C186.822 112.091 186.29 112.182 185.699 112.182ZM196.83 112.091C196.549 112.091 196.309 111.991 196.108 111.79C195.907 111.589 195.807 111.348 195.807 111.068C195.807 110.788 195.907 110.547 196.108 110.347C196.309 110.146 196.549 110.045 196.83 110.045C197.11 110.045 197.35 110.146 197.551 110.347C197.752 110.547 197.852 110.788 197.852 111.068C197.852 111.254 197.805 111.424 197.71 111.58C197.619 111.735 197.496 111.86 197.341 111.955C197.189 112.045 197.019 112.091 196.83 112.091ZM200.259 115.273V103.273H201.554V104.659H201.713C201.812 104.508 201.948 104.314 202.122 104.08C202.3 103.841 202.554 103.629 202.884 103.443C203.217 103.254 203.668 103.159 204.236 103.159C204.971 103.159 205.618 103.343 206.179 103.71C206.74 104.078 207.177 104.598 207.491 105.273C207.806 105.947 207.963 106.742 207.963 107.659C207.963 108.583 207.806 109.384 207.491 110.062C207.177 110.737 206.741 111.259 206.185 111.631C205.628 111.998 204.986 112.182 204.259 112.182C203.698 112.182 203.249 112.089 202.912 111.903C202.575 111.714 202.315 111.5 202.134 111.261C201.952 111.019 201.812 110.818 201.713 110.659H201.599V115.273H200.259ZM201.577 107.636C201.577 108.295 201.673 108.877 201.866 109.381C202.06 109.881 202.342 110.273 202.713 110.557C203.084 110.837 203.539 110.977 204.077 110.977C204.637 110.977 205.105 110.83 205.48 110.534C205.859 110.235 206.143 109.833 206.332 109.33C206.526 108.822 206.622 108.258 206.622 107.636C206.622 107.023 206.527 106.47 206.338 105.977C206.152 105.481 205.87 105.089 205.491 104.801C205.116 104.509 204.645 104.364 204.077 104.364C203.531 104.364 203.073 104.502 202.702 104.778C202.33 105.051 202.05 105.434 201.861 105.926C201.671 106.415 201.577 106.985 201.577 107.636ZM211.349 106.75V112H210.009V103.273H211.304V104.636H211.418C211.622 104.193 211.933 103.837 212.349 103.568C212.766 103.295 213.304 103.159 213.963 103.159C214.554 103.159 215.071 103.28 215.514 103.523C215.957 103.761 216.302 104.125 216.548 104.614C216.795 105.098 216.918 105.712 216.918 106.455V112H215.577V106.545C215.577 105.86 215.399 105.326 215.043 104.943C214.687 104.557 214.198 104.364 213.577 104.364C213.149 104.364 212.766 104.456 212.429 104.642C212.096 104.828 211.832 105.098 211.639 105.455C211.446 105.811 211.349 106.242 211.349 106.75ZM222.891 115.455C222.243 115.455 221.686 115.371 221.22 115.205C220.754 115.042 220.366 114.826 220.055 114.557C219.749 114.292 219.504 114.008 219.322 113.705L220.391 112.955C220.512 113.114 220.665 113.295 220.851 113.5C221.036 113.708 221.29 113.888 221.612 114.04C221.938 114.195 222.364 114.273 222.891 114.273C223.595 114.273 224.177 114.102 224.635 113.761C225.093 113.42 225.322 112.886 225.322 112.159V110.386H225.209C225.11 110.545 224.97 110.742 224.788 110.977C224.61 111.208 224.353 111.415 224.016 111.597C223.682 111.775 223.232 111.864 222.663 111.864C221.959 111.864 221.326 111.697 220.766 111.364C220.209 111.03 219.768 110.545 219.442 109.909C219.12 109.273 218.959 108.5 218.959 107.591C218.959 106.697 219.116 105.919 219.43 105.256C219.745 104.589 220.182 104.074 220.743 103.71C221.304 103.343 221.951 103.159 222.686 103.159C223.254 103.159 223.705 103.254 224.038 103.443C224.375 103.629 224.633 103.841 224.811 104.08C224.993 104.314 225.133 104.508 225.232 104.659H225.368V103.273H226.663V112.25C226.663 113 226.493 113.61 226.152 114.08C225.815 114.553 225.36 114.9 224.788 115.119C224.22 115.343 223.588 115.455 222.891 115.455ZM222.845 110.659C223.383 110.659 223.838 110.536 224.209 110.29C224.58 110.044 224.862 109.689 225.055 109.227C225.249 108.765 225.345 108.212 225.345 107.568C225.345 106.939 225.25 106.384 225.061 105.903C224.872 105.422 224.591 105.045 224.22 104.773C223.849 104.5 223.391 104.364 222.845 104.364C222.277 104.364 221.804 104.508 221.425 104.795C221.05 105.083 220.768 105.47 220.578 105.955C220.393 106.439 220.3 106.977 220.3 107.568C220.3 108.174 220.394 108.71 220.584 109.176C220.777 109.638 221.061 110.002 221.436 110.267C221.815 110.528 222.285 110.659 222.845 110.659ZM236.186 112.205C235.633 112.205 235.131 112.1 234.68 111.892C234.23 111.68 233.872 111.375 233.607 110.977C233.341 110.576 233.209 110.091 233.209 109.523C233.209 109.023 233.307 108.617 233.504 108.307C233.701 107.992 233.964 107.746 234.294 107.568C234.624 107.39 234.987 107.258 235.385 107.17C235.786 107.08 236.19 107.008 236.595 106.955C237.125 106.886 237.555 106.835 237.885 106.801C238.218 106.763 238.461 106.701 238.612 106.614C238.768 106.527 238.845 106.375 238.845 106.159V106.114C238.845 105.553 238.692 105.117 238.385 104.807C238.082 104.496 237.622 104.341 237.004 104.341C236.364 104.341 235.862 104.481 235.499 104.761C235.135 105.042 234.879 105.341 234.732 105.659L233.459 105.205C233.686 104.674 233.989 104.261 234.368 103.966C234.75 103.667 235.167 103.458 235.618 103.341C236.072 103.22 236.519 103.159 236.959 103.159C237.239 103.159 237.561 103.193 237.925 103.261C238.292 103.326 238.646 103.46 238.987 103.665C239.332 103.869 239.618 104.178 239.845 104.591C240.072 105.004 240.186 105.557 240.186 106.25V112H238.845V110.818H238.777C238.686 111.008 238.535 111.21 238.322 111.426C238.11 111.642 237.828 111.826 237.476 111.977C237.124 112.129 236.694 112.205 236.186 112.205ZM236.391 111C236.921 111 237.368 110.896 237.732 110.688C238.099 110.479 238.375 110.21 238.561 109.881C238.75 109.551 238.845 109.205 238.845 108.841V107.614C238.788 107.682 238.663 107.744 238.47 107.801C238.281 107.854 238.061 107.902 237.811 107.943C237.565 107.981 237.324 108.015 237.089 108.045C236.858 108.072 236.671 108.095 236.527 108.114C236.179 108.159 235.853 108.233 235.55 108.335C235.25 108.434 235.008 108.583 234.822 108.784C234.641 108.981 234.55 109.25 234.55 109.591C234.55 110.057 234.722 110.409 235.067 110.648C235.415 110.883 235.857 111 236.391 111ZM243.974 106.75V112H242.634V103.273H243.929V104.636H244.043C244.247 104.193 244.558 103.837 244.974 103.568C245.391 103.295 245.929 103.159 246.588 103.159C247.179 103.159 247.696 103.28 248.139 103.523C248.582 103.761 248.927 104.125 249.173 104.614C249.42 105.098 249.543 105.712 249.543 106.455V112H248.202V106.545C248.202 105.86 248.024 105.326 247.668 104.943C247.312 104.557 246.823 104.364 246.202 104.364C245.774 104.364 245.391 104.456 245.054 104.642C244.721 104.828 244.457 105.098 244.264 105.455C244.071 105.811 243.974 106.242 243.974 106.75ZM255.288 112.182C254.561 112.182 253.919 111.998 253.362 111.631C252.805 111.259 252.37 110.737 252.055 110.062C251.741 109.384 251.584 108.583 251.584 107.659C251.584 106.742 251.741 105.947 252.055 105.273C252.37 104.598 252.807 104.078 253.368 103.71C253.929 103.343 254.576 103.159 255.311 103.159C255.879 103.159 256.328 103.254 256.658 103.443C256.991 103.629 257.245 103.841 257.419 104.08C257.597 104.314 257.735 104.508 257.834 104.659H257.947V100.364H259.288V112H257.993V110.659H257.834C257.735 110.818 257.595 111.019 257.413 111.261C257.232 111.5 256.972 111.714 256.635 111.903C256.298 112.089 255.849 112.182 255.288 112.182ZM255.47 110.977C256.008 110.977 256.463 110.837 256.834 110.557C257.205 110.273 257.487 109.881 257.68 109.381C257.874 108.877 257.97 108.295 257.97 107.636C257.97 106.985 257.875 106.415 257.686 105.926C257.497 105.434 257.216 105.051 256.845 104.778C256.474 104.502 256.016 104.364 255.47 104.364C254.902 104.364 254.429 104.509 254.05 104.801C253.675 105.089 253.393 105.481 253.203 105.977C253.018 106.47 252.925 107.023 252.925 107.636C252.925 108.258 253.019 108.822 253.209 109.33C253.402 109.833 253.686 110.235 254.061 110.534C254.44 110.83 254.91 110.977 255.47 110.977ZM267.408 112.091C267.127 112.091 266.887 111.991 266.686 111.79C266.485 111.589 266.385 111.348 266.385 111.068C266.385 110.788 266.485 110.547 266.686 110.347C266.887 110.146 267.127 110.045 267.408 110.045C267.688 110.045 267.929 110.146 268.129 110.347C268.33 110.547 268.43 110.788 268.43 111.068C268.43 111.254 268.383 111.424 268.288 111.58C268.197 111.735 268.074 111.86 267.919 111.955C267.768 112.045 267.597 112.091 267.408 112.091ZM270.837 103.273H272.178V112.636C272.178 113.174 272.085 113.64 271.899 114.034C271.717 114.428 271.441 114.733 271.07 114.949C270.702 115.165 270.238 115.273 269.678 115.273C269.632 115.273 269.587 115.273 269.541 115.273C269.496 115.273 269.45 115.273 269.405 115.273V114.023C269.45 114.023 269.492 114.023 269.53 114.023C269.568 114.023 269.609 114.023 269.655 114.023C270.064 114.023 270.363 113.902 270.553 113.659C270.742 113.42 270.837 113.08 270.837 112.636V103.273ZM271.496 101.818C271.234 101.818 271.009 101.729 270.82 101.551C270.634 101.373 270.541 101.159 270.541 100.909C270.541 100.659 270.634 100.445 270.82 100.267C271.009 100.089 271.234 100 271.496 100C271.757 100 271.981 100.089 272.166 100.267C272.356 100.445 272.45 100.659 272.45 100.909C272.45 101.159 272.356 101.373 272.166 101.551C271.981 101.729 271.757 101.818 271.496 101.818ZM274.634 115.273V103.273H275.929V104.659H276.088C276.187 104.508 276.323 104.314 276.497 104.08C276.675 103.841 276.929 103.629 277.259 103.443C277.592 103.254 278.043 103.159 278.611 103.159C279.346 103.159 279.993 103.343 280.554 103.71C281.115 104.078 281.552 104.598 281.866 105.273C282.181 105.947 282.338 106.742 282.338 107.659C282.338 108.583 282.181 109.384 281.866 110.062C281.552 110.737 281.116 111.259 280.56 111.631C280.003 111.998 279.361 112.182 278.634 112.182C278.073 112.182 277.624 112.089 277.287 111.903C276.95 111.714 276.69 111.5 276.509 111.261C276.327 111.019 276.187 110.818 276.088 110.659H275.974V115.273H274.634ZM275.952 107.636C275.952 108.295 276.048 108.877 276.241 109.381C276.435 109.881 276.717 110.273 277.088 110.557C277.459 110.837 277.914 110.977 278.452 110.977C279.012 110.977 279.48 110.83 279.855 110.534C280.234 110.235 280.518 109.833 280.707 109.33C280.901 108.822 280.997 108.258 280.997 107.636C280.997 107.023 280.902 106.47 280.713 105.977C280.527 105.481 280.245 105.089 279.866 104.801C279.491 104.509 279.02 104.364 278.452 104.364C277.906 104.364 277.448 104.502 277.077 104.778C276.705 105.051 276.425 105.434 276.236 105.926C276.046 106.415 275.952 106.985 275.952 107.636ZM287.906 115.455C287.259 115.455 286.702 115.371 286.236 115.205C285.77 115.042 285.382 114.826 285.071 114.557C284.764 114.292 284.52 114.008 284.338 113.705L285.406 112.955C285.527 113.114 285.681 113.295 285.866 113.5C286.052 113.708 286.306 113.888 286.628 114.04C286.954 114.195 287.38 114.273 287.906 114.273C288.611 114.273 289.192 114.102 289.651 113.761C290.109 113.42 290.338 112.886 290.338 112.159V110.386H290.224C290.126 110.545 289.986 110.742 289.804 110.977C289.626 111.208 289.368 111.415 289.031 111.597C288.698 111.775 288.247 111.864 287.679 111.864C286.974 111.864 286.342 111.697 285.781 111.364C285.224 111.03 284.783 110.545 284.457 109.909C284.135 109.273 283.974 108.5 283.974 107.591C283.974 106.697 284.132 105.919 284.446 105.256C284.76 104.589 285.198 104.074 285.759 103.71C286.319 103.343 286.967 103.159 287.702 103.159C288.27 103.159 288.721 103.254 289.054 103.443C289.391 103.629 289.649 103.841 289.827 104.08C290.009 104.314 290.149 104.508 290.247 104.659H290.384V103.273H291.679V112.25C291.679 113 291.509 113.61 291.168 114.08C290.83 114.553 290.376 114.9 289.804 115.119C289.236 115.343 288.603 115.455 287.906 115.455ZM287.861 110.659C288.399 110.659 288.853 110.536 289.224 110.29C289.596 110.044 289.878 109.689 290.071 109.227C290.264 108.765 290.361 108.212 290.361 107.568C290.361 106.939 290.266 106.384 290.077 105.903C289.887 105.422 289.607 105.045 289.236 104.773C288.865 104.5 288.406 104.364 287.861 104.364C287.293 104.364 286.819 104.508 286.44 104.795C286.065 105.083 285.783 105.47 285.594 105.955C285.408 106.439 285.315 106.977 285.315 107.568C285.315 108.174 285.41 108.71 285.599 109.176C285.793 109.638 286.077 110.002 286.452 110.267C286.83 110.528 287.3 110.659 287.861 110.659Z" fill="#9D9D9D"/>
</g>
<defs>
<clipPath id="clip0_516_20657">
<rect width="547" height="391" fill="white"/>
</clipPath>
</defs>
</svg>
