<svg width="353" height="93" viewBox="0 0 353 93" fill="none" xmlns="http://www.w3.org/2000/svg">
<path d="M2.53409 1.36364V13H0.778409V1.36364H2.53409ZM6.65341 7.81818V13H4.95455V4.27273H6.58523V5.69318H6.69318C6.89394 5.23106 7.20833 4.85985 7.63636 4.57955C8.06818 4.29924 8.61174 4.15909 9.26705 4.15909C9.86174 4.15909 10.3826 4.28409 10.8295 4.53409C11.2765 4.7803 11.6231 5.14773 11.8693 5.63636C12.1155 6.125 12.2386 6.72917 12.2386 7.44886V13H10.5398V7.65341C10.5398 7.02083 10.375 6.52652 10.0455 6.17045C9.71591 5.81061 9.26326 5.63068 8.6875 5.63068C8.29356 5.63068 7.94318 5.71591 7.63636 5.88636C7.33333 6.05682 7.0928 6.30682 6.91477 6.63636C6.74053 6.96212 6.65341 7.35606 6.65341 7.81818ZM21.0568 6.40341L19.517 6.67614C19.4527 6.47917 19.3504 6.29167 19.2102 6.11364C19.0739 5.93561 18.8883 5.78977 18.6534 5.67614C18.4186 5.5625 18.125 5.50568 17.7727 5.50568C17.2917 5.50568 16.8902 5.61364 16.5682 5.82955C16.2462 6.04167 16.0852 6.31629 16.0852 6.65341C16.0852 6.94508 16.1932 7.17992 16.4091 7.35795C16.625 7.53598 16.9735 7.68182 17.4545 7.79545L18.8409 8.11364C19.6439 8.29924 20.2424 8.58523 20.6364 8.97159C21.0303 9.35795 21.2273 9.85985 21.2273 10.4773C21.2273 11 21.0758 11.4659 20.7727 11.875C20.4735 12.2803 20.0549 12.5985 19.517 12.8295C18.983 13.0606 18.3636 13.1761 17.6591 13.1761C16.6818 13.1761 15.8845 12.9678 15.267 12.5511C14.6496 12.1307 14.2708 11.5341 14.1307 10.7614L15.7727 10.5114C15.875 10.9394 16.0852 11.2633 16.4034 11.483C16.7216 11.6989 17.1364 11.8068 17.6477 11.8068C18.2045 11.8068 18.6496 11.6913 18.983 11.4602C19.3163 11.2254 19.483 10.9394 19.483 10.6023C19.483 10.3295 19.3807 10.1004 19.1761 9.91477C18.9754 9.72917 18.6667 9.58902 18.25 9.49432L16.7727 9.17045C15.9583 8.98485 15.3561 8.68939 14.9659 8.28409C14.5795 7.87879 14.3864 7.36553 14.3864 6.74432C14.3864 6.22917 14.5303 5.77841 14.8182 5.39205C15.1061 5.00568 15.5038 4.70455 16.0114 4.48864C16.5189 4.26894 17.1004 4.15909 17.7557 4.15909C18.6989 4.15909 19.4413 4.36364 19.983 4.77273C20.5246 5.17803 20.8826 5.72159 21.0568 6.40341ZM27.169 4.27273V5.63636H22.402V4.27273H27.169ZM23.6804 2.18182H25.3793V10.4375C25.3793 10.767 25.4285 11.0152 25.527 11.1818C25.6255 11.3447 25.7524 11.4564 25.9077 11.517C26.0668 11.5739 26.2391 11.6023 26.4247 11.6023C26.5611 11.6023 26.6804 11.5928 26.7827 11.5739C26.8849 11.5549 26.9645 11.5398 27.0213 11.5284L27.3281 12.9318C27.2296 12.9697 27.0895 13.0076 26.9077 13.0455C26.7259 13.0871 26.4986 13.1098 26.2259 13.1136C25.7789 13.1212 25.3622 13.0417 24.9759 12.875C24.5895 12.7083 24.277 12.4508 24.0384 12.1023C23.7997 11.7538 23.6804 11.3163 23.6804 10.7898V2.18182ZM29.0483 13V4.27273H30.6903V5.65909H30.7812C30.9403 5.18939 31.2206 4.82008 31.6222 4.55114C32.0275 4.27841 32.4858 4.14205 32.9972 4.14205C33.1032 4.14205 33.2282 4.14583 33.3722 4.15341C33.5199 4.16098 33.6354 4.17045 33.7188 4.18182V5.80682C33.6506 5.78788 33.5294 5.76705 33.3551 5.74432C33.1809 5.7178 33.0066 5.70455 32.8324 5.70455C32.4309 5.70455 32.0729 5.78977 31.7585 5.96023C31.4479 6.12689 31.2017 6.35985 31.0199 6.65909C30.8381 6.95455 30.7472 7.29167 30.7472 7.67045V13H29.0483ZM40.7173 9.38068V4.27273H42.4219V13H40.7514V11.4886H40.6605C40.4598 11.9545 40.1378 12.3428 39.6946 12.6534C39.2552 12.9602 38.7079 13.1136 38.0526 13.1136C37.492 13.1136 36.9957 12.9905 36.5639 12.7443C36.1359 12.4943 35.7988 12.125 35.5526 11.6364C35.3101 11.1477 35.1889 10.5436 35.1889 9.82386V4.27273H36.8878V9.61932C36.8878 10.214 37.0526 10.6875 37.3821 11.0398C37.7116 11.392 38.1397 11.5682 38.6662 11.5682C38.9844 11.5682 39.3007 11.4886 39.6151 11.3295C39.9332 11.1705 40.1965 10.9299 40.4048 10.608C40.617 10.286 40.7211 9.87689 40.7173 9.38068ZM48.3807 13.1761C47.536 13.1761 46.8087 12.9848 46.1989 12.6023C45.5928 12.2159 45.1269 11.6837 44.8011 11.0057C44.4754 10.3277 44.3125 9.55114 44.3125 8.67614C44.3125 7.78977 44.4792 7.00758 44.8125 6.32955C45.1458 5.64773 45.6155 5.11553 46.2216 4.73295C46.8277 4.35038 47.5417 4.15909 48.3636 4.15909C49.0265 4.15909 49.6174 4.2822 50.1364 4.52841C50.6553 4.77083 51.0739 5.11174 51.392 5.55114C51.714 5.99053 51.9053 6.50379 51.9659 7.09091H50.3125C50.2216 6.68182 50.0133 6.32955 49.6875 6.03409C49.3655 5.73864 48.9337 5.59091 48.392 5.59091C47.9186 5.59091 47.5038 5.71591 47.1477 5.96591C46.7955 6.21212 46.5208 6.56439 46.3239 7.02273C46.1269 7.47727 46.0284 8.01515 46.0284 8.63636C46.0284 9.27273 46.125 9.82197 46.3182 10.2841C46.5114 10.7462 46.7841 11.1042 47.1364 11.358C47.4924 11.6117 47.911 11.7386 48.392 11.7386C48.714 11.7386 49.0057 11.6799 49.267 11.5625C49.5322 11.4413 49.7538 11.2689 49.9318 11.0455C50.1136 10.822 50.2405 10.553 50.3125 10.2386H51.9659C51.9053 10.803 51.7216 11.3068 51.4148 11.75C51.108 12.1932 50.697 12.5417 50.1818 12.7955C49.6705 13.0492 49.0701 13.1761 48.3807 13.1761ZM57.8565 4.27273V5.63636H53.0895V4.27273H57.8565ZM54.3679 2.18182H56.0668V10.4375C56.0668 10.767 56.116 11.0152 56.2145 11.1818C56.313 11.3447 56.4399 11.4564 56.5952 11.517C56.7543 11.5739 56.9266 11.6023 57.1122 11.6023C57.2486 11.6023 57.3679 11.5928 57.4702 11.5739C57.5724 11.5549 57.652 11.5398 57.7088 11.5284L58.0156 12.9318C57.9171 12.9697 57.777 13.0076 57.5952 13.0455C57.4134 13.0871 57.1861 13.1098 56.9134 13.1136C56.4664 13.1212 56.0497 13.0417 55.6634 12.875C55.277 12.7083 54.9645 12.4508 54.7259 12.1023C54.4872 11.7538 54.3679 11.3163 54.3679 10.7898V2.18182ZM59.7358 13V4.27273H61.4347V13H59.7358ZM60.5938 2.92614C60.2983 2.92614 60.0445 2.82765 59.8324 2.63068C59.6241 2.42992 59.5199 2.19129 59.5199 1.91477C59.5199 1.63447 59.6241 1.39583 59.8324 1.19886C60.0445 0.998106 60.2983 0.897727 60.5938 0.897727C60.8892 0.897727 61.1411 0.998106 61.3494 1.19886C61.5616 1.39583 61.6676 1.63447 61.6676 1.91477C61.6676 2.19129 61.5616 2.42992 61.3494 2.63068C61.1411 2.82765 60.8892 2.92614 60.5938 2.92614ZM67.3963 13.1761C66.5781 13.1761 65.8641 12.9886 65.2543 12.6136C64.6444 12.2386 64.1709 11.714 63.8338 11.0398C63.4967 10.3655 63.3281 9.57765 63.3281 8.67614C63.3281 7.77083 63.4967 6.97917 63.8338 6.30114C64.1709 5.62311 64.6444 5.09659 65.2543 4.72159C65.8641 4.34659 66.5781 4.15909 67.3963 4.15909C68.2145 4.15909 68.9285 4.34659 69.5384 4.72159C70.1482 5.09659 70.6217 5.62311 70.9588 6.30114C71.2959 6.97917 71.4645 7.77083 71.4645 8.67614C71.4645 9.57765 71.2959 10.3655 70.9588 11.0398C70.6217 11.714 70.1482 12.2386 69.5384 12.6136C68.9285 12.9886 68.2145 13.1761 67.3963 13.1761ZM67.402 11.75C67.9323 11.75 68.3717 11.6098 68.7202 11.3295C69.0687 11.0492 69.3262 10.6761 69.4929 10.2102C69.6634 9.74432 69.7486 9.23106 69.7486 8.67045C69.7486 8.11364 69.6634 7.60227 69.4929 7.13636C69.3262 6.66667 69.0687 6.28977 68.7202 6.00568C68.3717 5.72159 67.9323 5.57955 67.402 5.57955C66.8679 5.57955 66.4247 5.72159 66.0724 6.00568C65.724 6.28977 65.4645 6.66667 65.294 7.13636C65.1274 7.60227 65.044 8.11364 65.044 8.67045C65.044 9.23106 65.1274 9.74432 65.294 10.2102C65.4645 10.6761 65.724 11.0492 66.0724 11.3295C66.4247 11.6098 66.8679 11.75 67.402 11.75ZM75.0597 7.81818V13H73.3608V4.27273H74.9915V5.69318H75.0994C75.3002 5.23106 75.6146 4.85985 76.0426 4.57955C76.4744 4.29924 77.018 4.15909 77.6733 4.15909C78.268 4.15909 78.7888 4.28409 79.2358 4.53409C79.6828 4.7803 80.0294 5.14773 80.2756 5.63636C80.5218 6.125 80.6449 6.72917 80.6449 7.44886V13H78.946V7.65341C78.946 7.02083 78.7813 6.52652 78.4517 6.17045C78.1222 5.81061 77.6695 5.63068 77.0938 5.63068C76.6998 5.63068 76.3494 5.71591 76.0426 5.88636C75.7396 6.05682 75.4991 6.30682 75.321 6.63636C75.1468 6.96212 75.0597 7.35606 75.0597 7.81818ZM89.4631 6.40341L87.9233 6.67614C87.8589 6.47917 87.7566 6.29167 87.6165 6.11364C87.4801 5.93561 87.2945 5.78977 87.0597 5.67614C86.8248 5.5625 86.5313 5.50568 86.179 5.50568C85.6979 5.50568 85.2964 5.61364 84.9744 5.82955C84.6525 6.04167 84.4915 6.31629 84.4915 6.65341C84.4915 6.94508 84.5994 7.17992 84.8153 7.35795C85.0313 7.53598 85.3797 7.68182 85.8608 7.79545L87.2472 8.11364C88.0502 8.29924 88.6487 8.58523 89.0426 8.97159C89.4366 9.35795 89.6335 9.85985 89.6335 10.4773C89.6335 11 89.482 11.4659 89.179 11.875C88.8797 12.2803 88.4612 12.5985 87.9233 12.8295C87.3892 13.0606 86.7699 13.1761 86.0653 13.1761C85.0881 13.1761 84.2907 12.9678 83.6733 12.5511C83.0559 12.1307 82.6771 11.5341 82.5369 10.7614L84.179 10.5114C84.2813 10.9394 84.4915 11.2633 84.8097 11.483C85.1278 11.6989 85.5426 11.8068 86.054 11.8068C86.6108 11.8068 87.0559 11.6913 87.3892 11.4602C87.7225 11.2254 87.8892 10.9394 87.8892 10.6023C87.8892 10.3295 87.7869 10.1004 87.5824 9.91477C87.3816 9.72917 87.0729 9.58902 86.6562 9.49432L85.179 9.17045C84.3646 8.98485 83.7623 8.68939 83.3722 8.28409C82.9858 7.87879 82.7926 7.36553 82.7926 6.74432C82.7926 6.22917 82.9366 5.77841 83.2244 5.39205C83.5123 5.00568 83.91 4.70455 84.4176 4.48864C84.9252 4.26894 85.5066 4.15909 86.1619 4.15909C87.1051 4.15909 87.8475 4.36364 88.3892 4.77273C88.9309 5.17803 89.2888 5.72159 89.4631 6.40341ZM92.6207 13.108C92.3101 13.108 92.0431 12.9981 91.8196 12.7784C91.5961 12.5549 91.4844 12.286 91.4844 11.9716C91.4844 11.661 91.5961 11.3958 91.8196 11.1761C92.0431 10.9527 92.3101 10.8409 92.6207 10.8409C92.9313 10.8409 93.1984 10.9527 93.4219 11.1761C93.6454 11.3958 93.7571 11.661 93.7571 11.9716C93.7571 12.1799 93.7041 12.3712 93.598 12.5455C93.4957 12.7159 93.3594 12.8523 93.1889 12.9545C93.0185 13.0568 92.8291 13.108 92.6207 13.108ZM92.6207 6.75568C92.3101 6.75568 92.0431 6.64394 91.8196 6.42045C91.5961 6.19697 91.4844 5.92992 91.4844 5.61932C91.4844 5.30871 91.5961 5.04356 91.8196 4.82386C92.0431 4.60038 92.3101 4.48864 92.6207 4.48864C92.9313 4.48864 93.1984 4.60038 93.4219 4.82386C93.6454 5.04356 93.7571 5.30871 93.7571 5.61932C93.7571 5.82765 93.7041 6.01894 93.598 6.19318C93.4957 6.36364 93.3594 6.5 93.1889 6.60227C93.0185 6.70455 92.8291 6.75568 92.6207 6.75568Z" fill="#001A2A"/>
<path d="M11.5 29.8636C11.0417 29.8636 10.6231 29.7519 10.2443 29.5284C9.86553 29.3011 9.5625 28.9981 9.33523 28.6193C9.11174 28.2405 9 27.822 9 27.3636C9 26.9015 9.11174 26.483 9.33523 26.108C9.5625 25.7292 9.86553 25.428 10.2443 25.2045C10.6231 24.9773 11.0417 24.8636 11.5 24.8636C11.9621 24.8636 12.3807 24.9773 12.7557 25.2045C13.1345 25.428 13.4356 25.7292 13.6591 26.108C13.8864 26.483 14 26.9015 14 27.3636C14 27.822 13.8864 28.2405 13.6591 28.6193C13.4356 28.9981 13.1345 29.3011 12.7557 29.5284C12.3807 29.7519 11.9621 29.8636 11.5 29.8636ZM28.5 32H24.9091V20.3636H28.6591C29.7879 20.3636 30.7538 20.5966 31.5568 21.0625C32.3598 21.5246 32.9754 22.1894 33.4034 23.0568C33.8314 23.9205 34.0455 24.9545 34.0455 26.1591C34.0455 27.3712 33.8295 28.4148 33.3977 29.2898C32.9659 30.161 32.3371 30.8314 31.5114 31.3011C30.6856 31.767 29.6818 32 28.5 32ZM26.3182 30.75H28.4091C29.3712 30.75 30.1686 30.5644 30.8011 30.1932C31.4337 29.822 31.9053 29.2936 32.2159 28.608C32.5265 27.9223 32.6818 27.1061 32.6818 26.1591C32.6818 25.2197 32.5284 24.411 32.2216 23.733C31.9148 23.0511 31.4564 22.5284 30.8466 22.1648C30.2367 21.7973 29.4773 21.6136 28.5682 21.6136H26.3182V30.75ZM39.7727 32.1818C38.9848 32.1818 38.2936 31.9943 37.6989 31.6193C37.108 31.2443 36.6458 30.7197 36.3125 30.0455C35.983 29.3712 35.8182 28.5833 35.8182 27.6818C35.8182 26.7727 35.983 25.9792 36.3125 25.3011C36.6458 24.6231 37.108 24.0966 37.6989 23.7216C38.2936 23.3466 38.9848 23.1591 39.7727 23.1591C40.5606 23.1591 41.25 23.3466 41.8409 23.7216C42.4356 24.0966 42.8977 24.6231 43.2273 25.3011C43.5606 25.9792 43.7273 26.7727 43.7273 27.6818C43.7273 28.5833 43.5606 29.3712 43.2273 30.0455C42.8977 30.7197 42.4356 31.2443 41.8409 31.6193C41.25 31.9943 40.5606 32.1818 39.7727 32.1818ZM39.7727 30.9773C40.3712 30.9773 40.8636 30.8239 41.25 30.517C41.6364 30.2102 41.9223 29.8068 42.108 29.3068C42.2936 28.8068 42.3864 28.2652 42.3864 27.6818C42.3864 27.0985 42.2936 26.5549 42.108 26.0511C41.9223 25.5473 41.6364 25.1402 41.25 24.8295C40.8636 24.5189 40.3712 24.3636 39.7727 24.3636C39.1742 24.3636 38.6818 24.5189 38.2955 24.8295C37.9091 25.1402 37.6231 25.5473 37.4375 26.0511C37.2519 26.5549 37.1591 27.0985 37.1591 27.6818C37.1591 28.2652 37.2519 28.8068 37.4375 29.3068C37.6231 29.8068 37.9091 30.2102 38.2955 30.517C38.6818 30.8239 39.1742 30.9773 39.7727 30.9773ZM11.5 48.8636C11.0417 48.8636 10.6231 48.7519 10.2443 48.5284C9.86553 48.3011 9.5625 47.9981 9.33523 47.6193C9.11174 47.2405 9 46.822 9 46.3636C9 45.9015 9.11174 45.483 9.33523 45.108C9.5625 44.7292 9.86553 44.428 10.2443 44.2045C10.6231 43.9773 11.0417 43.8636 11.5 43.8636C11.9621 43.8636 12.3807 43.9773 12.7557 44.2045C13.1345 44.428 13.4356 44.7292 13.6591 45.108C13.8864 45.483 14 45.9015 14 46.3636C14 46.822 13.8864 47.2405 13.6591 47.6193C13.4356 47.9981 13.1345 48.3011 12.7557 48.5284C12.3807 48.7519 11.9621 48.8636 11.5 48.8636ZM11.5 67.8636C11.0417 67.8636 10.6231 67.7519 10.2443 67.5284C9.86553 67.3011 9.5625 66.9981 9.33523 66.6193C9.11174 66.2405 9 65.822 9 65.3636C9 64.9015 9.11174 64.483 9.33523 64.108C9.5625 63.7292 9.86553 63.428 10.2443 63.2045C10.6231 62.9773 11.0417 62.8636 11.5 62.8636C11.9621 62.8636 12.3807 62.9773 12.7557 63.2045C13.1345 63.428 13.4356 63.7292 13.6591 64.108C13.8864 64.483 14 64.9015 14 65.3636C14 65.822 13.8864 66.2405 13.6591 66.6193C13.4356 66.9981 13.1345 67.3011 12.7557 67.5284C12.3807 67.7519 11.9621 67.8636 11.5 67.8636ZM11.5 86.8636C11.0417 86.8636 10.6231 86.7519 10.2443 86.5284C9.86553 86.3011 9.5625 85.9981 9.33523 85.6193C9.11174 85.2405 9 84.822 9 84.3636C9 83.9015 9.11174 83.483 9.33523 83.108C9.5625 82.7292 9.86553 82.428 10.2443 82.2045C10.6231 81.9773 11.0417 81.8636 11.5 81.8636C11.9621 81.8636 12.3807 81.9773 12.7557 82.2045C13.1345 82.428 13.4356 82.7292 13.6591 83.108C13.8864 83.483 14 83.9015 14 84.3636C14 84.822 13.8864 85.2405 13.6591 85.6193C13.4356 85.9981 13.1345 86.3011 12.7557 86.5284C12.3807 86.7519 11.9621 86.8636 11.5 86.8636Z" fill="#484848"/>
<path d="M51.6222 26.8182V32H49.9233V23.2727H51.554V24.6932H51.6619C51.8627 24.2311 52.1771 23.8598 52.6051 23.5795C53.0369 23.2992 53.5805 23.1591 54.2358 23.1591C54.8305 23.1591 55.3513 23.2841 55.7983 23.5341C56.2453 23.7803 56.5919 24.1477 56.8381 24.6364C57.0843 25.125 57.2074 25.7292 57.2074 26.4489V32H55.5085V26.6534C55.5085 26.0208 55.3438 25.5265 55.0142 25.1705C54.6847 24.8106 54.232 24.6307 53.6562 24.6307C53.2623 24.6307 52.9119 24.7159 52.6051 24.8864C52.3021 25.0568 52.0616 25.3068 51.8835 25.6364C51.7093 25.9621 51.6222 26.3561 51.6222 26.8182ZM63.1619 32.1761C62.3438 32.1761 61.6297 31.9886 61.0199 31.6136C60.41 31.2386 59.9366 30.714 59.5994 30.0398C59.2623 29.3655 59.0938 28.5777 59.0938 27.6761C59.0938 26.7708 59.2623 25.9792 59.5994 25.3011C59.9366 24.6231 60.41 24.0966 61.0199 23.7216C61.6297 23.3466 62.3438 23.1591 63.1619 23.1591C63.9801 23.1591 64.6941 23.3466 65.304 23.7216C65.9138 24.0966 66.3873 24.6231 66.7244 25.3011C67.0616 25.9792 67.2301 26.7708 67.2301 27.6761C67.2301 28.5777 67.0616 29.3655 66.7244 30.0398C66.3873 30.714 65.9138 31.2386 65.304 31.6136C64.6941 31.9886 63.9801 32.1761 63.1619 32.1761ZM63.1676 30.75C63.6979 30.75 64.1373 30.6098 64.4858 30.3295C64.8343 30.0492 65.0919 29.6761 65.2585 29.2102C65.429 28.7443 65.5142 28.2311 65.5142 27.6705C65.5142 27.1136 65.429 26.6023 65.2585 26.1364C65.0919 25.6667 64.8343 25.2898 64.4858 25.0057C64.1373 24.7216 63.6979 24.5795 63.1676 24.5795C62.6335 24.5795 62.1903 24.7216 61.8381 25.0057C61.4896 25.2898 61.2301 25.6667 61.0597 26.1364C60.893 26.6023 60.8097 27.1136 60.8097 27.6705C60.8097 28.2311 60.893 28.7443 61.0597 29.2102C61.2301 29.6761 61.4896 30.0492 61.8381 30.3295C62.1903 30.6098 62.6335 30.75 63.1676 30.75ZM73.2003 23.2727V24.6364H68.4332V23.2727H73.2003ZM69.7116 21.1818H71.4105V29.4375C71.4105 29.767 71.4598 30.0152 71.5582 30.1818C71.6567 30.3447 71.7836 30.4564 71.9389 30.517C72.098 30.5739 72.2704 30.6023 72.456 30.6023C72.5923 30.6023 72.7116 30.5928 72.8139 30.5739C72.9162 30.5549 72.9957 30.5398 73.0526 30.5284L73.3594 31.9318C73.2609 31.9697 73.1207 32.0076 72.9389 32.0455C72.7571 32.0871 72.5298 32.1098 72.2571 32.1136C71.8101 32.1212 71.3935 32.0417 71.0071 31.875C70.6207 31.7083 70.3082 31.4508 70.0696 31.1023C69.831 30.7538 69.7116 30.3163 69.7116 29.7898V21.1818ZM51.6222 45.8182V51H49.9233V42.2727H51.554V43.6932H51.6619C51.8627 43.2311 52.1771 42.8598 52.6051 42.5795C53.0369 42.2992 53.5805 42.1591 54.2358 42.1591C54.8305 42.1591 55.3513 42.2841 55.7983 42.5341C56.2453 42.7803 56.5919 43.1477 56.8381 43.6364C57.0843 44.125 57.2074 44.7292 57.2074 45.4489V51H55.5085V45.6534C55.5085 45.0208 55.3438 44.5265 55.0142 44.1705C54.6847 43.8106 54.232 43.6307 53.6562 43.6307C53.2623 43.6307 52.9119 43.7159 52.6051 43.8864C52.3021 44.0568 52.0616 44.3068 51.8835 44.6364C51.7093 44.9621 51.6222 45.3561 51.6222 45.8182ZM63.1619 51.1761C62.3438 51.1761 61.6297 50.9886 61.0199 50.6136C60.41 50.2386 59.9366 49.714 59.5994 49.0398C59.2623 48.3655 59.0938 47.5777 59.0938 46.6761C59.0938 45.7708 59.2623 44.9792 59.5994 44.3011C59.9366 43.6231 60.41 43.0966 61.0199 42.7216C61.6297 42.3466 62.3438 42.1591 63.1619 42.1591C63.9801 42.1591 64.6941 42.3466 65.304 42.7216C65.9138 43.0966 66.3873 43.6231 66.7244 44.3011C67.0616 44.9792 67.2301 45.7708 67.2301 46.6761C67.2301 47.5777 67.0616 48.3655 66.7244 49.0398C66.3873 49.714 65.9138 50.2386 65.304 50.6136C64.6941 50.9886 63.9801 51.1761 63.1619 51.1761ZM63.1676 49.75C63.6979 49.75 64.1373 49.6098 64.4858 49.3295C64.8343 49.0492 65.0919 48.6761 65.2585 48.2102C65.429 47.7443 65.5142 47.2311 65.5142 46.6705C65.5142 46.1136 65.429 45.6023 65.2585 45.1364C65.0919 44.6667 64.8343 44.2898 64.4858 44.0057C64.1373 43.7216 63.6979 43.5795 63.1676 43.5795C62.6335 43.5795 62.1903 43.7216 61.8381 44.0057C61.4896 44.2898 61.2301 44.6667 61.0597 45.1364C60.893 45.6023 60.8097 46.1136 60.8097 46.6705C60.8097 47.2311 60.893 47.7443 61.0597 48.2102C61.2301 48.6761 61.4896 49.0492 61.8381 49.3295C62.1903 49.6098 62.6335 49.75 63.1676 49.75ZM73.2003 42.2727V43.6364H68.4332V42.2727H73.2003ZM69.7116 40.1818H71.4105V48.4375C71.4105 48.767 71.4598 49.0152 71.5582 49.1818C71.6567 49.3447 71.7836 49.4564 71.9389 49.517C72.098 49.5739 72.2704 49.6023 72.456 49.6023C72.5923 49.6023 72.7116 49.5928 72.8139 49.5739C72.9162 49.5549 72.9957 49.5398 73.0526 49.5284L73.3594 50.9318C73.2609 50.9697 73.1207 51.0076 72.9389 51.0455C72.7571 51.0871 72.5298 51.1098 72.2571 51.1136C71.8101 51.1212 71.3935 51.0417 71.0071 50.875C70.6207 50.7083 70.3082 50.4508 70.0696 50.1023C69.831 49.7538 69.7116 49.3163 69.7116 48.7898V40.1818Z" fill="#DE1135"/>
<path d="M85.1648 28.4318V23.2727H86.5057V32H85.1648V30.5227H85.0739C84.8693 30.9659 84.5511 31.3428 84.1193 31.6534C83.6875 31.9602 83.142 32.1136 82.483 32.1136C81.9375 32.1136 81.4527 31.9943 81.0284 31.7557C80.6042 31.5133 80.2708 31.1496 80.0284 30.6648C79.786 30.1761 79.6648 29.5606 79.6648 28.8182V23.2727H81.0057V28.7273C81.0057 29.3636 81.1837 29.8712 81.5398 30.25C81.8996 30.6288 82.358 30.8182 82.9148 30.8182C83.2481 30.8182 83.5871 30.733 83.9318 30.5625C84.2803 30.392 84.572 30.1307 84.8068 29.7784C85.0455 29.4261 85.1648 28.9773 85.1648 28.4318ZM95.1435 25.2273L93.9389 25.5682C93.8632 25.3674 93.7514 25.1723 93.6037 24.983C93.4598 24.7898 93.2628 24.6307 93.0128 24.5057C92.7628 24.3807 92.4427 24.3182 92.0526 24.3182C91.5185 24.3182 91.0734 24.4413 90.7173 24.6875C90.3651 24.9299 90.1889 25.2386 90.1889 25.6136C90.1889 25.947 90.3101 26.2102 90.5526 26.4034C90.795 26.5966 91.1738 26.7576 91.6889 26.8864L92.9844 27.2045C93.7647 27.3939 94.3461 27.6837 94.7287 28.0739C95.1113 28.4602 95.3026 28.9583 95.3026 29.5682C95.3026 30.0682 95.1586 30.5152 94.8707 30.9091C94.5866 31.303 94.1889 31.6136 93.6776 31.8409C93.1662 32.0682 92.5715 32.1818 91.8935 32.1818C91.0033 32.1818 90.2666 31.9886 89.6832 31.6023C89.0999 31.2159 88.7306 30.6515 88.5753 29.9091L89.848 29.5909C89.9692 30.0606 90.1984 30.4129 90.5355 30.6477C90.8764 30.8826 91.3215 31 91.8707 31C92.4957 31 92.992 30.8674 93.3594 30.6023C93.7306 30.3333 93.9162 30.0114 93.9162 29.6364C93.9162 29.3333 93.8101 29.0795 93.598 28.875C93.3859 28.6667 93.0601 28.5114 92.6207 28.4091L91.1662 28.0682C90.367 27.8788 89.7798 27.5852 89.4048 27.1875C89.0336 26.786 88.848 26.2841 88.848 25.6818C88.848 25.1894 88.9863 24.7538 89.2628 24.375C89.5431 23.9962 89.9238 23.6989 90.4048 23.483C90.8897 23.267 91.4389 23.1591 92.0526 23.1591C92.9162 23.1591 93.5942 23.3485 94.0866 23.7273C94.5829 24.1061 94.9351 24.6061 95.1435 25.2273ZM100.98 32.1818C100.139 32.1818 99.4138 31.9962 98.804 31.625C98.1979 31.25 97.7301 30.7273 97.4006 30.0568C97.0748 29.3826 96.9119 28.5985 96.9119 27.7045C96.9119 26.8106 97.0748 26.0227 97.4006 25.3409C97.7301 24.6553 98.1884 24.1212 98.7756 23.7386C99.3665 23.3523 100.056 23.1591 100.844 23.1591C101.298 23.1591 101.747 23.2348 102.19 23.3864C102.634 23.5379 103.037 23.7841 103.401 24.125C103.764 24.4621 104.054 24.9091 104.27 25.4659C104.486 26.0227 104.594 26.7083 104.594 27.5227V28.0909H97.8665V26.9318H103.23C103.23 26.4394 103.132 26 102.935 25.6136C102.741 25.2273 102.465 24.9223 102.105 24.6989C101.749 24.4754 101.329 24.3636 100.844 24.3636C100.31 24.3636 99.8475 24.4962 99.4574 24.7614C99.071 25.0227 98.7737 25.3636 98.5653 25.7841C98.357 26.2045 98.2528 26.6553 98.2528 27.1364V27.9091C98.2528 28.5682 98.3665 29.1269 98.5938 29.5852C98.8248 30.0398 99.1449 30.3864 99.554 30.625C99.9631 30.8598 100.438 30.9773 100.98 30.9773C101.332 30.9773 101.651 30.928 101.935 30.8295C102.223 30.7273 102.471 30.5758 102.679 30.375C102.887 30.1705 103.048 29.9167 103.162 29.6136L104.457 29.9773C104.321 30.4167 104.092 30.803 103.77 31.1364C103.448 31.4659 103.05 31.7235 102.577 31.9091C102.103 32.0909 101.571 32.1818 100.98 32.1818ZM113.702 32.2045C113.149 32.2045 112.647 32.1004 112.196 31.892C111.745 31.6799 111.387 31.375 111.122 30.9773C110.857 30.5758 110.724 30.0909 110.724 29.5227C110.724 29.0227 110.823 28.6174 111.02 28.3068C111.217 27.9924 111.48 27.7462 111.81 27.5682C112.139 27.3902 112.503 27.2576 112.901 27.1705C113.302 27.0795 113.705 27.0076 114.111 26.9545C114.641 26.8864 115.071 26.8352 115.401 26.8011C115.734 26.7633 115.976 26.7008 116.128 26.6136C116.283 26.5265 116.361 26.375 116.361 26.1591V26.1136C116.361 25.553 116.207 25.1174 115.901 24.8068C115.598 24.4962 115.137 24.3409 114.52 24.3409C113.88 24.3409 113.378 24.4811 113.014 24.7614C112.651 25.0417 112.395 25.3409 112.247 25.6591L110.974 25.2045C111.202 24.6742 111.505 24.2614 111.884 23.9659C112.266 23.6667 112.683 23.4583 113.134 23.3409C113.588 23.2197 114.035 23.1591 114.474 23.1591C114.755 23.1591 115.077 23.1932 115.44 23.2614C115.808 23.3258 116.162 23.4602 116.503 23.6648C116.848 23.8693 117.134 24.178 117.361 24.5909C117.588 25.0038 117.702 25.5568 117.702 26.25V32H116.361V30.8182H116.293C116.202 31.0076 116.05 31.2102 115.838 31.4261C115.626 31.642 115.344 31.8258 114.991 31.9773C114.639 32.1288 114.209 32.2045 113.702 32.2045ZM113.906 31C114.437 31 114.884 30.8958 115.247 30.6875C115.615 30.4792 115.891 30.2102 116.077 29.8807C116.266 29.5511 116.361 29.2045 116.361 28.8409V27.6136C116.304 27.6818 116.179 27.7443 115.986 27.8011C115.796 27.8542 115.577 27.9015 115.327 27.9432C115.08 27.9811 114.84 28.0152 114.605 28.0455C114.374 28.072 114.187 28.0947 114.043 28.1136C113.694 28.1591 113.368 28.233 113.065 28.3352C112.766 28.4337 112.524 28.5833 112.338 28.7841C112.156 28.9811 112.065 29.25 112.065 29.5909C112.065 30.0568 112.238 30.4091 112.582 30.6477C112.931 30.8826 113.372 31 113.906 31ZM124.649 35.2727V23.2727H125.945V24.6591H126.104C126.202 24.5076 126.339 24.3144 126.513 24.0795C126.691 23.8409 126.945 23.6288 127.274 23.4432C127.607 23.2538 128.058 23.1591 128.626 23.1591C129.361 23.1591 130.009 23.3428 130.57 23.7102C131.13 24.0777 131.568 24.5985 131.882 25.2727C132.196 25.947 132.354 26.7424 132.354 27.6591C132.354 28.5833 132.196 29.3845 131.882 30.0625C131.568 30.7367 131.132 31.2595 130.575 31.6307C130.018 31.9981 129.376 32.1818 128.649 32.1818C128.089 32.1818 127.64 32.089 127.303 31.9034C126.965 31.714 126.706 31.5 126.524 31.2614C126.342 31.0189 126.202 30.8182 126.104 30.6591H125.99V35.2727H124.649ZM125.967 27.6364C125.967 28.2955 126.064 28.8769 126.257 29.3807C126.45 29.8807 126.732 30.2727 127.104 30.5568C127.475 30.8371 127.929 30.9773 128.467 30.9773C129.028 30.9773 129.496 30.8295 129.871 30.5341C130.25 30.2348 130.534 29.8333 130.723 29.3295C130.916 28.822 131.013 28.2576 131.013 27.6364C131.013 27.0227 130.918 26.4697 130.729 25.9773C130.543 25.4811 130.261 25.089 129.882 24.8011C129.507 24.5095 129.036 24.3636 128.467 24.3636C127.922 24.3636 127.464 24.5019 127.092 24.7784C126.721 25.0511 126.441 25.4337 126.251 25.9261C126.062 26.4148 125.967 26.9848 125.967 27.6364ZM135.74 26.75V32H134.399V20.3636H135.74V24.6364H135.854C136.058 24.1856 136.365 23.8277 136.774 23.5625C137.187 23.2936 137.736 23.1591 138.422 23.1591C139.017 23.1591 139.537 23.2784 139.984 23.517C140.431 23.7519 140.778 24.1136 141.024 24.6023C141.274 25.0871 141.399 25.7045 141.399 26.4545V32H140.058V26.5455C140.058 25.8523 139.878 25.3163 139.518 24.9375C139.162 24.5549 138.668 24.3636 138.036 24.3636C137.596 24.3636 137.202 24.4564 136.854 24.642C136.509 24.8277 136.236 25.0985 136.036 25.4545C135.839 25.8106 135.74 26.2424 135.74 26.75ZM147.398 32.1818C146.61 32.1818 145.919 31.9943 145.324 31.6193C144.733 31.2443 144.271 30.7197 143.938 30.0455C143.608 29.3712 143.443 28.5833 143.443 27.6818C143.443 26.7727 143.608 25.9792 143.938 25.3011C144.271 24.6231 144.733 24.0966 145.324 23.7216C145.919 23.3466 146.61 23.1591 147.398 23.1591C148.186 23.1591 148.875 23.3466 149.466 23.7216C150.061 24.0966 150.523 24.6231 150.852 25.3011C151.186 25.9792 151.352 26.7727 151.352 27.6818C151.352 28.5833 151.186 29.3712 150.852 30.0455C150.523 30.7197 150.061 31.2443 149.466 31.6193C148.875 31.9943 148.186 32.1818 147.398 32.1818ZM147.398 30.9773C147.996 30.9773 148.489 30.8239 148.875 30.517C149.261 30.2102 149.547 29.8068 149.733 29.3068C149.919 28.8068 150.011 28.2652 150.011 27.6818C150.011 27.0985 149.919 26.5549 149.733 26.0511C149.547 25.5473 149.261 25.1402 148.875 24.8295C148.489 24.5189 147.996 24.3636 147.398 24.3636C146.799 24.3636 146.307 24.5189 145.92 24.8295C145.534 25.1402 145.248 25.5473 145.062 26.0511C144.877 26.5549 144.784 27.0985 144.784 27.6818C144.784 28.2652 144.877 28.8068 145.062 29.3068C145.248 29.8068 145.534 30.2102 145.92 30.517C146.307 30.8239 146.799 30.9773 147.398 30.9773ZM157.195 23.2727V24.4091H152.672V23.2727H157.195ZM153.99 21.1818H155.331V29.5C155.331 29.8788 155.386 30.1629 155.496 30.3523C155.609 30.5379 155.753 30.6629 155.928 30.7273C156.106 30.7879 156.293 30.8182 156.49 30.8182C156.638 30.8182 156.759 30.8106 156.854 30.7955C156.948 30.7765 157.024 30.7614 157.081 30.75L157.354 31.9545C157.263 31.9886 157.136 32.0227 156.973 32.0568C156.81 32.0947 156.604 32.1136 156.354 32.1136C155.975 32.1136 155.604 32.0322 155.24 31.8693C154.88 31.7064 154.581 31.4583 154.342 31.125C154.107 30.7917 153.99 30.3712 153.99 29.8636V21.1818ZM162.663 32.1818C161.875 32.1818 161.184 31.9943 160.589 31.6193C159.999 31.2443 159.536 30.7197 159.203 30.0455C158.874 29.3712 158.709 28.5833 158.709 27.6818C158.709 26.7727 158.874 25.9792 159.203 25.3011C159.536 24.6231 159.999 24.0966 160.589 23.7216C161.184 23.3466 161.875 23.1591 162.663 23.1591C163.451 23.1591 164.141 23.3466 164.732 23.7216C165.326 24.0966 165.788 24.6231 166.118 25.3011C166.451 25.9792 166.618 26.7727 166.618 27.6818C166.618 28.5833 166.451 29.3712 166.118 30.0455C165.788 30.7197 165.326 31.2443 164.732 31.6193C164.141 31.9943 163.451 32.1818 162.663 32.1818ZM162.663 30.9773C163.262 30.9773 163.754 30.8239 164.141 30.517C164.527 30.2102 164.813 29.8068 164.999 29.3068C165.184 28.8068 165.277 28.2652 165.277 27.6818C165.277 27.0985 165.184 26.5549 164.999 26.0511C164.813 25.5473 164.527 25.1402 164.141 24.8295C163.754 24.5189 163.262 24.3636 162.663 24.3636C162.065 24.3636 161.572 24.5189 161.186 24.8295C160.8 25.1402 160.514 25.5473 160.328 26.0511C160.143 26.5549 160.05 27.0985 160.05 27.6818C160.05 28.2652 160.143 28.8068 160.328 29.3068C160.514 29.8068 160.8 30.2102 161.186 30.517C161.572 30.8239 162.065 30.9773 162.663 30.9773ZM172.21 32.1818C171.392 32.1818 170.688 31.9886 170.097 31.6023C169.506 31.2159 169.051 30.6837 168.733 30.0057C168.415 29.3277 168.256 28.553 168.256 27.6818C168.256 26.7955 168.419 26.0133 168.744 25.3352C169.074 24.6534 169.532 24.1212 170.119 23.7386C170.71 23.3523 171.4 23.1591 172.188 23.1591C172.801 23.1591 173.354 23.2727 173.847 23.5C174.339 23.7273 174.742 24.0455 175.057 24.4545C175.371 24.8636 175.566 25.3409 175.642 25.8864H174.301C174.199 25.4886 173.972 25.1364 173.619 24.8295C173.271 24.5189 172.801 24.3636 172.21 24.3636C171.688 24.3636 171.229 24.5 170.835 24.7727C170.445 25.0417 170.14 25.4223 169.92 25.9148C169.705 26.4034 169.597 26.9773 169.597 27.6364C169.597 28.3106 169.703 28.8977 169.915 29.3977C170.131 29.8977 170.434 30.286 170.824 30.5625C171.218 30.839 171.68 30.9773 172.21 30.9773C172.559 30.9773 172.875 30.9167 173.159 30.7955C173.443 30.6742 173.684 30.5 173.881 30.2727C174.078 30.0455 174.218 29.7727 174.301 29.4545H175.642C175.566 29.9697 175.379 30.4337 175.08 30.8466C174.784 31.2557 174.392 31.5814 173.903 31.8239C173.419 32.0625 172.854 32.1818 172.21 32.1818ZM181.148 32.1818C180.36 32.1818 179.669 31.9943 179.074 31.6193C178.483 31.2443 178.021 30.7197 177.688 30.0455C177.358 29.3712 177.193 28.5833 177.193 27.6818C177.193 26.7727 177.358 25.9792 177.688 25.3011C178.021 24.6231 178.483 24.0966 179.074 23.7216C179.669 23.3466 180.36 23.1591 181.148 23.1591C181.936 23.1591 182.625 23.3466 183.216 23.7216C183.811 24.0966 184.273 24.6231 184.602 25.3011C184.936 25.9792 185.102 26.7727 185.102 27.6818C185.102 28.5833 184.936 29.3712 184.602 30.0455C184.273 30.7197 183.811 31.2443 183.216 31.6193C182.625 31.9943 181.936 32.1818 181.148 32.1818ZM181.148 30.9773C181.746 30.9773 182.239 30.8239 182.625 30.517C183.011 30.2102 183.297 29.8068 183.483 29.3068C183.669 28.8068 183.761 28.2652 183.761 27.6818C183.761 27.0985 183.669 26.5549 183.483 26.0511C183.297 25.5473 183.011 25.1402 182.625 24.8295C182.239 24.5189 181.746 24.3636 181.148 24.3636C180.549 24.3636 180.057 24.5189 179.67 24.8295C179.284 25.1402 178.998 25.5473 178.812 26.0511C178.627 26.5549 178.534 27.0985 178.534 27.6818C178.534 28.2652 178.627 28.8068 178.812 29.3068C178.998 29.8068 179.284 30.2102 179.67 30.517C180.057 30.8239 180.549 30.9773 181.148 30.9773ZM187.149 35.2727V23.2727H188.445V24.6591H188.604C188.702 24.5076 188.839 24.3144 189.013 24.0795C189.191 23.8409 189.445 23.6288 189.774 23.4432C190.107 23.2538 190.558 23.1591 191.126 23.1591C191.861 23.1591 192.509 23.3428 193.07 23.7102C193.63 24.0777 194.068 24.5985 194.382 25.2727C194.696 25.947 194.854 26.7424 194.854 27.6591C194.854 28.5833 194.696 29.3845 194.382 30.0625C194.068 30.7367 193.632 31.2595 193.075 31.6307C192.518 31.9981 191.876 32.1818 191.149 32.1818C190.589 32.1818 190.14 32.089 189.803 31.9034C189.465 31.714 189.206 31.5 189.024 31.2614C188.842 31.0189 188.702 30.8182 188.604 30.6591H188.49V35.2727H187.149ZM188.467 27.6364C188.467 28.2955 188.564 28.8769 188.757 29.3807C188.95 29.8807 189.232 30.2727 189.604 30.5568C189.975 30.8371 190.429 30.9773 190.967 30.9773C191.528 30.9773 191.996 30.8295 192.371 30.5341C192.75 30.2348 193.034 29.8333 193.223 29.3295C193.416 28.822 193.513 28.2576 193.513 27.6364C193.513 27.0227 193.418 26.4697 193.229 25.9773C193.043 25.4811 192.761 25.089 192.382 24.8011C192.007 24.5095 191.536 24.3636 190.967 24.3636C190.422 24.3636 189.964 24.5019 189.592 24.7784C189.221 25.0511 188.941 25.4337 188.751 25.9261C188.562 26.4148 188.467 26.9848 188.467 27.6364ZM197.45 35.2727C197.223 35.2727 197.02 35.2538 196.842 35.2159C196.664 35.1818 196.541 35.1477 196.473 35.1136L196.814 33.9318C197.14 34.0152 197.428 34.0455 197.678 34.0227C197.928 34 198.149 33.8883 198.342 33.6875C198.539 33.4905 198.719 33.1705 198.882 32.7273L199.132 32.0455L195.905 23.2727H197.359L199.768 30.2273H199.859L202.268 23.2727H203.723L200.018 33.2727C199.852 33.7235 199.645 34.0966 199.399 34.392C199.153 34.6913 198.867 34.9129 198.541 35.0568C198.219 35.2008 197.856 35.2727 197.45 35.2727ZM28.5 51H24.9091V39.3636H28.6591C29.7879 39.3636 30.7538 39.5966 31.5568 40.0625C32.3598 40.5246 32.9754 41.1894 33.4034 42.0568C33.8314 42.9205 34.0455 43.9545 34.0455 45.1591C34.0455 46.3712 33.8295 47.4148 33.3977 48.2898C32.9659 49.161 32.3371 49.8314 31.5114 50.3011C30.6856 50.767 29.6818 51 28.5 51ZM26.3182 49.75H28.4091C29.3712 49.75 30.1686 49.5644 30.8011 49.1932C31.4337 48.822 31.9053 48.2936 32.2159 47.608C32.5265 46.9223 32.6818 46.1061 32.6818 45.1591C32.6818 44.2197 32.5284 43.411 32.2216 42.733C31.9148 42.0511 31.4564 41.5284 30.8466 41.1648C30.2367 40.7973 29.4773 40.6136 28.5682 40.6136H26.3182V49.75ZM39.7727 51.1818C38.9848 51.1818 38.2936 50.9943 37.6989 50.6193C37.108 50.2443 36.6458 49.7197 36.3125 49.0455C35.983 48.3712 35.8182 47.5833 35.8182 46.6818C35.8182 45.7727 35.983 44.9792 36.3125 44.3011C36.6458 43.6231 37.108 43.0966 37.6989 42.7216C38.2936 42.3466 38.9848 42.1591 39.7727 42.1591C40.5606 42.1591 41.25 42.3466 41.8409 42.7216C42.4356 43.0966 42.8977 43.6231 43.2273 44.3011C43.5606 44.9792 43.7273 45.7727 43.7273 46.6818C43.7273 47.5833 43.5606 48.3712 43.2273 49.0455C42.8977 49.7197 42.4356 50.2443 41.8409 50.6193C41.25 50.9943 40.5606 51.1818 39.7727 51.1818ZM39.7727 49.9773C40.3712 49.9773 40.8636 49.8239 41.25 49.517C41.6364 49.2102 41.9223 48.8068 42.108 48.3068C42.2936 47.8068 42.3864 47.2652 42.3864 46.6818C42.3864 46.0985 42.2936 45.5549 42.108 45.0511C41.9223 44.5473 41.6364 44.1402 41.25 43.8295C40.8636 43.5189 40.3712 43.3636 39.7727 43.3636C39.1742 43.3636 38.6818 43.5189 38.2955 43.8295C37.9091 44.1402 37.6231 44.5473 37.4375 45.0511C37.2519 45.5549 37.1591 46.0985 37.1591 46.6818C37.1591 47.2652 37.2519 47.8068 37.4375 48.3068C37.6231 48.8068 37.9091 49.2102 38.2955 49.517C38.6818 49.8239 39.1742 49.9773 39.7727 49.9773ZM79.4148 51V49.9773L84.3693 43.6136V43.5227H79.5739V42.2727H86.0966V43.3409L81.2784 49.6591V49.75H86.2557V51H79.4148ZM91.6165 51.1818C90.8286 51.1818 90.1373 50.9943 89.5426 50.6193C88.9517 50.2443 88.4896 49.7197 88.1562 49.0455C87.8267 48.3712 87.6619 47.5833 87.6619 46.6818C87.6619 45.7727 87.8267 44.9792 88.1562 44.3011C88.4896 43.6231 88.9517 43.0966 89.5426 42.7216C90.1373 42.3466 90.8286 42.1591 91.6165 42.1591C92.4044 42.1591 93.0938 42.3466 93.6847 42.7216C94.2794 43.0966 94.7415 43.6231 95.071 44.3011C95.4044 44.9792 95.571 45.7727 95.571 46.6818C95.571 47.5833 95.4044 48.3712 95.071 49.0455C94.7415 49.7197 94.2794 50.2443 93.6847 50.6193C93.0938 50.9943 92.4044 51.1818 91.6165 51.1818ZM91.6165 49.9773C92.215 49.9773 92.7074 49.8239 93.0938 49.517C93.4801 49.2102 93.7661 48.8068 93.9517 48.3068C94.1373 47.8068 94.2301 47.2652 94.2301 46.6818C94.2301 46.0985 94.1373 45.5549 93.9517 45.0511C93.7661 44.5473 93.4801 44.1402 93.0938 43.8295C92.7074 43.5189 92.215 43.3636 91.6165 43.3636C91.018 43.3636 90.5256 43.5189 90.1392 43.8295C89.7528 44.1402 89.4669 44.5473 89.2812 45.0511C89.0956 45.5549 89.0028 46.0985 89.0028 46.6818C89.0028 47.2652 89.0956 47.8068 89.2812 48.3068C89.4669 48.8068 89.7528 49.2102 90.1392 49.517C90.5256 49.8239 91.018 49.9773 91.6165 49.9773ZM101.163 51.1818C100.375 51.1818 99.6842 50.9943 99.0895 50.6193C98.4986 50.2443 98.0365 49.7197 97.7031 49.0455C97.3736 48.3712 97.2088 47.5833 97.2088 46.6818C97.2088 45.7727 97.3736 44.9792 97.7031 44.3011C98.0365 43.6231 98.4986 43.0966 99.0895 42.7216C99.6842 42.3466 100.375 42.1591 101.163 42.1591C101.951 42.1591 102.641 42.3466 103.232 42.7216C103.826 43.0966 104.288 43.6231 104.618 44.3011C104.951 44.9792 105.118 45.7727 105.118 46.6818C105.118 47.5833 104.951 48.3712 104.618 49.0455C104.288 49.7197 103.826 50.2443 103.232 50.6193C102.641 50.9943 101.951 51.1818 101.163 51.1818ZM101.163 49.9773C101.762 49.9773 102.254 49.8239 102.641 49.517C103.027 49.2102 103.313 48.8068 103.499 48.3068C103.684 47.8068 103.777 47.2652 103.777 46.6818C103.777 46.0985 103.684 45.5549 103.499 45.0511C103.313 44.5473 103.027 44.1402 102.641 43.8295C102.254 43.5189 101.762 43.3636 101.163 43.3636C100.565 43.3636 100.072 43.5189 99.6861 43.8295C99.2997 44.1402 99.0137 44.5473 98.8281 45.0511C98.6425 45.5549 98.5497 46.0985 98.5497 46.6818C98.5497 47.2652 98.6425 47.8068 98.8281 48.3068C99.0137 48.8068 99.2997 49.2102 99.6861 49.517C100.072 49.8239 100.565 49.9773 101.163 49.9773ZM107.165 51V42.2727H108.46V43.6364H108.574C108.756 43.1705 109.049 42.8087 109.455 42.5511C109.86 42.2898 110.347 42.1591 110.915 42.1591C111.491 42.1591 111.97 42.2898 112.352 42.5511C112.739 42.8087 113.04 43.1705 113.256 43.6364H113.347C113.57 43.1856 113.905 42.8277 114.352 42.5625C114.799 42.2936 115.335 42.1591 115.96 42.1591C116.741 42.1591 117.379 42.4034 117.875 42.892C118.371 43.3769 118.619 44.1326 118.619 45.1591V51H117.278V45.1591C117.278 44.5152 117.102 44.0549 116.75 43.7784C116.398 43.5019 115.983 43.3636 115.506 43.3636C114.892 43.3636 114.417 43.5492 114.08 43.9205C113.742 44.2879 113.574 44.7538 113.574 45.3182V51H112.21V45.0227C112.21 44.5265 112.049 44.1269 111.727 43.8239C111.405 43.517 110.991 43.3636 110.483 43.3636C110.134 43.3636 109.809 43.4564 109.506 43.642C109.206 43.8277 108.964 44.0852 108.778 44.4148C108.597 44.7405 108.506 45.1174 108.506 45.5455V51H107.165ZM125.571 51V42.2727H126.912V51H125.571ZM126.253 40.8182C125.991 40.8182 125.766 40.7292 125.577 40.5511C125.391 40.3731 125.298 40.1591 125.298 39.9091C125.298 39.6591 125.391 39.4451 125.577 39.267C125.766 39.089 125.991 39 126.253 39C126.514 39 126.738 39.089 126.923 39.267C127.113 39.4451 127.207 39.6591 127.207 39.9091C127.207 40.1591 127.113 40.3731 126.923 40.5511C126.738 40.7292 126.514 40.8182 126.253 40.8182ZM130.709 45.75V51H129.368V42.2727H130.663V43.6364H130.777C130.982 43.1932 131.292 42.8371 131.709 42.5682C132.125 42.2955 132.663 42.1591 133.322 42.1591C133.913 42.1591 134.43 42.2803 134.874 42.5227C135.317 42.7614 135.661 43.125 135.908 43.6136C136.154 44.0985 136.277 44.7121 136.277 45.4545V51H134.936V45.5455C134.936 44.8598 134.758 44.3258 134.402 43.9432C134.046 43.5568 133.557 43.3636 132.936 43.3636C132.508 43.3636 132.125 43.4564 131.788 43.642C131.455 43.8277 131.192 44.0985 130.999 44.4545C130.805 44.8106 130.709 45.2424 130.709 45.75ZM146.773 51.1818C145.985 51.1818 145.294 50.9943 144.699 50.6193C144.108 50.2443 143.646 49.7197 143.312 49.0455C142.983 48.3712 142.818 47.5833 142.818 46.6818C142.818 45.7727 142.983 44.9792 143.312 44.3011C143.646 43.6231 144.108 43.0966 144.699 42.7216C145.294 42.3466 145.985 42.1591 146.773 42.1591C147.561 42.1591 148.25 42.3466 148.841 42.7216C149.436 43.0966 149.898 43.6231 150.227 44.3011C150.561 44.9792 150.727 45.7727 150.727 46.6818C150.727 47.5833 150.561 48.3712 150.227 49.0455C149.898 49.7197 149.436 50.2443 148.841 50.6193C148.25 50.9943 147.561 51.1818 146.773 51.1818ZM146.773 49.9773C147.371 49.9773 147.864 49.8239 148.25 49.517C148.636 49.2102 148.922 48.8068 149.108 48.3068C149.294 47.8068 149.386 47.2652 149.386 46.6818C149.386 46.0985 149.294 45.5549 149.108 45.0511C148.922 44.5473 148.636 44.1402 148.25 43.8295C147.864 43.5189 147.371 43.3636 146.773 43.3636C146.174 43.3636 145.682 43.5189 145.295 43.8295C144.909 44.1402 144.623 44.5473 144.438 45.0511C144.252 45.5549 144.159 46.0985 144.159 46.6818C144.159 47.2652 144.252 47.8068 144.438 48.3068C144.623 48.8068 144.909 49.2102 145.295 49.517C145.682 49.8239 146.174 49.9773 146.773 49.9773ZM152.774 51V42.2727H154.07V43.5909H154.161C154.32 43.1591 154.607 42.8087 155.024 42.5398C155.441 42.2708 155.911 42.1364 156.433 42.1364C156.532 42.1364 156.655 42.1383 156.803 42.142C156.95 42.1458 157.062 42.1515 157.138 42.1591V43.5227C157.092 43.5114 156.988 43.4943 156.825 43.4716C156.666 43.4451 156.498 43.4318 156.32 43.4318C155.895 43.4318 155.517 43.5208 155.183 43.6989C154.854 43.8731 154.592 44.1155 154.399 44.4261C154.21 44.733 154.115 45.0833 154.115 45.4773V51H152.774ZM166.773 51.1818C165.985 51.1818 165.294 50.9943 164.699 50.6193C164.108 50.2443 163.646 49.7197 163.312 49.0455C162.983 48.3712 162.818 47.5833 162.818 46.6818C162.818 45.7727 162.983 44.9792 163.312 44.3011C163.646 43.6231 164.108 43.0966 164.699 42.7216C165.294 42.3466 165.985 42.1591 166.773 42.1591C167.561 42.1591 168.25 42.3466 168.841 42.7216C169.436 43.0966 169.898 43.6231 170.227 44.3011C170.561 44.9792 170.727 45.7727 170.727 46.6818C170.727 47.5833 170.561 48.3712 170.227 49.0455C169.898 49.7197 169.436 50.2443 168.841 50.6193C168.25 50.9943 167.561 51.1818 166.773 51.1818ZM166.773 49.9773C167.371 49.9773 167.864 49.8239 168.25 49.517C168.636 49.2102 168.922 48.8068 169.108 48.3068C169.294 47.8068 169.386 47.2652 169.386 46.6818C169.386 46.0985 169.294 45.5549 169.108 45.0511C168.922 44.5473 168.636 44.1402 168.25 43.8295C167.864 43.5189 167.371 43.3636 166.773 43.3636C166.174 43.3636 165.682 43.5189 165.295 43.8295C164.909 44.1402 164.623 44.5473 164.438 45.0511C164.252 45.5549 164.159 46.0985 164.159 46.6818C164.159 47.2652 164.252 47.8068 164.438 48.3068C164.623 48.8068 164.909 49.2102 165.295 49.517C165.682 49.8239 166.174 49.9773 166.773 49.9773ZM178.274 47.4318V42.2727H179.615V51H178.274V49.5227H178.183C177.979 49.9659 177.661 50.3428 177.229 50.6534C176.797 50.9602 176.251 51.1136 175.592 51.1136C175.047 51.1136 174.562 50.9943 174.138 50.7557C173.714 50.5133 173.38 50.1496 173.138 49.6648C172.895 49.1761 172.774 48.5606 172.774 47.8182V42.2727H174.115V47.7273C174.115 48.3636 174.293 48.8712 174.649 49.25C175.009 49.6288 175.467 49.8182 176.024 49.8182C176.357 49.8182 176.696 49.733 177.041 49.5625C177.39 49.392 177.681 49.1307 177.916 48.7784C178.155 48.4261 178.274 47.9773 178.274 47.4318ZM185.866 42.2727V43.4091H181.344V42.2727H185.866ZM182.662 40.1818H184.003V48.5C184.003 48.8788 184.058 49.1629 184.168 49.3523C184.281 49.5379 184.425 49.6629 184.599 49.7273C184.777 49.7879 184.965 49.8182 185.162 49.8182C185.31 49.8182 185.431 49.8106 185.526 49.7955C185.62 49.7765 185.696 49.7614 185.753 49.75L186.026 50.9545C185.935 50.9886 185.808 51.0227 185.645 51.0568C185.482 51.0947 185.276 51.1136 185.026 51.1136C184.647 51.1136 184.276 51.0322 183.912 50.8693C183.552 50.7064 183.253 50.4583 183.014 50.125C182.779 49.7917 182.662 49.3712 182.662 48.8636V40.1818ZM24.2727 59.6136V58.3636H33V59.6136H29.3409V70H27.9318V59.6136H24.2727ZM36.3338 64.75V70H34.9929V58.3636H36.3338V62.6364H36.4474C36.652 62.1856 36.9588 61.8277 37.3679 61.5625C37.7808 61.2936 38.33 61.1591 39.0156 61.1591C39.6103 61.1591 40.1312 61.2784 40.5781 61.517C41.0251 61.7519 41.3717 62.1136 41.6179 62.6023C41.8679 63.0871 41.9929 63.7045 41.9929 64.4545V70H40.652V64.5455C40.652 63.8523 40.4721 63.3163 40.1122 62.9375C39.7562 62.5549 39.2618 62.3636 38.6293 62.3636C38.1899 62.3636 37.7959 62.4564 37.4474 62.642C37.1027 62.8277 36.83 63.0985 36.6293 63.4545C36.4323 63.8106 36.3338 64.2424 36.3338 64.75ZM48.1051 70.1818C47.2642 70.1818 46.5388 69.9962 45.929 69.625C45.3229 69.25 44.8551 68.7273 44.5256 68.0568C44.1998 67.3826 44.0369 66.5985 44.0369 65.7045C44.0369 64.8106 44.1998 64.0227 44.5256 63.3409C44.8551 62.6553 45.3134 62.1212 45.9006 61.7386C46.4915 61.3523 47.1809 61.1591 47.9688 61.1591C48.4233 61.1591 48.8722 61.2348 49.3153 61.3864C49.7585 61.5379 50.1619 61.7841 50.5256 62.125C50.8892 62.4621 51.179 62.9091 51.3949 63.4659C51.6108 64.0227 51.7188 64.7083 51.7188 65.5227V66.0909H44.9915V64.9318H50.3551C50.3551 64.4394 50.2566 64 50.0597 63.6136C49.8665 63.2273 49.59 62.9223 49.2301 62.6989C48.8741 62.4754 48.4536 62.3636 47.9688 62.3636C47.4347 62.3636 46.9725 62.4962 46.5824 62.7614C46.196 63.0227 45.8987 63.3636 45.6903 63.7841C45.482 64.2045 45.3778 64.6553 45.3778 65.1364V65.9091C45.3778 66.5682 45.4915 67.1269 45.7188 67.5852C45.9498 68.0398 46.2699 68.3864 46.679 68.625C47.0881 68.8598 47.5634 68.9773 48.1051 68.9773C48.4574 68.9773 48.7756 68.928 49.0597 68.8295C49.3475 68.7273 49.5956 68.5758 49.804 68.375C50.0123 68.1705 50.1733 67.9167 50.2869 67.6136L51.5824 67.9773C51.446 68.4167 51.2169 68.803 50.8949 69.1364C50.5729 69.4659 50.1752 69.7235 49.7017 69.9091C49.2282 70.0909 48.696 70.1818 48.1051 70.1818ZM58.2585 73.2727V61.2727H59.554V62.6591H59.7131C59.8116 62.5076 59.9479 62.3144 60.1222 62.0795C60.3002 61.8409 60.554 61.6288 60.8835 61.4432C61.2169 61.2538 61.6676 61.1591 62.2358 61.1591C62.9706 61.1591 63.6184 61.3428 64.179 61.7102C64.7396 62.0777 65.1771 62.5985 65.4915 63.2727C65.8059 63.947 65.9631 64.7424 65.9631 65.6591C65.9631 66.5833 65.8059 67.3845 65.4915 68.0625C65.1771 68.7367 64.7415 69.2595 64.1847 69.6307C63.6278 69.9981 62.9858 70.1818 62.2585 70.1818C61.6979 70.1818 61.2491 70.089 60.9119 69.9034C60.5748 69.714 60.3153 69.5 60.1335 69.2614C59.9517 69.0189 59.8116 68.8182 59.7131 68.6591H59.5994V73.2727H58.2585ZM59.5767 65.6364C59.5767 66.2955 59.6733 66.8769 59.8665 67.3807C60.0597 67.8807 60.3419 68.2727 60.7131 68.5568C61.0843 68.8371 61.5388 68.9773 62.0767 68.9773C62.6373 68.9773 63.1051 68.8295 63.4801 68.5341C63.8589 68.2348 64.143 67.8333 64.3324 67.3295C64.5256 66.822 64.6222 66.2576 64.6222 65.6364C64.6222 65.0227 64.5275 64.4697 64.3381 63.9773C64.1525 63.4811 63.8703 63.089 63.4915 62.8011C63.1165 62.5095 62.6449 62.3636 62.0767 62.3636C61.5313 62.3636 61.0729 62.5019 60.7017 62.7784C60.3305 63.0511 60.0502 63.4337 59.8608 63.9261C59.6714 64.4148 59.5767 64.9848 59.5767 65.6364ZM69.3494 64.75V70H68.0085V58.3636H69.3494V62.6364H69.4631C69.6676 62.1856 69.9744 61.8277 70.3835 61.5625C70.7964 61.2936 71.3456 61.1591 72.0312 61.1591C72.6259 61.1591 73.1468 61.2784 73.5938 61.517C74.0407 61.7519 74.3873 62.1136 74.6335 62.6023C74.8835 63.0871 75.0085 63.7045 75.0085 64.4545V70H73.6676V64.5455C73.6676 63.8523 73.4877 63.3163 73.1278 62.9375C72.7718 62.5549 72.2775 62.3636 71.6449 62.3636C71.2055 62.3636 70.8116 62.4564 70.4631 62.642C70.1184 62.8277 69.8456 63.0985 69.6449 63.4545C69.4479 63.8106 69.3494 64.2424 69.3494 64.75ZM81.0071 70.1818C80.2192 70.1818 79.5279 69.9943 78.9332 69.6193C78.3423 69.2443 77.8802 68.7197 77.5469 68.0455C77.2173 67.3712 77.0526 66.5833 77.0526 65.6818C77.0526 64.7727 77.2173 63.9792 77.5469 63.3011C77.8802 62.6231 78.3423 62.0966 78.9332 61.7216C79.5279 61.3466 80.2192 61.1591 81.0071 61.1591C81.795 61.1591 82.4844 61.3466 83.0753 61.7216C83.67 62.0966 84.1321 62.6231 84.4616 63.3011C84.795 63.9792 84.9616 64.7727 84.9616 65.6818C84.9616 66.5833 84.795 67.3712 84.4616 68.0455C84.1321 68.7197 83.67 69.2443 83.0753 69.6193C82.4844 69.9943 81.795 70.1818 81.0071 70.1818ZM81.0071 68.9773C81.6056 68.9773 82.098 68.8239 82.4844 68.517C82.8707 68.2102 83.1567 67.8068 83.3423 67.3068C83.5279 66.8068 83.6207 66.2652 83.6207 65.6818C83.6207 65.0985 83.5279 64.5549 83.3423 64.0511C83.1567 63.5473 82.8707 63.1402 82.4844 62.8295C82.098 62.5189 81.6056 62.3636 81.0071 62.3636C80.4086 62.3636 79.9162 62.5189 79.5298 62.8295C79.1435 63.1402 78.8575 63.5473 78.6719 64.0511C78.4863 64.5549 78.3935 65.0985 78.3935 65.6818C78.3935 66.2652 78.4863 66.8068 78.6719 67.3068C78.8575 67.8068 79.1435 68.2102 79.5298 68.517C79.9162 68.8239 80.4086 68.9773 81.0071 68.9773ZM90.804 61.2727V62.4091H86.2812V61.2727H90.804ZM87.5994 59.1818H88.9403V67.5C88.9403 67.8788 88.9953 68.1629 89.1051 68.3523C89.2188 68.5379 89.3627 68.6629 89.5369 68.7273C89.715 68.7879 89.9025 68.8182 90.0994 68.8182C90.2472 68.8182 90.3684 68.8106 90.4631 68.7955C90.5578 68.7765 90.6335 68.7614 90.6903 68.75L90.9631 69.9545C90.8722 69.9886 90.7453 70.0227 90.5824 70.0568C90.4195 70.0947 90.2131 70.1136 89.9631 70.1136C89.5843 70.1136 89.2131 70.0322 88.8494 69.8693C88.4896 69.7064 88.1903 69.4583 87.9517 69.125C87.7169 68.7917 87.5994 68.3712 87.5994 67.8636V59.1818ZM96.2727 70.1818C95.4848 70.1818 94.7936 69.9943 94.1989 69.6193C93.608 69.2443 93.1458 68.7197 92.8125 68.0455C92.483 67.3712 92.3182 66.5833 92.3182 65.6818C92.3182 64.7727 92.483 63.9792 92.8125 63.3011C93.1458 62.6231 93.608 62.0966 94.1989 61.7216C94.7936 61.3466 95.4848 61.1591 96.2727 61.1591C97.0606 61.1591 97.75 61.3466 98.3409 61.7216C98.9356 62.0966 99.3977 62.6231 99.7273 63.3011C100.061 63.9792 100.227 64.7727 100.227 65.6818C100.227 66.5833 100.061 67.3712 99.7273 68.0455C99.3977 68.7197 98.9356 69.2443 98.3409 69.6193C97.75 69.9943 97.0606 70.1818 96.2727 70.1818ZM96.2727 68.9773C96.8712 68.9773 97.3636 68.8239 97.75 68.517C98.1364 68.2102 98.4223 67.8068 98.608 67.3068C98.7936 66.8068 98.8864 66.2652 98.8864 65.6818C98.8864 65.0985 98.7936 64.5549 98.608 64.0511C98.4223 63.5473 98.1364 63.1402 97.75 62.8295C97.3636 62.5189 96.8712 62.3636 96.2727 62.3636C95.6742 62.3636 95.1818 62.5189 94.7955 62.8295C94.4091 63.1402 94.1231 63.5473 93.9375 64.0511C93.7519 64.5549 93.6591 65.0985 93.6591 65.6818C93.6591 66.2652 93.7519 66.8068 93.9375 67.3068C94.1231 67.8068 94.4091 68.2102 94.7955 68.517C95.1818 68.8239 95.6742 68.9773 96.2727 68.9773ZM149.643 70V58.3636H150.984V62.6591H151.098C151.196 62.5076 151.333 62.3144 151.507 62.0795C151.685 61.8409 151.939 61.6288 152.268 61.4432C152.602 61.2538 153.053 61.1591 153.621 61.1591C154.356 61.1591 155.003 61.3428 155.564 61.7102C156.125 62.0777 156.562 62.5985 156.876 63.2727C157.191 63.947 157.348 64.7424 157.348 65.6591C157.348 66.5833 157.191 67.3845 156.876 68.0625C156.562 68.7367 156.126 69.2595 155.57 69.6307C155.013 69.9981 154.371 70.1818 153.643 70.1818C153.083 70.1818 152.634 70.089 152.297 69.9034C151.96 69.714 151.7 69.5 151.518 69.2614C151.337 69.0189 151.196 68.8182 151.098 68.6591H150.939V70H149.643ZM150.962 65.6364C150.962 66.2955 151.058 66.8769 151.251 67.3807C151.445 67.8807 151.727 68.2727 152.098 68.5568C152.469 68.8371 152.924 68.9773 153.462 68.9773C154.022 68.9773 154.49 68.8295 154.865 68.5341C155.244 68.2348 155.528 67.8333 155.717 67.3295C155.911 66.822 156.007 66.2576 156.007 65.6364C156.007 65.0227 155.912 64.4697 155.723 63.9773C155.537 63.4811 155.255 63.089 154.876 62.8011C154.501 62.5095 154.03 62.3636 153.462 62.3636C152.916 62.3636 152.458 62.5019 152.087 62.7784C151.715 63.0511 151.435 63.4337 151.246 63.9261C151.056 64.4148 150.962 64.9848 150.962 65.6364ZM163.058 70.1818C162.217 70.1818 161.492 69.9962 160.882 69.625C160.276 69.25 159.808 68.7273 159.479 68.0568C159.153 67.3826 158.99 66.5985 158.99 65.7045C158.99 64.8106 159.153 64.0227 159.479 63.3409C159.808 62.6553 160.267 62.1212 160.854 61.7386C161.445 61.3523 162.134 61.1591 162.922 61.1591C163.376 61.1591 163.825 61.2348 164.268 61.3864C164.712 61.5379 165.115 61.7841 165.479 62.125C165.842 62.4621 166.132 62.9091 166.348 63.4659C166.564 64.0227 166.672 64.7083 166.672 65.5227V66.0909H159.945V64.9318H165.308C165.308 64.4394 165.21 64 165.013 63.6136C164.82 63.2273 164.543 62.9223 164.183 62.6989C163.827 62.4754 163.407 62.3636 162.922 62.3636C162.388 62.3636 161.926 62.4962 161.536 62.7614C161.149 63.0227 160.852 63.3636 160.643 63.7841C160.435 64.2045 160.331 64.6553 160.331 65.1364V65.9091C160.331 66.5682 160.445 67.1269 160.672 67.5852C160.903 68.0398 161.223 68.3864 161.632 68.625C162.041 68.8598 162.517 68.9773 163.058 68.9773C163.411 68.9773 163.729 68.928 164.013 68.8295C164.301 68.7273 164.549 68.5758 164.757 68.375C164.965 68.1705 165.126 67.9167 165.24 67.6136L166.536 67.9773C166.399 68.4167 166.17 68.803 165.848 69.1364C165.526 69.4659 165.128 69.7235 164.655 69.9091C164.181 70.0909 163.649 70.1818 163.058 70.1818ZM177.007 61.2727V62.4091H172.484V61.2727H177.007ZM173.803 59.1818H175.143V67.5C175.143 67.8788 175.198 68.1629 175.308 68.3523C175.422 68.5379 175.566 68.6629 175.74 68.7273C175.918 68.7879 176.106 68.8182 176.303 68.8182C176.45 68.8182 176.571 68.8106 176.666 68.7955C176.761 68.7765 176.837 68.7614 176.893 68.75L177.166 69.9545C177.075 69.9886 176.948 70.0227 176.786 70.0568C176.623 70.0947 176.416 70.1136 176.166 70.1136C175.787 70.1136 175.416 70.0322 175.053 69.8693C174.693 69.7064 174.393 69.4583 174.155 69.125C173.92 68.7917 173.803 68.3712 173.803 67.8636V59.1818ZM181.592 70.2045C181.039 70.2045 180.537 70.1004 180.087 69.892C179.636 69.6799 179.278 69.375 179.013 68.9773C178.748 68.5758 178.615 68.0909 178.615 67.5227C178.615 67.0227 178.714 66.6174 178.911 66.3068C179.107 65.9924 179.371 65.7462 179.7 65.5682C180.03 65.3902 180.393 65.2576 180.791 65.1705C181.193 65.0795 181.596 65.0076 182.001 64.9545C182.532 64.8864 182.962 64.8352 183.291 64.8011C183.625 64.7633 183.867 64.7008 184.018 64.6136C184.174 64.5265 184.251 64.375 184.251 64.1591V64.1136C184.251 63.553 184.098 63.1174 183.791 62.8068C183.488 62.4962 183.028 62.3409 182.411 62.3409C181.77 62.3409 181.268 62.4811 180.905 62.7614C180.541 63.0417 180.286 63.3409 180.138 63.6591L178.865 63.2045C179.092 62.6742 179.395 62.2614 179.774 61.9659C180.157 61.6667 180.573 61.4583 181.024 61.3409C181.479 61.2197 181.926 61.1591 182.365 61.1591C182.645 61.1591 182.967 61.1932 183.331 61.2614C183.698 61.3258 184.053 61.4602 184.393 61.6648C184.738 61.8693 185.024 62.178 185.251 62.5909C185.479 63.0038 185.592 63.5568 185.592 64.25V70H184.251V68.8182H184.183C184.092 69.0076 183.941 69.2102 183.729 69.4261C183.517 69.642 183.234 69.8258 182.882 69.9773C182.53 70.1288 182.1 70.2045 181.592 70.2045ZM181.797 69C182.327 69 182.774 68.8958 183.138 68.6875C183.505 68.4792 183.782 68.2102 183.967 67.8807C184.157 67.5511 184.251 67.2045 184.251 66.8409V65.6136C184.195 65.6818 184.07 65.7443 183.876 65.8011C183.687 65.8542 183.467 65.9015 183.217 65.9432C182.971 65.9811 182.731 66.0152 182.496 66.0455C182.265 66.072 182.077 66.0947 181.933 66.1136C181.585 66.1591 181.259 66.233 180.956 66.3352C180.657 66.4337 180.414 66.5833 180.229 66.7841C180.047 66.9811 179.956 67.25 179.956 67.5909C179.956 68.0568 180.128 68.4091 180.473 68.6477C180.821 68.8826 181.263 69 181.797 69ZM189.29 66.8182L189.267 65.1591H189.54L193.358 61.2727H195.017L190.949 65.3864H190.835L189.29 66.8182ZM188.04 70V58.3636H189.381V70H188.04ZM193.585 70L190.176 65.6818L191.131 64.75L195.29 70H193.585ZM200.043 70.1818C199.202 70.1818 198.476 69.9962 197.866 69.625C197.26 69.25 196.793 68.7273 196.463 68.0568C196.137 67.3826 195.974 66.5985 195.974 65.7045C195.974 64.8106 196.137 64.0227 196.463 63.3409C196.793 62.6553 197.251 62.1212 197.838 61.7386C198.429 61.3523 199.118 61.1591 199.906 61.1591C200.361 61.1591 200.81 61.2348 201.253 61.3864C201.696 61.5379 202.099 61.7841 202.463 62.125C202.827 62.4621 203.116 62.9091 203.332 63.4659C203.548 64.0227 203.656 64.7083 203.656 65.5227V66.0909H196.929V64.9318H202.293C202.293 64.4394 202.194 64 201.997 63.6136C201.804 63.2273 201.527 62.9223 201.168 62.6989C200.812 62.4754 200.391 62.3636 199.906 62.3636C199.372 62.3636 198.91 62.4962 198.52 62.7614C198.134 63.0227 197.836 63.3636 197.628 63.7841C197.42 64.2045 197.315 64.6553 197.315 65.1364V65.9091C197.315 66.5682 197.429 67.1269 197.656 67.5852C197.887 68.0398 198.207 68.3864 198.616 68.625C199.026 68.8598 199.501 68.9773 200.043 68.9773C200.395 68.9773 200.713 68.928 200.997 68.8295C201.285 68.7273 201.533 68.5758 201.741 68.375C201.95 68.1705 202.111 67.9167 202.224 67.6136L203.52 67.9773C203.384 68.4167 203.154 68.803 202.832 69.1364C202.51 69.4659 202.113 69.7235 201.639 69.9091C201.166 70.0909 200.634 70.1818 200.043 70.1818ZM207.037 64.75V70H205.696V61.2727H206.991V62.6364H207.105C207.31 62.1932 207.62 61.8371 208.037 61.5682C208.454 61.2955 208.991 61.1591 209.651 61.1591C210.241 61.1591 210.759 61.2803 211.202 61.5227C211.645 61.7614 211.99 62.125 212.236 62.6136C212.482 63.0985 212.605 63.7121 212.605 64.4545V70H211.264V64.5455C211.264 63.8598 211.086 63.3258 210.73 62.9432C210.374 62.5568 209.885 62.3636 209.264 62.3636C208.836 62.3636 208.454 62.4564 208.116 62.642C207.783 62.8277 207.52 63.0985 207.327 63.4545C207.134 63.8106 207.037 64.2424 207.037 64.75ZM219.555 70V61.2727H220.896V70H219.555ZM220.237 59.8182C219.976 59.8182 219.75 59.7292 219.561 59.5511C219.375 59.3731 219.283 59.1591 219.283 58.9091C219.283 58.6591 219.375 58.4451 219.561 58.267C219.75 58.089 219.976 58 220.237 58C220.499 58 220.722 58.089 220.908 58.267C221.097 58.4451 221.192 58.6591 221.192 58.9091C221.192 59.1591 221.097 59.3731 220.908 59.5511C220.722 59.7292 220.499 59.8182 220.237 59.8182ZM224.693 64.75V70H223.352V61.2727H224.648V62.6364H224.761C224.966 62.1932 225.277 61.8371 225.693 61.5682C226.11 61.2955 226.648 61.1591 227.307 61.1591C227.898 61.1591 228.415 61.2803 228.858 61.5227C229.301 61.7614 229.646 62.125 229.892 62.6136C230.138 63.0985 230.261 63.7121 230.261 64.4545V70H228.92V64.5455C228.92 63.8598 228.742 63.3258 228.386 62.9432C228.03 62.5568 227.542 62.3636 226.92 62.3636C226.492 62.3636 226.11 62.4564 225.773 62.642C225.439 62.8277 225.176 63.0985 224.983 63.4545C224.79 63.8106 224.693 64.2424 224.693 64.75ZM240.734 73.4545C240.087 73.4545 239.53 73.3712 239.064 73.2045C238.598 73.0417 238.21 72.8258 237.899 72.5568C237.592 72.2917 237.348 72.0076 237.166 71.7045L238.234 70.9545C238.356 71.1136 238.509 71.2955 238.695 71.5C238.88 71.7083 239.134 71.8883 239.456 72.0398C239.782 72.1951 240.208 72.2727 240.734 72.2727C241.439 72.2727 242.02 72.1023 242.479 71.7614C242.937 71.4205 243.166 70.8864 243.166 70.1591V68.3864H243.053C242.954 68.5455 242.814 68.7424 242.632 68.9773C242.454 69.2083 242.196 69.4148 241.859 69.5966C241.526 69.7746 241.075 69.8636 240.507 69.8636C239.803 69.8636 239.17 69.697 238.609 69.3636C238.053 69.0303 237.611 68.5455 237.286 67.9091C236.964 67.2727 236.803 66.5 236.803 65.5909C236.803 64.697 236.96 63.9186 237.274 63.2557C237.589 62.589 238.026 62.0739 238.587 61.7102C239.147 61.3428 239.795 61.1591 240.53 61.1591C241.098 61.1591 241.549 61.2538 241.882 61.4432C242.219 61.6288 242.477 61.8409 242.655 62.0795C242.837 62.3144 242.977 62.5076 243.075 62.6591H243.212V61.2727H244.507V70.25C244.507 71 244.337 71.6098 243.996 72.0795C243.659 72.553 243.204 72.8996 242.632 73.1193C242.064 73.3428 241.431 73.4545 240.734 73.4545ZM240.689 68.6591C241.227 68.6591 241.681 68.536 242.053 68.2898C242.424 68.0436 242.706 67.6894 242.899 67.2273C243.092 66.7652 243.189 66.2121 243.189 65.5682C243.189 64.9394 243.094 64.3845 242.905 63.9034C242.715 63.4223 242.435 63.0455 242.064 62.7727C241.693 62.5 241.234 62.3636 240.689 62.3636C240.121 62.3636 239.647 62.5076 239.268 62.7955C238.893 63.0833 238.611 63.4697 238.422 63.9545C238.236 64.4394 238.143 64.9773 238.143 65.5682C238.143 66.1742 238.238 66.7102 238.428 67.1761C238.621 67.6383 238.905 68.0019 239.28 68.267C239.659 68.5284 240.128 68.6591 240.689 68.6591ZM250.507 70.1818C249.719 70.1818 249.028 69.9943 248.433 69.6193C247.842 69.2443 247.38 68.7197 247.047 68.0455C246.717 67.3712 246.553 66.5833 246.553 65.6818C246.553 64.7727 246.717 63.9792 247.047 63.3011C247.38 62.6231 247.842 62.0966 248.433 61.7216C249.028 61.3466 249.719 61.1591 250.507 61.1591C251.295 61.1591 251.984 61.3466 252.575 61.7216C253.17 62.0966 253.632 62.6231 253.962 63.3011C254.295 63.9792 254.462 64.7727 254.462 65.6818C254.462 66.5833 254.295 67.3712 253.962 68.0455C253.632 68.7197 253.17 69.2443 252.575 69.6193C251.984 69.9943 251.295 70.1818 250.507 70.1818ZM250.507 68.9773C251.106 68.9773 251.598 68.8239 251.984 68.517C252.371 68.2102 252.657 67.8068 252.842 67.3068C253.028 66.8068 253.121 66.2652 253.121 65.6818C253.121 65.0985 253.028 64.5549 252.842 64.0511C252.657 63.5473 252.371 63.1402 251.984 62.8295C251.598 62.5189 251.106 62.3636 250.507 62.3636C249.909 62.3636 249.416 62.5189 249.03 62.8295C248.643 63.1402 248.357 63.5473 248.172 64.0511C247.986 64.5549 247.893 65.0985 247.893 65.6818C247.893 66.2652 247.986 66.8068 248.172 67.3068C248.357 67.8068 248.643 68.2102 249.03 68.517C249.416 68.8239 249.909 68.9773 250.507 68.9773ZM260.054 70.1818C259.266 70.1818 258.575 69.9943 257.98 69.6193C257.389 69.2443 256.927 68.7197 256.594 68.0455C256.264 67.3712 256.099 66.5833 256.099 65.6818C256.099 64.7727 256.264 63.9792 256.594 63.3011C256.927 62.6231 257.389 62.0966 257.98 61.7216C258.575 61.3466 259.266 61.1591 260.054 61.1591C260.842 61.1591 261.531 61.3466 262.122 61.7216C262.717 62.0966 263.179 62.6231 263.509 63.3011C263.842 63.9792 264.009 64.7727 264.009 65.6818C264.009 66.5833 263.842 67.3712 263.509 68.0455C263.179 68.7197 262.717 69.2443 262.122 69.6193C261.531 69.9943 260.842 70.1818 260.054 70.1818ZM260.054 68.9773C260.652 68.9773 261.145 68.8239 261.531 68.517C261.918 68.2102 262.204 67.8068 262.389 67.3068C262.575 66.8068 262.668 66.2652 262.668 65.6818C262.668 65.0985 262.575 64.5549 262.389 64.0511C262.204 63.5473 261.918 63.1402 261.531 62.8295C261.145 62.5189 260.652 62.3636 260.054 62.3636C259.455 62.3636 258.963 62.5189 258.577 62.8295C258.19 63.1402 257.904 63.5473 257.719 64.0511C257.533 64.5549 257.44 65.0985 257.44 65.6818C257.44 66.2652 257.533 66.8068 257.719 67.3068C257.904 67.8068 258.19 68.2102 258.577 68.517C258.963 68.8239 259.455 68.9773 260.054 68.9773ZM269.351 70.1818C268.624 70.1818 267.982 69.9981 267.425 69.6307C266.868 69.2595 266.432 68.7367 266.118 68.0625C265.804 67.3845 265.646 66.5833 265.646 65.6591C265.646 64.7424 265.804 63.947 266.118 63.2727C266.432 62.5985 266.87 62.0777 267.43 61.7102C267.991 61.3428 268.639 61.1591 269.374 61.1591C269.942 61.1591 270.391 61.2538 270.72 61.4432C271.054 61.6288 271.307 61.8409 271.482 62.0795C271.66 62.3144 271.798 62.5076 271.896 62.6591H272.01V58.3636H273.351V70H272.055V68.6591H271.896C271.798 68.8182 271.658 69.0189 271.476 69.2614C271.294 69.5 271.035 69.714 270.697 69.9034C270.36 70.089 269.911 70.1818 269.351 70.1818ZM269.533 68.9773C270.071 68.9773 270.525 68.8371 270.896 68.5568C271.268 68.2727 271.55 67.8807 271.743 67.3807C271.936 66.8769 272.033 66.2955 272.033 65.6364C272.033 64.9848 271.938 64.4148 271.749 63.9261C271.559 63.4337 271.279 63.0511 270.908 62.7784C270.536 62.5019 270.078 62.3636 269.533 62.3636C268.964 62.3636 268.491 62.5095 268.112 62.8011C267.737 63.089 267.455 63.4811 267.266 63.9773C267.08 64.4697 266.987 65.0227 266.987 65.6364C266.987 66.2576 267.082 66.822 267.271 67.3295C267.464 67.8333 267.749 68.2348 268.124 68.5341C268.502 68.8295 268.972 68.9773 269.533 68.9773ZM281.834 58.3636V70H280.493V58.3636H281.834ZM284.29 70V61.2727H285.631V70H284.29ZM284.972 59.8182C284.71 59.8182 284.485 59.7292 284.295 59.5511C284.11 59.3731 284.017 59.1591 284.017 58.9091C284.017 58.6591 284.11 58.4451 284.295 58.267C284.485 58.089 284.71 58 284.972 58C285.233 58 285.456 58.089 285.642 58.267C285.831 58.4451 285.926 58.6591 285.926 58.9091C285.926 59.1591 285.831 59.3731 285.642 59.5511C285.456 59.7292 285.233 59.8182 284.972 59.8182ZM291.609 73.4545C290.962 73.4545 290.405 73.3712 289.939 73.2045C289.473 73.0417 289.085 72.8258 288.774 72.5568C288.467 72.2917 288.223 72.0076 288.041 71.7045L289.109 70.9545C289.231 71.1136 289.384 71.2955 289.57 71.5C289.755 71.7083 290.009 71.8883 290.331 72.0398C290.657 72.1951 291.083 72.2727 291.609 72.2727C292.314 72.2727 292.895 72.1023 293.354 71.7614C293.812 71.4205 294.041 70.8864 294.041 70.1591V68.3864H293.928C293.829 68.5455 293.689 68.7424 293.507 68.9773C293.329 69.2083 293.071 69.4148 292.734 69.5966C292.401 69.7746 291.95 69.8636 291.382 69.8636C290.678 69.8636 290.045 69.697 289.484 69.3636C288.928 69.0303 288.486 68.5455 288.161 67.9091C287.839 67.2727 287.678 66.5 287.678 65.5909C287.678 64.697 287.835 63.9186 288.149 63.2557C288.464 62.589 288.901 62.0739 289.462 61.7102C290.022 61.3428 290.67 61.1591 291.405 61.1591C291.973 61.1591 292.424 61.2538 292.757 61.4432C293.094 61.6288 293.352 61.8409 293.53 62.0795C293.712 62.3144 293.852 62.5076 293.95 62.6591H294.087V61.2727H295.382V70.25C295.382 71 295.212 71.6098 294.871 72.0795C294.534 72.553 294.079 72.8996 293.507 73.1193C292.939 73.3428 292.306 73.4545 291.609 73.4545ZM291.564 68.6591C292.102 68.6591 292.556 68.536 292.928 68.2898C293.299 68.0436 293.581 67.6894 293.774 67.2273C293.967 66.7652 294.064 66.2121 294.064 65.5682C294.064 64.9394 293.969 64.3845 293.78 63.9034C293.59 63.4223 293.31 63.0455 292.939 62.7727C292.568 62.5 292.109 62.3636 291.564 62.3636C290.996 62.3636 290.522 62.5076 290.143 62.7955C289.768 63.0833 289.486 63.4697 289.297 63.9545C289.111 64.4394 289.018 64.9773 289.018 65.5682C289.018 66.1742 289.113 66.7102 289.303 67.1761C289.496 67.6383 289.78 68.0019 290.155 68.267C290.534 68.5284 291.003 68.6591 291.564 68.6591ZM299.178 64.75V70H297.837V58.3636H299.178V62.6364H299.291C299.496 62.1856 299.803 61.8277 300.212 61.5625C300.625 61.2936 301.174 61.1591 301.859 61.1591C302.454 61.1591 302.975 61.2784 303.422 61.517C303.869 61.7519 304.215 62.1136 304.462 62.6023C304.712 63.0871 304.837 63.7045 304.837 64.4545V70H303.496V64.5455C303.496 63.8523 303.316 63.3163 302.956 62.9375C302.6 62.5549 302.106 62.3636 301.473 62.3636C301.034 62.3636 300.64 62.4564 300.291 62.642C299.946 62.8277 299.674 63.0985 299.473 63.4545C299.276 63.8106 299.178 64.2424 299.178 64.75ZM311.085 61.2727V62.4091H306.562V61.2727H311.085ZM307.881 59.1818H309.222V67.5C309.222 67.8788 309.277 68.1629 309.386 68.3523C309.5 68.5379 309.644 68.6629 309.818 68.7273C309.996 68.7879 310.184 68.8182 310.381 68.8182C310.528 68.8182 310.65 68.8106 310.744 68.7955C310.839 68.7765 310.915 68.7614 310.972 68.75L311.244 69.9545C311.153 69.9886 311.027 70.0227 310.864 70.0568C310.701 70.0947 310.494 70.1136 310.244 70.1136C309.866 70.1136 309.494 70.0322 309.131 69.8693C308.771 69.7064 308.472 69.4583 308.233 69.125C307.998 68.7917 307.881 68.3712 307.881 67.8636V59.1818ZM316.668 70.1818C315.827 70.1818 315.101 69.9962 314.491 69.625C313.885 69.25 313.418 68.7273 313.088 68.0568C312.762 67.3826 312.599 66.5985 312.599 65.7045C312.599 64.8106 312.762 64.0227 313.088 63.3409C313.418 62.6553 313.876 62.1212 314.463 61.7386C315.054 61.3523 315.743 61.1591 316.531 61.1591C316.986 61.1591 317.435 61.2348 317.878 61.3864C318.321 61.5379 318.724 61.7841 319.088 62.125C319.452 62.4621 319.741 62.9091 319.957 63.4659C320.173 64.0227 320.281 64.7083 320.281 65.5227V66.0909H313.554V64.9318H318.918C318.918 64.4394 318.819 64 318.622 63.6136C318.429 63.2273 318.152 62.9223 317.793 62.6989C317.437 62.4754 317.016 62.3636 316.531 62.3636C315.997 62.3636 315.535 62.4962 315.145 62.7614C314.759 63.0227 314.461 63.3636 314.253 63.7841C314.045 64.2045 313.94 64.6553 313.94 65.1364V65.9091C313.94 66.5682 314.054 67.1269 314.281 67.5852C314.512 68.0398 314.832 68.3864 315.241 68.625C315.651 68.8598 316.126 68.9773 316.668 68.9773C317.02 68.9773 317.338 68.928 317.622 68.8295C317.91 68.7273 318.158 68.5758 318.366 68.375C318.575 68.1705 318.736 67.9167 318.849 67.6136L320.145 67.9773C320.009 68.4167 319.779 68.803 319.457 69.1364C319.135 69.4659 318.738 69.7235 318.264 69.9091C317.791 70.0909 317.259 70.1818 316.668 70.1818ZM323.662 64.75V70H322.321V61.2727H323.616V62.6364H323.73C323.935 62.1932 324.245 61.8371 324.662 61.5682C325.079 61.2955 325.616 61.1591 326.276 61.1591C326.866 61.1591 327.384 61.2803 327.827 61.5227C328.27 61.7614 328.615 62.125 328.861 62.6136C329.107 63.0985 329.23 63.7121 329.23 64.4545V70H327.889V64.5455C327.889 63.8598 327.711 63.3258 327.355 62.9432C326.999 62.5568 326.51 62.3636 325.889 62.3636C325.461 62.3636 325.079 62.4564 324.741 62.642C324.408 62.8277 324.145 63.0985 323.952 63.4545C323.759 63.8106 323.662 64.2424 323.662 64.75ZM331.68 70V61.2727H333.021V70H331.68ZM332.362 59.8182C332.101 59.8182 331.875 59.7292 331.686 59.5511C331.5 59.3731 331.408 59.1591 331.408 58.9091C331.408 58.6591 331.5 58.4451 331.686 58.267C331.875 58.089 332.101 58 332.362 58C332.624 58 332.847 58.089 333.033 58.267C333.222 58.4451 333.317 58.6591 333.317 58.9091C333.317 59.1591 333.222 59.3731 333.033 59.5511C332.847 59.7292 332.624 59.8182 332.362 59.8182ZM336.818 64.75V70H335.477V61.2727H336.773V62.6364H336.886C337.091 62.1932 337.402 61.8371 337.818 61.5682C338.235 61.2955 338.773 61.1591 339.432 61.1591C340.023 61.1591 340.54 61.2803 340.983 61.5227C341.426 61.7614 341.771 62.125 342.017 62.6136C342.263 63.0985 342.386 63.7121 342.386 64.4545V70H341.045V64.5455C341.045 63.8598 340.867 63.3258 340.511 62.9432C340.155 62.5568 339.667 62.3636 339.045 62.3636C338.617 62.3636 338.235 62.4564 337.898 62.642C337.564 62.8277 337.301 63.0985 337.108 63.4545C336.915 63.8106 336.818 64.2424 336.818 64.75ZM348.359 73.4545C347.712 73.4545 347.155 73.3712 346.689 73.2045C346.223 73.0417 345.835 72.8258 345.524 72.5568C345.217 72.2917 344.973 72.0076 344.791 71.7045L345.859 70.9545C345.981 71.1136 346.134 71.2955 346.32 71.5C346.505 71.7083 346.759 71.8883 347.081 72.0398C347.407 72.1951 347.833 72.2727 348.359 72.2727C349.064 72.2727 349.645 72.1023 350.104 71.7614C350.562 71.4205 350.791 70.8864 350.791 70.1591V68.3864H350.678C350.579 68.5455 350.439 68.7424 350.257 68.9773C350.079 69.2083 349.821 69.4148 349.484 69.5966C349.151 69.7746 348.7 69.8636 348.132 69.8636C347.428 69.8636 346.795 69.697 346.234 69.3636C345.678 69.0303 345.236 68.5455 344.911 67.9091C344.589 67.2727 344.428 66.5 344.428 65.5909C344.428 64.697 344.585 63.9186 344.899 63.2557C345.214 62.589 345.651 62.0739 346.212 61.7102C346.772 61.3428 347.42 61.1591 348.155 61.1591C348.723 61.1591 349.174 61.2538 349.507 61.4432C349.844 61.6288 350.102 61.8409 350.28 62.0795C350.462 62.3144 350.602 62.5076 350.7 62.6591H350.837V61.2727H352.132V70.25C352.132 71 351.962 71.6098 351.621 72.0795C351.284 72.553 350.829 72.8996 350.257 73.1193C349.689 73.3428 349.056 73.4545 348.359 73.4545ZM348.314 68.6591C348.852 68.6591 349.306 68.536 349.678 68.2898C350.049 68.0436 350.331 67.6894 350.524 67.2273C350.717 66.7652 350.814 66.2121 350.814 65.5682C350.814 64.9394 350.719 64.3845 350.53 63.9034C350.34 63.4223 350.06 63.0455 349.689 62.7727C349.318 62.5 348.859 62.3636 348.314 62.3636C347.746 62.3636 347.272 62.5076 346.893 62.7955C346.518 63.0833 346.236 63.4697 346.047 63.9545C345.861 64.4394 345.768 64.9773 345.768 65.5682C345.768 66.1742 345.863 66.7102 346.053 67.1761C346.246 67.6383 346.53 68.0019 346.905 68.267C347.284 68.5284 347.753 68.6591 348.314 68.6591ZM24.2727 78.6136V77.3636H33V78.6136H29.3409V89H27.9318V78.6136H24.2727ZM36.3338 83.75V89H34.9929V77.3636H36.3338V81.6364H36.4474C36.652 81.1856 36.9588 80.8277 37.3679 80.5625C37.7808 80.2936 38.33 80.1591 39.0156 80.1591C39.6103 80.1591 40.1312 80.2784 40.5781 80.517C41.0251 80.7519 41.3717 81.1136 41.6179 81.6023C41.8679 82.0871 41.9929 82.7045 41.9929 83.4545V89H40.652V83.5455C40.652 82.8523 40.4721 82.3163 40.1122 81.9375C39.7562 81.5549 39.2618 81.3636 38.6293 81.3636C38.1899 81.3636 37.7959 81.4564 37.4474 81.642C37.1027 81.8277 36.83 82.0985 36.6293 82.4545C36.4323 82.8106 36.3338 83.2424 36.3338 83.75ZM48.1051 89.1818C47.2642 89.1818 46.5388 88.9962 45.929 88.625C45.3229 88.25 44.8551 87.7273 44.5256 87.0568C44.1998 86.3826 44.0369 85.5985 44.0369 84.7045C44.0369 83.8106 44.1998 83.0227 44.5256 82.3409C44.8551 81.6553 45.3134 81.1212 45.9006 80.7386C46.4915 80.3523 47.1809 80.1591 47.9688 80.1591C48.4233 80.1591 48.8722 80.2348 49.3153 80.3864C49.7585 80.5379 50.1619 80.7841 50.5256 81.125C50.8892 81.4621 51.179 81.9091 51.3949 82.4659C51.6108 83.0227 51.7188 83.7083 51.7188 84.5227V85.0909H44.9915V83.9318H50.3551C50.3551 83.4394 50.2566 83 50.0597 82.6136C49.8665 82.2273 49.59 81.9223 49.2301 81.6989C48.8741 81.4754 48.4536 81.3636 47.9688 81.3636C47.4347 81.3636 46.9725 81.4962 46.5824 81.7614C46.196 82.0227 45.8987 82.3636 45.6903 82.7841C45.482 83.2045 45.3778 83.6553 45.3778 84.1364V84.9091C45.3778 85.5682 45.4915 86.1269 45.7188 86.5852C45.9498 87.0398 46.2699 87.3864 46.679 87.625C47.0881 87.8598 47.5634 87.9773 48.1051 87.9773C48.4574 87.9773 48.7756 87.928 49.0597 87.8295C49.3475 87.7273 49.5956 87.5758 49.804 87.375C50.0123 87.1705 50.1733 86.9167 50.2869 86.6136L51.5824 86.9773C51.446 87.4167 51.2169 87.803 50.8949 88.1364C50.5729 88.4659 50.1752 88.7235 49.7017 88.9091C49.2282 89.0909 48.696 89.1818 48.1051 89.1818ZM58.2585 92.2727V80.2727H59.554V81.6591H59.7131C59.8116 81.5076 59.9479 81.3144 60.1222 81.0795C60.3002 80.8409 60.554 80.6288 60.8835 80.4432C61.2169 80.2538 61.6676 80.1591 62.2358 80.1591C62.9706 80.1591 63.6184 80.3428 64.179 80.7102C64.7396 81.0777 65.1771 81.5985 65.4915 82.2727C65.8059 82.947 65.9631 83.7424 65.9631 84.6591C65.9631 85.5833 65.8059 86.3845 65.4915 87.0625C65.1771 87.7367 64.7415 88.2595 64.1847 88.6307C63.6278 88.9981 62.9858 89.1818 62.2585 89.1818C61.6979 89.1818 61.2491 89.089 60.9119 88.9034C60.5748 88.714 60.3153 88.5 60.1335 88.2614C59.9517 88.0189 59.8116 87.8182 59.7131 87.6591H59.5994V92.2727H58.2585ZM59.5767 84.6364C59.5767 85.2955 59.6733 85.8769 59.8665 86.3807C60.0597 86.8807 60.3419 87.2727 60.7131 87.5568C61.0843 87.8371 61.5388 87.9773 62.0767 87.9773C62.6373 87.9773 63.1051 87.8295 63.4801 87.5341C63.8589 87.2348 64.143 86.8333 64.3324 86.3295C64.5256 85.822 64.6222 85.2576 64.6222 84.6364C64.6222 84.0227 64.5275 83.4697 64.3381 82.9773C64.1525 82.4811 63.8703 82.089 63.4915 81.8011C63.1165 81.5095 62.6449 81.3636 62.0767 81.3636C61.5313 81.3636 61.0729 81.5019 60.7017 81.7784C60.3305 82.0511 60.0502 82.4337 59.8608 82.9261C59.6714 83.4148 59.5767 83.9848 59.5767 84.6364ZM69.3494 83.75V89H68.0085V77.3636H69.3494V81.6364H69.4631C69.6676 81.1856 69.9744 80.8277 70.3835 80.5625C70.7964 80.2936 71.3456 80.1591 72.0312 80.1591C72.6259 80.1591 73.1468 80.2784 73.5938 80.517C74.0407 80.7519 74.3873 81.1136 74.6335 81.6023C74.8835 82.0871 75.0085 82.7045 75.0085 83.4545V89H73.6676V83.5455C73.6676 82.8523 73.4877 82.3163 73.1278 81.9375C72.7718 81.5549 72.2775 81.3636 71.6449 81.3636C71.2055 81.3636 70.8116 81.4564 70.4631 81.642C70.1184 81.8277 69.8456 82.0985 69.6449 82.4545C69.4479 82.8106 69.3494 83.2424 69.3494 83.75ZM81.0071 89.1818C80.2192 89.1818 79.5279 88.9943 78.9332 88.6193C78.3423 88.2443 77.8802 87.7197 77.5469 87.0455C77.2173 86.3712 77.0526 85.5833 77.0526 84.6818C77.0526 83.7727 77.2173 82.9792 77.5469 82.3011C77.8802 81.6231 78.3423 81.0966 78.9332 80.7216C79.5279 80.3466 80.2192 80.1591 81.0071 80.1591C81.795 80.1591 82.4844 80.3466 83.0753 80.7216C83.67 81.0966 84.1321 81.6231 84.4616 82.3011C84.795 82.9792 84.9616 83.7727 84.9616 84.6818C84.9616 85.5833 84.795 86.3712 84.4616 87.0455C84.1321 87.7197 83.67 88.2443 83.0753 88.6193C82.4844 88.9943 81.795 89.1818 81.0071 89.1818ZM81.0071 87.9773C81.6056 87.9773 82.098 87.8239 82.4844 87.517C82.8707 87.2102 83.1567 86.8068 83.3423 86.3068C83.5279 85.8068 83.6207 85.2652 83.6207 84.6818C83.6207 84.0985 83.5279 83.5549 83.3423 83.0511C83.1567 82.5473 82.8707 82.1402 82.4844 81.8295C82.098 81.5189 81.6056 81.3636 81.0071 81.3636C80.4086 81.3636 79.9162 81.5189 79.5298 81.8295C79.1435 82.1402 78.8575 82.5473 78.6719 83.0511C78.4863 83.5549 78.3935 84.0985 78.3935 84.6818C78.3935 85.2652 78.4863 85.8068 78.6719 86.3068C78.8575 86.8068 79.1435 87.2102 79.5298 87.517C79.9162 87.8239 80.4086 87.9773 81.0071 87.9773ZM90.804 80.2727V81.4091H86.2812V80.2727H90.804ZM87.5994 78.1818H88.9403V86.5C88.9403 86.8788 88.9953 87.1629 89.1051 87.3523C89.2188 87.5379 89.3627 87.6629 89.5369 87.7273C89.715 87.7879 89.9025 87.8182 90.0994 87.8182C90.2472 87.8182 90.3684 87.8106 90.4631 87.7955C90.5578 87.7765 90.6335 87.7614 90.6903 87.75L90.9631 88.9545C90.8722 88.9886 90.7453 89.0227 90.5824 89.0568C90.4195 89.0947 90.2131 89.1136 89.9631 89.1136C89.5843 89.1136 89.2131 89.0322 88.8494 88.8693C88.4896 88.7064 88.1903 88.4583 87.9517 88.125C87.7169 87.7917 87.5994 87.3712 87.5994 86.8636V78.1818ZM96.2727 89.1818C95.4848 89.1818 94.7936 88.9943 94.1989 88.6193C93.608 88.2443 93.1458 87.7197 92.8125 87.0455C92.483 86.3712 92.3182 85.5833 92.3182 84.6818C92.3182 83.7727 92.483 82.9792 92.8125 82.3011C93.1458 81.6231 93.608 81.0966 94.1989 80.7216C94.7936 80.3466 95.4848 80.1591 96.2727 80.1591C97.0606 80.1591 97.75 80.3466 98.3409 80.7216C98.9356 81.0966 99.3977 81.6231 99.7273 82.3011C100.061 82.9792 100.227 83.7727 100.227 84.6818C100.227 85.5833 100.061 86.3712 99.7273 87.0455C99.3977 87.7197 98.9356 88.2443 98.3409 88.6193C97.75 88.9943 97.0606 89.1818 96.2727 89.1818ZM96.2727 87.9773C96.8712 87.9773 97.3636 87.8239 97.75 87.517C98.1364 87.2102 98.4223 86.8068 98.608 86.3068C98.7936 85.8068 98.8864 85.2652 98.8864 84.6818C98.8864 84.0985 98.7936 83.5549 98.608 83.0511C98.4223 82.5473 98.1364 82.1402 97.75 81.8295C97.3636 81.5189 96.8712 81.3636 96.2727 81.3636C95.6742 81.3636 95.1818 81.5189 94.7955 81.8295C94.4091 82.1402 94.1231 82.5473 93.9375 83.0511C93.7519 83.5549 93.6591 84.0985 93.6591 84.6818C93.6591 85.2652 93.7519 85.8068 93.9375 86.3068C94.1231 86.8068 94.4091 87.2102 94.7955 87.517C95.1818 87.8239 95.6742 87.9773 96.2727 87.9773ZM149.643 89V77.3636H150.984V81.6591H151.098C151.196 81.5076 151.333 81.3144 151.507 81.0795C151.685 80.8409 151.939 80.6288 152.268 80.4432C152.602 80.2538 153.053 80.1591 153.621 80.1591C154.356 80.1591 155.003 80.3428 155.564 80.7102C156.125 81.0777 156.562 81.5985 156.876 82.2727C157.191 82.947 157.348 83.7424 157.348 84.6591C157.348 85.5833 157.191 86.3845 156.876 87.0625C156.562 87.7367 156.126 88.2595 155.57 88.6307C155.013 88.9981 154.371 89.1818 153.643 89.1818C153.083 89.1818 152.634 89.089 152.297 88.9034C151.96 88.714 151.7 88.5 151.518 88.2614C151.337 88.0189 151.196 87.8182 151.098 87.6591H150.939V89H149.643ZM150.962 84.6364C150.962 85.2955 151.058 85.8769 151.251 86.3807C151.445 86.8807 151.727 87.2727 152.098 87.5568C152.469 87.8371 152.924 87.9773 153.462 87.9773C154.022 87.9773 154.49 87.8295 154.865 87.5341C155.244 87.2348 155.528 86.8333 155.717 86.3295C155.911 85.822 156.007 85.2576 156.007 84.6364C156.007 84.0227 155.912 83.4697 155.723 82.9773C155.537 82.4811 155.255 82.089 154.876 81.8011C154.501 81.5095 154.03 81.3636 153.462 81.3636C152.916 81.3636 152.458 81.5019 152.087 81.7784C151.715 82.0511 151.435 82.4337 151.246 82.9261C151.056 83.4148 150.962 83.9848 150.962 84.6364ZM163.058 89.1818C162.217 89.1818 161.492 88.9962 160.882 88.625C160.276 88.25 159.808 87.7273 159.479 87.0568C159.153 86.3826 158.99 85.5985 158.99 84.7045C158.99 83.8106 159.153 83.0227 159.479 82.3409C159.808 81.6553 160.267 81.1212 160.854 80.7386C161.445 80.3523 162.134 80.1591 162.922 80.1591C163.376 80.1591 163.825 80.2348 164.268 80.3864C164.712 80.5379 165.115 80.7841 165.479 81.125C165.842 81.4621 166.132 81.9091 166.348 82.4659C166.564 83.0227 166.672 83.7083 166.672 84.5227V85.0909H159.945V83.9318H165.308C165.308 83.4394 165.21 83 165.013 82.6136C164.82 82.2273 164.543 81.9223 164.183 81.6989C163.827 81.4754 163.407 81.3636 162.922 81.3636C162.388 81.3636 161.926 81.4962 161.536 81.7614C161.149 82.0227 160.852 82.3636 160.643 82.7841C160.435 83.2045 160.331 83.6553 160.331 84.1364V84.9091C160.331 85.5682 160.445 86.1269 160.672 86.5852C160.903 87.0398 161.223 87.3864 161.632 87.625C162.041 87.8598 162.517 87.9773 163.058 87.9773C163.411 87.9773 163.729 87.928 164.013 87.8295C164.301 87.7273 164.549 87.5758 164.757 87.375C164.965 87.1705 165.126 86.9167 165.24 86.6136L166.536 86.9773C166.399 87.4167 166.17 87.803 165.848 88.1364C165.526 88.4659 165.128 88.7235 164.655 88.9091C164.181 89.0909 163.649 89.1818 163.058 89.1818ZM174.553 83.75V89H173.212V77.3636H174.553V81.6364H174.666C174.871 81.1856 175.178 80.8277 175.587 80.5625C176 80.2936 176.549 80.1591 177.234 80.1591C177.829 80.1591 178.35 80.2784 178.797 80.517C179.244 80.7519 179.59 81.1136 179.837 81.6023C180.087 82.0871 180.212 82.7045 180.212 83.4545V89H178.871V83.5455C178.871 82.8523 178.691 82.3163 178.331 81.9375C177.975 81.5549 177.481 81.3636 176.848 81.3636C176.409 81.3636 176.015 81.4564 175.666 81.642C175.321 81.8277 175.049 82.0985 174.848 82.4545C174.651 82.8106 174.553 83.2424 174.553 83.75ZM182.665 89V80.2727H184.006V89H182.665ZM183.347 78.8182C183.085 78.8182 182.86 78.7292 182.67 78.5511C182.485 78.3731 182.392 78.1591 182.392 77.9091C182.392 77.6591 182.485 77.4451 182.67 77.267C182.86 77.089 183.085 77 183.347 77C183.608 77 183.831 77.089 184.017 77.267C184.206 77.4451 184.301 77.6591 184.301 77.9091C184.301 78.1591 184.206 78.3731 184.017 78.5511C183.831 78.7292 183.608 78.8182 183.347 78.8182ZM189.984 92.4545C189.337 92.4545 188.78 92.3712 188.314 92.2045C187.848 92.0417 187.46 91.8258 187.149 91.5568C186.842 91.2917 186.598 91.0076 186.416 90.7045L187.484 89.9545C187.606 90.1136 187.759 90.2955 187.945 90.5C188.13 90.7083 188.384 90.8883 188.706 91.0398C189.032 91.1951 189.458 91.2727 189.984 91.2727C190.689 91.2727 191.27 91.1023 191.729 90.7614C192.187 90.4205 192.416 89.8864 192.416 89.1591V87.3864H192.303C192.204 87.5455 192.064 87.7424 191.882 87.9773C191.704 88.2083 191.446 88.4148 191.109 88.5966C190.776 88.7746 190.325 88.8636 189.757 88.8636C189.053 88.8636 188.42 88.697 187.859 88.3636C187.303 88.0303 186.861 87.5455 186.536 86.9091C186.214 86.2727 186.053 85.5 186.053 84.5909C186.053 83.697 186.21 82.9186 186.524 82.2557C186.839 81.589 187.276 81.0739 187.837 80.7102C188.397 80.3428 189.045 80.1591 189.78 80.1591C190.348 80.1591 190.799 80.2538 191.132 80.4432C191.469 80.6288 191.727 80.8409 191.905 81.0795C192.087 81.3144 192.227 81.5076 192.325 81.6591H192.462V80.2727H193.757V89.25C193.757 90 193.587 90.6098 193.246 91.0795C192.909 91.553 192.454 91.8996 191.882 92.1193C191.314 92.3428 190.681 92.4545 189.984 92.4545ZM189.939 87.6591C190.477 87.6591 190.931 87.536 191.303 87.2898C191.674 87.0436 191.956 86.6894 192.149 86.2273C192.342 85.7652 192.439 85.2121 192.439 84.5682C192.439 83.9394 192.344 83.3845 192.155 82.9034C191.965 82.4223 191.685 82.0455 191.314 81.7727C190.943 81.5 190.484 81.3636 189.939 81.3636C189.371 81.3636 188.897 81.5076 188.518 81.7955C188.143 82.0833 187.861 82.4697 187.672 82.9545C187.486 83.4394 187.393 83.9773 187.393 84.5682C187.393 85.1742 187.488 85.7102 187.678 86.1761C187.871 86.6383 188.155 87.0019 188.53 87.267C188.909 87.5284 189.378 87.6591 189.939 87.6591ZM197.553 83.75V89H196.212V77.3636H197.553V81.6364H197.666C197.871 81.1856 198.178 80.8277 198.587 80.5625C199 80.2936 199.549 80.1591 200.234 80.1591C200.829 80.1591 201.35 80.2784 201.797 80.517C202.244 80.7519 202.59 81.1136 202.837 81.6023C203.087 82.0871 203.212 82.7045 203.212 83.4545V89H201.871V83.5455C201.871 82.8523 201.691 82.3163 201.331 81.9375C200.975 81.5549 200.481 81.3636 199.848 81.3636C199.409 81.3636 199.015 81.4564 198.666 81.642C198.321 81.8277 198.049 82.0985 197.848 82.4545C197.651 82.8106 197.553 83.2424 197.553 83.75ZM216.119 92.2727V87.6591H216.006C215.907 87.8182 215.767 88.0189 215.585 88.2614C215.403 88.5 215.144 88.714 214.807 88.9034C214.47 89.089 214.021 89.1818 213.46 89.1818C212.733 89.1818 212.091 88.9981 211.534 88.6307C210.977 88.2595 210.542 87.7367 210.227 87.0625C209.913 86.3845 209.756 85.5833 209.756 84.6591C209.756 83.7424 209.913 82.947 210.227 82.2727C210.542 81.5985 210.979 81.0777 211.54 80.7102C212.1 80.3428 212.748 80.1591 213.483 80.1591C214.051 80.1591 214.5 80.2538 214.83 80.4432C215.163 80.6288 215.417 80.8409 215.591 81.0795C215.769 81.3144 215.907 81.5076 216.006 81.6591H216.165V80.2727H217.46V92.2727H216.119ZM213.642 87.9773C214.18 87.9773 214.634 87.8371 215.006 87.5568C215.377 87.2727 215.659 86.8807 215.852 86.3807C216.045 85.8769 216.142 85.2955 216.142 84.6364C216.142 83.9848 216.047 83.4148 215.858 82.9261C215.669 82.4337 215.388 82.0511 215.017 81.7784C214.646 81.5019 214.188 81.3636 213.642 81.3636C213.074 81.3636 212.6 81.5095 212.222 81.8011C211.847 82.089 211.564 82.4811 211.375 82.9773C211.189 83.4697 211.097 84.0227 211.097 84.6364C211.097 85.2576 211.191 85.822 211.381 86.3295C211.574 86.8333 211.858 87.2348 212.233 87.5341C212.612 87.8295 213.081 87.9773 213.642 87.9773ZM225.415 85.4318V80.2727H226.756V89H225.415V87.5227H225.324C225.119 87.9659 224.801 88.3428 224.369 88.6534C223.938 88.9602 223.392 89.1136 222.733 89.1136C222.188 89.1136 221.703 88.9943 221.278 88.7557C220.854 88.5133 220.521 88.1496 220.278 87.6648C220.036 87.1761 219.915 86.5606 219.915 85.8182V80.2727H221.256V85.7273C221.256 86.3636 221.434 86.8712 221.79 87.25C222.15 87.6288 222.608 87.8182 223.165 87.8182C223.498 87.8182 223.837 87.733 224.182 87.5625C224.53 87.392 224.822 87.1307 225.057 86.7784C225.295 86.4261 225.415 85.9773 225.415 85.4318ZM231.78 89.2045C231.227 89.2045 230.725 89.1004 230.274 88.892C229.823 88.6799 229.465 88.375 229.2 87.9773C228.935 87.5758 228.803 87.0909 228.803 86.5227C228.803 86.0227 228.901 85.6174 229.098 85.3068C229.295 84.9924 229.558 84.7462 229.888 84.5682C230.217 84.3902 230.581 84.2576 230.979 84.1705C231.38 84.0795 231.784 84.0076 232.189 83.9545C232.719 83.8864 233.149 83.8352 233.479 83.8011C233.812 83.7633 234.054 83.7008 234.206 83.6136C234.361 83.5265 234.439 83.375 234.439 83.1591V83.1136C234.439 82.553 234.286 82.1174 233.979 81.8068C233.676 81.4962 233.215 81.3409 232.598 81.3409C231.958 81.3409 231.456 81.4811 231.092 81.7614C230.729 82.0417 230.473 82.3409 230.325 82.6591L229.053 82.2045C229.28 81.6742 229.583 81.2614 229.962 80.9659C230.344 80.6667 230.761 80.4583 231.212 80.3409C231.666 80.2197 232.113 80.1591 232.553 80.1591C232.833 80.1591 233.155 80.1932 233.518 80.2614C233.886 80.3258 234.24 80.4602 234.581 80.6648C234.926 80.8693 235.212 81.178 235.439 81.5909C235.666 82.0038 235.78 82.5568 235.78 83.25V89H234.439V87.8182H234.371C234.28 88.0076 234.128 88.2102 233.916 88.4261C233.704 88.642 233.422 88.8258 233.07 88.9773C232.717 89.1288 232.287 89.2045 231.78 89.2045ZM231.984 88C232.515 88 232.962 87.8958 233.325 87.6875C233.693 87.4792 233.969 87.2102 234.155 86.8807C234.344 86.5511 234.439 86.2045 234.439 85.8409V84.6136C234.382 84.6818 234.257 84.7443 234.064 84.8011C233.875 84.8542 233.655 84.9015 233.405 84.9432C233.159 84.9811 232.918 85.0152 232.683 85.0455C232.452 85.072 232.265 85.0947 232.121 85.1136C231.772 85.1591 231.446 85.233 231.143 85.3352C230.844 85.4337 230.602 85.5833 230.416 85.7841C230.234 85.9811 230.143 86.25 230.143 86.5909C230.143 87.0568 230.316 87.4091 230.661 87.6477C231.009 87.8826 231.45 88 231.984 88ZM239.568 77.3636V89H238.227V77.3636H239.568ZM242.024 89V80.2727H243.365V89H242.024ZM242.706 78.8182C242.445 78.8182 242.219 78.7292 242.03 78.5511C241.844 78.3731 241.751 78.1591 241.751 77.9091C241.751 77.6591 241.844 77.4451 242.03 77.267C242.219 77.089 242.445 77 242.706 77C242.967 77 243.191 77.089 243.376 77.267C243.566 77.4451 243.661 77.6591 243.661 77.9091C243.661 78.1591 243.566 78.3731 243.376 78.5511C243.191 78.7292 242.967 78.8182 242.706 78.8182ZM249.616 80.2727V81.4091H245.094V80.2727H249.616ZM246.412 78.1818H247.753V86.5C247.753 86.8788 247.808 87.1629 247.918 87.3523C248.031 87.5379 248.175 87.6629 248.349 87.7273C248.527 87.7879 248.715 87.8182 248.912 87.8182C249.06 87.8182 249.181 87.8106 249.276 87.7955C249.37 87.7765 249.446 87.7614 249.503 87.75L249.776 88.9545C249.685 88.9886 249.558 89.0227 249.395 89.0568C249.232 89.0947 249.026 89.1136 248.776 89.1136C248.397 89.1136 248.026 89.0322 247.662 88.8693C247.302 88.7064 247.003 88.4583 246.764 88.125C246.529 87.7917 246.412 87.3712 246.412 86.8636V78.1818ZM252.497 92.2727C252.27 92.2727 252.067 92.2538 251.889 92.2159C251.711 92.1818 251.588 92.1477 251.52 92.1136L251.861 90.9318C252.187 91.0152 252.474 91.0455 252.724 91.0227C252.974 91 253.196 90.8883 253.389 90.6875C253.586 90.4905 253.766 90.1705 253.929 89.7273L254.179 89.0455L250.952 80.2727H252.406L254.815 87.2273H254.906L257.315 80.2727H258.77L255.065 90.2727C254.899 90.7235 254.692 91.0966 254.446 91.392C254.2 91.6913 253.914 91.9129 253.588 92.0568C253.266 92.2008 252.902 92.2727 252.497 92.2727Z" fill="black"/>
<path d="M106.689 70V61.2727H108.32V62.6932H108.428C108.609 62.2121 108.907 61.8371 109.32 61.5682C109.732 61.2955 110.227 61.1591 110.803 61.1591C111.386 61.1591 111.875 61.2955 112.268 61.5682C112.666 61.8409 112.96 62.2159 113.149 62.6932H113.24C113.448 62.2273 113.78 61.8561 114.234 61.5795C114.689 61.2992 115.231 61.1591 115.859 61.1591C116.651 61.1591 117.297 61.4072 117.797 61.9034C118.301 62.3996 118.553 63.1477 118.553 64.1477V70H116.854V64.3068C116.854 63.7159 116.693 63.2879 116.371 63.0227C116.049 62.7576 115.664 62.625 115.217 62.625C114.664 62.625 114.234 62.7955 113.928 63.1364C113.621 63.4735 113.467 63.9072 113.467 64.4375V70H111.774V64.1989C111.774 63.7254 111.626 63.3447 111.331 63.0568C111.036 62.7689 110.651 62.625 110.178 62.625C109.856 62.625 109.558 62.7102 109.286 62.8807C109.017 63.0473 108.799 63.2803 108.632 63.5795C108.469 63.8788 108.388 64.2254 108.388 64.6193V70H106.689ZM126.358 66.3807V61.2727H128.062V70H126.392V68.4886H126.301C126.1 68.9545 125.778 69.3428 125.335 69.6534C124.896 69.9602 124.348 70.1136 123.693 70.1136C123.133 70.1136 122.636 69.9905 122.205 69.7443C121.777 69.4943 121.439 69.125 121.193 68.6364C120.951 68.1477 120.83 67.5436 120.83 66.8239V61.2727H122.528V66.6193C122.528 67.214 122.693 67.6875 123.023 68.0398C123.352 68.392 123.78 68.5682 124.307 68.5682C124.625 68.5682 124.941 68.4886 125.256 68.3295C125.574 68.1705 125.837 67.9299 126.045 67.608C126.258 67.286 126.362 66.8769 126.358 66.3807ZM136.885 63.4034L135.345 63.6761C135.281 63.4792 135.179 63.2917 135.038 63.1136C134.902 62.9356 134.716 62.7898 134.482 62.6761C134.247 62.5625 133.953 62.5057 133.601 62.5057C133.12 62.5057 132.718 62.6136 132.396 62.8295C132.074 63.0417 131.913 63.3163 131.913 63.6534C131.913 63.9451 132.021 64.1799 132.237 64.358C132.453 64.536 132.802 64.6818 133.283 64.7955L134.669 65.1136C135.472 65.2992 136.071 65.5852 136.464 65.9716C136.858 66.358 137.055 66.8598 137.055 67.4773C137.055 68 136.904 68.4659 136.601 68.875C136.302 69.2803 135.883 69.5985 135.345 69.8295C134.811 70.0606 134.192 70.1761 133.487 70.1761C132.51 70.1761 131.713 69.9678 131.095 69.5511C130.478 69.1307 130.099 68.5341 129.959 67.7614L131.601 67.5114C131.703 67.9394 131.913 68.2633 132.232 68.483C132.55 68.6989 132.964 68.8068 133.476 68.8068C134.033 68.8068 134.478 68.6913 134.811 68.4602C135.144 68.2254 135.311 67.9394 135.311 67.6023C135.311 67.3295 135.209 67.1004 135.004 66.9148C134.804 66.7292 134.495 66.589 134.078 66.4943L132.601 66.1705C131.786 65.9848 131.184 65.6894 130.794 65.2841C130.408 64.8788 130.214 64.3655 130.214 63.7443C130.214 63.2292 130.358 62.7784 130.646 62.392C130.934 62.0057 131.332 61.7045 131.839 61.4886C132.347 61.2689 132.929 61.1591 133.584 61.1591C134.527 61.1591 135.269 61.3636 135.811 61.7727C136.353 62.178 136.711 62.7216 136.885 63.4034ZM142.997 61.2727V62.6364H138.23V61.2727H142.997ZM139.509 59.1818H141.207V67.4375C141.207 67.767 141.257 68.0152 141.355 68.1818C141.454 68.3447 141.58 68.4564 141.736 68.517C141.895 68.5739 142.067 68.6023 142.253 68.6023C142.389 68.6023 142.509 68.5928 142.611 68.5739C142.713 68.5549 142.793 68.5398 142.849 68.5284L143.156 69.9318C143.058 69.9697 142.918 70.0076 142.736 70.0455C142.554 70.0871 142.327 70.1098 142.054 70.1136C141.607 70.1212 141.19 70.0417 140.804 69.875C140.418 69.7083 140.105 69.4508 139.866 69.1023C139.628 68.7538 139.509 68.3163 139.509 67.7898V59.1818ZM106.689 89V80.2727H108.32V81.6932H108.428C108.609 81.2121 108.907 80.8371 109.32 80.5682C109.732 80.2955 110.227 80.1591 110.803 80.1591C111.386 80.1591 111.875 80.2955 112.268 80.5682C112.666 80.8409 112.96 81.2159 113.149 81.6932H113.24C113.448 81.2273 113.78 80.8561 114.234 80.5795C114.689 80.2992 115.231 80.1591 115.859 80.1591C116.651 80.1591 117.297 80.4072 117.797 80.9034C118.301 81.3996 118.553 82.1477 118.553 83.1477V89H116.854V83.3068C116.854 82.7159 116.693 82.2879 116.371 82.0227C116.049 81.7576 115.664 81.625 115.217 81.625C114.664 81.625 114.234 81.7955 113.928 82.1364C113.621 82.4735 113.467 82.9072 113.467 83.4375V89H111.774V83.1989C111.774 82.7254 111.626 82.3447 111.331 82.0568C111.036 81.7689 110.651 81.625 110.178 81.625C109.856 81.625 109.558 81.7102 109.286 81.8807C109.017 82.0473 108.799 82.2803 108.632 82.5795C108.469 82.8788 108.388 83.2254 108.388 83.6193V89H106.689ZM126.358 85.3807V80.2727H128.062V89H126.392V87.4886H126.301C126.1 87.9545 125.778 88.3428 125.335 88.6534C124.896 88.9602 124.348 89.1136 123.693 89.1136C123.133 89.1136 122.636 88.9905 122.205 88.7443C121.777 88.4943 121.439 88.125 121.193 87.6364C120.951 87.1477 120.83 86.5436 120.83 85.8239V80.2727H122.528V85.6193C122.528 86.214 122.693 86.6875 123.023 87.0398C123.352 87.392 123.78 87.5682 124.307 87.5682C124.625 87.5682 124.941 87.4886 125.256 87.3295C125.574 87.1705 125.837 86.9299 126.045 86.608C126.258 86.286 126.362 85.8769 126.358 85.3807ZM136.885 82.4034L135.345 82.6761C135.281 82.4792 135.179 82.2917 135.038 82.1136C134.902 81.9356 134.716 81.7898 134.482 81.6761C134.247 81.5625 133.953 81.5057 133.601 81.5057C133.12 81.5057 132.718 81.6136 132.396 81.8295C132.074 82.0417 131.913 82.3163 131.913 82.6534C131.913 82.9451 132.021 83.1799 132.237 83.358C132.453 83.536 132.802 83.6818 133.283 83.7955L134.669 84.1136C135.472 84.2992 136.071 84.5852 136.464 84.9716C136.858 85.358 137.055 85.8598 137.055 86.4773C137.055 87 136.904 87.4659 136.601 87.875C136.302 88.2803 135.883 88.5985 135.345 88.8295C134.811 89.0606 134.192 89.1761 133.487 89.1761C132.51 89.1761 131.713 88.9678 131.095 88.5511C130.478 88.1307 130.099 87.5341 129.959 86.7614L131.601 86.5114C131.703 86.9394 131.913 87.2633 132.232 87.483C132.55 87.6989 132.964 87.8068 133.476 87.8068C134.033 87.8068 134.478 87.6913 134.811 87.4602C135.144 87.2254 135.311 86.9394 135.311 86.6023C135.311 86.3295 135.209 86.1004 135.004 85.9148C134.804 85.7292 134.495 85.589 134.078 85.4943L132.601 85.1705C131.786 84.9848 131.184 84.6894 130.794 84.2841C130.408 83.8788 130.214 83.3655 130.214 82.7443C130.214 82.2292 130.358 81.7784 130.646 81.392C130.934 81.0057 131.332 80.7045 131.839 80.4886C132.347 80.2689 132.929 80.1591 133.584 80.1591C134.527 80.1591 135.269 80.3636 135.811 80.7727C136.353 81.178 136.711 81.7216 136.885 82.4034ZM142.997 80.2727V81.6364H138.23V80.2727H142.997ZM139.509 78.1818H141.207V86.4375C141.207 86.767 141.257 87.0152 141.355 87.1818C141.454 87.3447 141.58 87.4564 141.736 87.517C141.895 87.5739 142.067 87.6023 142.253 87.6023C142.389 87.6023 142.509 87.5928 142.611 87.5739C142.713 87.5549 142.793 87.5398 142.849 87.5284L143.156 88.9318C143.058 88.9697 142.918 89.0076 142.736 89.0455C142.554 89.0871 142.327 89.1098 142.054 89.1136C141.607 89.1212 141.19 89.0417 140.804 88.875C140.418 88.7083 140.105 88.4508 139.866 88.1023C139.628 87.7538 139.509 87.3163 139.509 86.7898V78.1818Z" fill="#06B637"/>
</svg>
