<svg width="364" height="255" viewBox="0 0 364 255" fill="none" xmlns="http://www.w3.org/2000/svg">
<path d="M294.788 0H76.4903C66.4434 0 58.2988 8.14461 58.2988 18.1915V236.489C58.2988 246.536 66.4434 254.681 76.4903 254.681H294.788C304.835 254.681 312.98 246.536 312.98 236.489V18.1915C312.98 8.14461 304.835 0 294.788 0Z" fill="url(#paint0_linear_792_39273)"/>
<g filter="url(#filter0_d_792_39273)">
<path d="M265.681 18.1914H20.0957C15.0723 18.1914 11 22.2637 11 27.2872V72.7659C11 77.7893 15.0723 81.8616 20.0957 81.8616H265.681C270.704 81.8616 274.777 77.7893 274.777 72.7659V27.2872C274.777 22.2637 270.704 18.1914 265.681 18.1914Z" fill="white"/>
</g>
<path d="M136.521 32.7446H89.2231C86.209 32.7446 83.7656 35.188 83.7656 38.2021C83.7656 41.2161 86.209 43.6595 89.2231 43.6595H136.521C139.535 43.6595 141.978 41.2161 141.978 38.2021C141.978 35.188 139.535 32.7446 136.521 32.7446Z" fill="#B4DAFF"/>
<path d="M169.266 56.3936H89.2231C86.209 56.3936 83.7656 58.8369 83.7656 61.851C83.7656 64.8651 86.209 67.3084 89.2231 67.3084H169.266C172.28 67.3084 174.723 64.8651 174.723 61.851C174.723 58.8369 172.28 56.3936 169.266 56.3936Z" fill="#DEE9FC"/>
<path d="M60.1186 23.6489H25.5547C20.5313 23.6489 16.459 27.7212 16.459 32.7447V67.3085C16.459 72.3319 20.5313 76.4042 25.5547 76.4042H60.1186C65.142 76.4042 69.2143 72.3319 69.2143 67.3085V32.7447C69.2143 27.7212 65.142 23.6489 60.1186 23.6489Z" fill="#1485FD"/>
<path d="M38.6913 55.9933H42.3296L42.3697 54.5926C42.3697 52.7516 43.5303 52.2713 45.1712 51.751C46.8171 51.2828 48.2659 50.2914 49.2985 48.9267C50.331 47.5621 50.8911 45.8983 50.8942 44.187C50.9302 43.1422 50.749 42.1013 50.3619 41.1301C49.9748 40.159 49.3904 39.2788 48.6455 38.5452C47.9006 37.8116 47.0116 37.2406 46.0347 36.8684C45.0577 36.4962 44.0141 36.3309 42.97 36.3829C41.8665 36.3588 40.7696 36.5592 39.7459 36.9717C38.7222 37.3843 37.793 38.0006 37.0145 38.7831C36.2361 39.5655 35.6248 40.498 35.2175 41.5239C34.8103 42.5497 34.6157 43.6476 34.6456 44.751H38.4076C38.3933 44.1418 38.5007 43.5358 38.7236 42.9687C38.9465 42.4016 39.2804 41.8846 39.7057 41.4482C40.1309 41.0118 40.639 40.6646 41.2002 40.4271C41.7613 40.1895 42.3643 40.0664 42.9736 40.0648C43.5231 40.033 44.0731 40.1198 44.5861 40.3194C45.0991 40.519 45.5631 40.8267 45.9465 41.2216C46.33 41.6164 46.624 42.0892 46.8085 42.6078C46.993 43.1264 47.0637 43.6787 47.0158 44.227C46.9915 45.1146 46.6829 45.9709 46.1353 46.6698C45.5877 47.3687 44.8301 47.8732 43.9742 48.1091L42.6534 48.633C41.3604 48.9446 40.2315 49.7303 39.4903 50.8347C38.7492 51.9391 38.4497 53.2815 38.6513 54.5962L38.6913 55.9933ZM40.4923 64.6415C40.8486 64.6542 41.2038 64.5953 41.5369 64.4683C41.87 64.3413 42.1743 64.1489 42.4317 63.9023C42.6891 63.6557 42.8945 63.36 43.0357 63.0326C43.1769 62.7053 43.2511 62.353 43.2538 61.9965C43.2506 61.6403 43.1761 61.2884 43.0347 60.9615C42.8933 60.6346 42.6878 60.3393 42.4304 60.0931C42.173 59.8469 41.8689 59.6547 41.536 59.528C41.2032 59.4012 40.8483 59.3424 40.4923 59.3551C40.1363 59.3424 39.7814 59.4012 39.4486 59.528C39.1157 59.6547 38.8116 59.8469 38.5542 60.0931C38.2968 60.3393 38.0913 60.6346 37.9499 60.9615C37.8085 61.2884 37.734 61.6403 37.7308 61.9965C37.7335 62.353 37.8077 62.7053 37.9489 63.0326C38.0901 63.36 38.2955 63.6557 38.5529 63.9023C38.8103 64.1489 39.1146 64.3413 39.4477 64.4683C39.7808 64.5953 40.136 64.6542 40.4923 64.6415Z" fill="white"/>
<g filter="url(#filter1_d_792_39273)">
<path d="M98.3184 96.415H343.904C346.316 96.415 348.629 97.3733 350.335 99.0791C352.041 100.785 352.999 103.098 352.999 105.511V150.99C352.999 153.402 352.041 155.715 350.335 157.421C348.629 159.127 346.316 160.085 343.904 160.085H98.3184C95.9061 160.085 93.5925 159.127 91.8867 157.421C90.181 155.715 89.2227 153.402 89.2227 150.99V105.511C89.2227 103.098 90.181 100.785 91.8867 99.0791C93.5925 97.3733 95.9061 96.415 98.3184 96.415V96.415Z" fill="white"/>
</g>
<path d="M214.744 110.968H167.446C164.432 110.968 161.988 113.412 161.988 116.426C161.988 119.44 164.432 121.883 167.446 121.883H214.744C217.758 121.883 220.201 119.44 220.201 116.426C220.201 113.412 217.758 110.968 214.744 110.968Z" fill="#B4DAFF"/>
<path d="M247.488 134.617H167.446C164.432 134.617 161.988 137.061 161.988 140.075C161.988 143.089 164.432 145.532 167.446 145.532H247.488C250.502 145.532 252.946 143.089 252.946 140.075C252.946 137.061 250.502 134.617 247.488 134.617Z" fill="#DEE9FC"/>
<path d="M138.341 101.872H103.777C98.7539 101.872 94.6816 105.945 94.6816 110.968V145.532C94.6816 150.555 98.7539 154.628 103.777 154.628H138.341C143.365 154.628 147.437 150.555 147.437 145.532V110.968C147.437 105.945 143.365 101.872 138.341 101.872Z" fill="#1485FD"/>
<path d="M116.914 134.217H120.552L120.592 132.816C120.592 130.975 121.753 130.495 123.394 129.974C125.04 129.506 126.489 128.515 127.521 127.15C128.554 125.785 129.114 124.122 129.117 122.41C129.153 121.366 128.972 120.325 128.585 119.354C128.197 118.382 127.613 117.502 126.868 116.769C126.123 116.035 125.234 115.464 124.257 115.092C123.28 114.72 122.237 114.554 121.193 114.606C120.089 114.582 118.992 114.783 117.969 115.195C116.945 115.608 116.016 116.224 115.237 117.006C114.459 117.789 113.847 118.721 113.44 119.747C113.033 120.773 112.838 121.871 112.868 122.974H116.63C116.616 122.365 116.723 121.759 116.946 121.192C117.169 120.625 117.503 120.108 117.928 119.672C118.354 119.235 118.862 118.888 119.423 118.65C119.984 118.413 120.587 118.29 121.196 118.288C121.746 118.256 122.296 118.343 122.809 118.543C123.322 118.742 123.786 119.05 124.169 119.445C124.553 119.84 124.847 120.313 125.031 120.831C125.216 121.35 125.286 121.902 125.238 122.45C125.214 123.338 124.906 124.194 124.358 124.893C123.81 125.592 123.053 126.097 122.197 126.333L120.876 126.856C119.583 127.168 118.454 127.954 117.713 129.058C116.972 130.162 116.672 131.505 116.874 132.82L116.914 134.217ZM118.715 142.865C119.071 142.878 119.426 142.819 119.76 142.692C120.093 142.565 120.397 142.372 120.654 142.126C120.912 141.879 121.117 141.583 121.258 141.256C121.4 140.929 121.474 140.576 121.476 140.22C121.473 139.864 121.399 139.512 121.257 139.185C121.116 138.858 120.91 138.563 120.653 138.316C120.396 138.07 120.092 137.878 119.759 137.751C119.426 137.625 119.071 137.566 118.715 137.578C118.359 137.566 118.004 137.625 117.671 137.751C117.338 137.878 117.034 138.07 116.777 138.316C116.519 138.563 116.314 138.858 116.173 139.185C116.031 139.512 115.957 139.864 115.953 140.22C115.956 140.576 116.03 140.929 116.172 141.256C116.313 141.583 116.518 141.879 116.776 142.126C117.033 142.372 117.337 142.565 117.67 142.692C118.003 142.819 118.359 142.878 118.715 142.865Z" fill="white"/>
<g filter="url(#filter2_d_792_39273)">
<path d="M20.0957 174.638H265.681C268.093 174.638 270.407 175.597 272.113 177.303C273.818 179.008 274.777 181.322 274.777 183.734V229.213C274.777 231.625 273.818 233.939 272.113 235.645C270.407 237.35 268.093 238.309 265.681 238.309H20.0957C17.6834 238.309 15.3699 237.35 13.6641 235.645C11.9583 233.939 11 231.625 11 229.213V183.734C11 181.322 11.9583 179.008 13.6641 177.303C15.3699 175.597 17.6834 174.638 20.0957 174.638V174.638Z" fill="white"/>
</g>
<path d="M136.521 189.192H89.2231C86.209 189.192 83.7656 191.635 83.7656 194.649C83.7656 197.663 86.209 200.107 89.2231 200.107H136.521C139.535 200.107 141.978 197.663 141.978 194.649C141.978 191.635 139.535 189.192 136.521 189.192Z" fill="#B4DAFF"/>
<path d="M169.266 212.841H89.2231C86.209 212.841 83.7656 215.284 83.7656 218.298C83.7656 221.312 86.209 223.755 89.2231 223.755H169.266C172.28 223.755 174.723 221.312 174.723 218.298C174.723 215.284 172.28 212.841 169.266 212.841Z" fill="#DEE9FC"/>
<path d="M60.1186 180.096H25.5547C20.5313 180.096 16.459 184.168 16.459 189.192V223.756C16.459 228.779 20.5313 232.851 25.5547 232.851H60.1186C65.142 232.851 69.2143 228.779 69.2143 223.756V189.192C69.2143 184.168 65.142 180.096 60.1186 180.096Z" fill="#1485FD"/>
<path d="M38.6913 212.44H42.3296L42.3697 211.04C42.3697 209.199 43.5303 208.718 45.1712 208.198C46.8171 207.73 48.2659 206.738 49.2985 205.374C50.331 204.009 50.8911 202.345 50.8942 200.634C50.9302 199.589 50.749 198.548 50.3619 197.577C49.9748 196.606 49.3904 195.726 48.6455 194.992C47.9006 194.259 47.0116 193.688 46.0347 193.315C45.0577 192.943 44.0141 192.778 42.97 192.83C41.8665 192.806 40.7696 193.006 39.7459 193.419C38.7222 193.831 37.793 194.448 37.0145 195.23C36.2361 196.013 35.6248 196.945 35.2175 197.971C34.8103 198.997 34.6157 200.095 34.6456 201.198H38.4076C38.3933 200.589 38.5007 199.983 38.7236 199.416C38.9465 198.849 39.2804 198.332 39.7057 197.895C40.1309 197.459 40.639 197.112 41.2002 196.874C41.7613 196.637 42.3643 196.513 42.9736 196.512C43.5231 196.48 44.0731 196.567 44.5861 196.766C45.0991 196.966 45.5631 197.274 45.9465 197.669C46.33 198.063 46.624 198.536 46.8085 199.055C46.993 199.573 47.0637 200.126 47.0158 200.674C46.9915 201.562 46.6829 202.418 46.1353 203.117C45.5877 203.816 44.8301 204.32 43.9742 204.556L42.6534 205.08C41.3604 205.392 40.2315 206.177 39.4903 207.282C38.7492 208.386 38.4497 209.729 38.6513 211.043L38.6913 212.44ZM40.4923 221.089C40.8486 221.101 41.2038 221.042 41.5369 220.915C41.87 220.788 42.1743 220.596 42.4317 220.349C42.6891 220.103 42.8945 219.807 43.0357 219.48C43.1769 219.152 43.2511 218.8 43.2538 218.444C43.2506 218.087 43.1761 217.735 43.0347 217.409C42.8933 217.082 42.6878 216.786 42.4304 216.54C42.173 216.294 41.8689 216.102 41.536 215.975C41.2032 215.848 40.8483 215.789 40.4923 215.802C40.1363 215.789 39.7814 215.848 39.4486 215.975C39.1157 216.102 38.8116 216.294 38.5542 216.54C38.2968 216.786 38.0913 217.082 37.9499 217.409C37.8085 217.735 37.734 218.087 37.7308 218.444C37.7335 218.8 37.8077 219.152 37.9489 219.48C38.0901 219.807 38.2955 220.103 38.5529 220.349C38.8103 220.596 39.1146 220.788 39.4477 220.915C39.7808 221.042 40.136 221.101 40.4923 221.089Z" fill="white"/>
<defs>
<filter id="filter0_d_792_39273" x="0.0851059" y="12.734" width="285.607" height="85.5" filterUnits="userSpaceOnUse" color-interpolation-filters="sRGB">
<feFlood flood-opacity="0" result="BackgroundImageFix"/>
<feColorMatrix in="SourceAlpha" type="matrix" values="0 0 0 0 0 0 0 0 0 0 0 0 0 0 0 0 0 0 127 0" result="hardAlpha"/>
<feOffset dy="5.45745"/>
<feGaussianBlur stdDeviation="5.45745"/>
<feColorMatrix type="matrix" values="0 0 0 0 0 0 0 0 0 0 0 0 0 0 0 0 0 0 0.161 0"/>
<feBlend mode="normal" in2="BackgroundImageFix" result="effect1_dropShadow_792_39273"/>
<feBlend mode="normal" in="SourceGraphic" in2="effect1_dropShadow_792_39273" result="shape"/>
</filter>
<filter id="filter1_d_792_39273" x="78.3078" y="90.9576" width="285.607" height="85.5" filterUnits="userSpaceOnUse" color-interpolation-filters="sRGB">
<feFlood flood-opacity="0" result="BackgroundImageFix"/>
<feColorMatrix in="SourceAlpha" type="matrix" values="0 0 0 0 0 0 0 0 0 0 0 0 0 0 0 0 0 0 127 0" result="hardAlpha"/>
<feOffset dy="5.45745"/>
<feGaussianBlur stdDeviation="5.45745"/>
<feColorMatrix type="matrix" values="0 0 0 0 0 0 0 0 0 0 0 0 0 0 0 0 0 0 0.161 0"/>
<feBlend mode="normal" in2="BackgroundImageFix" result="effect1_dropShadow_792_39273"/>
<feBlend mode="normal" in="SourceGraphic" in2="effect1_dropShadow_792_39273" result="shape"/>
</filter>
<filter id="filter2_d_792_39273" x="0.0851059" y="169.181" width="285.607" height="85.5" filterUnits="userSpaceOnUse" color-interpolation-filters="sRGB">
<feFlood flood-opacity="0" result="BackgroundImageFix"/>
<feColorMatrix in="SourceAlpha" type="matrix" values="0 0 0 0 0 0 0 0 0 0 0 0 0 0 0 0 0 0 127 0" result="hardAlpha"/>
<feOffset dy="5.45745"/>
<feGaussianBlur stdDeviation="5.45745"/>
<feColorMatrix type="matrix" values="0 0 0 0 0 0 0 0 0 0 0 0 0 0 0 0 0 0 0.161 0"/>
<feBlend mode="normal" in2="BackgroundImageFix" result="effect1_dropShadow_792_39273"/>
<feBlend mode="normal" in="SourceGraphic" in2="effect1_dropShadow_792_39273" result="shape"/>
</filter>
<linearGradient id="paint0_linear_792_39273" x1="185.639" y1="0" x2="185.639" y2="254.681" gradientUnits="userSpaceOnUse">
<stop stop-color="#E3ECFA"/>
<stop offset="1" stop-color="#DAE7FF"/>
</linearGradient>
</defs>
</svg>
