<svg width="459" height="448" viewBox="0 0 459 448" fill="none" xmlns="http://www.w3.org/2000/svg">
<path d="M229.5 338C322.836 338 398.5 262.336 398.5 169C398.5 75.6639 322.836 0 229.5 0C136.164 0 60.5 75.6639 60.5 169C60.5 262.336 136.164 338 229.5 338Z" fill="url(#paint0_linear_11_6520)"/>
<g filter="url(#filter0_d_11_6520)">
<mask id="mask0_11_6520" style="mask-type:alpha" maskUnits="userSpaceOnUse" x="60" y="0" width="339" height="338">
<path d="M229.5 338C322.836 338 398.5 262.336 398.5 169C398.5 75.6639 322.836 0 229.5 0C136.164 0 60.5 75.6639 60.5 169C60.5 262.336 136.164 338 229.5 338Z" fill="url(#paint1_linear_11_6520)"/>
</mask>
<g mask="url(#mask0_11_6520)">
<path d="M326.393 96.8933H132.607C126.384 96.8933 121.34 101.938 121.34 108.16V344.76C121.34 350.982 126.384 356.027 132.607 356.027H326.393C332.616 356.027 337.66 350.982 337.66 344.76V108.16C337.66 101.938 332.616 96.8933 326.393 96.8933Z" fill="white"/>
</g>
</g>
<path d="M209.22 119.427H150.633C146.9 119.427 143.873 122.453 143.873 126.187C143.873 129.92 146.9 132.947 150.633 132.947H209.22C212.953 132.947 215.98 129.92 215.98 126.187C215.98 122.453 212.953 119.427 209.22 119.427Z" fill="#E1EBFA"/>
<path d="M209.22 214.067H150.633C146.9 214.067 143.873 217.093 143.873 220.827C143.873 224.56 146.9 227.587 150.633 227.587H209.22C212.953 227.587 215.98 224.56 215.98 220.827C215.98 217.093 212.953 214.067 209.22 214.067Z" fill="#E1EBFA"/>
<path d="M303.86 153.227H155.14C150.162 153.227 146.127 157.262 146.127 162.24V184.773C146.127 189.751 150.162 193.787 155.14 193.787H303.86C308.838 193.787 312.873 189.751 312.873 184.773V162.24C312.873 157.262 308.838 153.227 303.86 153.227Z" stroke="#1485FD" stroke-width="4.50667"/>
<path d="M303.86 245.613H155.14C148.918 245.613 143.873 250.658 143.873 256.88V274.907C143.873 281.129 148.918 286.173 155.14 286.173H303.86C310.082 286.173 315.127 281.129 315.127 274.907V256.88C315.127 250.658 310.082 245.613 303.86 245.613Z" fill="#DFEAFB"/>
<path d="M179.927 72.1067C184.905 72.1067 188.94 68.0713 188.94 63.0933C188.94 58.1154 184.905 54.08 179.927 54.08C174.949 54.08 170.913 58.1154 170.913 63.0933C170.913 68.0713 174.949 72.1067 179.927 72.1067Z" fill="white"/>
<path d="M229.5 72.1067C234.478 72.1067 238.513 68.0713 238.513 63.0933C238.513 58.1154 234.478 54.08 229.5 54.08C224.522 54.08 220.487 58.1154 220.487 63.0933C220.487 68.0713 224.522 72.1067 229.5 72.1067Z" fill="#1485FD"/>
<path d="M279.073 72.1067C284.051 72.1067 288.087 68.0713 288.087 63.0933C288.087 58.1154 284.051 54.08 279.073 54.08C274.095 54.08 270.06 58.1154 270.06 63.0933C270.06 68.0713 274.095 72.1067 279.073 72.1067Z" fill="white"/>
<path d="M254.287 198.293C260.509 198.293 265.553 193.249 265.553 187.027C265.553 180.804 260.509 175.76 254.287 175.76C248.064 175.76 243.02 180.804 243.02 187.027C243.02 193.249 248.064 198.293 254.287 198.293Z" fill="#DFEAFB"/>
<path d="M263.09 235.18C261.288 235.18 259.605 235.18 258.072 235.084C256.185 234.956 254.369 234.31 252.825 233.217C251.281 232.124 250.068 230.627 249.32 228.889L239.814 210.101C239.116 209.289 238.768 208.234 238.845 207.167C238.922 206.1 239.417 205.106 240.224 204.402C240.884 203.871 241.708 203.585 242.556 203.593C243.18 203.611 243.792 203.765 244.351 204.042C244.91 204.32 245.403 204.716 245.794 205.202L250.111 211.095L250.177 211.171V188.784C250.177 187.674 250.618 186.608 251.403 185.823C252.189 185.038 253.254 184.596 254.364 184.596C255.475 184.596 256.54 185.038 257.326 185.823C258.111 186.608 258.552 187.674 258.552 188.784V203.431C258.504 202.892 258.568 202.349 258.741 201.836C258.914 201.323 259.191 200.852 259.556 200.453C259.922 200.053 260.366 199.734 260.861 199.516C261.356 199.297 261.891 199.185 262.433 199.185C262.974 199.185 263.509 199.297 264.004 199.516C264.499 199.734 264.944 200.053 265.309 200.453C265.674 200.852 265.951 201.323 266.124 201.836C266.297 202.349 266.361 202.892 266.313 203.431V206.484C266.264 205.945 266.328 205.402 266.501 204.889C266.674 204.376 266.952 203.905 267.317 203.506C267.682 203.106 268.126 202.787 268.621 202.569C269.117 202.351 269.652 202.238 270.193 202.238C270.734 202.238 271.269 202.351 271.765 202.569C272.26 202.787 272.704 203.106 273.069 203.506C273.434 203.905 273.712 204.376 273.885 204.889C274.058 205.402 274.122 205.945 274.073 206.484V208.837C274.025 208.298 274.089 207.755 274.262 207.242C274.435 206.729 274.712 206.258 275.077 205.858C275.442 205.459 275.887 205.14 276.382 204.922C276.877 204.703 277.412 204.59 277.953 204.59C278.495 204.59 279.03 204.703 279.525 204.922C280.02 205.14 280.464 205.459 280.83 205.858C281.195 206.258 281.472 206.729 281.645 207.242C281.818 207.755 281.882 208.298 281.834 208.837V223.116C281.757 227.508 279.772 234.912 272.789 234.912C272.282 234.935 267.987 235.183 263.1 235.183L263.09 235.18Z" fill="#1485FD" stroke="white" stroke-width="2.25333"/>
<path d="M8.736 388.952V404H6.816V388.952H1.176V387.2H14.376V388.952H8.736ZM19.1229 396.896V404H17.2749V386.48H19.1229V393.752C19.5389 393.08 20.0829 392.512 20.7549 392.048C21.4269 391.568 22.2989 391.328 23.3709 391.328C24.1229 391.328 24.7869 391.448 25.3629 391.688C25.9549 391.928 26.4509 392.272 26.8509 392.72C27.2669 393.152 27.5789 393.672 27.7869 394.28C28.0109 394.888 28.1229 395.56 28.1229 396.296V404H26.2749V396.752C26.2749 395.6 25.9789 394.688 25.3869 394.016C24.7949 393.344 23.9469 393.008 22.8429 393.008C22.3149 393.008 21.8189 393.104 21.3549 393.296C20.9069 393.472 20.5149 393.736 20.1789 394.088C19.8429 394.424 19.5789 394.832 19.3869 395.312C19.2109 395.792 19.1229 396.32 19.1229 396.896ZM33.168 398.48C33.232 399.152 33.392 399.752 33.648 400.28C33.904 400.792 34.232 401.232 34.632 401.6C35.032 401.952 35.48 402.224 35.976 402.416C36.472 402.592 36.992 402.68 37.536 402.68C38.4 402.68 39.136 402.52 39.744 402.2C40.368 401.88 40.936 401.456 41.448 400.928L42.6 401.96C41.976 402.664 41.264 403.232 40.464 403.664C39.664 404.08 38.672 404.288 37.488 404.288C36.64 404.288 35.84 404.136 35.088 403.832C34.336 403.512 33.68 403.072 33.12 402.512C32.56 401.936 32.112 401.248 31.776 400.448C31.456 399.648 31.296 398.768 31.296 397.808C31.296 396.912 31.44 396.072 31.728 395.288C32.032 394.488 32.448 393.8 32.976 393.224C33.504 392.632 34.128 392.168 34.848 391.832C35.584 391.496 36.384 391.328 37.248 391.328C38.16 391.328 38.976 391.504 39.696 391.856C40.416 392.192 41.024 392.656 41.52 393.248C42.016 393.84 42.392 394.536 42.648 395.336C42.904 396.136 43.032 396.992 43.032 397.904C43.032 397.984 43.032 398.072 43.032 398.168C43.032 398.264 43.024 398.368 43.008 398.48H33.168ZM33.168 397.112H41.16C41.112 396.552 40.992 396.016 40.8 395.504C40.624 394.992 40.368 394.544 40.032 394.16C39.712 393.776 39.312 393.472 38.832 393.248C38.368 393.008 37.824 392.888 37.2 392.888C36.656 392.888 36.152 393 35.688 393.224C35.224 393.432 34.816 393.728 34.464 394.112C34.112 394.48 33.824 394.92 33.6 395.432C33.376 395.944 33.232 396.504 33.168 397.112ZM48.1151 399.056V404H46.2671V391.592H48.1151V394.832C48.3391 394.32 48.6191 393.848 48.9551 393.416C49.2911 392.984 49.6751 392.616 50.1071 392.312C50.5391 391.992 51.0111 391.752 51.5231 391.592C52.0351 391.432 52.5871 391.36 53.1791 391.376V393.368H53.0351C52.3631 393.368 51.7231 393.488 51.1151 393.728C50.5231 393.968 50.0031 394.328 49.5551 394.808C49.1071 395.288 48.7551 395.888 48.4991 396.608C48.2431 397.312 48.1151 398.128 48.1151 399.056ZM56.5586 398.48C56.6226 399.152 56.7826 399.752 57.0386 400.28C57.2946 400.792 57.6226 401.232 58.0226 401.6C58.4226 401.952 58.8706 402.224 59.3666 402.416C59.8626 402.592 60.3826 402.68 60.9266 402.68C61.7906 402.68 62.5266 402.52 63.1346 402.2C63.7586 401.88 64.3266 401.456 64.8386 400.928L65.9906 401.96C65.3666 402.664 64.6546 403.232 63.8546 403.664C63.0546 404.08 62.0626 404.288 60.8786 404.288C60.0306 404.288 59.2306 404.136 58.4786 403.832C57.7266 403.512 57.0706 403.072 56.5106 402.512C55.9506 401.936 55.5026 401.248 55.1666 400.448C54.8466 399.648 54.6866 398.768 54.6866 397.808C54.6866 396.912 54.8306 396.072 55.1186 395.288C55.4226 394.488 55.8386 393.8 56.3666 393.224C56.8946 392.632 57.5186 392.168 58.2386 391.832C58.9746 391.496 59.7746 391.328 60.6386 391.328C61.5506 391.328 62.3666 391.504 63.0866 391.856C63.8066 392.192 64.4146 392.656 64.9106 393.248C65.4066 393.84 65.7826 394.536 66.0386 395.336C66.2946 396.136 66.4226 396.992 66.4226 397.904C66.4226 397.984 66.4226 398.072 66.4226 398.168C66.4226 398.264 66.4146 398.368 66.3986 398.48H56.5586ZM56.5586 397.112H64.5506C64.5026 396.552 64.3826 396.016 64.1906 395.504C64.0146 394.992 63.7586 394.544 63.4226 394.16C63.1026 393.776 62.7026 393.472 62.2226 393.248C61.7586 393.008 61.2146 392.888 60.5906 392.888C60.0466 392.888 59.5426 393 59.0786 393.224C58.6146 393.432 58.2066 393.728 57.8546 394.112C57.5026 394.48 57.2146 394.92 56.9906 395.432C56.7666 395.944 56.6226 396.504 56.5586 397.112ZM81.3411 393.056C80.6051 393.056 79.9331 393.144 79.3251 393.32C78.7331 393.48 78.1491 393.696 77.5731 393.968L77.0211 392.456C77.7091 392.136 78.4051 391.888 79.1091 391.712C79.8131 391.52 80.6211 391.424 81.5331 391.424C83.2291 391.424 84.5331 391.848 85.4451 392.696C86.3571 393.528 86.8131 394.768 86.8131 396.416V404H85.0371V402.128C84.6051 402.688 84.0211 403.184 83.2851 403.616C82.5651 404.048 81.6531 404.264 80.5491 404.264C79.9731 404.264 79.4051 404.184 78.8451 404.024C78.3011 403.864 77.8051 403.624 77.3571 403.304C76.9251 402.968 76.5731 402.56 76.3011 402.08C76.0451 401.6 75.9171 401.032 75.9171 400.376C75.9171 399.72 76.0451 399.144 76.3011 398.648C76.5571 398.136 76.9171 397.712 77.3811 397.376C77.8611 397.04 78.4211 396.784 79.0611 396.608C79.7171 396.432 80.4371 396.344 81.2211 396.344C82.0211 396.344 82.7171 396.392 83.3091 396.488C83.9011 396.584 84.4771 396.712 85.0371 396.872V396.44C85.0371 395.32 84.7091 394.48 84.0531 393.92C83.4131 393.344 82.5091 393.056 81.3411 393.056ZM81.4131 397.712C80.2451 397.712 79.3491 397.944 78.7251 398.408C78.1011 398.872 77.7891 399.504 77.7891 400.304C77.7891 400.704 77.8691 401.056 78.0291 401.36C78.2051 401.664 78.4371 401.928 78.7251 402.152C79.0131 402.36 79.3411 402.52 79.7091 402.632C80.0931 402.744 80.4931 402.8 80.9091 402.8C81.4851 402.8 82.0211 402.72 82.5171 402.56C83.0291 402.384 83.4691 402.152 83.8371 401.864C84.2211 401.56 84.5171 401.208 84.7251 400.808C84.9491 400.392 85.0611 399.936 85.0611 399.44V398.24C84.5971 398.112 84.0611 397.992 83.4531 397.88C82.8611 397.768 82.1811 397.712 81.4131 397.712ZM92.5995 399.056V404H90.7515V391.592H92.5995V394.832C92.8235 394.32 93.1035 393.848 93.4395 393.416C93.7755 392.984 94.1595 392.616 94.5915 392.312C95.0235 391.992 95.4955 391.752 96.0075 391.592C96.5195 391.432 97.0715 391.36 97.6635 391.376V393.368H97.5195C96.8475 393.368 96.2075 393.488 95.5995 393.728C95.0075 393.968 94.4875 394.328 94.0395 394.808C93.5915 395.288 93.2395 395.888 92.9835 396.608C92.7275 397.312 92.5995 398.128 92.5995 399.056ZM101.043 398.48C101.107 399.152 101.267 399.752 101.523 400.28C101.779 400.792 102.107 401.232 102.507 401.6C102.907 401.952 103.355 402.224 103.851 402.416C104.347 402.592 104.867 402.68 105.411 402.68C106.275 402.68 107.011 402.52 107.619 402.2C108.243 401.88 108.811 401.456 109.323 400.928L110.475 401.96C109.851 402.664 109.139 403.232 108.339 403.664C107.539 404.08 106.547 404.288 105.363 404.288C104.515 404.288 103.715 404.136 102.963 403.832C102.211 403.512 101.555 403.072 100.995 402.512C100.435 401.936 99.987 401.248 99.651 400.448C99.331 399.648 99.171 398.768 99.171 397.808C99.171 396.912 99.315 396.072 99.603 395.288C99.907 394.488 100.323 393.8 100.851 393.224C101.379 392.632 102.003 392.168 102.723 391.832C103.459 391.496 104.259 391.328 105.123 391.328C106.035 391.328 106.851 391.504 107.571 391.856C108.291 392.192 108.899 392.656 109.395 393.248C109.891 393.84 110.267 394.536 110.523 395.336C110.779 396.136 110.907 396.992 110.907 397.904C110.907 397.984 110.907 398.072 110.907 398.168C110.907 398.264 110.899 398.368 110.883 398.48H101.043ZM101.043 397.112H109.035C108.987 396.552 108.867 396.016 108.675 395.504C108.499 394.992 108.243 394.544 107.907 394.16C107.587 393.776 107.187 393.472 106.707 393.248C106.243 393.008 105.699 392.888 105.075 392.888C104.531 392.888 104.027 393 103.563 393.224C103.099 393.432 102.691 393.728 102.339 394.112C101.987 394.48 101.699 394.92 101.475 395.432C101.251 395.944 101.107 396.504 101.043 397.112ZM123.185 396.896V404H121.337V391.592H123.185V393.752C123.601 393.08 124.145 392.512 124.817 392.048C125.489 391.568 126.361 391.328 127.433 391.328C128.185 391.328 128.849 391.448 129.425 391.688C130.017 391.928 130.513 392.272 130.913 392.72C131.329 393.152 131.641 393.672 131.849 394.28C132.073 394.888 132.185 395.56 132.185 396.296V404H130.337V396.752C130.337 395.6 130.041 394.688 129.449 394.016C128.857 393.344 128.009 393.008 126.905 393.008C126.377 393.008 125.881 393.104 125.417 393.296C124.969 393.472 124.577 393.736 124.241 394.088C123.905 394.424 123.641 394.832 123.449 395.312C123.273 395.792 123.185 396.32 123.185 396.896ZM148.295 397.784C148.295 398.664 148.127 399.504 147.791 400.304C147.471 401.088 147.023 401.776 146.447 402.368C145.871 402.96 145.183 403.432 144.383 403.784C143.583 404.12 142.719 404.288 141.791 404.288C140.863 404.288 140.007 404.12 139.223 403.784C138.439 403.432 137.759 402.968 137.183 402.392C136.607 401.8 136.159 401.112 135.839 400.328C135.519 399.544 135.359 398.712 135.359 397.832C135.359 396.952 135.519 396.12 135.839 395.336C136.159 394.536 136.607 393.84 137.183 393.248C137.759 392.656 138.439 392.192 139.223 391.856C140.023 391.504 140.895 391.328 141.839 391.328C142.767 391.328 143.623 391.504 144.407 391.856C145.207 392.192 145.895 392.656 146.471 393.248C147.047 393.824 147.495 394.504 147.815 395.288C148.135 396.072 148.295 396.904 148.295 397.784ZM146.398 397.832C146.398 397.16 146.279 396.528 146.039 395.936C145.815 395.344 145.495 394.832 145.079 394.4C144.663 393.952 144.175 393.6 143.615 393.344C143.055 393.088 142.447 392.96 141.791 392.96C141.119 392.96 140.503 393.088 139.943 393.344C139.383 393.584 138.903 393.928 138.503 394.376C138.119 394.808 137.815 395.32 137.59 395.912C137.367 396.488 137.255 397.112 137.255 397.784C137.255 398.456 137.367 399.088 137.59 399.68C137.831 400.272 138.151 400.784 138.551 401.216C138.967 401.648 139.455 401.992 140.015 402.248C140.575 402.504 141.183 402.632 141.839 402.632C142.511 402.632 143.127 402.512 143.687 402.272C144.247 402.016 144.727 401.672 145.127 401.24C145.527 400.808 145.839 400.304 146.062 399.728C146.286 399.136 146.398 398.504 146.398 397.832ZM161.333 393.224V400.472C161.333 401.24 161.525 401.776 161.909 402.08C162.293 402.384 162.797 402.536 163.421 402.536C163.741 402.536 164.037 402.504 164.309 402.44C164.597 402.376 164.901 402.264 165.221 402.104V403.688C164.901 403.864 164.557 403.992 164.189 404.072C163.837 404.168 163.437 404.216 162.989 404.216C162.493 404.216 162.029 404.152 161.597 404.024C161.165 403.896 160.789 403.696 160.469 403.424C160.165 403.136 159.925 402.768 159.749 402.32C159.573 401.872 159.485 401.336 159.485 400.712V393.224H157.757V391.592H159.485V387.848H161.333V391.592H165.269V393.224H161.333ZM170.389 399.056V404H168.541V391.592H170.389V394.832C170.613 394.32 170.893 393.848 171.229 393.416C171.565 392.984 171.949 392.616 172.381 392.312C172.813 391.992 173.285 391.752 173.797 391.592C174.309 391.432 174.861 391.36 175.453 391.376V393.368H175.309C174.637 393.368 173.997 393.488 173.389 393.728C172.797 393.968 172.277 394.328 171.829 394.808C171.381 395.288 171.029 395.888 170.773 396.608C170.517 397.312 170.389 398.128 170.389 399.056ZM182.146 393.056C181.41 393.056 180.738 393.144 180.13 393.32C179.538 393.48 178.954 393.696 178.378 393.968L177.826 392.456C178.514 392.136 179.21 391.888 179.914 391.712C180.618 391.52 181.426 391.424 182.338 391.424C184.034 391.424 185.338 391.848 186.25 392.696C187.162 393.528 187.618 394.768 187.618 396.416V404H185.842V402.128C185.41 402.688 184.826 403.184 184.09 403.616C183.37 404.048 182.458 404.264 181.354 404.264C180.778 404.264 180.21 404.184 179.65 404.024C179.106 403.864 178.61 403.624 178.162 403.304C177.73 402.968 177.378 402.56 177.106 402.08C176.85 401.6 176.722 401.032 176.722 400.376C176.722 399.72 176.85 399.144 177.106 398.648C177.362 398.136 177.722 397.712 178.186 397.376C178.666 397.04 179.226 396.784 179.866 396.608C180.522 396.432 181.242 396.344 182.026 396.344C182.826 396.344 183.522 396.392 184.114 396.488C184.706 396.584 185.282 396.712 185.842 396.872V396.44C185.842 395.32 185.514 394.48 184.858 393.92C184.218 393.344 183.314 393.056 182.146 393.056ZM182.218 397.712C181.05 397.712 180.154 397.944 179.53 398.408C178.906 398.872 178.594 399.504 178.594 400.304C178.594 400.704 178.674 401.056 178.834 401.36C179.01 401.664 179.242 401.928 179.53 402.152C179.818 402.36 180.146 402.52 180.514 402.632C180.898 402.744 181.298 402.8 181.714 402.8C182.29 402.8 182.826 402.72 183.322 402.56C183.834 402.384 184.274 402.152 184.642 401.864C185.026 401.56 185.322 401.208 185.53 400.808C185.754 400.392 185.866 399.936 185.866 399.44V398.24C185.402 398.112 184.866 397.992 184.258 397.88C183.666 397.768 182.986 397.712 182.218 397.712ZM193.404 396.896V404H191.556V391.592H193.404V393.752C193.82 393.08 194.364 392.512 195.036 392.048C195.708 391.568 196.58 391.328 197.652 391.328C198.404 391.328 199.068 391.448 199.644 391.688C200.236 391.928 200.732 392.272 201.132 392.72C201.548 393.152 201.86 393.672 202.068 394.28C202.292 394.888 202.404 395.56 202.404 396.296V404H200.556V396.752C200.556 395.6 200.26 394.688 199.668 394.016C199.076 393.344 198.228 393.008 197.124 393.008C196.596 393.008 196.1 393.104 195.636 393.296C195.188 393.472 194.796 393.736 194.46 394.088C194.124 394.424 193.86 394.832 193.668 395.312C193.492 395.792 193.404 396.32 193.404 396.896ZM214.865 400.52C214.865 401.112 214.745 401.64 214.505 402.104C214.281 402.552 213.969 402.936 213.569 403.256C213.185 403.576 212.721 403.824 212.177 404C211.649 404.16 211.073 404.24 210.449 404.24C209.553 404.24 208.649 404.08 207.737 403.76C206.825 403.424 206.017 402.976 205.313 402.416L206.249 401.096C206.921 401.608 207.617 402 208.337 402.272C209.073 402.544 209.809 402.68 210.545 402.68C211.297 402.68 211.913 402.504 212.393 402.152C212.873 401.8 213.113 401.32 213.113 400.712V400.664C213.113 400.36 213.025 400.096 212.849 399.872C212.689 399.648 212.465 399.456 212.177 399.296C211.889 399.12 211.553 398.968 211.169 398.84C210.801 398.712 210.417 398.592 210.017 398.48C209.537 398.336 209.049 398.184 208.553 398.024C208.073 397.848 207.633 397.632 207.233 397.376C206.849 397.12 206.529 396.8 206.273 396.416C206.033 396.032 205.913 395.552 205.913 394.976V394.928C205.913 394.4 206.017 393.92 206.225 393.488C206.433 393.04 206.721 392.664 207.089 392.36C207.473 392.04 207.921 391.8 208.433 391.64C208.961 391.464 209.529 391.376 210.137 391.376C210.905 391.376 211.681 391.504 212.465 391.76C213.249 392 213.961 392.328 214.601 392.744L213.761 394.136C213.185 393.768 212.577 393.48 211.937 393.272C211.313 393.048 210.697 392.936 210.089 392.936C209.353 392.936 208.769 393.112 208.337 393.464C207.905 393.8 207.689 394.224 207.689 394.736V394.784C207.689 395.072 207.777 395.328 207.953 395.552C208.129 395.76 208.361 395.944 208.649 396.104C208.953 396.264 209.297 396.408 209.681 396.536C210.065 396.664 210.465 396.792 210.881 396.92C211.361 397.064 211.833 397.224 212.297 397.4C212.777 397.576 213.209 397.8 213.593 398.072C213.977 398.344 214.281 398.672 214.505 399.056C214.745 399.44 214.865 399.912 214.865 400.472V400.52ZM220.314 404H218.466V386.48H220.314V404ZM229.091 393.056C228.355 393.056 227.683 393.144 227.075 393.32C226.483 393.48 225.899 393.696 225.323 393.968L224.771 392.456C225.459 392.136 226.155 391.888 226.859 391.712C227.563 391.52 228.371 391.424 229.283 391.424C230.979 391.424 232.283 391.848 233.195 392.696C234.107 393.528 234.563 394.768 234.563 396.416V404H232.787V402.128C232.355 402.688 231.771 403.184 231.035 403.616C230.315 404.048 229.403 404.264 228.299 404.264C227.723 404.264 227.155 404.184 226.595 404.024C226.051 403.864 225.555 403.624 225.107 403.304C224.675 402.968 224.323 402.56 224.051 402.08C223.795 401.6 223.667 401.032 223.667 400.376C223.667 399.72 223.795 399.144 224.051 398.648C224.307 398.136 224.667 397.712 225.131 397.376C225.611 397.04 226.171 396.784 226.811 396.608C227.467 396.432 228.187 396.344 228.971 396.344C229.771 396.344 230.467 396.392 231.059 396.488C231.651 396.584 232.227 396.712 232.787 396.872V396.44C232.787 395.32 232.459 394.48 231.803 393.92C231.163 393.344 230.259 393.056 229.091 393.056ZM229.163 397.712C227.995 397.712 227.099 397.944 226.475 398.408C225.851 398.872 225.539 399.504 225.539 400.304C225.539 400.704 225.619 401.056 225.779 401.36C225.955 401.664 226.187 401.928 226.475 402.152C226.763 402.36 227.091 402.52 227.459 402.632C227.843 402.744 228.243 402.8 228.659 402.8C229.235 402.8 229.771 402.72 230.267 402.56C230.779 402.384 231.219 402.152 231.587 401.864C231.971 401.56 232.267 401.208 232.475 400.808C232.699 400.392 232.811 399.936 232.811 399.44V398.24C232.347 398.112 231.811 397.992 231.203 397.88C230.611 397.768 229.931 397.712 229.163 397.712ZM240.88 393.224V400.472C240.88 401.24 241.072 401.776 241.456 402.08C241.84 402.384 242.344 402.536 242.968 402.536C243.288 402.536 243.584 402.504 243.856 402.44C244.144 402.376 244.448 402.264 244.768 402.104V403.688C244.448 403.864 244.104 403.992 243.736 404.072C243.384 404.168 242.984 404.216 242.536 404.216C242.04 404.216 241.576 404.152 241.144 404.024C240.712 403.896 240.336 403.696 240.016 403.424C239.712 403.136 239.472 402.768 239.296 402.32C239.12 401.872 239.032 401.336 239.032 400.712V393.224H237.304V391.592H239.032V387.848H240.88V391.592H244.816V393.224H240.88ZM248.84 398.48C248.904 399.152 249.064 399.752 249.32 400.28C249.576 400.792 249.904 401.232 250.304 401.6C250.704 401.952 251.152 402.224 251.648 402.416C252.144 402.592 252.664 402.68 253.208 402.68C254.072 402.68 254.808 402.52 255.416 402.2C256.04 401.88 256.608 401.456 257.12 400.928L258.272 401.96C257.648 402.664 256.936 403.232 256.136 403.664C255.336 404.08 254.344 404.288 253.16 404.288C252.312 404.288 251.512 404.136 250.76 403.832C250.008 403.512 249.352 403.072 248.792 402.512C248.232 401.936 247.784 401.248 247.448 400.448C247.128 399.648 246.968 398.768 246.968 397.808C246.968 396.912 247.112 396.072 247.4 395.288C247.704 394.488 248.12 393.8 248.648 393.224C249.176 392.632 249.8 392.168 250.52 391.832C251.256 391.496 252.056 391.328 252.92 391.328C253.832 391.328 254.648 391.504 255.368 391.856C256.088 392.192 256.696 392.656 257.192 393.248C257.688 393.84 258.064 394.536 258.32 395.336C258.576 396.136 258.704 396.992 258.704 397.904C258.704 397.984 258.704 398.072 258.704 398.168C258.704 398.264 258.696 398.368 258.68 398.48H248.84ZM248.84 397.112H256.832C256.784 396.552 256.664 396.016 256.472 395.504C256.296 394.992 256.04 394.544 255.704 394.16C255.384 393.776 254.984 393.472 254.504 393.248C254.04 393.008 253.496 392.888 252.872 392.888C252.328 392.888 251.824 393 251.36 393.224C250.896 393.432 250.488 393.728 250.136 394.112C249.784 394.48 249.496 394.92 249.272 395.432C249.048 395.944 248.904 396.504 248.84 397.112ZM273.747 404H271.899V401.504C271.643 401.872 271.355 402.224 271.035 402.56C270.731 402.896 270.387 403.192 270.003 403.448C269.619 403.704 269.187 403.904 268.707 404.048C268.243 404.192 267.723 404.264 267.147 404.264C266.395 404.264 265.667 404.12 264.963 403.832C264.259 403.544 263.627 403.128 263.067 402.584C262.507 402.024 262.059 401.344 261.723 400.544C261.387 399.744 261.219 398.832 261.219 397.808C261.219 396.784 261.387 395.872 261.723 395.072C262.059 394.272 262.507 393.6 263.067 393.056C263.627 392.496 264.259 392.072 264.963 391.784C265.667 391.48 266.395 391.328 267.147 391.328C267.723 391.328 268.251 391.4 268.731 391.544C269.211 391.688 269.643 391.88 270.027 392.12C270.411 392.36 270.755 392.64 271.059 392.96C271.379 393.28 271.659 393.616 271.899 393.968V386.48H273.747V404ZM271.971 397.784C271.971 397.064 271.843 396.408 271.587 395.816C271.347 395.224 271.011 394.72 270.579 394.304C270.163 393.888 269.683 393.568 269.139 393.344C268.611 393.104 268.059 392.984 267.483 392.984C266.875 392.984 266.307 393.096 265.779 393.32C265.251 393.528 264.787 393.84 264.387 394.256C264.003 394.656 263.691 395.16 263.451 395.768C263.227 396.36 263.115 397.032 263.115 397.784C263.115 398.52 263.227 399.184 263.451 399.776C263.691 400.368 264.011 400.88 264.411 401.312C264.811 401.728 265.275 402.048 265.803 402.272C266.331 402.496 266.891 402.608 267.483 402.608C268.059 402.608 268.611 402.496 269.139 402.272C269.683 402.032 270.163 401.704 270.579 401.288C271.011 400.872 271.347 400.368 271.587 399.776C271.843 399.168 271.971 398.504 271.971 397.784ZM295.728 401.888C295.104 402.592 294.392 403.168 293.592 403.616C292.808 404.064 291.832 404.288 290.664 404.288C289.752 404.288 288.904 404.12 288.12 403.784C287.352 403.432 286.68 402.968 286.104 402.392C285.544 401.8 285.104 401.112 284.784 400.328C284.464 399.544 284.304 398.712 284.304 397.832C284.304 396.952 284.464 396.12 284.784 395.336C285.104 394.536 285.544 393.84 286.104 393.248C286.68 392.656 287.352 392.192 288.12 391.856C288.904 391.504 289.752 391.328 290.664 391.328C291.256 391.328 291.792 391.384 292.272 391.496C292.752 391.608 293.192 391.768 293.592 391.976C293.992 392.168 294.36 392.4 294.696 392.672C295.032 392.944 295.344 393.232 295.632 393.536L294.408 394.832C293.912 394.32 293.368 393.88 292.776 393.512C292.2 393.144 291.488 392.96 290.64 392.96C290.016 392.96 289.432 393.088 288.888 393.344C288.344 393.584 287.872 393.928 287.472 394.376C287.072 394.808 286.76 395.32 286.536 395.912C286.312 396.488 286.2 397.112 286.2 397.784C286.2 398.456 286.312 399.088 286.536 399.68C286.776 400.272 287.096 400.792 287.496 401.24C287.912 401.672 288.392 402.016 288.936 402.272C289.496 402.512 290.104 402.632 290.76 402.632C291.56 402.632 292.264 402.456 292.872 402.104C293.496 401.752 294.056 401.312 294.552 400.784L295.728 401.888ZM299.535 398.48C299.599 399.152 299.759 399.752 300.015 400.28C300.271 400.792 300.599 401.232 300.999 401.6C301.399 401.952 301.847 402.224 302.343 402.416C302.839 402.592 303.359 402.68 303.903 402.68C304.767 402.68 305.503 402.52 306.111 402.2C306.735 401.88 307.303 401.456 307.815 400.928L308.967 401.96C308.343 402.664 307.631 403.232 306.831 403.664C306.031 404.08 305.039 404.288 303.855 404.288C303.007 404.288 302.207 404.136 301.455 403.832C300.703 403.512 300.047 403.072 299.487 402.512C298.927 401.936 298.479 401.248 298.143 400.448C297.823 399.648 297.663 398.768 297.663 397.808C297.663 396.912 297.807 396.072 298.095 395.288C298.399 394.488 298.815 393.8 299.343 393.224C299.871 392.632 300.495 392.168 301.215 391.832C301.951 391.496 302.751 391.328 303.615 391.328C304.527 391.328 305.343 391.504 306.063 391.856C306.783 392.192 307.391 392.656 307.887 393.248C308.383 393.84 308.759 394.536 309.015 395.336C309.271 396.136 309.399 396.992 309.399 397.904C309.399 397.984 309.399 398.072 309.399 398.168C309.399 398.264 309.391 398.368 309.375 398.48H299.535ZM299.535 397.112H307.527C307.479 396.552 307.359 396.016 307.167 395.504C306.991 394.992 306.735 394.544 306.399 394.16C306.079 393.776 305.679 393.472 305.199 393.248C304.735 393.008 304.191 392.888 303.567 392.888C303.023 392.888 302.519 393 302.055 393.224C301.591 393.432 301.183 393.728 300.831 394.112C300.479 394.48 300.191 394.92 299.967 395.432C299.743 395.944 299.599 396.504 299.535 397.112ZM314.482 399.056V404H312.634V391.592H314.482V394.832C314.706 394.32 314.986 393.848 315.322 393.416C315.658 392.984 316.042 392.616 316.474 392.312C316.906 391.992 317.378 391.752 317.89 391.592C318.402 391.432 318.954 391.36 319.546 391.376V393.368H319.402C318.73 393.368 318.09 393.488 317.482 393.728C316.89 393.968 316.37 394.328 315.922 394.808C315.474 395.288 315.122 395.888 314.866 396.608C314.61 397.312 314.482 398.128 314.482 399.056ZM324.857 393.224V400.472C324.857 401.24 325.049 401.776 325.433 402.08C325.817 402.384 326.321 402.536 326.945 402.536C327.265 402.536 327.561 402.504 327.833 402.44C328.121 402.376 328.425 402.264 328.745 402.104V403.688C328.425 403.864 328.081 403.992 327.713 404.072C327.361 404.168 326.961 404.216 326.513 404.216C326.017 404.216 325.553 404.152 325.121 404.024C324.689 403.896 324.313 403.696 323.993 403.424C323.689 403.136 323.449 402.768 323.273 402.32C323.097 401.872 323.009 401.336 323.009 400.712V393.224H321.281V391.592H323.009V387.848H324.857V391.592H328.793V393.224H324.857ZM334.224 388.88H332.112V386.84H334.224V388.88ZM334.08 404H332.232V391.592H334.08V404ZM340.889 391.64H344.825V393.224H340.913V404H339.065V393.224H337.361V391.616H339.065V390.536C339.065 389.176 339.385 388.144 340.025 387.44C340.681 386.736 341.609 386.384 342.809 386.384C343.241 386.384 343.609 386.408 343.913 386.456C344.233 386.504 344.545 386.584 344.849 386.696V388.304C344.513 388.208 344.209 388.136 343.937 388.088C343.665 388.024 343.369 387.992 343.049 387.992C341.609 387.992 340.889 388.872 340.889 390.632V391.64ZM349.341 388.88H347.229V386.84H349.341V388.88ZM349.197 404H347.349V391.592H349.197V404ZM364.142 401.888C363.518 402.592 362.806 403.168 362.006 403.616C361.222 404.064 360.246 404.288 359.078 404.288C358.166 404.288 357.318 404.12 356.534 403.784C355.766 403.432 355.094 402.968 354.518 402.392C353.958 401.8 353.518 401.112 353.198 400.328C352.878 399.544 352.718 398.712 352.718 397.832C352.718 396.952 352.878 396.12 353.198 395.336C353.518 394.536 353.958 393.84 354.518 393.248C355.094 392.656 355.766 392.192 356.534 391.856C357.318 391.504 358.166 391.328 359.078 391.328C359.67 391.328 360.206 391.384 360.686 391.496C361.166 391.608 361.606 391.768 362.006 391.976C362.406 392.168 362.774 392.4 363.11 392.672C363.446 392.944 363.758 393.232 364.046 393.536L362.822 394.832C362.326 394.32 361.782 393.88 361.19 393.512C360.614 393.144 359.902 392.96 359.054 392.96C358.43 392.96 357.846 393.088 357.302 393.344C356.758 393.584 356.286 393.928 355.886 394.376C355.486 394.808 355.174 395.32 354.95 395.912C354.726 396.488 354.614 397.112 354.614 397.784C354.614 398.456 354.726 399.088 354.95 399.68C355.19 400.272 355.51 400.792 355.91 401.24C356.326 401.672 356.806 402.016 357.35 402.272C357.91 402.512 358.518 402.632 359.174 402.632C359.974 402.632 360.678 402.456 361.286 402.104C361.91 401.752 362.47 401.312 362.966 400.784L364.142 401.888ZM371.685 393.056C370.949 393.056 370.277 393.144 369.669 393.32C369.077 393.48 368.493 393.696 367.917 393.968L367.365 392.456C368.053 392.136 368.749 391.888 369.453 391.712C370.157 391.52 370.965 391.424 371.877 391.424C373.573 391.424 374.877 391.848 375.789 392.696C376.701 393.528 377.157 394.768 377.157 396.416V404H375.381V402.128C374.949 402.688 374.365 403.184 373.629 403.616C372.909 404.048 371.997 404.264 370.893 404.264C370.317 404.264 369.749 404.184 369.189 404.024C368.645 403.864 368.149 403.624 367.701 403.304C367.269 402.968 366.917 402.56 366.645 402.08C366.389 401.6 366.261 401.032 366.261 400.376C366.261 399.72 366.389 399.144 366.645 398.648C366.901 398.136 367.261 397.712 367.725 397.376C368.205 397.04 368.765 396.784 369.405 396.608C370.061 396.432 370.781 396.344 371.565 396.344C372.365 396.344 373.061 396.392 373.653 396.488C374.245 396.584 374.821 396.712 375.381 396.872V396.44C375.381 395.32 375.053 394.48 374.397 393.92C373.757 393.344 372.853 393.056 371.685 393.056ZM371.757 397.712C370.589 397.712 369.693 397.944 369.069 398.408C368.445 398.872 368.133 399.504 368.133 400.304C368.133 400.704 368.213 401.056 368.373 401.36C368.549 401.664 368.781 401.928 369.069 402.152C369.357 402.36 369.685 402.52 370.053 402.632C370.437 402.744 370.837 402.8 371.253 402.8C371.829 402.8 372.365 402.72 372.861 402.56C373.373 402.384 373.813 402.152 374.181 401.864C374.565 401.56 374.861 401.208 375.069 400.808C375.293 400.392 375.405 399.936 375.405 399.44V398.24C374.941 398.112 374.405 397.992 373.797 397.88C373.205 397.768 372.525 397.712 371.757 397.712ZM383.474 393.224V400.472C383.474 401.24 383.666 401.776 384.05 402.08C384.434 402.384 384.938 402.536 385.562 402.536C385.882 402.536 386.178 402.504 386.45 402.44C386.738 402.376 387.042 402.264 387.362 402.104V403.688C387.042 403.864 386.698 403.992 386.33 404.072C385.978 404.168 385.578 404.216 385.13 404.216C384.634 404.216 384.17 404.152 383.738 404.024C383.306 403.896 382.93 403.696 382.61 403.424C382.306 403.136 382.066 402.768 381.89 402.32C381.714 401.872 381.626 401.336 381.626 400.712V393.224H379.898V391.592H381.626V387.848H383.474V391.592H387.41V393.224H383.474ZM391.434 398.48C391.498 399.152 391.658 399.752 391.914 400.28C392.17 400.792 392.498 401.232 392.898 401.6C393.298 401.952 393.746 402.224 394.242 402.416C394.738 402.592 395.258 402.68 395.802 402.68C396.666 402.68 397.402 402.52 398.01 402.2C398.634 401.88 399.202 401.456 399.714 400.928L400.866 401.96C400.242 402.664 399.53 403.232 398.73 403.664C397.93 404.08 396.938 404.288 395.754 404.288C394.906 404.288 394.106 404.136 393.354 403.832C392.602 403.512 391.946 403.072 391.386 402.512C390.826 401.936 390.378 401.248 390.042 400.448C389.722 399.648 389.562 398.768 389.562 397.808C389.562 396.912 389.706 396.072 389.994 395.288C390.298 394.488 390.714 393.8 391.242 393.224C391.77 392.632 392.394 392.168 393.114 391.832C393.85 391.496 394.65 391.328 395.514 391.328C396.426 391.328 397.242 391.504 397.962 391.856C398.682 392.192 399.29 392.656 399.786 393.248C400.282 393.84 400.658 394.536 400.914 395.336C401.17 396.136 401.298 396.992 401.298 397.904C401.298 397.984 401.298 398.072 401.298 398.168C401.298 398.264 401.29 398.368 401.274 398.48H391.434ZM391.434 397.112H399.426C399.378 396.552 399.258 396.016 399.066 395.504C398.89 394.992 398.634 394.544 398.298 394.16C397.978 393.776 397.578 393.472 397.098 393.248C396.634 393.008 396.09 392.888 395.466 392.888C394.922 392.888 394.418 393 393.954 393.224C393.49 393.432 393.082 393.728 392.73 394.112C392.378 394.48 392.09 394.92 391.866 395.432C391.642 395.944 391.498 396.504 391.434 397.112ZM413.053 400.52C413.053 401.112 412.933 401.64 412.693 402.104C412.469 402.552 412.157 402.936 411.757 403.256C411.373 403.576 410.909 403.824 410.365 404C409.837 404.16 409.261 404.24 408.637 404.24C407.741 404.24 406.837 404.08 405.925 403.76C405.013 403.424 404.205 402.976 403.501 402.416L404.437 401.096C405.109 401.608 405.805 402 406.525 402.272C407.261 402.544 407.997 402.68 408.733 402.68C409.485 402.68 410.101 402.504 410.581 402.152C411.061 401.8 411.301 401.32 411.301 400.712V400.664C411.301 400.36 411.213 400.096 411.037 399.872C410.877 399.648 410.653 399.456 410.365 399.296C410.077 399.12 409.741 398.968 409.357 398.84C408.989 398.712 408.605 398.592 408.205 398.48C407.725 398.336 407.237 398.184 406.741 398.024C406.261 397.848 405.821 397.632 405.421 397.376C405.037 397.12 404.717 396.8 404.461 396.416C404.221 396.032 404.101 395.552 404.101 394.976V394.928C404.101 394.4 404.205 393.92 404.413 393.488C404.621 393.04 404.909 392.664 405.277 392.36C405.661 392.04 406.109 391.8 406.621 391.64C407.149 391.464 407.717 391.376 408.325 391.376C409.093 391.376 409.869 391.504 410.653 391.76C411.437 392 412.149 392.328 412.789 392.744L411.949 394.136C411.373 393.768 410.765 393.48 410.125 393.272C409.501 393.048 408.885 392.936 408.277 392.936C407.541 392.936 406.957 393.112 406.525 393.464C406.093 393.8 405.877 394.224 405.877 394.736V394.784C405.877 395.072 405.965 395.328 406.141 395.552C406.317 395.76 406.549 395.944 406.837 396.104C407.141 396.264 407.485 396.408 407.869 396.536C408.253 396.664 408.653 396.792 409.069 396.92C409.549 397.064 410.021 397.224 410.485 397.4C410.965 397.576 411.397 397.8 411.781 398.072C412.165 398.344 412.469 398.672 412.693 399.056C412.933 399.44 413.053 399.912 413.053 400.472V400.52ZM434.937 391.592L429.729 404.408C429.201 405.688 428.609 406.592 427.953 407.12C427.313 407.648 426.529 407.912 425.601 407.912C425.089 407.912 424.625 407.856 424.209 407.744C423.793 407.648 423.377 407.496 422.961 407.288L423.585 405.824C423.889 405.984 424.185 406.096 424.473 406.16C424.777 406.24 425.129 406.28 425.529 406.28C426.089 406.28 426.561 406.112 426.945 405.776C427.329 405.44 427.705 404.832 428.073 403.952L422.433 391.592H424.473L428.985 401.936L432.969 391.592H434.937ZM438.238 398.48C438.302 399.152 438.462 399.752 438.718 400.28C438.974 400.792 439.302 401.232 439.702 401.6C440.102 401.952 440.55 402.224 441.046 402.416C441.542 402.592 442.062 402.68 442.606 402.68C443.47 402.68 444.206 402.52 444.814 402.2C445.438 401.88 446.006 401.456 446.518 400.928L447.67 401.96C447.046 402.664 446.334 403.232 445.534 403.664C444.734 404.08 443.742 404.288 442.558 404.288C441.71 404.288 440.91 404.136 440.158 403.832C439.406 403.512 438.75 403.072 438.19 402.512C437.63 401.936 437.182 401.248 436.846 400.448C436.526 399.648 436.366 398.768 436.366 397.808C436.366 396.912 436.51 396.072 436.798 395.288C437.102 394.488 437.518 393.8 438.046 393.224C438.574 392.632 439.198 392.168 439.918 391.832C440.654 391.496 441.454 391.328 442.318 391.328C443.23 391.328 444.046 391.504 444.766 391.856C445.486 392.192 446.094 392.656 446.59 393.248C447.086 393.84 447.462 394.536 447.718 395.336C447.974 396.136 448.102 396.992 448.102 397.904C448.102 397.984 448.102 398.072 448.102 398.168C448.102 398.264 448.094 398.368 448.078 398.48H438.238ZM438.238 397.112H446.23C446.182 396.552 446.062 396.016 445.87 395.504C445.694 394.992 445.438 394.544 445.102 394.16C444.782 393.776 444.382 393.472 443.902 393.248C443.438 393.008 442.894 392.888 442.27 392.888C441.726 392.888 441.222 393 440.758 393.224C440.294 393.432 439.886 393.728 439.534 394.112C439.182 394.48 438.894 394.92 438.67 395.432C438.446 395.944 438.302 396.504 438.238 397.112ZM453.833 393.224V400.472C453.833 401.24 454.025 401.776 454.409 402.08C454.793 402.384 455.297 402.536 455.921 402.536C456.241 402.536 456.537 402.504 456.809 402.44C457.097 402.376 457.401 402.264 457.721 402.104V403.688C457.401 403.864 457.057 403.992 456.689 404.072C456.337 404.168 455.937 404.216 455.489 404.216C454.993 404.216 454.529 404.152 454.097 404.024C453.665 403.896 453.289 403.696 452.969 403.424C452.665 403.136 452.425 402.768 452.249 402.32C452.073 401.872 451.985 401.336 451.985 400.712V393.224H450.257V391.592H451.985V387.848H453.833V391.592H457.769V393.224H453.833Z" fill="#474B58"/>
<path d="M41.264 428.936V443H38.288V428.936H32.96V426.2H46.592V428.936H41.264ZM50.5561 438.176V443H47.6521V430.328H50.5561V433.184C50.9561 432.224 51.5241 431.456 52.2601 430.88C52.9961 430.304 53.9241 430.04 55.0441 430.088V433.16H54.8761C54.2361 433.16 53.6521 433.264 53.1241 433.472C52.5961 433.68 52.1401 433.992 51.7561 434.408C51.3721 434.824 51.0761 435.352 50.8681 435.992C50.6601 436.616 50.5561 437.344 50.5561 438.176ZM67.5888 443H64.7088V441.44C64.2768 441.952 63.7248 442.384 63.0528 442.736C62.3808 443.088 61.5648 443.264 60.6048 443.264C59.9968 443.264 59.4208 443.176 58.8768 443C58.3328 442.84 57.8528 442.6 57.4368 442.28C57.0368 441.944 56.7088 441.536 56.4528 441.056C56.2128 440.56 56.0928 439.992 56.0928 439.352V439.304C56.0928 438.616 56.2208 438.016 56.4768 437.504C56.7328 436.992 57.0848 436.568 57.5328 436.232C57.9968 435.896 58.5408 435.648 59.1648 435.488C59.8048 435.312 60.4928 435.224 61.2288 435.224C61.9968 435.224 62.6448 435.272 63.1728 435.368C63.7168 435.464 64.2368 435.592 64.7328 435.752V435.44C64.7328 434.56 64.4608 433.888 63.9168 433.424C63.3888 432.96 62.6208 432.728 61.6128 432.728C60.8928 432.728 60.2528 432.8 59.6928 432.944C59.1328 433.088 58.5648 433.28 57.9888 433.52L57.1968 431.192C57.9008 430.872 58.6208 430.616 59.3568 430.424C60.0928 430.232 60.9808 430.136 62.0208 430.136C63.9088 430.136 65.3088 430.608 66.2208 431.552C67.1328 432.48 67.5888 433.792 67.5888 435.488V443ZM64.7808 438.416V437.624C64.4128 437.48 63.9728 437.36 63.4608 437.264C62.9648 437.168 62.4368 437.12 61.8768 437.12C60.9648 437.12 60.2528 437.296 59.7408 437.648C59.2288 438 58.9728 438.504 58.9728 439.16V439.208C58.9728 439.816 59.2048 440.28 59.6688 440.6C60.1488 440.92 60.7328 441.08 61.4208 441.08C61.9008 441.08 62.3408 441.016 62.7408 440.888C63.1568 440.76 63.5168 440.584 63.8208 440.36C64.1248 440.12 64.3568 439.84 64.5168 439.52C64.6928 439.184 64.7808 438.816 64.7808 438.416ZM73.9468 435.848V443H71.0428V430.328H73.9468V432.296C74.1548 431.992 74.3788 431.712 74.6188 431.456C74.8748 431.184 75.1628 430.944 75.4828 430.736C75.8188 430.528 76.1788 430.368 76.5628 430.256C76.9628 430.128 77.4108 430.064 77.9068 430.064C79.3468 430.064 80.4588 430.504 81.2428 431.384C82.0268 432.264 82.4188 433.448 82.4188 434.936V443H79.5148V435.8C79.5148 434.808 79.2748 434.048 78.7948 433.52C78.3308 432.976 77.6668 432.704 76.8028 432.704C75.9548 432.704 75.2668 432.984 74.7388 433.544C74.2108 434.088 73.9468 434.856 73.9468 435.848ZM94.9736 439.256C94.9736 439.928 94.8536 440.512 94.6136 441.008C94.3736 441.504 94.0376 441.92 93.6056 442.256C93.1896 442.576 92.6936 442.824 92.1176 443C91.5416 443.16 90.9256 443.24 90.2696 443.24C89.3576 443.24 88.4296 443.08 87.4856 442.76C86.5576 442.44 85.6936 441.968 84.8936 441.344L86.1896 439.376C86.8776 439.888 87.5736 440.28 88.2776 440.552C88.9976 440.808 89.6856 440.936 90.3416 440.936C90.9656 440.936 91.4456 440.816 91.7816 440.576C92.1336 440.32 92.3096 439.984 92.3096 439.568V439.52C92.3096 439.28 92.2296 439.072 92.0696 438.896C91.9256 438.72 91.7176 438.568 91.4456 438.44C91.1896 438.296 90.8856 438.176 90.5336 438.08C90.1976 437.968 89.8456 437.856 89.4776 437.744C89.0136 437.6 88.5416 437.44 88.0616 437.264C87.5976 437.088 87.1736 436.864 86.7896 436.592C86.4216 436.304 86.1176 435.96 85.8776 435.56C85.6376 435.144 85.5176 434.632 85.5176 434.024V433.976C85.5176 433.384 85.6296 432.848 85.8536 432.368C86.0936 431.888 86.4136 431.48 86.8136 431.144C87.2296 430.808 87.7096 430.552 88.2536 430.376C88.8136 430.2 89.4056 430.112 90.0296 430.112C90.8296 430.112 91.6376 430.24 92.4536 430.496C93.2696 430.752 94.0136 431.104 94.6856 431.552L93.5336 433.616C92.9256 433.248 92.3096 432.96 91.6856 432.752C91.0616 432.528 90.4856 432.416 89.9576 432.416C89.3976 432.416 88.9576 432.536 88.6376 432.776C88.3336 433.016 88.1816 433.32 88.1816 433.688V433.736C88.1816 433.96 88.2616 434.16 88.4216 434.336C88.5816 434.496 88.7896 434.648 89.0456 434.792C89.3176 434.92 89.6216 435.048 89.9576 435.176C90.3096 435.288 90.6696 435.4 91.0376 435.512C91.5016 435.656 91.9656 435.824 92.4296 436.016C92.8936 436.208 93.3096 436.448 93.6776 436.736C94.0616 437.008 94.3736 437.344 94.6136 437.744C94.8536 438.144 94.9736 438.632 94.9736 439.208V439.256ZM100.998 443H98.0936V425.48H100.998V443ZM115.425 443H112.545V441.44C112.113 441.952 111.561 442.384 110.889 442.736C110.217 443.088 109.401 443.264 108.441 443.264C107.833 443.264 107.257 443.176 106.713 443C106.169 442.84 105.689 442.6 105.273 442.28C104.873 441.944 104.545 441.536 104.289 441.056C104.049 440.56 103.929 439.992 103.929 439.352V439.304C103.929 438.616 104.057 438.016 104.313 437.504C104.569 436.992 104.921 436.568 105.369 436.232C105.833 435.896 106.377 435.648 107.001 435.488C107.641 435.312 108.329 435.224 109.065 435.224C109.833 435.224 110.481 435.272 111.009 435.368C111.553 435.464 112.073 435.592 112.569 435.752V435.44C112.569 434.56 112.297 433.888 111.753 433.424C111.225 432.96 110.457 432.728 109.449 432.728C108.729 432.728 108.089 432.8 107.529 432.944C106.969 433.088 106.401 433.28 105.825 433.52L105.033 431.192C105.737 430.872 106.457 430.616 107.193 430.424C107.929 430.232 108.817 430.136 109.857 430.136C111.745 430.136 113.145 430.608 114.057 431.552C114.969 432.48 115.425 433.792 115.425 435.488V443ZM112.617 438.416V437.624C112.249 437.48 111.809 437.36 111.297 437.264C110.801 437.168 110.273 437.12 109.713 437.12C108.801 437.12 108.089 437.296 107.577 437.648C107.065 438 106.809 438.504 106.809 439.16V439.208C106.809 439.816 107.041 440.28 107.505 440.6C107.985 440.92 108.569 441.08 109.257 441.08C109.737 441.08 110.177 441.016 110.577 440.888C110.993 440.76 111.353 440.584 111.657 440.36C111.961 440.12 112.193 439.84 112.353 439.52C112.529 439.184 112.617 438.816 112.617 438.416ZM122.266 432.824V439.04C122.266 439.6 122.402 440.008 122.674 440.264C122.946 440.504 123.33 440.624 123.826 440.624C124.45 440.624 125.05 440.48 125.626 440.192V442.568C125.258 442.776 124.866 442.936 124.45 443.048C124.034 443.16 123.554 443.216 123.01 443.216C122.482 443.216 121.994 443.152 121.546 443.024C121.098 442.896 120.706 442.688 120.37 442.4C120.05 442.112 119.802 441.736 119.626 441.272C119.45 440.792 119.362 440.2 119.362 439.496V432.824H117.754V430.328H119.362V426.848H122.266V430.328H125.674V432.824H122.266ZM130.462 437.696C130.638 438.736 131.054 439.536 131.71 440.096C132.366 440.64 133.166 440.912 134.11 440.912C134.83 440.912 135.454 440.784 135.982 440.528C136.51 440.272 137.03 439.896 137.542 439.4L139.246 440.912C138.638 441.632 137.91 442.208 137.062 442.64C136.23 443.072 135.23 443.288 134.062 443.288C133.15 443.288 132.294 443.128 131.494 442.808C130.71 442.488 130.022 442.04 129.43 441.464C128.854 440.888 128.398 440.2 128.062 439.4C127.726 438.584 127.558 437.68 127.558 436.688C127.558 435.776 127.71 434.92 128.014 434.12C128.318 433.32 128.742 432.624 129.286 432.032C129.846 431.424 130.502 430.944 131.254 430.592C132.006 430.24 132.838 430.064 133.75 430.064C134.758 430.064 135.638 430.248 136.39 430.616C137.158 430.984 137.79 431.48 138.286 432.104C138.798 432.728 139.182 433.456 139.438 434.288C139.694 435.12 139.822 435.992 139.822 436.904C139.822 437.032 139.814 437.16 139.798 437.288C139.798 437.416 139.79 437.552 139.774 437.696H130.462ZM130.438 435.776H136.942C136.894 435.312 136.79 434.88 136.63 434.48C136.47 434.064 136.254 433.712 135.982 433.424C135.71 433.12 135.382 432.88 134.998 432.704C134.63 432.528 134.206 432.44 133.726 432.44C132.83 432.44 132.086 432.752 131.494 433.376C130.918 433.984 130.566 434.784 130.438 435.776ZM161.741 430.328L156.701 443.36C156.445 444.016 156.181 444.568 155.909 445.016C155.637 445.464 155.333 445.824 154.997 446.096C154.661 446.384 154.293 446.592 153.893 446.72C153.493 446.848 153.037 446.912 152.525 446.912C151.917 446.912 151.373 446.84 150.893 446.696C150.429 446.568 149.973 446.384 149.525 446.144L150.509 443.984C150.781 444.128 151.053 444.24 151.325 444.32C151.613 444.416 151.909 444.464 152.213 444.464C152.629 444.464 152.973 444.36 153.245 444.152C153.517 443.944 153.773 443.56 154.013 443L148.733 430.328H151.829L155.429 439.736L158.717 430.328H161.741ZM176.32 436.664C176.32 437.576 176.144 438.432 175.792 439.232C175.456 440.032 174.984 440.736 174.376 441.344C173.784 441.936 173.072 442.408 172.24 442.76C171.408 443.112 170.504 443.288 169.528 443.288C168.568 443.288 167.672 443.12 166.84 442.784C166.024 442.432 165.312 441.96 164.704 441.368C164.112 440.76 163.648 440.064 163.312 439.28C162.976 438.48 162.808 437.624 162.808 436.712C162.808 435.8 162.976 434.944 163.312 434.144C163.664 433.328 164.136 432.624 164.728 432.032C165.336 431.424 166.048 430.944 166.864 430.592C167.696 430.24 168.6 430.064 169.576 430.064C170.552 430.064 171.448 430.24 172.264 430.592C173.096 430.928 173.808 431.4 174.4 432.008C175.008 432.6 175.48 433.296 175.816 434.096C176.152 434.896 176.32 435.752 176.32 436.664ZM173.416 436.712C173.416 436.152 173.32 435.624 173.128 435.128C172.936 434.632 172.664 434.2 172.312 433.832C171.976 433.448 171.568 433.152 171.088 432.944C170.624 432.72 170.104 432.608 169.528 432.608C168.952 432.608 168.424 432.72 167.944 432.944C167.48 433.152 167.08 433.44 166.744 433.808C166.408 434.176 166.152 434.608 165.976 435.104C165.8 435.584 165.712 436.104 165.712 436.664C165.712 437.224 165.808 437.76 166 438.272C166.192 438.768 166.456 439.2 166.792 439.568C167.144 439.936 167.552 440.232 168.016 440.456C168.496 440.664 169.016 440.768 169.576 440.768C170.168 440.768 170.696 440.664 171.16 440.456C171.64 440.232 172.048 439.936 172.384 439.568C172.72 439.2 172.976 438.776 173.152 438.296C173.328 437.8 173.416 437.272 173.416 436.712ZM187.605 437.48V430.328H190.509V443H187.605V441.032C187.189 441.64 186.669 442.168 186.045 442.616C185.421 443.048 184.621 443.264 183.645 443.264C182.205 443.264 181.093 442.824 180.309 441.944C179.525 441.064 179.133 439.88 179.133 438.392V430.328H182.037V437.528C182.037 438.52 182.269 439.288 182.733 439.832C183.213 440.36 183.885 440.624 184.749 440.624C185.597 440.624 186.285 440.352 186.813 439.808C187.341 439.248 187.605 438.472 187.605 437.48ZM197.064 438.176V443H194.16V430.328H197.064V433.184C197.464 432.224 198.032 431.456 198.768 430.88C199.504 430.304 200.432 430.04 201.552 430.088V433.16H201.384C200.744 433.16 200.16 433.264 199.632 433.472C199.104 433.68 198.648 433.992 198.264 434.408C197.88 434.824 197.584 435.352 197.376 435.992C197.168 436.616 197.064 437.344 197.064 438.176ZM224.061 426.2V428.84H214.557V433.208H222.981V435.848H214.557V440.36H224.181V443H211.605V426.2H224.061ZM230.251 435.848V443H227.347V430.328H230.251V432.296C230.459 431.992 230.683 431.712 230.923 431.456C231.179 431.184 231.467 430.944 231.787 430.736C232.123 430.528 232.483 430.368 232.867 430.256C233.267 430.128 233.715 430.064 234.211 430.064C235.651 430.064 236.763 430.504 237.547 431.384C238.331 432.264 238.723 433.448 238.723 434.936V443H235.819V435.8C235.819 434.808 235.579 434.048 235.099 433.52C234.635 432.976 233.971 432.704 233.107 432.704C232.259 432.704 231.571 432.984 231.043 433.544C230.515 434.088 230.251 434.856 230.251 435.848ZM254.686 440.408C254.686 442.648 254.094 444.288 252.91 445.328C251.726 446.368 250.046 446.888 247.87 446.888C245.758 446.888 243.87 446.384 242.206 445.376L243.286 443.192C243.958 443.608 244.662 443.936 245.398 444.176C246.134 444.416 246.934 444.536 247.798 444.536C249.094 444.536 250.086 444.208 250.774 443.552C251.462 442.896 251.806 441.928 251.806 440.648V439.664C251.278 440.352 250.662 440.912 249.958 441.344C249.254 441.776 248.382 441.992 247.342 441.992C246.59 441.992 245.87 441.864 245.182 441.608C244.494 441.336 243.878 440.944 243.334 440.432C242.806 439.92 242.382 439.296 242.062 438.56C241.742 437.824 241.582 436.984 241.582 436.04C241.582 435.096 241.742 434.256 242.062 433.52C242.382 432.784 242.806 432.16 243.334 431.648C243.878 431.136 244.494 430.744 245.182 430.472C245.886 430.2 246.606 430.064 247.342 430.064C248.414 430.064 249.294 430.28 249.982 430.712C250.686 431.128 251.286 431.632 251.782 432.224V430.328H254.686V440.408ZM251.83 436.04C251.83 435.512 251.726 435.032 251.518 434.6C251.326 434.152 251.062 433.776 250.726 433.472C250.39 433.168 249.99 432.936 249.526 432.776C249.078 432.6 248.606 432.512 248.11 432.512C247.598 432.512 247.126 432.6 246.694 432.776C246.262 432.936 245.878 433.168 245.542 433.472C245.222 433.776 244.966 434.144 244.774 434.576C244.598 435.008 244.51 435.488 244.51 436.016C244.51 436.544 244.606 437.024 244.798 437.456C244.99 437.888 245.246 438.264 245.566 438.584C245.886 438.888 246.262 439.128 246.694 439.304C247.142 439.464 247.614 439.544 248.11 439.544C248.606 439.544 249.078 439.464 249.526 439.304C249.99 439.128 250.39 438.888 250.726 438.584C251.062 438.264 251.326 437.896 251.518 437.48C251.726 437.048 251.83 436.568 251.83 436.04ZM261.38 443H258.476V425.48H261.38V443ZM268.344 428.384H265.224V425.624H268.344V428.384ZM268.248 443H265.344V430.328H268.248V443ZM281.091 439.256C281.091 439.928 280.971 440.512 280.731 441.008C280.491 441.504 280.155 441.92 279.723 442.256C279.307 442.576 278.811 442.824 278.235 443C277.659 443.16 277.043 443.24 276.387 443.24C275.475 443.24 274.547 443.08 273.603 442.76C272.675 442.44 271.811 441.968 271.011 441.344L272.307 439.376C272.995 439.888 273.691 440.28 274.395 440.552C275.115 440.808 275.803 440.936 276.459 440.936C277.083 440.936 277.563 440.816 277.899 440.576C278.251 440.32 278.427 439.984 278.427 439.568V439.52C278.427 439.28 278.347 439.072 278.187 438.896C278.043 438.72 277.835 438.568 277.563 438.44C277.307 438.296 277.003 438.176 276.651 438.08C276.315 437.968 275.963 437.856 275.595 437.744C275.131 437.6 274.659 437.44 274.179 437.264C273.715 437.088 273.291 436.864 272.907 436.592C272.539 436.304 272.235 435.96 271.995 435.56C271.755 435.144 271.635 434.632 271.635 434.024V433.976C271.635 433.384 271.747 432.848 271.971 432.368C272.211 431.888 272.531 431.48 272.931 431.144C273.347 430.808 273.827 430.552 274.371 430.376C274.931 430.2 275.523 430.112 276.147 430.112C276.947 430.112 277.755 430.24 278.571 430.496C279.387 430.752 280.131 431.104 280.803 431.552L279.651 433.616C279.043 433.248 278.427 432.96 277.803 432.752C277.179 432.528 276.603 432.416 276.075 432.416C275.515 432.416 275.075 432.536 274.755 432.776C274.451 433.016 274.299 433.32 274.299 433.688V433.736C274.299 433.96 274.379 434.16 274.539 434.336C274.699 434.496 274.907 434.648 275.163 434.792C275.435 434.92 275.739 435.048 276.075 435.176C276.427 435.288 276.787 435.4 277.155 435.512C277.619 435.656 278.083 435.824 278.547 436.016C279.011 436.208 279.427 436.448 279.795 436.736C280.179 437.008 280.491 437.344 280.731 437.744C280.971 438.144 281.091 438.632 281.091 439.208V439.256ZM286.947 435.848V443H284.043V425.48H286.947V432.296C287.155 431.992 287.379 431.712 287.619 431.456C287.875 431.184 288.163 430.944 288.483 430.736C288.819 430.528 289.179 430.368 289.563 430.256C289.963 430.128 290.411 430.064 290.907 430.064C292.347 430.064 293.459 430.504 294.243 431.384C295.027 432.264 295.419 433.448 295.419 434.936V443H292.515V435.8C292.515 434.808 292.275 434.048 291.795 433.52C291.331 432.976 290.667 432.704 289.803 432.704C288.955 432.704 288.267 432.984 287.739 433.544C287.211 434.088 286.947 434.856 286.947 435.848ZM317.161 440.912C316.537 441.616 315.825 442.192 315.025 442.64C314.225 443.072 313.209 443.288 311.977 443.288C311.033 443.288 310.161 443.12 309.361 442.784C308.561 442.432 307.865 441.96 307.273 441.368C306.697 440.76 306.241 440.064 305.905 439.28C305.585 438.48 305.425 437.624 305.425 436.712C305.425 435.8 305.585 434.944 305.905 434.144C306.241 433.344 306.697 432.64 307.273 432.032C307.865 431.424 308.561 430.944 309.361 430.592C310.177 430.24 311.057 430.064 312.001 430.064C313.201 430.064 314.193 430.264 314.977 430.664C315.777 431.064 316.473 431.592 317.065 432.248L315.265 434.192C314.817 433.728 314.337 433.352 313.825 433.064C313.329 432.76 312.713 432.608 311.977 432.608C311.449 432.608 310.961 432.72 310.513 432.944C310.065 433.152 309.681 433.44 309.361 433.808C309.041 434.176 308.785 434.608 308.593 435.104C308.417 435.584 308.329 436.104 308.329 436.664C308.329 437.24 308.417 437.776 308.593 438.272C308.785 438.768 309.049 439.2 309.385 439.568C309.721 439.936 310.121 440.232 310.585 440.456C311.049 440.664 311.561 440.768 312.121 440.768C312.809 440.768 313.409 440.624 313.921 440.336C314.449 440.032 314.945 439.648 315.409 439.184L317.161 440.912ZM321.688 437.696C321.864 438.736 322.28 439.536 322.936 440.096C323.592 440.64 324.392 440.912 325.336 440.912C326.056 440.912 326.68 440.784 327.208 440.528C327.736 440.272 328.256 439.896 328.768 439.4L330.472 440.912C329.864 441.632 329.136 442.208 328.288 442.64C327.456 443.072 326.456 443.288 325.288 443.288C324.376 443.288 323.52 443.128 322.72 442.808C321.936 442.488 321.248 442.04 320.656 441.464C320.08 440.888 319.624 440.2 319.288 439.4C318.952 438.584 318.784 437.68 318.784 436.688C318.784 435.776 318.936 434.92 319.24 434.12C319.544 433.32 319.968 432.624 320.512 432.032C321.072 431.424 321.728 430.944 322.48 430.592C323.232 430.24 324.064 430.064 324.976 430.064C325.984 430.064 326.864 430.248 327.616 430.616C328.384 430.984 329.016 431.48 329.512 432.104C330.024 432.728 330.408 433.456 330.664 434.288C330.92 435.12 331.048 435.992 331.048 436.904C331.048 437.032 331.04 437.16 331.024 437.288C331.024 437.416 331.016 437.552 331 437.696H321.688ZM321.664 435.776H328.168C328.12 435.312 328.016 434.88 327.856 434.48C327.696 434.064 327.48 433.712 327.208 433.424C326.936 433.12 326.608 432.88 326.224 432.704C325.856 432.528 325.432 432.44 324.952 432.44C324.056 432.44 323.312 432.752 322.72 433.376C322.144 433.984 321.792 434.784 321.664 435.776ZM336.869 438.176V443H333.965V430.328H336.869V433.184C337.269 432.224 337.837 431.456 338.573 430.88C339.309 430.304 340.237 430.04 341.357 430.088V433.16H341.189C340.549 433.16 339.965 433.264 339.437 433.472C338.909 433.68 338.453 433.992 338.069 434.408C337.685 434.824 337.389 435.352 337.181 435.992C336.973 436.616 336.869 437.344 336.869 438.176ZM347.383 432.824V439.04C347.383 439.6 347.519 440.008 347.791 440.264C348.063 440.504 348.447 440.624 348.943 440.624C349.567 440.624 350.167 440.48 350.743 440.192V442.568C350.375 442.776 349.983 442.936 349.567 443.048C349.151 443.16 348.671 443.216 348.127 443.216C347.599 443.216 347.111 443.152 346.663 443.024C346.215 442.896 345.823 442.688 345.487 442.4C345.167 442.112 344.919 441.736 344.743 441.272C344.567 440.792 344.479 440.2 344.479 439.496V432.824H342.871V430.328H344.479V426.848H347.383V430.328H350.791V432.824H347.383ZM356.89 428.384H353.77V425.624H356.89V428.384ZM356.794 443H353.89V430.328H356.794V443ZM364.094 430.424H367.454V432.824H364.142V443H361.238V432.824H359.63V430.4H361.238V429.488C361.238 428.08 361.574 427.04 362.246 426.368C362.918 425.68 363.878 425.336 365.126 425.336C365.638 425.336 366.078 425.368 366.446 425.432C366.814 425.496 367.158 425.576 367.478 425.672V428.12C367.19 428.024 366.91 427.952 366.638 427.904C366.382 427.84 366.094 427.808 365.774 427.808C364.654 427.808 364.094 428.448 364.094 429.728V430.424ZM372.781 428.384H369.661V425.624H372.781V428.384ZM372.685 443H369.781V430.328H372.685V443ZM387.52 440.912C386.896 441.616 386.184 442.192 385.384 442.64C384.584 443.072 383.568 443.288 382.336 443.288C381.392 443.288 380.52 443.12 379.72 442.784C378.92 442.432 378.224 441.96 377.632 441.368C377.056 440.76 376.6 440.064 376.264 439.28C375.944 438.48 375.784 437.624 375.784 436.712C375.784 435.8 375.944 434.944 376.264 434.144C376.6 433.344 377.056 432.64 377.632 432.032C378.224 431.424 378.92 430.944 379.72 430.592C380.536 430.24 381.416 430.064 382.36 430.064C383.56 430.064 384.552 430.264 385.336 430.664C386.136 431.064 386.832 431.592 387.424 432.248L385.624 434.192C385.176 433.728 384.696 433.352 384.184 433.064C383.688 432.76 383.072 432.608 382.336 432.608C381.808 432.608 381.32 432.72 380.872 432.944C380.424 433.152 380.04 433.44 379.72 433.808C379.4 434.176 379.144 434.608 378.952 435.104C378.776 435.584 378.688 436.104 378.688 436.664C378.688 437.24 378.776 437.776 378.952 438.272C379.144 438.768 379.408 439.2 379.744 439.568C380.08 439.936 380.48 440.232 380.944 440.456C381.408 440.664 381.92 440.768 382.48 440.768C383.168 440.768 383.768 440.624 384.28 440.336C384.808 440.032 385.304 439.648 385.768 439.184L387.52 440.912ZM400.823 443H397.943V441.44C397.511 441.952 396.959 442.384 396.287 442.736C395.615 443.088 394.799 443.264 393.839 443.264C393.231 443.264 392.655 443.176 392.111 443C391.567 442.84 391.087 442.6 390.671 442.28C390.271 441.944 389.943 441.536 389.687 441.056C389.447 440.56 389.327 439.992 389.327 439.352V439.304C389.327 438.616 389.455 438.016 389.711 437.504C389.967 436.992 390.319 436.568 390.767 436.232C391.231 435.896 391.775 435.648 392.399 435.488C393.039 435.312 393.727 435.224 394.463 435.224C395.231 435.224 395.879 435.272 396.407 435.368C396.951 435.464 397.471 435.592 397.967 435.752V435.44C397.967 434.56 397.695 433.888 397.151 433.424C396.623 432.96 395.855 432.728 394.847 432.728C394.127 432.728 393.487 432.8 392.927 432.944C392.367 433.088 391.799 433.28 391.223 433.52L390.431 431.192C391.135 430.872 391.855 430.616 392.591 430.424C393.327 430.232 394.215 430.136 395.255 430.136C397.143 430.136 398.543 430.608 399.455 431.552C400.367 432.48 400.823 433.792 400.823 435.488V443ZM398.015 438.416V437.624C397.647 437.48 397.207 437.36 396.695 437.264C396.199 437.168 395.671 437.12 395.111 437.12C394.199 437.12 393.487 437.296 392.975 437.648C392.463 438 392.207 438.504 392.207 439.16V439.208C392.207 439.816 392.439 440.28 392.903 440.6C393.383 440.92 393.967 441.08 394.655 441.08C395.135 441.08 395.575 441.016 395.975 440.888C396.391 440.76 396.751 440.584 397.055 440.36C397.359 440.12 397.591 439.84 397.751 439.52C397.927 439.184 398.015 438.816 398.015 438.416ZM407.664 432.824V439.04C407.664 439.6 407.8 440.008 408.072 440.264C408.344 440.504 408.728 440.624 409.224 440.624C409.848 440.624 410.448 440.48 411.024 440.192V442.568C410.656 442.776 410.264 442.936 409.848 443.048C409.432 443.16 408.952 443.216 408.408 443.216C407.88 443.216 407.392 443.152 406.944 443.024C406.496 442.896 406.104 442.688 405.768 442.4C405.448 442.112 405.2 441.736 405.024 441.272C404.848 440.792 404.76 440.2 404.76 439.496V432.824H403.152V430.328H404.76V426.848H407.664V430.328H411.072V432.824H407.664ZM415.86 437.696C416.036 438.736 416.452 439.536 417.108 440.096C417.764 440.64 418.564 440.912 419.508 440.912C420.228 440.912 420.852 440.784 421.38 440.528C421.908 440.272 422.428 439.896 422.94 439.4L424.644 440.912C424.036 441.632 423.308 442.208 422.46 442.64C421.628 443.072 420.628 443.288 419.46 443.288C418.548 443.288 417.692 443.128 416.892 442.808C416.108 442.488 415.42 442.04 414.828 441.464C414.252 440.888 413.796 440.2 413.46 439.4C413.124 438.584 412.956 437.68 412.956 436.688C412.956 435.776 413.108 434.92 413.412 434.12C413.716 433.32 414.14 432.624 414.684 432.032C415.244 431.424 415.9 430.944 416.652 430.592C417.404 430.24 418.236 430.064 419.148 430.064C420.156 430.064 421.036 430.248 421.788 430.616C422.556 430.984 423.188 431.48 423.684 432.104C424.196 432.728 424.58 433.456 424.836 434.288C425.092 435.12 425.22 435.992 425.22 436.904C425.22 437.032 425.212 437.16 425.196 437.288C425.196 437.416 425.188 437.552 425.172 437.696H415.86ZM415.836 435.776H422.34C422.292 435.312 422.188 434.88 422.028 434.48C421.868 434.064 421.652 433.712 421.38 433.424C421.108 433.12 420.78 432.88 420.396 432.704C420.028 432.528 419.604 432.44 419.124 432.44C418.228 432.44 417.484 432.752 416.892 433.376C416.316 433.984 415.964 434.784 415.836 435.776Z" fill="#121316"/>
<defs>
<filter id="filter0_d_11_6520" x="107.82" y="76.6133" width="243.36" height="268.147" filterUnits="userSpaceOnUse" color-interpolation-filters="sRGB">
<feFlood flood-opacity="0" result="BackgroundImageFix"/>
<feColorMatrix in="SourceAlpha" type="matrix" values="0 0 0 0 0 0 0 0 0 0 0 0 0 0 0 0 0 0 127 0" result="hardAlpha"/>
<feOffset dy="-6.76"/>
<feGaussianBlur stdDeviation="6.76"/>
<feColorMatrix type="matrix" values="0 0 0 0 0.788235 0 0 0 0 0.803922 0 0 0 0 0.85098 0 0 0 0.349 0"/>
<feBlend mode="normal" in2="BackgroundImageFix" result="effect1_dropShadow_11_6520"/>
<feBlend mode="normal" in="SourceGraphic" in2="effect1_dropShadow_11_6520" result="shape"/>
</filter>
<linearGradient id="paint0_linear_11_6520" x1="229.5" y1="0" x2="229.5" y2="338" gradientUnits="userSpaceOnUse">
<stop stop-color="#E3ECFA"/>
<stop offset="1" stop-color="#DAE7FF"/>
</linearGradient>
<linearGradient id="paint1_linear_11_6520" x1="229.5" y1="0" x2="229.5" y2="338" gradientUnits="userSpaceOnUse">
<stop stop-color="#E3ECFA"/>
<stop offset="1" stop-color="#DAE7FF"/>
</linearGradient>
</defs>
</svg>
